<svg width="1440" height="976" viewBox="0 0 1440 976" fill="none" xmlns="http://www.w3.org/2000/svg">
<path d="M997.01 658C1001.79 653.85 1001.9 651.34 997.46 644.83C1001.5 637.59 1007.84 634.25 1016.02 634C1020.63 638 1024.85 642.69 1031.88 642.02C1039.75 641.27 1045.6 644.86 1049.01 651.64C1055.54 664.67 1066.95 670.18 1080.3 672.84C1088.3 674.43 1096.19 674.82 1104.17 671.67C1113.42 668.02 1122.86 664.59 1132.51 662.27C1142.75 659.82 1150.39 664 1154.92 672.75C1157.92 678.54 1161.1 680.13 1167.47 678.67C1173.7 677.24 1179.72 677.67 1185.34 680.71C1191.85 684.24 1198.13 684.23 1204.66 680.73C1209.44 678.17 1214.45 677.43 1220.02 678.68C1226.1 680.04 1232.42 680.5 1238.66 680.91C1242.52 681.16 1244.69 682.86 1246.19 686.27C1250.62 696.31 1254.09 695.84 1261.94 692.59C1267.86 690.14 1274.15 689.45 1279.57 693.41C1287.48 699.18 1296.18 698.56 1304.92 697.4C1312.6 696.39 1319.84 696.74 1326.23 701.57C1331.14 705.27 1335.63 704.54 1340.94 701.92C1344.7 700.06 1350.36 698.2 1353.53 699.73C1363.22 704.41 1373.17 703.8 1383.28 704.08C1393.53 704.37 1403.75 705.31 1413.99 705.96C1411.01 713.16 1405.99 716.28 1397.3 714.78C1392.63 713.97 1388.99 715.63 1385.41 717.44C1377.61 721.38 1377.72 721.61 1370.84 716.24C1363.15 710.24 1361.43 710.53 1354.43 716.94C1348.63 722.26 1342.13 724.13 1333.72 722.53C1326.08 721.07 1319.32 718.61 1312.62 714.95C1305.62 711.12 1298.83 713.61 1292.38 717.1C1288.3 719.31 1284.42 722.03 1280.12 723.61C1277.4 724.61 1273.55 724.97 1271.09 723.79C1263.12 719.95 1255.43 715.48 1247.87 710.85C1241.31 706.83 1237.71 706.61 1232.49 712.14C1226.3 718.7 1219.33 723.59 1210.71 726.51C1206.51 727.93 1202.56 728.39 1198.23 728.07C1193.13 727.69 1188.04 728.8 1183.06 726.04C1179.17 723.88 1175.43 722.04 1173.78 717.59C1173.38 716.52 1172.73 715.5 1172.02 714.59C1168.21 709.74 1165.07 708.37 1157.8 712.44C1147 718.48 1137.69 715.2 1128.03 710.53C1124.75 708.94 1121.51 707.04 1118.03 706.15C1114.14 705.15 1110.59 706.48 1107.74 709.7C1103.41 714.58 1098.74 719.06 1091.89 720.28C1082.12 722.02 1072.73 722.14 1064.99 714.49C1063.57 713.08 1062.22 711.59 1060.72 710.28C1057.76 707.69 1054.69 707.01 1051.34 709.79C1046.91 713.47 1041.93 715.48 1036.07 716.35C1030.78 717.14 1027.09 715.52 1023.61 712.11C1019.08 707.67 1012.35 707.48 1006.74 710.43C998.1 714.96 989.34 719.59 980.12 722.55C975.92 723.9 970.36 721.77 965.63 720.47C958.64 718.54 951.91 715.66 944.91 713.76C942.5 713.1 939.61 714.06 936.96 714.44C934.26 714.83 931.49 715.11 928.94 715.99C924.79 717.42 920.47 718.78 916.81 721.1C911.56 724.43 907.07 722.13 903.89 719.03C894.71 710.1 887.33 712.54 878.08 717.55C873.87 719.83 869.9 722.93 865.41 724.21C862.29 725.1 858.13 724.28 855.03 722.9C849.67 720.51 844.85 717.99 838.44 718.82C825.77 720.45 819.69 716.91 815.98 708.07C817.58 707.75 819.45 707.84 820.74 707.02C825.81 703.77 829.26 705.04 832.99 709.59C838.86 716.74 850.37 715.26 855.5 707.36C857.39 704.46 860.08 703.03 863.52 705.22C864.77 706.02 866.03 706.82 867.31 707.58C873.99 711.55 882.16 710.85 886.05 705.99C887.55 705.99 889.04 706.04 890.54 705.99C895.3 705.84 898.4 703.46 898.56 699.85C898.76 695.47 895.43 690.98 891.01 691.18C885.07 691.46 881.02 690.01 878.49 684.2C877.26 681.37 874.32 680.23 870.83 681.46C869.23 682.03 866.53 682.39 865.61 681.51C858.78 674.98 850.18 676.37 842.7 675.94C843.14 667.48 843.57 659.23 844.01 650.99C852.23 652.55 859.36 655.22 861.25 664.89C861.94 668.45 865.39 668.56 868.21 667.69C872.06 666.49 874.79 667.89 877.79 670.08C880.24 671.86 883.22 673.41 886.16 673.92C892.97 675.09 899.19 676.75 904.58 681.65C906.64 683.53 910.97 684.22 913.87 683.61C920.59 682.18 926.29 683.52 931.82 687.21C944.32 695.56 969.45 698.77 980.11 683.64C982.62 680.08 986.77 679.66 990.62 682.97C994 685.88 998 687.14 1002.14 684.76C1008.27 681.24 1014.49 681.82 1020.96 683.38C1022.44 683.74 1024.18 682.97 1025.8 682.72C1024.91 681.07 1024.18 678.11 1023.11 677.98C1015.65 677.08 1012.85 670.89 1008.64 666.23C1007.35 664.81 1005.37 664.02 1003.76 662.88C1001.49 661.28 999.25 659.62 997 657.99L997.01 658Z" fill="#EDF2F7"/>
<path d="M1413.98 705.98C1403.74 705.33 1393.52 704.39 1383.27 704.1C1373.17 703.82 1363.22 704.43 1353.52 699.75C1350.35 698.22 1344.69 700.08 1340.93 701.94C1335.62 704.56 1331.13 705.29 1326.22 701.59C1319.83 696.77 1312.59 696.41 1304.91 697.42C1296.17 698.57 1287.47 699.19 1279.56 693.43C1274.13 689.47 1267.84 690.16 1261.93 692.61C1254.08 695.85 1250.62 696.32 1246.18 686.29C1244.67 682.88 1242.51 681.18 1238.65 680.93C1232.41 680.52 1226.09 680.05 1220.01 678.7C1214.43 677.46 1209.43 678.19 1204.65 680.75C1198.12 684.25 1191.84 684.25 1185.33 680.73C1179.71 677.68 1173.7 677.26 1167.46 678.69C1161.08 680.15 1157.91 678.56 1154.91 672.77C1150.37 664.01 1142.73 659.83 1132.5 662.29C1122.85 664.6 1113.41 668.04 1104.16 671.69C1096.18 674.84 1088.29 674.45 1080.29 672.86C1066.94 670.21 1055.54 664.69 1049 651.66C1045.6 644.87 1039.75 641.29 1031.87 642.04C1024.83 642.71 1020.62 638.02 1016.01 634.02C1016.75 633.3 1017.37 632.19 1018.25 631.92C1024.42 630.01 1027.68 625.27 1029.89 619.77C1034.45 608.45 1039.22 604.87 1051.31 605.11C1056.06 605.2 1060.85 605.87 1065.53 606.78C1071.94 608.04 1075.39 606.97 1079.31 601.53C1082.22 597.49 1084.94 593.3 1087.91 589.31C1091.72 584.21 1096.23 581.9 1103.28 581.52C1112.21 581.04 1118.02 584.58 1123.72 590.15C1126.28 592.65 1129.31 591.92 1129.87 588.35C1130.91 581.73 1135 578.66 1141.02 578.33C1146.42 578.04 1150.96 580.86 1154.06 585.22C1156.6 588.79 1160.28 590.6 1163.85 589.62C1169.52 588.08 1174.33 589.7 1178.52 592.46C1184.67 596.51 1190.83 596.08 1197.21 594.36C1207.07 591.7 1212.89 594.43 1216.9 603.97C1217.86 606.25 1219.11 608.45 1219.77 610.81C1222.39 620.07 1222.32 620.09 1232.01 620.99C1235.69 621.33 1241.22 626.45 1241.49 630.2C1241.91 636.07 1242.19 641.97 1242.17 647.85C1242.15 652.16 1246.52 655.71 1250.37 654.07C1257.81 650.92 1266.19 653.95 1268.78 661.44C1270.85 667.43 1274.4 671.6 1280.35 673.07C1283.01 673.73 1286.22 673 1289 672.23C1297.4 669.88 1302.67 672.49 1304.78 681.12C1305.7 684.9 1307.95 686.31 1311.18 687.11C1311.94 687.3 1312.99 687.61 1313.52 687.26C1318.07 684.29 1322.17 686.44 1325.35 689.14C1329.99 693.07 1334.21 693.08 1338.19 689.14C1343.42 683.96 1350.34 683.5 1356.16 684.72C1361.48 685.83 1366.59 690.18 1370.72 694.2C1375.56 698.91 1377.35 699.65 1382.5 695.19C1385.66 692.46 1389.12 691.9 1392.49 694.48C1397.79 698.55 1403.93 700.07 1410.33 700.98C1413.21 701.39 1415.88 702.01 1414 705.96L1413.98 705.98Z" fill="#CED1ED"/>
<path d="M997.01 658C999.26 659.63 1001.49 661.29 1003.77 662.89C1005.39 664.03 1007.37 664.82 1008.65 666.24C1012.87 670.9 1015.66 677.09 1023.12 677.99C1024.19 678.12 1024.92 681.08 1025.81 682.73C1024.19 682.98 1022.44 683.74 1020.97 683.39C1014.51 681.83 1008.28 681.25 1002.15 684.77C998.01 687.15 994.01 685.89 990.63 682.98C986.77 679.67 982.62 680.09 980.12 683.65C969.46 698.78 944.33 695.56 931.83 687.22C926.3 683.53 920.6 682.19 913.88 683.62C910.98 684.24 906.66 683.54 904.59 681.66C899.2 676.76 892.98 675.09 886.17 673.93C883.23 673.43 880.24 671.88 877.8 670.09C874.79 667.9 872.06 666.5 868.22 667.7C865.4 668.58 861.95 668.46 861.26 664.9C859.37 655.23 852.24 652.55 844.02 651C843.01 646.9 845.22 641.52 848.66 639.72C852.86 637.51 858.64 638.09 861.51 641.29C864.08 644.15 867.47 646.72 865.31 651.63C864.95 652.45 867.2 655.64 868.4 655.74C877.05 656.43 884.98 661.84 894.2 659.46C895.64 659.09 898.74 661.91 899.78 663.92C901.7 667.62 903.46 668.45 907.61 667C911.49 665.65 915.96 665.57 920.15 665.7C924.12 665.82 925.28 663.55 926.28 660.58C927.773 656.14 930.853 654.257 935.52 654.93C939.64 655.52 942.6 653.65 944.84 650.41C946.43 648.1 947.53 645.28 949.56 643.47C954.3 639.22 964.45 641.38 967.32 647.16C968.01 648.55 967.55 650.64 967.28 652.36C967.03 653.91 966.32 655.39 966.09 656.05C971.83 659.06 976.77 662.35 982.21 664.13C984.13 664.76 987.18 661.53 989.85 660.36C992.15 659.35 994.64 658.77 997.04 658.01L997.01 658Z" fill="#CED1ED"/>
<path d="M886.04 705.98C882.14 710.84 873.97 711.54 867.3 707.57C866.02 706.81 864.77 706.01 863.51 705.21C860.06 703.02 857.37 704.44 855.49 707.35C850.36 715.25 838.85 716.74 832.98 709.58C829.25 705.03 825.8 703.76 820.73 707.01C819.45 707.83 817.58 707.73 815.97 708.06C805.73 705.03 795.04 703.09 785.6 695.75C790.43 692.6 795.39 693.54 799.69 694.37C804.28 695.26 807.75 694.2 811.34 691.86C814.25 689.96 817.22 688.14 820.24 686.41C824.29 684.09 828.33 681.78 833.33 683.92C834.45 684.4 836.1 684.34 837.27 683.9C842.9 681.79 847.08 684.01 851.32 687.56C852.96 688.93 855.93 689.63 858.08 689.29C862.75 688.56 866.23 688.79 867.7 694.2C868.66 697.73 871.63 698.12 874.89 698.07C882.43 697.97 883.64 698.93 886.05 705.98H886.04Z" fill="#CED1ED"/>
<path d="M949.02 422.01C949.31 422.02 949.6 422.04 949.89 422.05C949.6 422.03 949.31 422.02 949.02 422.01Z" fill="#EDF2F7"/>
<path d="M961.96 435.09C962.1 435.3 962.25 435.51 962.39 435.72C962.26 435.81 962.13 435.9 961.99 435.99C961.98 435.69 961.96 435.39 961.95 435.09H961.96Z" fill="#EDF2F7"/>
<path d="M267.03 443.04C270.67 440.4 274.23 437.63 277.98 435.16C286.38 429.62 293.87 434.75 301.62 437.32C312.12 440.79 317.33 439.02 322.71 431.45C326.54 426.06 331.28 424.18 337.77 425.71C345.2 427.47 349.29 425.15 352.46 418.15C358.19 405.48 365.33 394.64 380.11 390.54C392.6 387.08 403.57 389.46 414.21 395.8C417.2 397.58 420.15 399.48 422.92 401.59C428.85 406.12 435.06 405.59 441.37 402.81C447.54 400.1 453.55 397.02 459.76 394.38C465.19 392.07 467.91 387.51 469.61 382.46C471.77 376.05 476.1 371.8 481.36 368.12C490.74 361.55 501.38 358.77 512.51 359.71C517.27 360.11 521.88 363.5 526.32 365.97C529.33 367.65 532.1 369.88 534.65 372.22C542.12 379.07 550.3 380.46 559.54 376.24C567.75 372.49 576.11 372.34 584.81 374.81C588.97 375.99 593.69 375.19 597.86 376.35C605.67 378.53 614.32 378.91 619.34 387.33C623.97 395.1 632.73 397.21 642.55 394.93C649.65 393.29 655.2 390.22 660.97 386.28C664.49 383.87 669.27 383.23 673.55 382C686.28 378.32 695.55 384.32 704.32 392.61C708.12 396.2 712.95 398.7 717.33 401.66C723.22 405.63 729.45 409.17 734.93 413.64C739.37 417.26 748.1 419.07 753.44 415.88C761.02 411.36 769.06 411.79 777.18 414.55C786.7 417.79 794.6 423.35 801.31 430.77C805.46 435.36 809.87 439.61 816.9 438.46C818.46 438.2 820.26 438.38 821.55 437.66C827.3 434.45 832.66 435.25 837.12 439.6C842.06 444.42 846.27 449.99 851.07 454.96C853.83 457.82 857.05 460.26 860.25 462.65C864.07 465.51 866.67 463.12 868.91 460.16C872.88 454.93 875.74 454.6 880.98 458.43C887.66 463.31 894.56 467.9 901.21 472.83C902.72 473.95 903.53 476 904.75 477.56C907.88 481.55 907.26 484.1 902.02 484.98C899.21 483.68 896.16 482.75 893.65 481.02C887.6 476.84 881.19 475.89 874.24 477.83C867.11 479.82 860.26 479.67 853.44 476.3C844.63 471.95 838.44 473.23 831.37 480.11C829.96 481.48 828.34 482.7 826.64 483.68C818.42 488.39 809.74 487.55 801.02 485.53C788.34 482.61 777.25 476.39 766.61 469.14C759.38 464.21 753.62 464.79 747.6 471.01C744.1 474.63 739.95 476.37 735.09 475.93C731.66 475.62 728.19 474.9 724.93 473.8C712.42 469.6 700.15 467.58 688.13 475.38C683.19 478.58 678.17 476.45 673.33 474.61C671.78 474.02 670.36 473.1 668.82 472.47C662.91 470.07 657.65 470.42 652.98 475.5C648.76 480.08 643.32 480.46 638.18 477.1C636.24 475.83 634.36 474.46 632.53 473.03C622.88 465.49 612.9 460.07 600.11 465.67C597.31 466.89 593.33 467.2 590.49 466.22C583.22 463.69 576.48 459.56 569.14 457.35C564.94 456.08 558.45 455.48 555.68 457.79C549.3 463.11 542.97 466.24 534.63 466.15C528.51 466.08 526.13 469.06 526.02 475.3C525.99 476.8 526.11 478.31 525.96 479.79C525.55 483.75 523.3 486.5 519.42 486.88C511.26 487.69 503.24 486.98 495.85 482.84C486.29 477.48 476.86 473.26 465.01 475.45C457.9 476.76 450.01 474.68 445.3 467.5C443.3 464.45 441.31 461.37 439.63 458.13C436.78 452.62 432.44 448.77 427.08 445.89C417.79 440.89 407.44 440.26 397.33 439.18C388.69 438.25 379.83 439.76 371.42 436.18C369.43 435.33 366.9 435.77 364.89 435.63C368.16 442.88 371.22 449.59 374.21 456.33C376.11 460.61 374.96 464.6 372.31 468.04C363.83 479.09 340.02 482.3 331.8 471.43C325.8 463.5 318.66 461.15 308.75 467.52C303.71 470.76 300.03 469.43 296.31 464.61C294.6 462.4 292.79 460.14 290.61 458.43C286.28 455.02 281.75 451.84 277.14 448.81C273.91 446.68 270.42 444.95 267.04 443.04H267.03Z" fill="#EDF2F7"/>
<path d="M267.03 443.04C270.41 444.95 273.9 446.68 277.13 448.81C281.74 451.84 286.27 455.02 290.6 458.43C292.78 460.14 294.59 462.4 296.3 464.61C300.02 469.43 303.7 470.76 308.74 467.52C318.66 461.15 325.79 463.5 331.79 471.43C340.01 482.29 363.82 479.08 372.3 468.04C374.94 464.59 376.1 460.61 374.2 456.33C371.21 449.59 368.15 442.88 364.88 435.63C366.89 435.77 369.42 435.33 371.41 436.18C379.82 439.76 388.68 438.25 397.32 439.18C407.43 440.27 417.78 440.89 427.07 445.89C432.43 448.78 436.77 452.62 439.62 458.13C441.29 461.36 443.29 464.45 445.29 467.5C450 474.68 457.89 476.76 465 475.45C476.84 473.26 486.28 477.48 495.84 482.84C503.22 486.98 511.24 487.69 519.41 486.88C523.3 486.5 525.55 483.75 525.95 479.79C526.1 478.31 525.98 476.79 526.01 475.3C526.12 469.06 528.49 466.08 534.62 466.15C542.95 466.25 549.28 463.12 555.67 457.79C558.45 455.48 564.93 456.08 569.13 457.35C576.47 459.56 583.21 463.7 590.48 466.22C593.32 467.21 597.3 466.9 600.1 465.67C612.89 460.07 622.87 465.49 632.52 473.03C634.35 474.46 636.23 475.83 638.17 477.1C643.32 480.46 648.76 480.08 652.97 475.5C657.64 470.43 662.9 470.08 668.81 472.47C670.35 473.09 671.77 474.02 673.32 474.61C678.16 476.46 683.18 478.59 688.12 475.38C700.15 467.58 712.42 469.6 724.92 473.8C728.18 474.9 731.65 475.61 735.08 475.93C739.94 476.37 744.09 474.63 747.59 471.01C753.61 464.79 759.37 464.21 766.6 469.14C777.24 476.39 788.33 482.61 801.01 485.53C809.74 487.54 818.41 488.39 826.63 483.68C828.33 482.7 829.96 481.48 831.36 480.11C838.43 473.24 844.62 471.95 853.43 476.3C860.25 479.67 867.11 479.82 874.23 477.83C881.18 475.89 887.59 476.84 893.64 481.02C896.15 482.75 899.2 483.69 902.01 484.98C903.2 485.28 904.39 485.57 905.81 485.92C900.63 492.85 897.58 493.98 890.17 491.58C881.79 488.87 873.57 489.31 865.15 491.65C860.36 492.98 855.27 493.78 850.31 493.84C845.09 493.91 842.26 496.87 839.35 500.34C836.82 503.35 834.23 506.36 831.39 509.07C828.6 511.73 825.27 512.08 821.21 512.45C807.59 513.69 796.81 506.7 785.22 501.98C782.55 500.89 780.42 498.55 777.84 497.15C767.71 491.64 759.37 497.08 750.83 501.67C743.06 505.84 735.21 509.86 727.29 513.73C716.98 518.76 707.72 514.64 698.43 510.27C691.88 507.18 685.3 503.87 678.38 501.98C675.35 501.15 670.46 502.57 668.09 504.78C661.4 511.01 653.57 515 644.96 516.2C638.3 517.12 630.95 517.96 624.57 513.39C616.75 507.78 607.78 509 599.14 510.28C592.98 511.19 586.94 513.11 580.98 515.01C579.14 515.6 577.24 517.29 576.23 518.99C572.21 525.79 566.78 528.24 559.14 526.62C553.99 525.53 548.75 524.26 543.54 524.2C539.75 524.16 535.28 525.03 532.24 527.12C520.14 535.46 509.35 531.41 498.35 524.95C492.55 521.54 486.54 518.38 480.35 515.75C475.32 513.62 470.48 515.32 466.57 518.95C460.84 524.28 454.45 525.4 447.25 522.61C437.66 518.9 428.24 516.83 417.85 520.63C410.54 523.3 404.1 518.79 397.95 514.97C386.75 508 374.89 508.5 362.99 512.65C359.48 513.87 356.36 516.25 353.15 518.25C346.55 522.37 339.12 522.02 332.36 520.31C325.24 518.52 318.07 515.42 312.01 511.3C303.38 505.43 294.65 502.35 284.45 505.06C278.61 506.61 273.18 505.4 268.15 502.86C260.02 498.75 253.03 493.09 249.8 484.21C248.93 481.83 249.09 478.45 250.11 476.11C254.22 466.72 258.81 457.53 263.35 448.33C264.29 446.43 265.78 444.8 267.01 443.04H267.03Z" fill="#CED1ED"/>
<path d="M-154.99 315C-150.21 310.85 -150.1 308.34 -154.54 301.83C-150.5 294.59 -144.16 291.25 -135.98 291C-131.37 295 -127.15 299.69 -120.12 299.02C-112.25 298.27 -106.4 301.86 -102.99 308.64C-96.46 321.67 -85.05 327.18 -71.7 329.84C-63.7 331.43 -55.81 331.82 -47.83 328.67C-38.58 325.02 -29.14 321.59 -19.49 319.27C-9.25002 316.82 -1.61002 321 2.91998 329.75C5.91998 335.54 9.09997 337.13 15.47 335.67C21.7 334.24 27.72 334.67 33.34 337.71C39.85 341.24 46.13 341.23 52.66 337.73C57.44 335.17 62.45 334.43 68.02 335.68C74.1 337.04 80.42 337.5 86.66 337.91C90.52 338.16 92.69 339.86 94.19 343.27C98.62 353.31 102.09 352.84 109.94 349.59C115.86 347.14 122.15 346.45 127.57 350.41C135.48 356.18 144.18 355.56 152.92 354.4C160.6 353.39 167.84 353.74 174.23 358.57C179.14 362.27 183.63 361.54 188.94 358.92C192.7 357.06 198.36 355.2 201.53 356.73C211.22 361.41 221.17 360.8 231.28 361.08C241.53 361.37 251.75 362.31 261.99 362.96C259.01 370.16 253.99 373.28 245.3 371.78C240.63 370.97 236.99 372.63 233.41 374.44C225.61 378.38 225.72 378.61 218.84 373.24C211.15 367.24 209.43 367.53 202.43 373.94C196.63 379.26 190.13 381.13 181.72 379.53C174.08 378.07 167.32 375.61 160.62 371.95C153.62 368.12 146.83 370.61 140.38 374.1C136.3 376.31 132.42 379.03 128.12 380.61C125.4 381.61 121.55 381.97 119.09 380.79C111.12 376.95 103.43 372.48 95.87 367.85C89.31 363.83 85.71 363.61 80.49 369.14C74.3 375.7 67.33 380.59 58.71 383.51C54.51 384.93 50.56 385.39 46.23 385.07C41.13 384.69 36.04 385.8 31.06 383.04C27.17 380.88 23.43 379.04 21.78 374.59C21.38 373.52 20.73 372.5 20.02 371.59C16.21 366.74 13.07 365.37 5.79996 369.44C-5.00004 375.48 -14.31 372.2 -23.97 367.53C-27.25 365.94 -30.49 364.04 -33.97 363.15C-37.86 362.15 -41.41 363.48 -44.26 366.7C-48.59 371.58 -53.26 376.06 -60.11 377.28C-69.88 379.02 -79.27 379.14 -87.01 371.49C-88.43 370.08 -89.78 368.59 -91.28 367.28C-94.24 364.69 -97.31 364.01 -100.66 366.79C-105.09 370.47 -110.07 372.48 -115.93 373.35C-121.22 374.14 -124.91 372.52 -128.39 369.11C-132.92 364.67 -139.65 364.48 -145.26 367.43C-153.9 371.96 -162.66 376.59 -171.88 379.55C-176.08 380.9 -181.64 378.77 -186.37 377.47C-193.36 375.54 -200.09 372.66 -207.09 370.76C-209.5 370.1 -212.39 371.06 -215.04 371.44C-217.74 371.83 -220.51 372.11 -223.06 372.99C-227.21 374.42 -231.53 375.78 -235.19 378.1C-240.44 381.43 -244.93 379.13 -248.11 376.03C-257.29 367.1 -264.67 369.54 -273.92 374.55C-278.13 376.83 -282.1 379.93 -286.59 381.21C-289.71 382.1 -293.87 381.28 -296.97 379.9C-302.33 377.51 -307.15 374.99 -313.56 375.82C-326.23 377.45 -332.31 373.91 -336.02 365.07C-334.42 364.75 -332.55 364.84 -331.26 364.02C-326.19 360.77 -322.74 362.04 -319.01 366.59C-313.14 373.74 -301.63 372.26 -296.5 364.36C-294.61 361.46 -291.92 360.03 -288.48 362.22C-287.23 363.02 -285.97 363.82 -284.69 364.58C-278.01 368.55 -269.84 367.85 -265.95 362.99C-264.45 362.99 -262.96 363.04 -261.46 362.99C-256.7 362.84 -253.6 360.46 -253.44 356.85C-253.24 352.47 -256.57 347.98 -260.99 348.18C-266.93 348.46 -270.98 347.01 -273.51 341.2C-274.74 338.37 -277.68 337.23 -281.17 338.46C-282.77 339.03 -285.47 339.39 -286.39 338.51C-293.22 331.98 -301.82 333.37 -309.3 332.94C-308.86 324.48 -308.43 316.23 -307.99 307.99C-299.77 309.55 -292.64 312.22 -290.75 321.89C-290.06 325.45 -286.61 325.56 -283.79 324.69C-279.94 323.49 -277.21 324.89 -274.21 327.08C-271.76 328.86 -268.78 330.41 -265.84 330.92C-259.03 332.09 -252.81 333.75 -247.42 338.65C-245.36 340.53 -241.03 341.22 -238.13 340.61C-231.41 339.18 -225.71 340.52 -220.18 344.21C-207.68 352.56 -182.55 355.77 -171.89 340.64C-169.38 337.08 -165.23 336.66 -161.38 339.97C-158 342.88 -154 344.14 -149.86 341.76C-143.73 338.24 -137.51 338.82 -131.04 340.38C-129.56 340.74 -127.82 339.97 -126.2 339.72C-127.09 338.07 -127.82 335.11 -128.89 334.98C-136.35 334.08 -139.15 327.89 -143.36 323.23C-144.65 321.81 -146.63 321.02 -148.24 319.88C-150.51 318.28 -152.75 316.62 -155 314.99L-154.99 315Z" fill="#EDF2F7"/>
<path d="M261.98 362.98C251.74 362.33 241.52 361.39 231.27 361.1C221.17 360.82 211.22 361.43 201.52 356.75C198.35 355.22 192.69 357.08 188.93 358.94C183.62 361.56 179.13 362.29 174.22 358.59C167.83 353.77 160.59 353.41 152.91 354.42C144.17 355.57 135.47 356.19 127.56 350.43C122.13 346.47 115.84 347.16 109.93 349.61C102.08 352.85 98.62 353.32 94.18 343.29C92.67 339.88 90.51 338.18 86.65 337.93C80.41 337.52 74.09 337.05 68.01 335.7C62.43 334.46 57.43 335.19 52.65 337.75C46.12 341.25 39.84 341.25 33.33 337.73C27.71 334.68 21.7 334.26 15.46 335.69C9.08001 337.15 5.91002 335.56 2.91002 329.77C-1.62998 321.01 -9.26999 316.83 -19.5 319.29C-29.15 321.6 -38.59 325.04 -47.84 328.69C-55.82 331.84 -63.71 331.45 -71.71 329.86C-85.06 327.21 -96.46 321.69 -103 308.66C-106.4 301.87 -112.25 298.29 -120.13 299.04C-127.17 299.71 -131.38 295.02 -135.99 291.02C-135.25 290.3 -134.63 289.19 -133.75 288.92C-127.58 287.01 -124.32 282.27 -122.11 276.77C-117.55 265.45 -112.78 261.87 -100.69 262.11C-95.94 262.2 -91.15 262.87 -86.47 263.78C-80.06 265.04 -76.61 263.97 -72.69 258.53C-69.78 254.49 -67.06 250.3 -64.09 246.31C-60.28 241.21 -55.77 238.9 -48.72 238.52C-39.79 238.04 -33.98 241.58 -28.28 247.15C-25.72 249.65 -22.69 248.92 -22.13 245.35C-21.09 238.73 -17 235.66 -10.98 235.33C-5.58 235.04 -1.03999 237.86 2.06001 242.22C4.60001 245.79 8.28002 247.6 11.85 246.62C17.52 245.08 22.33 246.7 26.52 249.46C32.67 253.51 38.83 253.08 45.21 251.36C55.07 248.7 60.89 251.43 64.9 260.97C65.86 263.25 67.11 265.45 67.77 267.81C70.39 277.07 70.32 277.09 80.01 277.99C83.69 278.33 89.22 283.45 89.49 287.2C89.91 293.07 90.19 298.97 90.17 304.85C90.15 309.16 94.52 312.71 98.37 311.07C105.81 307.92 114.19 310.95 116.78 318.44C118.85 324.43 122.4 328.6 128.35 330.07C131.01 330.73 134.22 330 137 329.23C145.4 326.88 150.67 329.49 152.78 338.12C153.7 341.9 155.95 343.31 159.18 344.11C159.94 344.3 160.99 344.61 161.52 344.26C166.07 341.29 170.17 343.44 173.35 346.14C177.99 350.07 182.21 350.08 186.19 346.14C191.42 340.96 198.34 340.5 204.16 341.72C209.48 342.83 214.59 347.18 218.72 351.2C223.56 355.91 225.35 356.65 230.5 352.19C233.66 349.46 237.12 348.9 240.49 351.48C245.79 355.55 251.93 357.07 258.33 357.98C261.21 358.39 263.88 359.01 262 362.96L261.98 362.98Z" fill="#CED1ED"/>
<path d="M-503.97 887.04C-500.33 884.4 -496.77 881.63 -493.02 879.16C-484.62 873.62 -477.13 878.75 -469.38 881.32C-458.88 884.79 -453.67 883.02 -448.29 875.45C-444.46 870.06 -439.72 868.18 -433.23 869.71C-425.8 871.47 -421.71 869.15 -418.54 862.15C-412.81 849.48 -405.67 838.64 -390.89 834.54C-378.4 831.08 -367.43 833.46 -356.79 839.8C-353.8 841.58 -350.85 843.48 -348.08 845.59C-342.15 850.12 -335.94 849.59 -329.63 846.81C-323.46 844.1 -317.45 841.02 -311.24 838.38C-305.81 836.07 -303.09 831.51 -301.39 826.46C-299.23 820.05 -294.9 815.8 -289.64 812.12C-280.26 805.55 -269.62 802.77 -258.49 803.71C-253.73 804.11 -249.12 807.5 -244.68 809.97C-241.67 811.65 -238.9 813.88 -236.35 816.22C-228.88 823.07 -220.7 824.46 -211.46 820.24C-203.25 816.49 -194.89 816.34 -186.19 818.81C-182.03 819.99 -177.31 819.19 -173.14 820.35C-165.33 822.53 -156.68 822.91 -151.66 831.33C-147.03 839.1 -138.27 841.21 -128.45 838.93C-121.35 837.29 -115.8 834.22 -110.03 830.28C-106.51 827.87 -101.73 827.23 -97.45 826C-84.72 822.32 -75.4501 828.32 -66.6801 836.61C-62.8801 840.2 -58.05 842.7 -53.67 845.66C-47.78 849.63 -41.5499 853.17 -36.0699 857.64C-31.6299 861.26 -22.9001 863.07 -17.5601 859.88C-9.98006 855.36 -1.93995 855.79 6.18005 858.55C15.7001 861.79 23.6001 867.35 30.3101 874.77C34.4601 879.36 38.87 883.61 45.9 882.46C47.46 882.2 49.26 882.38 50.55 881.66C56.3 878.45 61.66 879.25 66.12 883.6C71.06 888.42 75.2699 893.99 80.0699 898.96C82.8299 901.82 86.05 904.26 89.25 906.65C93.07 909.51 95.67 907.12 97.91 904.16C101.88 898.93 104.74 898.6 109.98 902.43C116.66 907.31 123.56 911.9 130.21 916.83C131.72 917.95 132.53 920 133.75 921.56C136.88 925.55 136.26 928.1 131.02 928.98C128.21 927.68 125.16 926.75 122.65 925.02C116.6 920.84 110.19 919.89 103.24 921.83C96.11 923.82 89.2599 923.67 82.4399 920.3C73.6299 915.95 67.44 917.23 60.37 924.11C58.96 925.48 57.34 926.7 55.64 927.68C47.42 932.39 38.74 931.55 30.02 929.53C17.34 926.61 6.24999 920.39 -4.39001 913.14C-11.62 908.21 -17.38 908.79 -23.4 915.01C-26.9 918.63 -31.05 920.37 -35.91 919.93C-39.34 919.62 -42.8099 918.9 -46.0699 917.8C-58.5799 913.6 -70.85 911.58 -82.87 919.38C-87.81 922.58 -92.83 920.45 -97.67 918.61C-99.22 918.02 -100.64 917.1 -102.18 916.47C-108.09 914.07 -113.35 914.42 -118.02 919.5C-122.24 924.08 -127.68 924.46 -132.82 921.1C-134.76 919.83 -136.64 918.46 -138.47 917.03C-148.12 909.49 -158.1 904.07 -170.89 909.67C-173.69 910.89 -177.67 911.2 -180.51 910.22C-187.78 907.69 -194.52 903.56 -201.86 901.35C-206.06 900.08 -212.55 899.48 -215.32 901.79C-221.7 907.11 -228.03 910.24 -236.37 910.15C-242.49 910.08 -244.87 913.06 -244.98 919.3C-245.01 920.8 -244.89 922.31 -245.04 923.79C-245.45 927.75 -247.7 930.5 -251.58 930.88C-259.74 931.69 -267.76 930.98 -275.15 926.84C-284.71 921.48 -294.14 917.26 -305.99 919.45C-313.1 920.76 -320.99 918.68 -325.7 911.5C-327.7 908.45 -329.69 905.37 -331.37 902.13C-334.22 896.62 -338.56 892.77 -343.92 889.89C-353.21 884.89 -363.56 884.26 -373.67 883.18C-382.31 882.25 -391.17 883.76 -399.58 880.18C-401.57 879.33 -404.1 879.77 -406.11 879.63C-402.84 886.88 -399.78 893.59 -396.79 900.33C-394.89 904.61 -396.04 908.6 -398.69 912.04C-407.17 923.09 -430.98 926.3 -439.2 915.43C-445.2 907.5 -452.34 905.15 -462.25 911.52C-467.29 914.76 -470.97 913.43 -474.69 908.61C-476.4 906.4 -478.21 904.14 -480.39 902.43C-484.72 899.02 -489.25 895.84 -493.86 892.81C-497.09 890.68 -500.58 888.95 -503.96 887.04H-503.97Z" fill="#EDF2F7"/>
<path d="M-503.97 887.04C-500.59 888.95 -497.1 890.68 -493.87 892.81C-489.26 895.84 -484.73 899.02 -480.4 902.43C-478.22 904.14 -476.41 906.4 -474.7 908.61C-470.98 913.43 -467.3 914.76 -462.26 911.52C-452.34 905.15 -445.21 907.5 -439.21 915.43C-430.99 926.29 -407.18 923.08 -398.7 912.04C-396.06 908.59 -394.9 904.61 -396.8 900.33C-399.79 893.59 -402.85 886.88 -406.12 879.63C-404.11 879.77 -401.58 879.33 -399.59 880.18C-391.18 883.76 -382.32 882.25 -373.68 883.18C-363.57 884.27 -353.22 884.89 -343.93 889.89C-338.57 892.78 -334.23 896.62 -331.38 902.13C-329.71 905.36 -327.71 908.45 -325.71 911.5C-321 918.68 -313.11 920.76 -306 919.45C-294.16 917.26 -284.72 921.48 -275.16 926.84C-267.78 930.98 -259.76 931.69 -251.59 930.88C-247.7 930.5 -245.45 927.75 -245.05 923.79C-244.9 922.31 -245.02 920.79 -244.99 919.3C-244.88 913.06 -242.51 910.08 -236.38 910.15C-228.05 910.25 -221.72 907.12 -215.33 901.79C-212.55 899.48 -206.07 900.08 -201.87 901.35C-194.53 903.56 -187.79 907.7 -180.52 910.22C-177.68 911.21 -173.7 910.9 -170.9 909.67C-158.11 904.07 -148.13 909.49 -138.48 917.03C-136.65 918.46 -134.77 919.83 -132.83 921.1C-127.68 924.46 -122.24 924.08 -118.03 919.5C-113.36 914.43 -108.1 914.08 -102.19 916.47C-100.65 917.09 -99.23 918.02 -97.68 918.61C-92.84 920.46 -87.82 922.59 -82.88 919.38C-70.85 911.58 -58.5799 913.6 -46.0799 917.8C-42.8199 918.9 -39.35 919.61 -35.92 919.93C-31.06 920.37 -26.91 918.63 -23.41 915.01C-17.39 908.79 -11.63 908.21 -4.39996 913.14C6.24004 920.39 17.3301 926.61 30.0101 929.53C38.7401 931.54 47.4101 932.39 55.6301 927.68C57.3301 926.7 58.96 925.48 60.36 924.11C67.43 917.24 73.6201 915.95 82.4301 920.3C89.2501 923.67 96.11 923.82 103.23 921.83C110.18 919.89 116.59 920.84 122.64 925.02C125.15 926.75 128.2 927.69 131.01 928.98C132.2 929.28 133.39 929.57 134.81 929.92C129.63 936.85 126.58 937.98 119.17 935.58C110.79 932.87 102.57 933.31 94.1501 935.65C89.3601 936.98 84.2701 937.78 79.3101 937.84C74.0901 937.91 71.26 940.87 68.35 944.34C65.82 947.35 63.2301 950.36 60.3901 953.07C57.6001 955.73 54.27 956.08 50.21 956.45C36.59 957.69 25.81 950.7 14.22 945.98C11.55 944.89 9.42003 942.55 6.84003 941.15C-3.28997 935.64 -11.63 941.08 -20.17 945.67C-27.94 949.84 -35.7899 953.86 -43.7099 957.73C-54.0199 962.76 -63.2799 958.64 -72.5699 954.27C-79.1199 951.18 -85.7 947.87 -92.62 945.98C-95.65 945.15 -100.54 946.57 -102.91 948.78C-109.6 955.01 -117.43 959 -126.04 960.2C-132.7 961.12 -140.05 961.96 -146.43 957.39C-154.25 951.78 -163.22 953 -171.86 954.28C-178.02 955.19 -184.06 957.11 -190.02 959.01C-191.86 959.6 -193.76 961.29 -194.77 962.99C-198.79 969.79 -204.22 972.24 -211.86 970.62C-217.01 969.53 -222.25 968.26 -227.46 968.2C-231.25 968.16 -235.72 969.03 -238.76 971.12C-250.86 979.46 -261.65 975.41 -272.65 968.95C-278.45 965.54 -284.46 962.38 -290.65 959.75C-295.68 957.62 -300.52 959.32 -304.43 962.95C-310.16 968.28 -316.55 969.4 -323.75 966.61C-333.34 962.9 -342.76 960.83 -353.15 964.63C-360.46 967.3 -366.9 962.79 -373.05 958.97C-384.25 952 -396.11 952.5 -408.01 956.65C-411.52 957.87 -414.64 960.25 -417.85 962.25C-424.45 966.37 -431.88 966.02 -438.64 964.31C-445.76 962.52 -452.93 959.42 -458.99 955.3C-467.62 949.43 -476.35 946.35 -486.55 949.06C-492.39 950.61 -497.82 949.4 -502.85 946.86C-510.98 942.75 -517.97 937.09 -521.2 928.21C-522.07 925.83 -521.91 922.45 -520.89 920.11C-516.78 910.72 -512.19 901.53 -507.65 892.33C-506.71 890.43 -505.22 888.8 -503.99 887.04H-503.97Z" fill="#CED1ED"/>
<path d="M1308.03 819.04C1311.67 816.4 1315.23 813.63 1318.98 811.16C1327.38 805.62 1334.87 810.75 1342.62 813.32C1353.12 816.79 1358.33 815.02 1363.71 807.45C1367.54 802.06 1372.28 800.18 1378.77 801.71C1386.2 803.47 1390.29 801.15 1393.46 794.15C1399.19 781.48 1406.33 770.64 1421.11 766.54C1433.6 763.08 1444.57 765.46 1455.21 771.8C1458.2 773.58 1461.15 775.48 1463.92 777.59C1469.85 782.12 1476.06 781.59 1482.37 778.81C1488.54 776.1 1494.55 773.02 1500.76 770.38C1506.19 768.07 1508.91 763.51 1510.61 758.46C1512.77 752.05 1517.1 747.8 1522.36 744.12C1531.74 737.55 1542.38 734.77 1553.51 735.71C1558.27 736.11 1562.88 739.5 1567.32 741.97C1570.33 743.65 1573.1 745.88 1575.65 748.22C1583.12 755.07 1591.3 756.46 1600.54 752.24C1608.75 748.49 1617.11 748.34 1625.81 750.81C1629.97 751.99 1634.69 751.19 1638.86 752.35C1646.67 754.53 1655.32 754.91 1660.34 763.33C1664.97 771.1 1673.73 773.21 1683.55 770.93C1690.65 769.29 1696.2 766.22 1701.97 762.28C1705.49 759.87 1710.27 759.23 1714.55 758C1727.28 754.32 1736.55 760.32 1745.32 768.61C1749.12 772.2 1753.95 774.7 1758.33 777.66C1764.22 781.63 1770.45 785.17 1775.93 789.64C1780.37 793.26 1789.1 795.07 1794.44 791.88C1802.02 787.36 1810.06 787.79 1818.18 790.55C1827.7 793.79 1835.6 799.35 1842.31 806.77C1846.46 811.36 1850.87 815.61 1857.9 814.46C1859.46 814.2 1861.26 814.38 1862.55 813.66C1868.3 810.45 1873.66 811.25 1878.12 815.6C1883.06 820.42 1887.27 825.99 1892.07 830.96C1894.83 833.82 1898.05 836.26 1901.25 838.65C1905.07 841.51 1907.67 839.12 1909.91 836.16C1913.88 830.93 1916.74 830.6 1921.98 834.43C1928.66 839.31 1935.56 843.9 1942.21 848.83C1943.72 849.95 1944.53 852 1945.75 853.56C1948.88 857.55 1948.26 860.1 1943.02 860.98C1940.21 859.68 1937.16 858.75 1934.65 857.02C1928.6 852.84 1922.19 851.89 1915.24 853.83C1908.11 855.82 1901.26 855.67 1894.44 852.3C1885.63 847.95 1879.44 849.23 1872.37 856.11C1870.96 857.48 1869.34 858.7 1867.64 859.68C1859.42 864.39 1850.74 863.55 1842.02 861.53C1829.34 858.61 1818.25 852.39 1807.61 845.14C1800.38 840.21 1794.62 840.79 1788.6 847.01C1785.1 850.63 1780.95 852.37 1776.09 851.93C1772.66 851.62 1769.19 850.9 1765.93 849.8C1753.42 845.6 1741.15 843.58 1729.13 851.38C1724.19 854.58 1719.17 852.45 1714.33 850.61C1712.78 850.02 1711.36 849.1 1709.82 848.47C1703.91 846.07 1698.65 846.42 1693.98 851.5C1689.76 856.08 1684.32 856.46 1679.18 853.1C1677.24 851.83 1675.36 850.46 1673.53 849.03C1663.88 841.49 1653.9 836.07 1641.11 841.67C1638.31 842.89 1634.33 843.2 1631.49 842.22C1624.22 839.69 1617.48 835.56 1610.14 833.35C1605.94 832.08 1599.45 831.48 1596.68 833.79C1590.3 839.11 1583.97 842.24 1575.63 842.15C1569.51 842.08 1567.13 845.06 1567.02 851.3C1566.99 852.8 1567.11 854.31 1566.96 855.79C1566.55 859.75 1564.3 862.5 1560.42 862.88C1552.26 863.69 1544.24 862.98 1536.85 858.84C1527.29 853.48 1517.86 849.26 1506.01 851.45C1498.9 852.76 1491.01 850.68 1486.3 843.5C1484.3 840.45 1482.31 837.37 1480.63 834.13C1477.78 828.62 1473.44 824.77 1468.08 821.89C1458.79 816.89 1448.44 816.26 1438.33 815.18C1429.69 814.25 1420.83 815.76 1412.42 812.18C1410.43 811.33 1407.9 811.77 1405.89 811.63C1409.16 818.88 1412.22 825.59 1415.21 832.33C1417.11 836.61 1415.96 840.6 1413.31 844.04C1404.83 855.09 1381.02 858.3 1372.8 847.43C1366.8 839.5 1359.66 837.15 1349.75 843.52C1344.71 846.76 1341.03 845.43 1337.31 840.61C1335.6 838.4 1333.79 836.14 1331.61 834.43C1327.28 831.02 1322.75 827.84 1318.14 824.81C1314.91 822.68 1311.42 820.95 1308.04 819.04H1308.03Z" fill="#EDF2F7"/>
<path d="M1308.03 819.04C1311.41 820.95 1314.9 822.68 1318.13 824.81C1322.74 827.84 1327.27 831.02 1331.6 834.43C1333.78 836.14 1335.59 838.4 1337.3 840.61C1341.02 845.43 1344.7 846.76 1349.74 843.52C1359.66 837.15 1366.79 839.5 1372.79 847.43C1381.01 858.29 1404.82 855.08 1413.3 844.04C1415.94 840.59 1417.1 836.61 1415.2 832.33C1412.21 825.59 1409.15 818.88 1405.88 811.63C1407.89 811.77 1410.42 811.33 1412.41 812.18C1420.82 815.76 1429.68 814.25 1438.32 815.18C1448.43 816.27 1458.78 816.89 1468.07 821.89C1473.43 824.78 1477.77 828.62 1480.62 834.13C1482.29 837.36 1484.29 840.45 1486.29 843.5C1491 850.68 1498.89 852.76 1506 851.45C1517.84 849.26 1527.28 853.48 1536.84 858.84C1544.22 862.98 1552.24 863.69 1560.41 862.88C1564.3 862.5 1566.55 859.75 1566.95 855.79C1567.1 854.31 1566.98 852.79 1567.01 851.3C1567.12 845.06 1569.49 842.08 1575.62 842.15C1583.95 842.25 1590.28 839.12 1596.67 833.79C1599.45 831.48 1605.93 832.08 1610.13 833.35C1617.47 835.56 1624.21 839.7 1631.48 842.22C1634.32 843.21 1638.3 842.9 1641.1 841.67C1653.89 836.07 1663.87 841.49 1673.52 849.03C1675.35 850.46 1677.23 851.83 1679.17 853.1C1684.32 856.46 1689.76 856.08 1693.97 851.5C1698.64 846.43 1703.9 846.08 1709.81 848.47C1711.35 849.09 1712.77 850.02 1714.32 850.61C1719.16 852.46 1724.18 854.59 1729.12 851.38C1741.15 843.58 1753.42 845.6 1765.92 849.8C1769.18 850.9 1772.65 851.61 1776.08 851.93C1780.94 852.37 1785.09 850.63 1788.59 847.01C1794.61 840.79 1800.37 840.21 1807.6 845.14C1818.24 852.39 1829.33 858.61 1842.01 861.53C1850.74 863.54 1859.41 864.39 1867.63 859.68C1869.33 858.7 1870.96 857.48 1872.36 856.11C1879.43 849.24 1885.62 847.95 1894.43 852.3C1901.25 855.67 1908.11 855.82 1915.23 853.83C1922.18 851.89 1928.59 852.84 1934.64 857.02C1937.15 858.75 1940.2 859.69 1943.01 860.98C1944.2 861.28 1945.39 861.57 1946.81 861.92C1941.63 868.85 1938.58 869.98 1931.17 867.58C1922.79 864.87 1914.57 865.31 1906.15 867.65C1901.36 868.98 1896.27 869.78 1891.31 869.84C1886.09 869.91 1883.26 872.87 1880.35 876.34C1877.82 879.35 1875.23 882.36 1872.39 885.07C1869.6 887.73 1866.27 888.08 1862.21 888.45C1848.59 889.69 1837.81 882.7 1826.22 877.98C1823.55 876.89 1821.42 874.55 1818.84 873.15C1808.71 867.64 1800.37 873.08 1791.83 877.67C1784.06 881.84 1776.21 885.86 1768.29 889.73C1757.98 894.76 1748.72 890.64 1739.43 886.27C1732.88 883.18 1726.3 879.87 1719.38 877.98C1716.35 877.15 1711.46 878.57 1709.09 880.78C1702.4 887.01 1694.57 891 1685.96 892.2C1679.3 893.12 1671.95 893.96 1665.57 889.39C1657.75 883.78 1648.78 885 1640.14 886.28C1633.98 887.19 1627.94 889.11 1621.98 891.01C1620.14 891.6 1618.24 893.29 1617.23 894.99C1613.21 901.79 1607.78 904.24 1600.14 902.62C1594.99 901.53 1589.75 900.26 1584.54 900.2C1580.75 900.16 1576.28 901.03 1573.24 903.12C1561.14 911.46 1550.35 907.41 1539.35 900.95C1533.55 897.54 1527.54 894.38 1521.35 891.75C1516.32 889.62 1511.48 891.32 1507.57 894.95C1501.84 900.28 1495.45 901.4 1488.25 898.61C1478.66 894.9 1469.24 892.83 1458.85 896.63C1451.54 899.3 1445.1 894.79 1438.95 890.97C1427.75 884 1415.89 884.5 1403.99 888.65C1400.48 889.87 1397.36 892.25 1394.15 894.25C1387.55 898.37 1380.12 898.02 1373.36 896.31C1366.24 894.52 1359.07 891.42 1353.01 887.3C1344.38 881.43 1335.65 878.35 1325.45 881.06C1319.61 882.61 1314.18 881.4 1309.15 878.86C1301.02 874.75 1294.03 869.09 1290.8 860.21C1289.93 857.83 1290.09 854.45 1291.11 852.11C1295.22 842.72 1299.81 833.53 1304.35 824.33C1305.29 822.43 1306.78 820.8 1308.01 819.04H1308.03Z" fill="#CED1ED"/>
<path d="M311 703C309.98 703.36 308.96 703.72 307.94 704.07C299.7 700.39 291.32 699.69 282.82 703.04C277.78 705.03 273.35 703.39 269.04 701C263.71 698.04 258.27 697.58 252.21 698.53C248.95 699.04 244.86 697.82 241.94 696.07C235.49 692.21 235.69 691.87 230.91 697.58C227.36 701.82 222.61 703.33 217.46 701.63C212.55 700.01 209.46 696.97 210.02 691.3C210.39 687.54 207.91 686.32 204.8 686.06C202.48 685.86 200.14 686.06 197.8 686C193.17 685.89 187.69 681.76 185.96 677.4C183.93 672.27 188.22 671.42 190.95 669.22C192.06 668.33 193.02 665.17 192.52 664.72C190.06 662.5 187.23 660.53 184.2 659.21C183.45 658.88 180.77 661.08 180.24 662.57C179.31 665.16 179.27 668.08 179.03 670.88C178.15 680.96 171.44 689.44 161.45 692.14C158.78 692.86 155.56 692.53 152.82 691.8C146.75 690.2 140.93 687.48 134.8 686.3C130.44 685.46 127.65 683.15 126.08 679.76C124.16 675.63 123.25 671.01 122.04 666.56C121.39 664.18 121 661.73 120.5 659.31C118.82 660.73 118.26 662.07 117.75 663.44C114.47 672.2 107.96 678.78 99.3399 680.28C89.3299 682.02 84.23 687.35 80.53 695.79C78.42 700.6 74.5299 702.14 69.3599 700.55C62.1599 698.33 57.4299 693.69 55.9499 686.01C55.4599 683.47 54.3499 680.43 51.1199 683.49C43.7099 690.5 36.7199 687.84 31.2899 681.81C26.5099 676.5 27.05 671.46 33.28 667.91C36.02 666.35 38.9099 665.01 41.8599 663.92C46.7299 662.13 51.6999 660.64 56.6299 659.02C54.3899 657.06 51.9899 656.46 49.9199 655.29C47.8399 654.12 44.8199 652.59 44.5399 650.85C44.2799 649.23 46.7899 646.73 48.6099 645.3C53.6799 641.29 59.1399 637.78 64.2399 633.81C69.2599 629.9 73.7299 625.44 75.4999 618.98C77.0099 613.48 75.7599 609.01 71.7399 606.18C71.1399 606.64 70.3699 607.04 69.8799 607.66C62.7199 616.64 54.32 617.12 44.2 612.65C26.18 604.69 20.48 608.63 11.4 621.27C1.22996 635.41 -12.2201 641.36 -29.4501 640.05C-40.5001 639.21 -48.7201 627.59 -45.1901 617.18C-43.8701 613.3 -42.14 613.26 -39.55 615.87C-38.02 617.41 -36.5401 618.99 -34.9501 620.46C-27.3401 627.44 -20.6001 625.21 -13.1401 619.53C-12.4501 619.01 -12.3901 617.66 -12.2401 617.25C-15.6701 615.6 -19.4001 614.93 -21.3201 612.7C-30.0201 602.58 -26.1701 591.34 -13.2401 588.01C-10.4601 587.29 -7.64009 586.69 -4.84009 586.03C-7.08009 585 -9.15004 585 -11.23 585C-21.55 584.97 -28.4001 579.87 -31.9501 569.56C-35.0801 560.47 -32.9 554.03 -24.55 547.24C-23.53 546.41 -22.95 545.04 -22.17 543.92C-23.55 543.28 -24.8801 542.21 -26.3201 542.07C-32.9501 541.39 -38.9701 538.84 -42.5201 533.42C-48.4201 524.4 -50.4301 514.21 -48.3201 503.38C-47.9101 501.26 -48.2601 498.99 -48.2601 495.5C-54.4301 503.42 -57.1801 511.52 -59.9901 519.56C-61.8901 524.98 -62.69 530.53 -60.05 535.97C-58.76 538.64 -57.2501 541.22 -55.7001 543.76C-52.5901 548.87 -53.03 553.01 -57.54 557.02C-59.25 558.54 -61.5701 559.39 -63.2501 560.94C-65.3301 562.86 -67.0301 565.18 -68.9001 567.33C-66.9001 568.89 -65.1 570.87 -62.86 571.93C-54.95 575.69 -48.9001 581.49 -44.0101 588.54C-41.6501 591.93 -42.71 594 -46.6 593.94C-51.68 593.87 -54.2601 595.51 -54.2101 601.16C-54.1901 603.41 -56.4301 607.52 -57.8101 607.6C-62.0801 607.83 -66.49 606.79 -70.72 605.72C-74.55 604.76 -78.2101 603.13 -81.9401 601.79C-80.8001 604 -79.1701 605.06 -77.5801 606.19C-68.6801 612.54 -64.67 624.8 -68.48 633.97C-70.3 638.36 -73.0901 639.09 -76.4301 636C-77.9001 634.64 -79.19 633.09 -80.73 631.82C-83.59 629.48 -86.0301 629.3 -87.7001 633.32C-88.8501 636.08 -90.2301 638.76 -91.6901 641.38C-96.5201 650.06 -108.5 653.33 -117.12 648.5C-122.62 645.42 -128.14 645.09 -133.46 649C-136 650.86 -138.49 652.79 -141.03 654.65C-143.97 656.81 -145.84 656.84 -146.03 652.41C-146.2 648.25 -148.04 645.48 -152.5 644.15C-161.39 641.5 -167.53 633.04 -167.97 623.8C-168.35 615.99 -169.1 615.25 -177.04 614.8C-175.29 612.3 -173.96 609.3 -171.71 607.39C-163.94 600.82 -155.2 595.89 -144.61 598.25C-141.07 599.04 -137.77 602.03 -134.95 604.65C-128.77 610.38 -125.89 610.09 -120.64 603.62C-117.36 599.58 -113.66 595.41 -109.24 592.9C-104.78 590.36 -98.9501 590.34 -94.1901 588.17C-91.0701 586.75 -86.7101 583.63 -86.5201 581.01C-85.7901 571.05 -81.89 562.63 -76.72 554.5C-72.93 548.53 -74.0001 541.3 -80.0101 533.42C-77.7701 529.79 -75.27 526.12 -73.17 522.24C-71.23 518.64 -69.7201 515.14 -70.6801 510.48C-72.1401 503.42 -68.7101 497.28 -63.1801 493.24C-51.5701 484.75 -38.5401 483.63 -25.0901 488.15C-20.6401 489.64 -16.4 491.9 -12.29 494.2C-4.14004 498.75 -1.38008 507.11 -2.77008 516.37C-4.41008 527.23 -3.88008 529.17 5.34991 535.15C8.74991 537.36 10.7099 540.44 11.0499 544.58C11.6399 551.8 12.9899 553.39 20.0999 552.86C25.9299 552.43 29.5799 554.8 32.3199 559.49C33.1599 560.92 33.95 562.4 34.95 563.72C41.17 571.9 43.17 572.94 50.84 567.4C57.29 562.74 64.8599 559.01 72.4999 556.87C77.0799 555.58 83.04 557.38 87.78 559.28C90.02 560.18 91.2299 564.44 92.2599 567.4C93.9599 572.28 96.4199 576.49 101.26 578.53C109.16 581.87 115.41 585.88 115.52 595.99C115.57 600.73 119.41 604.3 124.48 605.47C127.12 606.08 129.78 606.74 132.46 606.94C138.7 607.39 142.07 610.89 140.85 617.12C140.15 620.67 141.43 622.33 143.98 623.99C147.64 626.38 151.59 628.3 151.52 633.99C151.5 635.53 155.08 638.14 157.28 638.46C161.56 639.09 166.21 637.66 170.36 638.61C173.34 639.29 177.39 642.01 178.08 644.59C179.79 650.99 185.11 650.39 188.13 649.25C191.93 647.82 193.5 649.94 194.59 651.56C198.09 656.73 202.11 659.23 208.65 658.13C213.91 657.24 217.65 660.4 220.06 665.02C220.91 666.64 221.48 668.5 222.64 669.85C225.98 673.77 229.08 674.59 234.1 671.72C244.04 666.04 254.49 665.56 264.17 672.27C266.92 674.18 268.78 677.98 270.01 681.3C271.49 685.3 277.11 689.32 280.99 687.7C289.07 684.32 296.68 685.56 303.77 690C306.56 691.75 308.64 694.62 311.04 696.99V702.99L311 703ZM101.31 605.99C96.69 609.79 99.3499 612.87 102.59 614.92C106.44 617.36 110.74 619.27 115.07 620.72C118.26 621.79 120.32 619.1 119.4 615.75C116.97 606.84 105.83 599.86 96.4 601.71C97.92 603.04 99.23 604.19 101.31 606V605.99ZM-120.77 625.05C-113.73 628.5 -103.93 626.08 -97.92 619.34C-96.73 618 -95.2201 615.38 -95.7601 614.41C-96.6401 612.83 -99.0201 611.42 -100.89 611.24C-102.98 611.04 -105.65 611.73 -107.28 613.03C-111.9 616.69 -116.12 620.86 -120.76 625.06L-120.77 625.05ZM38.5099 591.65C42.0899 590.9 44.6099 590.67 46.8499 589.76C47.7499 589.39 48.7299 587.39 48.5099 586.4C47.1199 580.15 36.6199 575.85 30.9799 579.05C27.2199 581.18 26.64 584.84 30.15 587.47C32.79 589.45 36.1199 590.5 38.5099 591.66V591.65Z" fill="#EDF2F7"/>
<path d="M-177.07 614.81C-169.13 615.26 -168.38 616.01 -168 623.81C-167.56 633.05 -161.42 641.5 -152.53 644.16C-148.07 645.49 -146.24 648.26 -146.06 652.42C-145.88 656.86 -144 656.82 -141.06 654.66C-138.52 652.8 -136.03 650.87 -133.49 649.01C-128.17 645.1 -122.65 645.43 -117.15 648.51C-108.53 653.34 -96.55 650.06 -91.72 641.39C-90.26 638.77 -88.88 636.09 -87.73 633.33C-86.06 629.32 -83.6201 629.49 -80.7601 631.83C-79.2201 633.09 -77.9301 634.65 -76.4601 636.01C-73.1201 639.1 -70.3301 638.37 -68.5101 633.98C-64.7101 624.81 -68.71 612.55 -77.61 606.2C-79.2 605.07 -80.84 604 -81.97 601.8C-78.24 603.14 -74.5801 604.77 -70.7501 605.73C-66.5201 606.79 -62.1101 607.83 -57.8401 607.61C-56.4601 607.54 -54.2201 603.42 -54.2401 601.17C-54.2901 595.51 -51.7101 593.88 -46.6301 593.95C-42.7401 594 -41.69 591.94 -44.04 588.55C-48.93 581.5 -54.9901 575.7 -62.8901 571.94C-65.1301 570.88 -66.9301 568.9 -68.9301 567.34C-67.0601 565.19 -65.3601 562.87 -63.2801 560.95C-61.6001 559.4 -59.2801 558.55 -57.5701 557.03C-53.0601 553.02 -52.62 548.88 -55.73 543.77C-57.27 541.23 -58.7801 538.65 -60.0801 535.98C-62.7201 530.54 -61.9201 524.99 -60.0201 519.57C-57.2001 511.53 -54.46 503.43 -48.29 495.51C-48.29 499.01 -47.94 501.27 -48.35 503.39C-50.46 514.22 -48.45 524.4 -42.55 533.43C-39.01 538.85 -32.98 541.4 -26.35 542.08C-24.92 542.23 -23.5801 543.29 -22.2001 543.93C-22.9801 545.05 -23.5601 546.42 -24.5801 547.25C-32.9301 554.04 -35.12 560.48 -31.98 569.57C-28.42 579.88 -21.5801 584.98 -11.2601 585.01C-9.18007 585.01 -7.11006 585.01 -4.87006 586.04C-7.67006 586.7 -10.4801 587.3 -13.2701 588.02C-26.2001 591.35 -30.05 602.59 -21.35 612.71C-19.43 614.94 -15.7001 615.62 -12.2701 617.26C-12.4201 617.67 -12.48 619.01 -13.17 619.54C-20.63 625.22 -27.37 627.45 -34.98 620.47C-36.57 619.01 -38.0601 617.42 -39.5801 615.88C-42.1701 613.27 -43.9 613.31 -45.22 617.19C-48.76 627.6 -40.53 639.22 -29.48 640.06C-12.24 641.37 1.19993 635.42 11.3699 621.28C20.4599 608.65 26.1599 604.7 44.1699 612.66C54.2899 617.13 62.6999 616.65 69.8499 607.67C70.3399 607.05 71.1099 606.66 71.7099 606.19C75.7299 609.02 76.9799 613.48 75.4699 618.99C73.6999 625.45 69.2299 629.91 64.2099 633.82C59.1099 637.79 53.66 641.31 48.58 645.31C46.76 646.75 44.2499 649.25 44.5099 650.86C44.7899 652.61 47.81 654.13 49.89 655.3C51.96 656.47 54.3599 657.07 56.5999 659.03C51.6699 660.65 46.7 662.15 41.83 663.93C38.88 665.01 35.9799 666.36 33.2499 667.92C27.0099 671.47 26.4699 676.51 31.2599 681.82C36.6899 687.84 43.68 690.51 51.09 683.5C54.32 680.44 55.44 683.48 55.92 686.02C57.4 693.7 62.1299 698.34 69.3299 700.56C74.4999 702.16 78.3899 700.62 80.4999 695.8C84.1999 687.36 89.3 682.03 99.31 680.29C107.94 678.79 114.44 672.22 117.72 663.45C118.23 662.09 118.79 660.74 120.47 659.32C120.98 661.74 121.36 664.19 122.01 666.57C123.23 671.01 124.13 675.63 126.05 679.77C127.63 683.15 130.42 685.47 134.77 686.31C140.9 687.49 146.72 690.2 152.79 691.81C155.53 692.53 158.75 692.87 161.42 692.15C171.41 689.46 178.13 680.97 179 670.89C179.24 668.09 179.28 665.16 180.21 662.58C180.74 661.09 183.41 658.9 184.17 659.22C187.2 660.53 190.02 662.51 192.49 664.73C192.98 665.17 192.02 668.33 190.92 669.23C188.19 671.43 183.89 672.28 185.93 677.41C187.65 681.76 193.14 685.89 197.77 686.01C200.1 686.07 202.45 685.87 204.77 686.07C207.88 686.34 210.36 687.55 209.99 691.31C209.43 696.98 212.52 700.02 217.43 701.64C222.58 703.34 227.33 701.83 230.88 697.59C235.66 691.89 235.45 692.23 241.91 696.08C244.84 697.83 248.93 699.04 252.18 698.54C258.25 697.59 263.68 698.05 269.01 701.01C273.32 703.4 277.75 705.04 282.79 703.05C291.29 699.7 299.67 700.4 307.91 704.08C306.2 708.9 302.71 711.36 297.68 710.96C289.74 710.33 282.53 711.48 276.5 717.28C272.63 721 269.54 717.23 266.35 715.65C262.25 713.62 258.54 711.47 253.38 713.13C244.34 716.04 235.37 717.9 226 712.46C219.31 708.58 211.5 710.42 204.35 712.82C199.39 714.49 194.64 716.81 189.7 718.55C185 720.2 180.41 720.6 176.01 717.12C170 712.36 166.02 713.02 160.3 718.45C153.46 724.94 146.27 729 136 724.94C127.2 721.46 118.2 724.88 110.34 728.98C101.51 733.59 92.89 736.8 82.64 736.32C77.45 736.08 72.0499 738.58 66.8799 740.27C63.0199 741.53 59.7599 740.71 57.4499 737.88C49.6899 728.34 39.9399 728.31 28.9699 730.41C15.1299 733.06 3.24995 739.85 -8.74005 746.51C-15.9201 750.49 -22.8 749.82 -29.47 745.94C-36.12 742.08 -42.4901 737.65 -50.7501 739.03C-53.6601 739.52 -56.56 740.24 -59.36 741.19C-72.45 745.65 -85.41 745.78 -98.1 739.94C-104.3 737.08 -109.04 732.6 -112 726.22C-114.77 720.24 -121.67 717.2 -128.14 718.51C-131.21 719.13 -134.32 719.63 -137.44 719.96C-143.05 720.56 -147.96 717.83 -149.62 712.59C-152.08 704.83 -157.26 701 -165.13 699.94C-172.28 698.98 -176.48 694.15 -177.85 687.58C-179.47 679.85 -180 671.89 -181.01 664.03C-177.28 659.16 -179.27 653.79 -179.71 648.57C-179.73 648.34 -180.56 648.19 -181.02 648C-181.81 641.79 -183.25 635.58 -183.16 629.39C-183.09 624.85 -181.09 620.31 -179.72 615.84C-179.55 615.29 -178.01 615.16 -177.1 614.83L-177.07 614.81Z" fill="#CED1ED"/>
<path d="M101.31 605.99C99.2401 604.18 97.93 603.03 96.4 601.7C105.83 599.86 116.96 606.83 119.4 615.74C120.31 619.09 118.26 621.78 115.07 620.71C110.74 619.26 106.44 617.35 102.59 614.91C99.36 612.86 96.6901 609.79 101.31 605.98V605.99Z" fill="#CED1ED"/>
<path d="M38.51 591.65C36.12 590.49 32.79 589.43 30.15 587.46C26.63 584.83 27.22 581.17 30.98 579.04C36.63 575.85 47.13 580.14 48.51 586.39C48.73 587.39 47.75 589.39 46.85 589.75C44.61 590.66 42.1 590.89 38.51 591.64V591.65Z" fill="#CED1ED"/>
<path d="M1097.99 398.01C1094.62 394.69 1091.25 391.37 1087.88 388.05C1087.59 388.04 1087.3 388.02 1087.01 388.01C1084.79 387.35 1082.62 386.43 1080.35 386.06C1064.33 383.41 1061.44 372.66 1063.36 359.68C1065.05 348.28 1069.27 337.27 1076.23 327.72C1080.87 321.36 1086.81 316.83 1094.98 316.01C1094.66 317.79 1094.46 319.6 1094 321.35C1092.42 327.24 1090.12 333.02 1091.02 339.28C1091.49 342.55 1092.43 345.75 1092.92 349.02C1094.12 357.06 1103.01 364.52 1111.03 365.14C1118.4 365.71 1125.85 366.73 1132.95 368.71C1138.56 370.28 1142.98 369.23 1147.35 366.15C1151.94 362.91 1155.79 363.28 1158.86 367.87C1164.72 376.63 1172.48 383.34 1181.4 388.6C1191.64 394.64 1202.34 398.34 1214.59 394.13C1218.25 392.87 1222.71 393.54 1226.76 393.89C1230.86 394.24 1234.87 395.64 1238.97 395.94C1251.9 396.86 1262.51 390.83 1272.01 383.23C1281.34 375.78 1279.8 367 1269.21 361.01C1267.85 360.24 1266.31 358.61 1266.1 357.2C1264.05 343.26 1248.75 336.07 1236.12 342.71C1231.59 345.09 1226.16 346.43 1221.03 346.79C1215.72 347.17 1212.44 349.33 1209.67 353.52C1207.3 357.09 1204.6 360.49 1201.67 363.61C1200.7 364.64 1197.78 365.44 1197.03 364.81C1192.82 361.29 1187.85 362.7 1183.23 361.83C1178.15 360.88 1172.24 359.83 1168.62 356.64C1160.99 349.92 1154.54 341.86 1147.76 334.2C1141.77 327.43 1138.82 318.24 1130.89 313C1133.2 312.05 1135.45 310.76 1137.85 310.23C1140.14 309.73 1142.6 310.04 1144.99 309.99C1145.29 309.99 1145.6 309.97 1145.9 309.97C1146.26 309.97 1146.62 309.97 1146.98 309.96C1147.82 311.94 1148.35 314.12 1149.54 315.85C1162.25 334.3 1180.74 341.78 1201.71 338.91C1203.41 338.68 1205.13 336.99 1206.62 337.24C1211.21 338.03 1213.93 335.62 1216.87 332.78C1220.51 329.26 1224.06 324.91 1228.52 323.2C1232.58 321.65 1237.91 322.61 1242.5 323.46C1248.12 324.5 1254.93 323.66 1256.78 320.66C1260.95 313.88 1266.08 311.98 1273.24 314.46C1274.12 314.76 1275.3 314.93 1276.09 314.59C1279.87 312.95 1283.63 311.25 1287.26 309.29C1290.16 307.73 1291.96 305.6 1291.24 301.69C1290.95 300.1 1292.27 297.28 1293.69 296.47C1297.91 294.08 1308.18 298.77 1309.61 303.57C1310.69 307.19 1311.5 310.95 1311.93 314.71C1313.41 327.51 1321.86 332.43 1334.65 328.56C1337.68 327.64 1341.77 328.86 1344.93 330.16C1348.65 331.69 1351.7 334.87 1355.41 336.44C1358.62 337.79 1362.4 338.38 1365.7 335.91C1372.86 330.56 1380.39 329.38 1387.92 334.62C1394.71 339.35 1401.07 344.62 1401.9 353.63C1403.05 366.22 1404.9 368.42 1417.22 371.09C1421.65 372.05 1424.44 374.29 1424.16 379.68C1424 382.73 1424.82 386.48 1426.6 388.87C1434.12 398.99 1453.28 399.74 1461.23 391.95C1466.12 387.16 1472.33 388.1 1475.89 392.69C1483.99 403.17 1488.96 405.65 1500.83 403.25C1505.06 402.39 1509.08 402.35 1510.62 408.01C1511.84 412.48 1514.68 413.79 1519.3 411.45C1522.13 410.02 1526.47 408.23 1528.65 409.4C1538.25 414.53 1548.13 418.29 1558.96 419.51C1559.11 419.53 1559.25 419.68 1559.4 419.74C1565.84 422.3 1572.1 426.06 1578.77 427.1C1585.57 428.16 1592.73 426.86 1598.96 431C1598.98 431.68 1599 432.36 1599.02 433.03C1597.31 438 1592.72 436.6 1589.36 436.85C1584.79 437.19 1580.11 435.89 1575.51 436.09C1572.57 436.22 1569.28 437.18 1566.87 438.83C1563.25 441.32 1560.31 441.58 1557.05 438.66C1551.91 434.07 1546.05 432.04 1539.22 434.01C1532.73 435.88 1526.73 434.02 1521.01 431.37C1513.22 427.75 1508.04 428.18 1502.22 434.39C1495.99 441.05 1488.97 445.74 1479.5 443.79C1473.86 442.63 1468.45 440.34 1462.96 438.52C1453.72 435.45 1444.52 432.21 1435.22 429.34C1433.3 428.75 1430.94 429.21 1428.85 429.57C1422.56 430.66 1416.6 429.7 1411.08 426.64C1404.03 422.74 1400.14 423.03 1393.67 427.73C1387.33 432.34 1380.34 433.72 1373.07 430.03C1367.45 427.18 1362.02 423.95 1356.56 420.81C1348.5 416.18 1343.75 417.53 1337.17 423.82C1333.84 427 1328.47 428.12 1323.91 429.9C1322.61 430.41 1320.94 429.98 1319.44 429.98C1310.54 430.01 1309.4 430.64 1310.12 439.15C1310.81 447.24 1303.27 453.74 1297.85 456.03C1288.28 460.06 1281.1 457.25 1274.4 450.1C1269.81 445.2 1265.12 439.84 1257.41 440.06C1255.47 440.12 1253.35 440.36 1251.67 441.22C1245.61 444.29 1240.39 442.48 1235.2 439.11C1231.32 436.59 1227.52 433.55 1223.23 432.23C1220.67 431.44 1216.62 432.69 1214.29 434.44C1202.35 443.39 1189.53 447.82 1174.42 445.13C1166.27 443.68 1161.29 438.2 1156.91 432.39C1152.78 426.91 1147.69 423.96 1141.36 423.12C1134.58 422.22 1129.34 420.38 1127.58 412.66C1126.45 407.69 1122.51 406.37 1117.37 407.7C1114.67 408.4 1111.85 408.65 1109.07 409C1103.77 409.66 1100.99 406.94 1099.96 402C1100.09 401.91 1100.22 401.82 1100.36 401.73C1100.22 401.52 1100.07 401.31 1099.93 401.1C1099.93 401.1 1099.87 401.02 1099.88 401.02C1099.24 400.02 1098.61 399.02 1097.97 398.02L1097.99 398.01Z" fill="#CED1ED"/>
<path d="M1599.01 430.99C1592.78 426.85 1585.62 428.15 1578.82 427.09C1572.14 426.05 1565.89 422.3 1559.45 419.73C1559.3 419.67 1559.16 419.52 1559.01 419.5C1548.18 418.28 1538.3 414.52 1528.7 409.39C1526.53 408.23 1522.19 410.01 1519.35 411.44C1514.73 413.78 1511.89 412.46 1510.67 408C1509.12 402.33 1505.11 402.38 1500.88 403.24C1489.01 405.64 1484.04 403.17 1475.94 392.68C1472.39 388.08 1466.18 387.15 1461.28 391.94C1453.33 399.72 1434.16 398.98 1426.65 388.86C1424.87 386.47 1424.05 382.72 1424.21 379.67C1424.5 374.28 1421.71 372.04 1417.27 371.08C1404.96 368.41 1403.11 366.21 1401.95 353.62C1401.12 344.62 1394.77 339.34 1387.97 334.61C1380.45 329.37 1372.91 330.54 1365.75 335.9C1362.45 338.37 1358.67 337.78 1355.46 336.43C1351.74 334.86 1348.7 331.69 1344.98 330.15C1341.82 328.85 1337.72 327.63 1334.7 328.55C1321.91 332.42 1313.46 327.5 1311.98 314.7C1311.55 310.95 1310.74 307.19 1309.66 303.56C1308.23 298.76 1297.96 294.07 1293.74 296.46C1292.32 297.26 1291 300.08 1291.29 301.68C1292.01 305.59 1290.21 307.72 1287.31 309.28C1283.69 311.23 1279.92 312.93 1276.14 314.58C1275.35 314.92 1274.16 314.75 1273.29 314.45C1266.13 311.97 1261 313.87 1256.83 320.65C1254.98 323.65 1248.17 324.49 1242.55 323.45C1237.96 322.6 1232.63 321.64 1228.57 323.19C1224.11 324.89 1220.56 329.25 1216.92 332.77C1213.98 335.61 1211.25 338.02 1206.67 337.23C1205.18 336.97 1203.45 338.66 1201.76 338.9C1180.78 341.77 1162.3 334.29 1149.59 315.84C1148.4 314.11 1147.87 311.92 1147.03 309.95C1148.15 306.32 1150.19 302.71 1150.21 299.07C1150.26 290.59 1154.72 284.46 1160.35 279.43C1169.61 271.15 1180.26 265.08 1192.42 261.56C1199.8 259.42 1207.09 258.19 1214.74 257.87C1222.78 257.53 1229.42 260.02 1234.96 265.53C1238.53 269.09 1242.92 269.11 1246.39 267.04C1252.4 263.47 1257.32 258.61 1258.01 250.75C1258.16 249.07 1260.35 246.66 1262.03 246.23C1265.09 245.43 1268.48 245.74 1271.72 245.8C1274.59 245.86 1279.24 241.69 1279.68 237.09C1280.94 223.96 1290.37 218.52 1300.8 214.35C1306.92 211.9 1313.52 210.53 1320.01 209.18C1322.22 208.72 1324.76 209.73 1327.14 210.16C1329.95 210.67 1332.72 211.45 1335.55 211.83C1346.34 213.29 1354.25 218.15 1356.96 229.42C1357.84 233.08 1358.39 236.9 1359.84 240.33C1361.4 244.03 1364.05 246.21 1368.88 245.17C1374.33 244 1378.43 247.13 1381.19 251.57C1382.93 254.36 1383.88 257.63 1385.34 260.61C1388.77 267.6 1393.08 269.05 1400.57 266.83C1408.92 264.36 1416.83 265.56 1423.3 271.87C1425.96 274.46 1427.05 277.62 1425.58 281.56C1423.52 287.07 1425.82 289.04 1431.67 290.33C1438.43 291.81 1445.81 289.02 1452.09 294.26C1458.47 299.59 1462.01 306.05 1464.75 313.82C1467.52 321.68 1466.64 329.42 1467 337.25C1467.21 341.85 1469.24 343.04 1473.45 341.27C1477.23 339.68 1481.07 338.06 1485.04 337.11C1493.56 335.08 1503.07 343.2 1503.03 352.04C1503 359.31 1503.08 366.58 1503.2 373.85C1503.26 377.79 1506.7 381.02 1511.27 382C1517.32 383.29 1523.44 384.42 1529.31 386.31C1534.09 387.84 1537.29 391.2 1538.13 396.69C1538.85 401.44 1544.09 403.98 1548.39 402.57C1554.99 400.41 1561.2 401.13 1566.51 406.01C1568.72 408.04 1571.05 410.02 1572.83 412.4C1576.99 417.98 1582.35 419.19 1588.84 417.84C1594.52 416.66 1599.19 420.76 1599.08 426.49C1599.05 427.99 1599.05 429.49 1599.03 430.99H1599.01Z" fill="#EDF2F7"/>
<path d="M1130.92 313C1138.85 318.24 1141.81 327.43 1147.79 334.2C1154.56 341.86 1161.02 349.93 1168.65 356.64C1172.27 359.83 1178.19 360.88 1183.26 361.83C1187.88 362.7 1192.85 361.28 1197.06 364.81C1197.81 365.44 1200.73 364.64 1201.7 363.61C1204.64 360.5 1207.34 357.09 1209.7 353.52C1212.47 349.34 1215.74 347.17 1221.06 346.79C1226.19 346.42 1231.62 345.09 1236.15 342.71C1248.78 336.07 1264.08 343.27 1266.13 357.2C1266.34 358.61 1267.89 360.24 1269.24 361.01C1279.83 367 1281.37 375.77 1272.04 383.23C1262.54 390.82 1251.92 396.86 1239 395.94C1234.9 395.65 1230.89 394.24 1226.79 393.89C1222.74 393.55 1218.29 392.87 1214.62 394.13C1202.37 398.34 1191.67 394.64 1181.43 388.6C1172.5 383.34 1164.74 376.62 1158.89 367.87C1155.82 363.28 1151.97 362.91 1147.38 366.15C1143 369.23 1138.58 370.28 1132.98 368.71C1125.89 366.73 1118.43 365.71 1111.06 365.14C1103.03 364.52 1094.15 357.07 1092.95 349.02C1092.46 345.75 1091.53 342.55 1091.05 339.28C1090.14 333.01 1092.44 327.23 1094.03 321.35C1094.5 319.61 1094.69 317.8 1095.01 316.01C1097.19 315.91 1099.41 315.5 1101.54 315.76C1106.18 316.32 1110.78 317.77 1115.4 317.8C1118.96 317.82 1122.56 316.33 1126.07 315.29C1127.76 314.79 1129.31 313.78 1130.92 313Z" fill="#EDF2F7"/>
</svg>
