<svg width="3030" height="821" viewBox="0 0 3030 821" fill="none" xmlns="http://www.w3.org/2000/svg">
<path d="M2583.41 559C2588.19 554.85 2588.3 552.34 2583.86 545.83C2587.9 538.59 2594.24 535.25 2602.42 535C2607.03 539 2611.25 543.69 2618.28 543.02C2626.15 542.27 2632 545.86 2635.41 552.64C2641.94 565.67 2653.35 571.18 2666.7 573.84C2674.7 575.43 2682.59 575.82 2690.57 572.67C2699.82 569.02 2709.26 565.59 2718.91 563.27C2729.15 560.82 2736.79 565 2741.32 573.75C2744.32 579.54 2747.5 581.13 2753.87 579.67C2760.1 578.24 2766.12 578.67 2771.74 581.71C2778.25 585.24 2784.53 585.23 2791.06 581.73C2795.84 579.17 2800.85 578.43 2806.42 579.68C2812.5 581.04 2818.82 581.5 2825.06 581.91C2828.92 582.16 2831.09 583.86 2832.59 587.27C2837.02 597.31 2840.49 596.84 2848.34 593.59C2854.26 591.14 2860.55 590.45 2865.97 594.41C2873.88 600.18 2882.58 599.56 2891.32 598.4C2899 597.39 2906.24 597.74 2912.63 602.57C2917.54 606.27 2922.03 605.54 2927.34 602.92C2931.1 601.06 2936.76 599.2 2939.93 600.73C2949.62 605.41 2959.57 604.8 2969.68 605.08C2979.93 605.37 2990.15 606.31 3000.39 606.96C2997.41 614.16 2992.39 617.28 2983.7 615.78C2979.03 614.97 2975.39 616.63 2971.81 618.44C2964.01 622.38 2964.12 622.61 2957.24 617.24C2949.55 611.24 2947.83 611.53 2940.83 617.94C2935.03 623.26 2928.53 625.13 2920.12 623.53C2912.48 622.07 2905.72 619.61 2899.02 615.95C2892.02 612.12 2885.23 614.61 2878.78 618.1C2874.7 620.31 2870.82 623.03 2866.52 624.61C2863.8 625.61 2859.95 625.97 2857.49 624.79C2849.52 620.95 2841.83 616.48 2834.27 611.85C2827.71 607.83 2824.11 607.61 2818.89 613.14C2812.7 619.7 2805.73 624.59 2797.11 627.51C2792.91 628.93 2788.96 629.39 2784.63 629.07C2779.53 628.69 2774.44 629.8 2769.46 627.04C2765.57 624.88 2761.83 623.04 2760.18 618.59C2759.78 617.52 2759.13 616.5 2758.42 615.59C2754.61 610.74 2751.47 609.37 2744.2 613.44C2733.4 619.48 2724.09 616.2 2714.43 611.53C2711.15 609.94 2707.91 608.04 2704.43 607.15C2700.54 606.15 2696.99 607.48 2694.14 610.7C2689.81 615.58 2685.14 620.06 2678.29 621.28C2668.52 623.02 2659.13 623.14 2651.39 615.49C2649.97 614.08 2648.62 612.59 2647.12 611.28C2644.16 608.69 2641.09 608.01 2637.74 610.79C2633.31 614.47 2628.33 616.48 2622.47 617.35C2617.18 618.14 2613.49 616.52 2610.01 613.11C2605.48 608.67 2598.75 608.48 2593.14 611.43C2584.5 615.96 2575.74 620.59 2566.52 623.55C2562.32 624.9 2556.76 622.77 2552.03 621.47C2545.04 619.54 2538.31 616.66 2531.31 614.76C2528.9 614.1 2526.01 615.06 2523.36 615.44C2520.66 615.83 2517.89 616.11 2515.34 616.99C2511.19 618.42 2506.87 619.78 2503.21 622.1C2497.96 625.43 2493.47 623.13 2490.29 620.03C2481.11 611.1 2473.73 613.54 2464.48 618.55C2460.27 620.83 2456.3 623.93 2451.81 625.21C2448.69 626.1 2444.53 625.28 2441.43 623.9C2436.07 621.51 2431.25 618.99 2424.84 619.82C2412.17 621.45 2406.09 617.91 2402.38 609.07C2403.98 608.75 2405.85 608.84 2407.14 608.02C2412.21 604.77 2415.66 606.04 2419.39 610.59C2425.26 617.74 2436.77 616.26 2441.9 608.36C2443.79 605.46 2446.48 604.03 2449.92 606.22C2451.17 607.02 2452.43 607.82 2453.71 608.58C2460.39 612.55 2468.56 611.85 2472.45 606.99C2473.95 606.99 2475.44 607.04 2476.94 606.99C2481.7 606.84 2484.8 604.46 2484.96 600.85C2485.16 596.47 2481.83 591.98 2477.41 592.18C2471.47 592.46 2467.42 591.01 2464.89 585.2C2463.66 582.37 2460.72 581.23 2457.23 582.46C2455.63 583.03 2452.93 583.39 2452.01 582.51C2445.18 575.98 2436.58 577.37 2429.1 576.94C2429.54 568.48 2429.97 560.23 2430.41 551.99C2438.63 553.55 2445.76 556.22 2447.65 565.89C2448.34 569.45 2451.79 569.56 2454.61 568.69C2458.46 567.49 2461.19 568.89 2464.19 571.08C2466.64 572.86 2469.62 574.41 2472.56 574.92C2479.37 576.09 2485.59 577.75 2490.98 582.65C2493.04 584.53 2497.37 585.22 2500.27 584.61C2506.99 583.18 2512.69 584.52 2518.22 588.21C2530.72 596.56 2555.85 599.77 2566.51 584.64C2569.02 581.08 2573.17 580.66 2577.02 583.97C2580.4 586.88 2584.4 588.14 2588.54 585.76C2594.67 582.24 2600.89 582.82 2607.36 584.38C2608.84 584.74 2610.58 583.97 2612.2 583.72C2611.31 582.07 2610.58 579.11 2609.51 578.98C2602.05 578.08 2599.25 571.89 2595.04 567.23C2593.75 565.81 2591.77 565.02 2590.16 563.88C2587.89 562.28 2585.65 560.62 2583.4 558.99L2583.41 559Z" fill="#EDF2F7"/>
<path d="M3000.38 606.98C2990.14 606.33 2979.92 605.39 2969.67 605.1C2959.57 604.82 2949.62 605.43 2939.92 600.75C2936.75 599.22 2931.09 601.08 2927.33 602.94C2922.02 605.56 2917.53 606.29 2912.62 602.59C2906.23 597.77 2898.99 597.41 2891.31 598.42C2882.57 599.57 2873.87 600.19 2865.96 594.43C2860.53 590.47 2854.24 591.16 2848.33 593.61C2840.48 596.85 2837.02 597.32 2832.58 587.29C2831.07 583.88 2828.91 582.18 2825.05 581.93C2818.81 581.52 2812.49 581.05 2806.41 579.7C2800.83 578.46 2795.83 579.19 2791.05 581.75C2784.52 585.25 2778.24 585.25 2771.73 581.73C2766.11 578.68 2760.1 578.26 2753.86 579.69C2747.48 581.15 2744.31 579.56 2741.31 573.77C2736.77 565.01 2729.13 560.83 2718.9 563.29C2709.25 565.6 2699.81 569.04 2690.56 572.69C2682.58 575.84 2674.69 575.45 2666.69 573.86C2653.34 571.21 2641.94 565.69 2635.4 552.66C2632 545.87 2626.15 542.29 2618.27 543.04C2611.23 543.71 2607.02 539.02 2602.41 535.02C2603.15 534.3 2603.77 533.19 2604.65 532.92C2610.82 531.01 2614.08 526.27 2616.29 520.77C2620.85 509.45 2625.62 505.87 2637.71 506.11C2642.46 506.2 2647.25 506.87 2651.93 507.78C2658.34 509.04 2661.79 507.97 2665.71 502.53C2668.62 498.49 2671.34 494.3 2674.31 490.31C2678.12 485.21 2682.63 482.9 2689.68 482.52C2698.61 482.04 2704.42 485.58 2710.12 491.15C2712.68 493.65 2715.71 492.92 2716.27 489.35C2717.31 482.73 2721.4 479.66 2727.42 479.33C2732.82 479.04 2737.36 481.86 2740.46 486.22C2743 489.79 2746.68 491.6 2750.25 490.62C2755.92 489.08 2760.73 490.7 2764.92 493.46C2771.07 497.51 2777.23 497.08 2783.61 495.36C2793.47 492.7 2799.29 495.43 2803.3 504.97C2804.26 507.25 2805.51 509.45 2806.17 511.81C2808.79 521.07 2808.72 521.09 2818.41 521.99C2822.09 522.33 2827.62 527.45 2827.89 531.2C2828.31 537.07 2828.59 542.97 2828.57 548.85C2828.55 553.16 2832.92 556.71 2836.77 555.07C2844.21 551.92 2852.59 554.95 2855.18 562.44C2857.25 568.43 2860.8 572.6 2866.75 574.07C2869.41 574.73 2872.62 574 2875.4 573.23C2883.8 570.88 2889.07 573.49 2891.18 582.12C2892.1 585.9 2894.35 587.31 2897.58 588.11C2898.34 588.3 2899.39 588.61 2899.92 588.26C2904.47 585.29 2908.57 587.44 2911.75 590.14C2916.39 594.07 2920.61 594.08 2924.59 590.14C2929.82 584.96 2936.74 584.5 2942.56 585.72C2947.88 586.83 2952.99 591.18 2957.12 595.2C2961.96 599.91 2963.75 600.65 2968.9 596.19C2972.06 593.46 2975.52 592.9 2978.89 595.48C2984.19 599.55 2990.33 601.07 2996.73 601.98C2999.61 602.39 3002.28 603.01 3000.4 606.96L3000.38 606.98Z" fill="#CED1ED"/>
<path d="M2583.41 559C2585.66 560.63 2587.89 562.29 2590.17 563.89C2591.79 565.03 2593.77 565.82 2595.05 567.24C2599.27 571.9 2602.06 578.09 2609.52 578.99C2610.59 579.12 2611.32 582.08 2612.21 583.73C2610.59 583.98 2608.84 584.74 2607.37 584.39C2600.91 582.83 2594.68 582.25 2588.55 585.77C2584.41 588.15 2580.41 586.89 2577.03 583.98C2573.17 580.67 2569.02 581.09 2566.52 584.65C2555.86 599.78 2530.73 596.56 2518.23 588.22C2512.7 584.53 2507 583.19 2500.28 584.62C2497.38 585.24 2493.06 584.54 2490.99 582.66C2485.6 577.76 2479.38 576.09 2472.57 574.93C2469.63 574.43 2466.64 572.88 2464.2 571.09C2461.19 568.9 2458.46 567.5 2454.62 568.7C2451.8 569.58 2448.35 569.46 2447.66 565.9C2445.77 556.23 2438.64 553.55 2430.42 552C2429.41 547.9 2431.62 542.52 2435.06 540.72C2439.26 538.51 2445.04 539.09 2447.91 542.29C2450.48 545.15 2453.87 547.72 2451.71 552.63C2451.35 553.45 2453.6 556.64 2454.8 556.74C2463.45 557.43 2471.38 562.84 2480.6 560.46C2482.04 560.09 2485.14 562.91 2486.18 564.92C2488.1 568.62 2489.86 569.45 2494.01 568C2497.89 566.65 2502.36 566.57 2506.55 566.7C2510.52 566.82 2511.68 564.55 2512.68 561.58C2514.17 557.14 2517.25 555.257 2521.92 555.93C2526.04 556.52 2529 554.65 2531.24 551.41C2532.83 549.1 2533.93 546.28 2535.96 544.47C2540.7 540.22 2550.85 542.38 2553.72 548.16C2554.41 549.55 2553.95 551.64 2553.68 553.36C2553.43 554.91 2552.72 556.39 2552.49 557.05C2558.23 560.06 2563.17 563.35 2568.61 565.13C2570.53 565.76 2573.58 562.53 2576.25 561.36C2578.55 560.35 2581.04 559.77 2583.44 559.01L2583.41 559Z" fill="#CED1ED"/>
<path d="M2472.44 606.98C2468.54 611.84 2460.37 612.54 2453.7 608.57C2452.42 607.81 2451.17 607.01 2449.91 606.21C2446.46 604.02 2443.77 605.44 2441.89 608.35C2436.76 616.25 2425.25 617.74 2419.38 610.58C2415.65 606.03 2412.2 604.76 2407.13 608.01C2405.85 608.83 2403.98 608.73 2402.37 609.06C2392.13 606.03 2381.44 604.09 2372 596.75C2376.83 593.6 2381.79 594.54 2386.09 595.37C2390.68 596.26 2394.15 595.2 2397.74 592.86C2400.65 590.96 2403.62 589.14 2406.64 587.41C2410.69 585.09 2414.73 582.78 2419.73 584.92C2420.85 585.4 2422.5 585.34 2423.67 584.9C2429.3 582.79 2433.48 585.01 2437.72 588.56C2439.36 589.93 2442.33 590.63 2444.48 590.29C2449.15 589.56 2452.63 589.79 2454.1 595.2C2455.06 598.73 2458.03 599.12 2461.29 599.07C2468.83 598.97 2470.04 599.93 2472.45 606.98H2472.44Z" fill="#CED1ED"/>
<path d="M3029.4 357C3028.38 357.36 3027.36 357.72 3026.34 358.07C3018.1 354.39 3009.72 353.69 3001.22 357.04C2996.18 359.03 2991.75 357.39 2987.44 355C2982.11 352.04 2976.67 351.58 2970.61 352.53C2967.35 353.04 2963.26 351.82 2960.34 350.07C2953.89 346.21 2954.09 345.87 2949.31 351.58C2945.76 355.82 2941.01 357.33 2935.86 355.63C2930.95 354.01 2927.86 350.97 2928.42 345.3C2928.79 341.54 2926.31 340.32 2923.2 340.06C2920.88 339.86 2918.54 340.06 2916.2 340C2911.57 339.89 2906.09 335.76 2904.36 331.4C2902.33 326.27 2906.62 325.42 2909.35 323.22C2910.46 322.33 2911.42 319.17 2910.92 318.72C2908.46 316.5 2905.63 314.53 2902.6 313.21C2901.85 312.88 2899.17 315.08 2898.64 316.57C2897.71 319.16 2897.67 322.08 2897.43 324.88C2896.55 334.96 2889.84 343.44 2879.85 346.14C2877.18 346.86 2873.96 346.53 2871.22 345.8C2865.15 344.2 2859.33 341.48 2853.2 340.3C2848.84 339.46 2846.05 337.15 2844.48 333.76C2842.56 329.63 2841.65 325.01 2840.44 320.56C2839.79 318.18 2839.4 315.73 2838.9 313.31C2837.22 314.73 2836.66 316.07 2836.15 317.44C2832.87 326.2 2826.36 332.78 2817.74 334.28C2807.73 336.02 2802.63 341.35 2798.93 349.79C2796.82 354.6 2792.93 356.14 2787.76 354.55C2780.56 352.33 2775.83 347.69 2774.35 340.01C2773.86 337.47 2772.75 334.43 2769.52 337.49C2762.11 344.5 2755.12 341.84 2749.69 335.81C2744.91 330.5 2745.45 325.46 2751.68 321.91C2754.42 320.35 2757.31 319.01 2760.26 317.92C2765.13 316.13 2770.1 314.64 2775.03 313.02C2772.79 311.06 2770.39 310.46 2768.32 309.29C2766.24 308.12 2763.22 306.59 2762.94 304.85C2762.68 303.23 2765.19 300.73 2767.01 299.3C2772.08 295.29 2777.54 291.78 2782.64 287.81C2787.66 283.9 2792.13 279.44 2793.9 272.98C2795.41 267.48 2794.16 263.01 2790.14 260.18C2789.54 260.64 2788.77 261.04 2788.28 261.66C2781.12 270.64 2772.72 271.12 2762.6 266.65C2744.58 258.69 2738.88 262.63 2729.8 275.27C2719.63 289.41 2706.18 295.36 2688.95 294.05C2677.9 293.21 2669.68 281.59 2673.21 271.18C2674.53 267.3 2676.26 267.26 2678.85 269.87C2680.38 271.41 2681.86 272.99 2683.45 274.46C2691.06 281.44 2697.8 279.21 2705.26 273.53C2705.95 273.01 2706.01 271.66 2706.16 271.25C2702.73 269.6 2699 268.93 2697.08 266.7C2688.38 256.58 2692.23 245.34 2705.16 242.01C2707.94 241.29 2710.76 240.69 2713.56 240.03C2711.32 239 2709.25 239 2707.17 239C2696.85 238.97 2690 233.87 2686.45 223.56C2683.32 214.47 2685.5 208.03 2693.85 201.24C2694.87 200.41 2695.45 199.04 2696.23 197.92C2694.85 197.28 2693.52 196.21 2692.08 196.07C2685.45 195.39 2679.43 192.84 2675.88 187.42C2669.98 178.4 2667.97 168.21 2670.08 157.38C2670.49 155.26 2670.14 152.99 2670.14 149.5C2663.97 157.42 2661.22 165.52 2658.41 173.56C2656.51 178.98 2655.71 184.53 2658.35 189.97C2659.64 192.64 2661.15 195.22 2662.7 197.76C2665.81 202.87 2665.37 207.01 2660.86 211.02C2659.15 212.54 2656.83 213.39 2655.15 214.94C2653.07 216.86 2651.37 219.18 2649.5 221.33C2651.5 222.89 2653.3 224.87 2655.54 225.93C2663.45 229.69 2669.5 235.49 2674.39 242.54C2676.75 245.93 2675.69 248 2671.8 247.94C2666.72 247.87 2664.14 249.51 2664.19 255.16C2664.21 257.41 2661.97 261.52 2660.59 261.6C2656.32 261.83 2651.91 260.79 2647.68 259.72C2643.85 258.76 2640.19 257.13 2636.46 255.79C2637.6 258 2639.23 259.06 2640.82 260.19C2649.72 266.54 2653.73 278.8 2649.92 287.97C2648.1 292.36 2645.31 293.09 2641.97 290C2640.5 288.64 2639.21 287.09 2637.67 285.82C2634.81 283.48 2632.37 283.3 2630.7 287.32C2629.55 290.08 2628.17 292.76 2626.71 295.38C2621.88 304.06 2609.9 307.33 2601.28 302.5C2595.78 299.42 2590.26 299.09 2584.94 303C2582.4 304.86 2579.91 306.79 2577.37 308.65C2574.43 310.81 2572.56 310.84 2572.37 306.41C2572.2 302.25 2570.36 299.48 2565.9 298.15C2557.01 295.5 2550.87 287.04 2550.43 277.8C2550.05 269.99 2549.3 269.25 2541.36 268.8C2543.11 266.3 2544.44 263.3 2546.69 261.39C2554.46 254.82 2563.2 249.89 2573.79 252.25C2577.33 253.04 2580.63 256.03 2583.45 258.65C2589.63 264.38 2592.51 264.09 2597.76 257.62C2601.04 253.58 2604.74 249.41 2609.16 246.9C2613.62 244.36 2619.45 244.34 2624.21 242.17C2627.33 240.75 2631.69 237.63 2631.88 235.01C2632.61 225.05 2636.51 216.63 2641.68 208.5C2645.47 202.53 2644.4 195.3 2638.39 187.42C2640.63 183.79 2643.13 180.12 2645.23 176.24C2647.17 172.64 2648.68 169.14 2647.72 164.48C2646.26 157.42 2649.69 151.28 2655.22 147.24C2666.83 138.75 2679.86 137.63 2693.31 142.15C2697.76 143.64 2702 145.9 2706.11 148.2C2714.26 152.75 2717.02 161.11 2715.63 170.37C2713.99 181.23 2714.52 183.17 2723.75 189.15C2727.15 191.36 2729.11 194.44 2729.45 198.58C2730.04 205.8 2731.39 207.39 2738.5 206.86C2744.33 206.43 2747.98 208.8 2750.72 213.49C2751.56 214.92 2752.35 216.4 2753.35 217.72C2759.57 225.9 2761.57 226.94 2769.24 221.4C2775.69 216.74 2783.26 213.01 2790.9 210.87C2795.48 209.58 2801.44 211.38 2806.18 213.28C2808.42 214.18 2809.63 218.44 2810.66 221.4C2812.36 226.28 2814.82 230.49 2819.66 232.53C2827.56 235.87 2833.81 239.88 2833.92 249.99C2833.97 254.73 2837.81 258.3 2842.88 259.47C2845.52 260.08 2848.18 260.74 2850.86 260.94C2857.1 261.39 2860.47 264.89 2859.25 271.12C2858.55 274.67 2859.83 276.33 2862.38 277.99C2866.04 280.38 2869.99 282.3 2869.92 287.99C2869.9 289.53 2873.48 292.14 2875.68 292.46C2879.96 293.09 2884.61 291.66 2888.76 292.61C2891.74 293.29 2895.79 296.01 2896.48 298.59C2898.19 304.99 2903.51 304.39 2906.53 303.25C2910.33 301.82 2911.9 303.94 2912.99 305.56C2916.49 310.73 2920.51 313.23 2927.05 312.13C2932.31 311.24 2936.05 314.4 2938.46 319.02C2939.31 320.64 2939.88 322.5 2941.04 323.85C2944.38 327.77 2947.48 328.59 2952.5 325.72C2962.44 320.04 2972.89 319.56 2982.57 326.27C2985.32 328.18 2987.18 331.98 2988.41 335.3C2989.89 339.3 2995.51 343.32 2999.39 341.7C3007.47 338.32 3015.08 339.56 3022.17 344C3024.96 345.75 3027.04 348.62 3029.44 350.99V356.99L3029.4 357ZM2819.71 259.99C2815.09 263.79 2817.75 266.87 2820.99 268.92C2824.84 271.36 2829.14 273.27 2833.47 274.72C2836.66 275.79 2838.72 273.1 2837.8 269.75C2835.37 260.84 2824.23 253.86 2814.8 255.71C2816.32 257.04 2817.63 258.19 2819.71 260V259.99ZM2597.63 279.05C2604.67 282.5 2614.47 280.08 2620.48 273.34C2621.67 272 2623.18 269.38 2622.64 268.41C2621.76 266.83 2619.38 265.42 2617.51 265.24C2615.42 265.04 2612.75 265.73 2611.12 267.03C2606.5 270.69 2602.28 274.86 2597.64 279.06L2597.63 279.05ZM2756.91 245.65C2760.49 244.9 2763.01 244.67 2765.25 243.76C2766.15 243.39 2767.13 241.39 2766.91 240.4C2765.52 234.15 2755.02 229.85 2749.38 233.05C2745.62 235.18 2745.04 238.84 2748.55 241.47C2751.19 243.45 2754.52 244.5 2756.91 245.66V245.65Z" fill="#EDF2F7"/>
<path d="M2541.33 268.81C2549.27 269.26 2550.02 270.01 2550.4 277.81C2550.84 287.05 2556.98 295.5 2565.87 298.16C2570.33 299.49 2572.16 302.26 2572.34 306.42C2572.52 310.86 2574.4 310.82 2577.34 308.66C2579.88 306.8 2582.37 304.87 2584.91 303.01C2590.23 299.1 2595.75 299.43 2601.25 302.51C2609.87 307.34 2621.85 304.06 2626.68 295.39C2628.14 292.77 2629.52 290.09 2630.67 287.33C2632.34 283.32 2634.78 283.49 2637.64 285.83C2639.18 287.09 2640.47 288.65 2641.94 290.01C2645.28 293.1 2648.07 292.37 2649.89 287.98C2653.69 278.81 2649.69 266.55 2640.79 260.2C2639.2 259.07 2637.56 258 2636.43 255.8C2640.16 257.14 2643.82 258.77 2647.65 259.73C2651.88 260.79 2656.29 261.83 2660.56 261.61C2661.94 261.54 2664.18 257.42 2664.16 255.17C2664.11 249.51 2666.69 247.88 2671.77 247.95C2675.66 248 2676.71 245.94 2674.36 242.55C2669.47 235.5 2663.41 229.7 2655.51 225.94C2653.27 224.88 2651.47 222.9 2649.47 221.34C2651.34 219.19 2653.04 216.87 2655.12 214.95C2656.8 213.4 2659.12 212.55 2660.83 211.03C2665.34 207.02 2665.78 202.88 2662.67 197.77C2661.13 195.23 2659.62 192.65 2658.32 189.98C2655.68 184.54 2656.48 178.99 2658.38 173.57C2661.2 165.53 2663.94 157.43 2670.11 149.51C2670.11 153.01 2670.46 155.27 2670.05 157.39C2667.94 168.22 2669.95 178.4 2675.85 187.43C2679.39 192.85 2685.42 195.4 2692.05 196.08C2693.48 196.23 2694.82 197.29 2696.2 197.93C2695.42 199.05 2694.84 200.42 2693.82 201.25C2685.47 208.04 2683.28 214.48 2686.42 223.57C2689.98 233.88 2696.82 238.98 2707.14 239.01C2709.22 239.01 2711.29 239.01 2713.53 240.04C2710.73 240.7 2707.92 241.3 2705.13 242.02C2692.2 245.35 2688.35 256.59 2697.05 266.71C2698.97 268.94 2702.7 269.62 2706.13 271.26C2705.98 271.67 2705.92 273.01 2705.23 273.54C2697.77 279.22 2691.03 281.45 2683.42 274.47C2681.83 273.01 2680.34 271.42 2678.82 269.88C2676.23 267.27 2674.5 267.31 2673.18 271.19C2669.64 281.6 2677.87 293.22 2688.92 294.06C2706.16 295.37 2719.6 289.42 2729.77 275.28C2738.86 262.65 2744.56 258.7 2762.57 266.66C2772.69 271.13 2781.1 270.65 2788.25 261.67C2788.74 261.05 2789.51 260.66 2790.11 260.19C2794.13 263.02 2795.38 267.48 2793.87 272.99C2792.1 279.45 2787.63 283.91 2782.61 287.82C2777.51 291.79 2772.06 295.31 2766.98 299.31C2765.16 300.75 2762.65 303.25 2762.91 304.86C2763.19 306.61 2766.21 308.13 2768.29 309.3C2770.36 310.47 2772.76 311.07 2775 313.03C2770.07 314.65 2765.1 316.15 2760.23 317.93C2757.28 319.01 2754.38 320.36 2751.65 321.92C2745.41 325.47 2744.87 330.51 2749.66 335.82C2755.09 341.84 2762.08 344.51 2769.49 337.5C2772.72 334.44 2773.84 337.48 2774.32 340.02C2775.8 347.7 2780.53 352.34 2787.73 354.56C2792.9 356.16 2796.79 354.62 2798.9 349.8C2802.6 341.36 2807.7 336.03 2817.71 334.29C2826.34 332.79 2832.84 326.22 2836.12 317.45C2836.63 316.09 2837.19 314.74 2838.87 313.32C2839.38 315.74 2839.76 318.19 2840.41 320.57C2841.63 325.01 2842.53 329.63 2844.45 333.77C2846.03 337.15 2848.82 339.47 2853.17 340.31C2859.3 341.49 2865.12 344.2 2871.19 345.81C2873.93 346.53 2877.15 346.87 2879.82 346.15C2889.81 343.46 2896.53 334.97 2897.4 324.89C2897.64 322.09 2897.68 319.16 2898.61 316.58C2899.14 315.09 2901.81 312.9 2902.57 313.22C2905.6 314.53 2908.42 316.51 2910.89 318.73C2911.38 319.17 2910.42 322.33 2909.32 323.23C2906.59 325.43 2902.29 326.28 2904.33 331.41C2906.05 335.76 2911.54 339.89 2916.17 340.01C2918.5 340.07 2920.85 339.87 2923.17 340.07C2926.28 340.34 2928.76 341.55 2928.39 345.31C2927.83 350.98 2930.92 354.02 2935.83 355.64C2940.98 357.34 2945.73 355.83 2949.28 351.59C2954.06 345.89 2953.85 346.23 2960.31 350.08C2963.24 351.83 2967.33 353.04 2970.58 352.54C2976.65 351.59 2982.08 352.05 2987.41 355.01C2991.72 357.4 2996.15 359.04 3001.19 357.05C3009.69 353.7 3018.07 354.4 3026.31 358.08C3024.6 362.9 3021.11 365.36 3016.08 364.96C3008.14 364.33 3000.93 365.48 2994.9 371.28C2991.03 375 2987.94 371.23 2984.75 369.65C2980.65 367.62 2976.94 365.47 2971.78 367.13C2962.74 370.04 2953.77 371.9 2944.4 366.46C2937.71 362.58 2929.9 364.42 2922.75 366.82C2917.79 368.49 2913.04 370.81 2908.1 372.55C2903.4 374.2 2898.81 374.6 2894.41 371.12C2888.4 366.36 2884.42 367.02 2878.7 372.45C2871.86 378.94 2864.67 383 2854.4 378.94C2845.6 375.46 2836.6 378.88 2828.74 382.98C2819.91 387.59 2811.29 390.8 2801.04 390.32C2795.85 390.08 2790.45 392.58 2785.28 394.27C2781.42 395.53 2778.16 394.71 2775.85 391.88C2768.09 382.34 2758.34 382.31 2747.37 384.41C2733.53 387.06 2721.65 393.85 2709.66 400.51C2702.48 404.49 2695.6 403.82 2688.93 399.94C2682.28 396.08 2675.91 391.65 2667.65 393.03C2664.74 393.52 2661.84 394.24 2659.04 395.19C2645.95 399.65 2632.99 399.78 2620.3 393.94C2614.1 391.08 2609.36 386.6 2606.4 380.22C2603.63 374.24 2596.73 371.2 2590.26 372.51C2587.19 373.13 2584.08 373.63 2580.96 373.96C2575.35 374.56 2570.44 371.83 2568.78 366.59C2566.32 358.83 2561.14 355 2553.27 353.94C2546.12 352.98 2541.92 348.15 2540.55 341.58C2538.93 333.85 2538.4 325.89 2537.39 318.03C2541.12 313.16 2539.13 307.79 2538.69 302.57C2538.67 302.34 2537.84 302.19 2537.38 302C2536.59 295.79 2535.15 289.58 2535.24 283.39C2535.31 278.85 2537.31 274.31 2538.68 269.84C2538.85 269.29 2540.39 269.16 2541.3 268.83L2541.33 268.81Z" fill="#CED1ED"/>
<path d="M2537.41 301.99C2537.86 302.18 2538.7 302.33 2538.72 302.56C2539.16 307.78 2541.16 313.15 2537.42 318.02C2537.42 312.68 2537.42 307.33 2537.42 301.99H2537.41Z" fill="#EDF2F7"/>
<path d="M2819.71 259.99C2817.64 258.18 2816.33 257.03 2814.8 255.7C2824.23 253.86 2835.36 260.83 2837.8 269.74C2838.71 273.09 2836.66 275.78 2833.47 274.71C2829.14 273.26 2824.84 271.35 2820.99 268.91C2817.76 266.86 2815.09 263.79 2819.71 259.98V259.99Z" fill="#CED1ED"/>
<path d="M2597.64 279.04C2602.28 274.84 2606.5 270.67 2611.12 267.01C2612.75 265.72 2615.43 265.02 2617.51 265.22C2619.38 265.4 2621.76 266.81 2622.64 268.39C2623.18 269.36 2621.67 271.98 2620.48 273.32C2614.48 280.07 2604.67 282.48 2597.63 279.03L2597.64 279.04Z" fill="#CED1ED"/>
<path d="M2756.91 245.65C2754.52 244.49 2751.19 243.43 2748.55 241.46C2745.03 238.83 2745.62 235.17 2749.38 233.04C2755.03 229.85 2765.53 234.14 2766.91 240.39C2767.13 241.39 2766.15 243.39 2765.25 243.75C2763.01 244.66 2760.5 244.89 2756.91 245.64V245.65Z" fill="#CED1ED"/>
<path d="M174.39 480.01C171.02 476.69 167.65 473.37 164.28 470.05C163.99 470.04 163.7 470.02 163.41 470.01C161.19 469.35 159.02 468.43 156.75 468.06C140.73 465.41 137.84 454.66 139.76 441.68C141.45 430.28 145.67 419.27 152.63 409.72C157.27 403.36 163.21 398.83 171.38 398.01C171.06 399.79 170.86 401.6 170.4 403.35C168.82 409.24 166.52 415.02 167.42 421.28C167.89 424.55 168.83 427.75 169.32 431.02C170.52 439.06 179.41 446.52 187.43 447.14C194.8 447.71 202.25 448.73 209.35 450.71C214.96 452.28 219.38 451.23 223.75 448.15C228.34 444.91 232.19 445.28 235.26 449.87C241.12 458.63 248.88 465.34 257.8 470.6C268.04 476.64 278.74 480.34 290.99 476.13C294.65 474.87 299.11 475.54 303.16 475.89C307.26 476.24 311.27 477.64 315.37 477.94C328.3 478.86 338.91 472.83 348.41 465.23C357.74 457.78 356.2 449 345.61 443.01C344.25 442.24 342.71 440.61 342.5 439.2C340.45 425.26 325.15 418.07 312.52 424.71C307.99 427.09 302.56 428.43 297.43 428.79C292.12 429.17 288.84 431.33 286.07 435.52C283.7 439.09 281 442.49 278.07 445.61C277.1 446.64 274.18 447.44 273.43 446.81C269.22 443.29 264.25 444.7 259.63 443.83C254.55 442.88 248.64 441.83 245.02 438.64C237.39 431.92 230.94 423.86 224.16 416.2C218.17 409.43 215.22 400.24 207.29 395C209.6 394.05 211.85 392.76 214.25 392.23C216.54 391.73 219 392.04 221.39 391.99C221.69 391.99 222 391.97 222.3 391.97C222.66 391.97 223.02 391.97 223.38 391.96C224.22 393.94 224.75 396.12 225.94 397.85C238.65 416.3 257.14 423.78 278.11 420.91C279.81 420.68 281.53 418.99 283.02 419.24C287.61 420.03 290.33 417.62 293.27 414.78C296.91 411.26 300.46 406.91 304.92 405.2C308.98 403.65 314.31 404.61 318.9 405.46C324.52 406.5 331.33 405.66 333.18 402.66C337.35 395.88 342.48 393.98 349.64 396.46C350.52 396.76 351.7 396.93 352.49 396.59C356.27 394.95 360.03 393.25 363.66 391.29C366.56 389.73 368.36 387.6 367.64 383.69C367.35 382.1 368.67 379.28 370.09 378.47C374.31 376.08 384.58 380.77 386.01 385.57C387.09 389.19 387.9 392.95 388.33 396.71C389.81 409.51 398.26 414.43 411.05 410.56C414.08 409.64 418.17 410.86 421.33 412.16C425.05 413.69 428.1 416.87 431.81 418.44C435.02 419.79 438.8 420.38 442.1 417.91C449.26 412.56 456.79 411.38 464.32 416.62C471.11 421.35 477.47 426.62 478.3 435.63C479.45 448.22 481.3 450.42 493.62 453.09C498.05 454.05 500.84 456.29 500.56 461.68C500.4 464.73 501.22 468.48 503 470.87C510.52 480.99 529.68 481.74 537.63 473.95C542.52 469.16 548.73 470.1 552.29 474.69C560.39 485.17 565.36 487.65 577.23 485.25C581.46 484.39 585.48 484.35 587.02 490.01C588.24 494.48 591.08 495.79 595.7 493.45C598.53 492.02 602.87 490.23 605.05 491.4C614.65 496.53 624.53 500.29 635.36 501.51C635.51 501.53 635.65 501.68 635.8 501.74C642.24 504.3 648.5 508.06 655.17 509.1C661.97 510.16 669.13 508.86 675.36 513C675.38 513.68 675.4 514.36 675.42 515.03C673.71 520 669.12 518.6 665.76 518.85C661.19 519.19 656.51 517.89 651.91 518.09C648.97 518.22 645.68 519.18 643.27 520.83C639.65 523.32 636.71 523.58 633.45 520.66C628.31 516.07 622.45 514.04 615.62 516.01C609.13 517.88 603.13 516.02 597.41 513.37C589.62 509.75 584.44 510.18 578.62 516.39C572.39 523.05 565.37 527.74 555.9 525.79C550.26 524.63 544.85 522.34 539.36 520.52C530.12 517.45 520.92 514.21 511.62 511.34C509.7 510.75 507.34 511.21 505.25 511.57C498.96 512.66 493 511.7 487.48 508.64C480.43 504.74 476.54 505.03 470.07 509.73C463.73 514.34 456.74 515.72 449.47 512.03C443.85 509.18 438.42 505.95 432.96 502.81C424.9 498.18 420.15 499.53 413.57 505.82C410.24 509 404.87 510.12 400.31 511.9C399.01 512.41 397.34 511.98 395.84 511.98C386.94 512.01 385.8 512.64 386.52 521.15C387.21 529.24 379.67 535.74 374.25 538.03C364.68 542.06 357.5 539.25 350.8 532.1C346.21 527.2 341.52 521.84 333.81 522.06C331.87 522.12 329.75 522.36 328.07 523.22C322.01 526.29 316.79 524.48 311.6 521.11C307.72 518.59 303.92 515.55 299.63 514.23C297.07 513.44 293.02 514.69 290.69 516.44C278.75 525.39 265.93 529.82 250.82 527.13C242.67 525.68 237.69 520.2 233.31 514.39C229.18 508.91 224.09 505.96 217.76 505.12C210.98 504.22 205.74 502.38 203.98 494.66C202.85 489.69 198.91 488.37 193.77 489.7C191.07 490.4 188.25 490.65 185.47 491C180.17 491.66 177.39 488.94 176.36 484C176.49 483.91 176.62 483.82 176.76 483.73C176.62 483.52 176.47 483.31 176.33 483.1C176.33 483.1 176.27 483.02 176.28 483.02C175.64 482.02 175.01 481.02 174.37 480.02L174.39 480.01Z" fill="#CED1ED"/>
<path d="M675.41 512.99C669.18 508.85 662.02 510.15 655.22 509.09C648.54 508.05 642.29 504.3 635.85 501.73C635.7 501.67 635.56 501.52 635.41 501.5C624.58 500.28 614.7 496.52 605.1 491.39C602.93 490.23 598.59 492.01 595.75 493.44C591.13 495.78 588.29 494.46 587.07 490C585.52 484.33 581.51 484.38 577.28 485.24C565.41 487.64 560.44 485.17 552.34 474.68C548.79 470.08 542.58 469.15 537.68 473.94C529.73 481.72 510.56 480.98 503.05 470.86C501.27 468.47 500.45 464.72 500.61 461.67C500.9 456.28 498.11 454.04 493.67 453.08C481.36 450.41 479.51 448.21 478.35 435.62C477.52 426.62 471.17 421.34 464.37 416.61C456.85 411.37 449.31 412.54 442.15 417.9C438.85 420.37 435.07 419.78 431.86 418.43C428.14 416.86 425.1 413.69 421.38 412.15C418.22 410.85 414.12 409.63 411.1 410.55C398.31 414.42 389.86 409.5 388.38 396.7C387.95 392.95 387.14 389.19 386.06 385.56C384.63 380.76 374.36 376.07 370.14 378.46C368.72 379.26 367.4 382.08 367.69 383.68C368.41 387.59 366.61 389.72 363.71 391.28C360.09 393.23 356.32 394.93 352.54 396.58C351.75 396.92 350.56 396.75 349.69 396.45C342.53 393.97 337.4 395.87 333.23 402.65C331.38 405.65 324.57 406.49 318.95 405.45C314.36 404.6 309.03 403.64 304.97 405.19C300.51 406.89 296.96 411.25 293.32 414.77C290.38 417.61 287.65 420.02 283.07 419.23C281.58 418.97 279.85 420.66 278.16 420.9C257.18 423.77 238.7 416.29 225.99 397.84C224.8 396.11 224.27 393.92 223.43 391.95C224.55 388.32 226.59 384.71 226.61 381.07C226.66 372.59 231.12 366.46 236.75 361.43C246.01 353.15 256.66 347.08 268.82 343.56C276.2 341.42 283.49 340.19 291.14 339.87C299.18 339.53 305.82 342.02 311.36 347.53C314.93 351.09 319.32 351.11 322.79 349.04C328.8 345.47 333.72 340.61 334.41 332.75C334.56 331.07 336.75 328.66 338.43 328.23C341.49 327.43 344.88 327.74 348.12 327.8C350.99 327.86 355.64 323.69 356.08 319.09C357.34 305.96 366.77 300.52 377.2 296.35C383.32 293.9 389.92 292.53 396.41 291.18C398.62 290.72 401.16 291.73 403.54 292.16C406.35 292.67 409.12 293.45 411.95 293.83C422.74 295.29 430.65 300.15 433.36 311.42C434.24 315.08 434.79 318.9 436.24 322.33C437.8 326.03 440.45 328.21 445.28 327.17C450.73 326 454.83 329.13 457.59 333.57C459.33 336.36 460.28 339.63 461.74 342.61C465.17 349.6 469.48 351.05 476.97 348.83C485.32 346.36 493.23 347.56 499.7 353.87C502.36 356.46 503.45 359.62 501.98 363.56C499.92 369.07 502.22 371.04 508.07 372.33C514.83 373.81 522.21 371.02 528.49 376.26C534.87 381.59 538.41 388.05 541.15 395.82C543.92 403.68 543.04 411.42 543.4 419.25C543.61 423.85 545.64 425.04 549.85 423.27C553.63 421.68 557.47 420.06 561.44 419.11C569.96 417.08 579.47 425.2 579.43 434.04C579.4 441.31 579.48 448.58 579.6 455.85C579.66 459.79 583.1 463.02 587.67 464C593.72 465.29 599.84 466.42 605.71 468.31C610.49 469.84 613.69 473.2 614.53 478.69C615.25 483.44 620.49 485.98 624.79 484.57C631.39 482.41 637.6 483.13 642.91 488.01C645.12 490.04 647.45 492.02 649.23 494.4C653.39 499.98 658.75 501.19 665.24 499.84C670.92 498.66 675.59 502.76 675.48 508.49C675.45 509.99 675.45 511.49 675.43 512.99H675.41Z" fill="#EDF2F7"/>
<path d="M207.32 395C215.25 400.24 218.21 409.43 224.19 416.2C230.96 423.86 237.42 431.93 245.05 438.64C248.67 441.83 254.59 442.88 259.66 443.83C264.28 444.7 269.25 443.28 273.46 446.81C274.21 447.44 277.13 446.64 278.1 445.61C281.04 442.5 283.74 439.09 286.1 435.52C288.87 431.34 292.14 429.17 297.46 428.79C302.59 428.42 308.02 427.09 312.55 424.71C325.18 418.07 340.48 425.27 342.53 439.2C342.74 440.61 344.29 442.24 345.64 443.01C356.23 449 357.77 457.77 348.44 465.23C338.94 472.82 328.32 478.86 315.4 477.94C311.3 477.65 307.29 476.24 303.19 475.89C299.14 475.55 294.69 474.87 291.02 476.13C278.77 480.34 268.07 476.64 257.83 470.6C248.9 465.34 241.14 458.62 235.29 449.87C232.22 445.28 228.37 444.91 223.78 448.15C219.4 451.23 214.98 452.28 209.38 450.71C202.29 448.73 194.83 447.71 187.46 447.14C179.43 446.52 170.55 439.07 169.35 431.02C168.86 427.75 167.93 424.55 167.45 421.28C166.54 415.01 168.84 409.23 170.43 403.35C170.9 401.61 171.09 399.8 171.41 398.01C173.59 397.91 175.81 397.5 177.94 397.76C182.58 398.32 187.18 399.77 191.8 399.8C195.36 399.82 198.96 398.33 202.47 397.29C204.16 396.79 205.71 395.78 207.32 395Z" fill="#EDF2F7"/>
<path d="M211.41 706C216.19 701.85 216.3 699.34 211.86 692.83C215.9 685.59 222.24 682.25 230.42 682C235.03 686 239.25 690.69 246.28 690.02C254.15 689.27 260 692.86 263.41 699.64C269.94 712.67 281.35 718.18 294.7 720.84C302.7 722.43 310.59 722.82 318.57 719.67C327.82 716.02 337.26 712.59 346.91 710.27C357.15 707.82 364.79 712 369.32 720.75C372.32 726.54 375.5 728.13 381.87 726.67C388.1 725.24 394.12 725.67 399.74 728.71C406.25 732.24 412.53 732.23 419.06 728.73C423.84 726.17 428.85 725.43 434.42 726.68C440.5 728.04 446.82 728.5 453.06 728.91C456.92 729.16 459.09 730.86 460.59 734.27C465.02 744.31 468.49 743.84 476.34 740.59C482.26 738.14 488.55 737.45 493.97 741.41C501.88 747.18 510.58 746.56 519.32 745.4C527 744.39 534.24 744.74 540.63 749.57C545.54 753.27 550.03 752.54 555.34 749.92C559.1 748.06 564.76 746.2 567.93 747.73C577.62 752.41 587.57 751.8 597.68 752.08C607.93 752.37 618.15 753.31 628.39 753.96C625.41 761.16 620.39 764.28 611.7 762.78C607.03 761.97 603.39 763.63 599.81 765.44C592.01 769.38 592.12 769.61 585.24 764.24C577.55 758.24 575.83 758.53 568.83 764.94C563.03 770.26 556.53 772.13 548.12 770.53C540.48 769.07 533.72 766.61 527.02 762.95C520.02 759.12 513.23 761.61 506.78 765.1C502.7 767.31 498.82 770.03 494.52 771.61C491.8 772.61 487.95 772.97 485.49 771.79C477.52 767.95 469.83 763.48 462.27 758.85C455.71 754.83 452.11 754.61 446.89 760.14C440.7 766.7 433.73 771.59 425.11 774.51C420.91 775.93 416.96 776.39 412.63 776.07C407.53 775.69 402.44 776.8 397.46 774.04C393.57 771.88 389.83 770.04 388.18 765.59C387.78 764.52 387.13 763.5 386.42 762.59C382.61 757.74 379.47 756.37 372.2 760.44C361.4 766.48 352.09 763.2 342.43 758.53C339.15 756.94 335.91 755.04 332.43 754.15C328.54 753.15 324.99 754.48 322.14 757.7C317.81 762.58 313.14 767.06 306.29 768.28C296.52 770.02 287.13 770.14 279.39 762.49C277.97 761.08 276.62 759.59 275.12 758.28C272.16 755.69 269.09 755.01 265.74 757.79C261.31 761.47 256.33 763.48 250.47 764.35C245.18 765.14 241.49 763.52 238.01 760.11C233.48 755.67 226.75 755.48 221.14 758.43C212.5 762.96 203.74 767.59 194.52 770.55C190.32 771.9 184.76 769.77 180.03 768.47C173.04 766.54 166.31 763.66 159.31 761.76C156.9 761.1 154.01 762.06 151.36 762.44C148.66 762.83 145.89 763.11 143.34 763.99C139.19 765.42 134.87 766.78 131.21 769.1C125.96 772.43 121.47 770.13 118.29 767.03C109.11 758.1 101.73 760.54 92.4799 765.55C88.2699 767.83 84.2999 770.93 79.8099 772.21C76.6899 773.1 72.5299 772.28 69.4299 770.9C64.0699 768.51 59.2499 765.99 52.8399 766.82C40.1699 768.45 34.0899 764.91 30.3799 756.07C31.9799 755.75 33.8499 755.84 35.1399 755.02C40.2099 751.77 43.6599 753.04 47.3899 757.59C53.2599 764.74 64.7699 763.26 69.8999 755.36C71.7899 752.46 74.4799 751.03 77.9199 753.22C79.1699 754.02 80.4299 754.82 81.7099 755.58C88.3899 759.55 96.5599 758.85 100.45 753.99C101.95 753.99 103.44 754.04 104.94 753.99C109.7 753.84 112.8 751.46 112.96 747.85C113.16 743.47 109.83 738.98 105.41 739.18C99.4699 739.46 95.4199 738.01 92.8899 732.2C91.6599 729.37 88.7199 728.23 85.2299 729.46C83.6299 730.03 80.9299 730.39 80.0099 729.51C73.1799 722.98 64.5799 724.37 57.0999 723.94C57.5399 715.48 57.9699 707.23 58.4099 698.99C66.6299 700.55 73.7599 703.22 75.6499 712.89C76.3399 716.45 79.7899 716.56 82.6099 715.69C86.4599 714.49 89.1899 715.89 92.1899 718.08C94.6399 719.86 97.6199 721.41 100.56 721.92C107.37 723.09 113.59 724.75 118.98 729.65C121.04 731.53 125.37 732.22 128.27 731.61C134.99 730.18 140.69 731.52 146.22 735.21C158.72 743.56 183.85 746.77 194.51 731.64C197.02 728.08 201.17 727.66 205.02 730.97C208.4 733.88 212.4 735.14 216.54 732.76C222.67 729.24 228.89 729.82 235.36 731.38C236.84 731.74 238.58 730.97 240.2 730.72C239.31 729.07 238.58 726.11 237.51 725.98C230.05 725.08 227.25 718.89 223.04 714.23C221.75 712.81 219.77 712.02 218.16 710.88C215.89 709.28 213.65 707.62 211.4 705.99L211.41 706Z" fill="#EDF2F7"/>
<path d="M628.38 753.98C618.14 753.33 607.92 752.39 597.67 752.1C587.57 751.82 577.62 752.43 567.92 747.75C564.75 746.22 559.09 748.08 555.33 749.94C550.02 752.56 545.53 753.29 540.62 749.59C534.23 744.77 526.99 744.41 519.31 745.42C510.57 746.57 501.87 747.19 493.96 741.43C488.53 737.47 482.24 738.16 476.33 740.61C468.48 743.85 465.02 744.32 460.58 734.29C459.07 730.88 456.91 729.18 453.05 728.93C446.81 728.52 440.49 728.05 434.41 726.7C428.83 725.46 423.83 726.19 419.05 728.75C412.52 732.25 406.24 732.25 399.73 728.73C394.11 725.68 388.1 725.26 381.86 726.69C375.48 728.15 372.31 726.56 369.31 720.77C364.77 712.01 357.13 707.83 346.9 710.29C337.25 712.6 327.81 716.04 318.56 719.69C310.58 722.84 302.69 722.45 294.69 720.86C281.34 718.21 269.94 712.69 263.4 699.66C260 692.87 254.15 689.29 246.27 690.04C239.23 690.71 235.02 686.02 230.41 682.02C231.15 681.3 231.77 680.19 232.65 679.92C238.82 678.01 242.08 673.27 244.29 667.77C248.85 656.45 253.62 652.87 265.71 653.11C270.46 653.2 275.25 653.87 279.93 654.78C286.34 656.04 289.79 654.97 293.71 649.53C296.62 645.49 299.34 641.3 302.31 637.31C306.12 632.21 310.63 629.9 317.68 629.52C326.61 629.04 332.42 632.58 338.12 638.15C340.68 640.65 343.71 639.92 344.27 636.35C345.31 629.73 349.4 626.66 355.42 626.33C360.82 626.04 365.36 628.86 368.46 633.22C371 636.79 374.68 638.6 378.25 637.62C383.92 636.08 388.73 637.7 392.92 640.46C399.07 644.51 405.23 644.08 411.61 642.36C421.47 639.7 427.29 642.43 431.3 651.97C432.26 654.25 433.51 656.45 434.17 658.81C436.79 668.07 436.72 668.09 446.41 668.99C450.09 669.33 455.62 674.45 455.89 678.2C456.31 684.07 456.59 689.97 456.57 695.85C456.55 700.16 460.92 703.71 464.77 702.07C472.21 698.92 480.59 701.95 483.18 709.44C485.25 715.43 488.8 719.6 494.75 721.07C497.41 721.73 500.62 721 503.4 720.23C511.8 717.88 517.07 720.49 519.18 729.12C520.1 732.9 522.35 734.31 525.58 735.11C526.34 735.3 527.39 735.61 527.92 735.26C532.47 732.29 536.57 734.44 539.75 737.14C544.39 741.07 548.61 741.08 552.59 737.14C557.82 731.96 564.74 731.5 570.56 732.72C575.88 733.83 580.99 738.18 585.12 742.2C589.96 746.91 591.75 747.65 596.9 743.19C600.06 740.46 603.52 739.9 606.89 742.48C612.19 746.55 618.33 748.07 624.73 748.98C627.61 749.39 630.28 750.01 628.4 753.96L628.38 753.98Z" fill="#CED1ED"/>
<path d="M211.41 706C213.66 707.63 215.89 709.29 218.17 710.89C219.79 712.03 221.77 712.82 223.05 714.24C227.27 718.9 230.06 725.09 237.52 725.99C238.59 726.12 239.32 729.08 240.21 730.73C238.59 730.98 236.84 731.74 235.37 731.39C228.91 729.83 222.68 729.25 216.55 732.77C212.41 735.15 208.41 733.89 205.03 730.98C201.17 727.67 197.02 728.09 194.52 731.65C183.86 746.78 158.73 743.56 146.23 735.22C140.7 731.53 135 730.19 128.28 731.62C125.38 732.24 121.06 731.54 118.99 729.66C113.6 724.76 107.38 723.09 100.57 721.93C97.63 721.43 94.64 719.88 92.2 718.09C89.19 715.9 86.46 714.5 82.62 715.7C79.8 716.58 76.35 716.46 75.66 712.9C73.77 703.23 66.64 700.55 58.42 699C57.41 694.9 59.62 689.52 63.06 687.72C67.26 685.51 73.04 686.09 75.91 689.29C78.48 692.15 81.87 694.72 79.71 699.63C79.35 700.45 81.6 703.64 82.8 703.74C91.45 704.43 99.38 709.84 108.6 707.46C110.04 707.09 113.14 709.91 114.18 711.92C116.1 715.62 117.86 716.45 122.01 715C125.89 713.65 130.36 713.57 134.55 713.7C138.52 713.82 139.68 711.55 140.68 708.58C142.173 704.14 145.253 702.257 149.92 702.93C154.04 703.52 157 701.65 159.24 698.41C160.83 696.1 161.93 693.28 163.96 691.47C168.7 687.22 178.85 689.38 181.72 695.16C182.41 696.55 181.95 698.64 181.68 700.36C181.43 701.91 180.72 703.39 180.49 704.05C186.23 707.06 191.17 710.35 196.61 712.13C198.53 712.76 201.58 709.53 204.25 708.36C206.55 707.35 209.04 706.77 211.44 706.01L211.41 706Z" fill="#CED1ED"/>
<path d="M100.44 753.98C96.54 758.84 88.37 759.54 81.7 755.57C80.42 754.81 79.17 754.01 77.91 753.21C74.46 751.02 71.77 752.44 69.89 755.35C64.76 763.25 53.25 764.74 47.38 757.58C43.65 753.03 40.2 751.76 35.13 755.01C33.85 755.83 31.98 755.73 30.37 756.06C20.13 753.03 9.44 751.09 0 743.75C4.83 740.6 9.79 741.54 14.09 742.37C18.68 743.26 22.15 742.2 25.74 739.86C28.65 737.96 31.62 736.14 34.64 734.41C38.69 732.09 42.73 729.78 47.73 731.92C48.85 732.4 50.5 732.34 51.67 731.9C57.3 729.79 61.48 732.01 65.72 735.56C67.36 736.93 70.33 737.63 72.48 737.29C77.15 736.56 80.63 736.79 82.1 742.2C83.06 745.73 86.03 746.12 89.29 746.07C96.83 745.97 98.04 746.93 100.45 753.98H100.44Z" fill="#CED1ED"/>
<path d="M835.43 114.69C840.21 110.54 840.32 108.03 835.88 101.52C839.92 94.2804 846.26 90.9404 854.44 90.6904C859.05 94.6904 863.27 99.3804 870.3 98.7104C878.17 97.9604 884.02 101.55 887.43 108.33C893.96 121.36 905.37 126.87 918.72 129.53C926.72 131.12 934.61 131.51 942.59 128.36C951.84 124.71 961.28 121.28 970.93 118.96C981.17 116.51 988.81 120.69 993.34 129.44C996.34 135.23 999.52 136.82 1005.89 135.36C1012.12 133.93 1018.14 134.36 1023.76 137.4C1030.27 140.93 1036.55 140.92 1043.08 137.42C1047.86 134.86 1052.87 134.12 1058.44 135.37C1064.52 136.73 1070.84 137.19 1077.08 137.6C1080.94 137.85 1083.11 139.55 1084.61 142.96C1089.04 153 1092.51 152.53 1100.36 149.28C1106.28 146.83 1112.57 146.14 1117.99 150.1C1125.9 155.87 1134.6 155.25 1143.34 154.09C1151.02 153.08 1158.26 153.43 1164.65 158.26C1169.56 161.96 1174.05 161.23 1179.36 158.61C1183.12 156.75 1188.78 154.89 1191.95 156.42C1201.64 161.1 1211.59 160.49 1221.7 160.77C1231.95 161.06 1242.17 162 1252.41 162.65C1249.43 169.85 1244.41 172.97 1235.72 171.47C1231.05 170.66 1227.41 172.32 1223.83 174.13C1216.03 178.07 1216.14 178.3 1209.26 172.93C1201.57 166.93 1199.85 167.22 1192.85 173.63C1187.05 178.95 1180.55 180.82 1172.14 179.22C1164.5 177.76 1157.74 175.3 1151.04 171.64C1144.04 167.81 1137.25 170.3 1130.8 173.79C1126.72 176 1122.84 178.72 1118.54 180.3C1115.82 181.3 1111.97 181.66 1109.51 180.48C1101.54 176.64 1093.85 172.17 1086.29 167.54C1079.73 163.52 1076.13 163.3 1070.91 168.83C1064.72 175.39 1057.75 180.28 1049.13 183.2C1044.93 184.62 1040.98 185.08 1036.65 184.76C1031.55 184.38 1026.46 185.49 1021.48 182.73C1017.59 180.57 1013.85 178.73 1012.2 174.28C1011.8 173.21 1011.15 172.19 1010.44 171.28C1006.63 166.43 1003.49 165.06 996.22 169.13C985.42 175.17 976.11 171.89 966.45 167.22C963.17 165.63 959.93 163.73 956.45 162.84C952.56 161.84 949.01 163.17 946.16 166.39C941.83 171.27 937.16 175.75 930.31 176.97C920.54 178.71 911.15 178.83 903.41 171.18C901.99 169.77 900.64 168.28 899.14 166.97C896.18 164.38 893.11 163.7 889.76 166.48C885.33 170.16 880.35 172.17 874.49 173.04C869.2 173.83 865.51 172.21 862.03 168.8C857.5 164.36 850.77 164.17 845.16 167.12C836.52 171.65 827.76 176.28 818.54 179.24C814.34 180.59 808.78 178.46 804.05 177.16C797.06 175.23 790.33 172.35 783.33 170.45C780.92 169.79 778.03 170.75 775.38 171.13C772.68 171.52 769.91 171.8 767.36 172.68C763.21 174.11 758.89 175.47 755.23 177.79C749.98 181.12 745.49 178.82 742.31 175.72C733.13 166.79 725.75 169.23 716.5 174.24C712.29 176.52 708.32 179.62 703.83 180.9C700.71 181.79 696.55 180.97 693.45 179.59C688.09 177.2 683.27 174.68 676.86 175.51C664.19 177.14 658.11 173.6 654.4 164.76C656 164.44 657.87 164.53 659.16 163.71C664.23 160.46 667.68 161.73 671.41 166.28C677.28 173.43 688.79 171.95 693.92 164.05C695.81 161.15 698.5 159.72 701.94 161.91C703.19 162.71 704.45 163.51 705.73 164.27C712.41 168.24 720.58 167.54 724.47 162.68C725.97 162.68 727.46 162.73 728.96 162.68C733.72 162.53 736.82 160.15 736.98 156.54C737.18 152.16 733.85 147.67 729.43 147.87C723.49 148.15 719.44 146.7 716.91 140.89C715.68 138.06 712.74 136.92 709.25 138.15C707.65 138.72 704.95 139.08 704.03 138.2C697.2 131.67 688.6 133.06 681.12 132.63C681.56 124.17 681.99 115.92 682.43 107.68C690.65 109.24 697.78 111.91 699.67 121.58C700.36 125.14 703.81 125.25 706.63 124.38C710.48 123.18 713.21 124.58 716.21 126.77C718.66 128.55 721.64 130.1 724.58 130.61C731.39 131.78 737.61 133.44 743 138.34C745.06 140.22 749.39 140.91 752.29 140.3C759.01 138.87 764.71 140.21 770.24 143.9C782.74 152.25 807.87 155.46 818.53 140.33C821.04 136.77 825.19 136.35 829.04 139.66C832.42 142.57 836.42 143.83 840.56 141.45C846.69 137.93 852.91 138.51 859.38 140.07C860.86 140.43 862.6 139.66 864.22 139.41C863.33 137.76 862.6 134.8 861.53 134.67C854.07 133.77 851.27 127.58 847.06 122.92C845.77 121.5 843.79 120.71 842.18 119.57C839.91 117.97 837.67 116.31 835.42 114.68L835.43 114.69Z" fill="#EDF2F7"/>
<path d="M1252.4 162.67C1242.16 162.02 1231.94 161.08 1221.69 160.79C1211.59 160.51 1201.64 161.12 1191.94 156.44C1188.77 154.91 1183.11 156.77 1179.35 158.63C1174.04 161.25 1169.55 161.98 1164.64 158.28C1158.25 153.46 1151.01 153.1 1143.33 154.11C1134.59 155.26 1125.89 155.88 1117.98 150.12C1112.55 146.16 1106.26 146.85 1100.35 149.3C1092.5 152.54 1089.04 153.01 1084.6 142.98C1083.09 139.57 1080.93 137.87 1077.07 137.62C1070.83 137.21 1064.51 136.74 1058.43 135.39C1052.85 134.15 1047.85 134.88 1043.07 137.44C1036.54 140.94 1030.26 140.94 1023.75 137.42C1018.13 134.37 1012.12 133.95 1005.88 135.38C999.5 136.84 996.33 135.25 993.33 129.46C988.79 120.7 981.15 116.52 970.92 118.98C961.27 121.29 951.83 124.73 942.58 128.38C934.6 131.53 926.71 131.14 918.71 129.55C905.36 126.9 893.96 121.38 887.42 108.35C884.02 101.56 878.17 97.9805 870.29 98.7305C863.25 99.4005 859.04 94.7104 854.43 90.7104C855.17 89.9904 855.79 88.8805 856.67 88.6105C862.84 86.7005 866.1 81.9604 868.31 76.4604C872.87 65.1404 877.64 61.5604 889.73 61.8004C894.48 61.8904 899.27 62.5605 903.95 63.4705C910.36 64.7305 913.81 63.6605 917.73 58.2205C920.64 54.1805 923.36 49.9905 926.33 46.0005C930.14 40.9005 934.65 38.5904 941.7 38.2104C950.63 37.7304 956.44 41.2705 962.14 46.8405C964.7 49.3405 967.73 48.6105 968.29 45.0405C969.33 38.4205 973.42 35.3504 979.44 35.0204C984.84 34.7304 989.38 37.5505 992.48 41.9105C995.02 45.4805 998.7 47.2905 1002.27 46.3105C1007.94 44.7705 1012.75 46.3904 1016.94 49.1504C1023.09 53.2004 1029.25 52.7704 1035.63 51.0504C1045.49 48.3904 1051.31 51.1205 1055.32 60.6605C1056.28 62.9405 1057.53 65.1405 1058.19 67.5005C1060.81 76.7605 1060.74 76.7804 1070.43 77.6804C1074.11 78.0204 1079.64 83.1405 1079.91 86.8905C1080.33 92.7605 1080.61 98.6605 1080.59 104.54C1080.57 108.85 1084.94 112.4 1088.79 110.76C1096.23 107.61 1104.61 110.64 1107.2 118.13C1109.27 124.12 1112.82 128.29 1118.77 129.76C1121.43 130.42 1124.64 129.69 1127.42 128.92C1135.82 126.57 1141.09 129.18 1143.2 137.81C1144.12 141.59 1146.37 143 1149.6 143.8C1150.36 143.99 1151.41 144.3 1151.94 143.95C1156.49 140.98 1160.59 143.13 1163.77 145.83C1168.41 149.76 1172.63 149.77 1176.61 145.83C1181.84 140.65 1188.76 140.19 1194.58 141.41C1199.9 142.52 1205.01 146.87 1209.14 150.89C1213.98 155.6 1215.77 156.34 1220.92 151.88C1224.08 149.15 1227.54 148.59 1230.91 151.17C1236.21 155.24 1242.35 156.76 1248.75 157.67C1251.63 158.08 1254.3 158.7 1252.42 162.65L1252.4 162.67Z" fill="#CED1ED"/>
<path d="M986.195 731.508C989.835 728.868 993.395 726.098 997.145 723.628C1005.54 718.088 1013.03 723.218 1020.78 725.788C1031.28 729.258 1036.49 727.488 1041.87 719.918C1045.7 714.528 1050.44 712.648 1056.93 714.178C1064.36 715.938 1068.45 713.618 1071.62 706.618C1077.35 693.948 1084.49 683.108 1099.27 679.008C1111.76 675.548 1122.73 677.928 1133.37 684.268C1136.36 686.048 1139.31 687.948 1142.08 690.058C1148.01 694.588 1154.22 694.058 1160.53 691.278C1166.7 688.568 1172.71 685.488 1178.92 682.848C1184.35 680.538 1187.07 675.978 1188.77 670.928C1190.93 664.518 1195.26 660.268 1200.52 656.588C1209.9 650.018 1220.54 647.238 1231.67 648.178C1236.43 648.578 1241.04 651.968 1245.48 654.438C1248.49 656.118 1251.26 658.348 1253.81 660.688C1261.28 667.538 1269.46 668.928 1278.7 664.708C1286.91 660.958 1295.27 660.808 1303.97 663.278C1308.13 664.458 1312.85 663.658 1317.02 664.818C1324.83 666.998 1333.48 667.378 1338.5 675.798C1343.13 683.568 1351.89 685.678 1361.71 683.398C1368.81 681.758 1374.36 678.688 1380.13 674.748C1383.65 672.338 1388.43 671.698 1392.71 670.468C1405.44 666.788 1414.71 672.788 1423.48 681.078C1427.28 684.668 1432.11 687.168 1436.49 690.128C1442.38 694.098 1448.61 697.638 1454.09 702.108C1458.53 705.728 1467.26 707.538 1472.6 704.348C1480.18 699.828 1488.22 700.258 1496.34 703.018C1505.86 706.258 1513.76 711.818 1520.47 719.238C1524.62 723.828 1529.03 728.078 1536.06 726.928C1537.62 726.668 1539.42 726.848 1540.71 726.128C1546.46 722.918 1551.82 723.718 1556.28 728.068C1561.22 732.888 1565.43 738.458 1570.23 743.428C1572.99 746.288 1576.21 748.728 1579.41 751.118C1583.23 753.978 1585.83 751.588 1588.07 748.628C1592.04 743.398 1594.9 743.068 1600.14 746.898C1606.82 751.778 1613.72 756.368 1620.37 761.298C1621.88 762.418 1622.69 764.468 1623.91 766.028C1627.04 770.018 1626.42 772.568 1621.18 773.448C1618.37 772.148 1615.32 771.218 1612.81 769.488C1606.76 765.308 1600.35 764.358 1593.4 766.298C1586.27 768.288 1579.42 768.138 1572.6 764.768C1563.79 760.418 1557.6 761.698 1550.53 768.578C1549.12 769.948 1547.5 771.168 1545.8 772.148C1537.58 776.858 1528.9 776.018 1520.18 773.998C1507.5 771.078 1496.41 764.858 1485.77 757.608C1478.54 752.678 1472.78 753.258 1466.76 759.478C1463.26 763.098 1459.11 764.838 1454.25 764.398C1450.82 764.088 1447.35 763.368 1444.09 762.268C1431.58 758.068 1419.31 756.048 1407.29 763.848C1402.35 767.048 1397.33 764.918 1392.49 763.078C1390.94 762.488 1389.52 761.568 1387.98 760.938C1382.07 758.538 1376.81 758.888 1372.14 763.968C1367.92 768.548 1362.48 768.928 1357.34 765.568C1355.4 764.298 1353.52 762.928 1351.69 761.498C1342.04 753.958 1332.06 748.538 1319.27 754.138C1316.47 755.358 1312.49 755.668 1309.65 754.688C1302.38 752.158 1295.64 748.028 1288.3 745.818C1284.1 744.548 1277.61 743.948 1274.84 746.258C1268.46 751.578 1262.13 754.708 1253.79 754.618C1247.67 754.548 1245.29 757.528 1245.18 763.768C1245.15 765.268 1245.27 766.778 1245.12 768.258C1244.71 772.218 1242.46 774.968 1238.58 775.348C1230.42 776.158 1222.4 775.448 1215.01 771.308C1205.45 765.948 1196.02 761.728 1184.17 763.918C1177.06 765.228 1169.17 763.148 1164.46 755.968C1162.46 752.918 1160.47 749.838 1158.79 746.598C1155.94 741.088 1151.6 737.238 1146.24 734.358C1136.95 729.358 1126.6 728.728 1116.49 727.648C1107.85 726.718 1098.99 728.228 1090.58 724.648C1088.59 723.798 1086.06 724.238 1084.05 724.098C1087.32 731.348 1090.38 738.058 1093.37 744.798C1095.27 749.078 1094.12 753.068 1091.47 756.508C1082.99 767.558 1059.18 770.768 1050.96 759.898C1044.96 751.968 1037.82 749.618 1027.91 755.988C1022.87 759.228 1019.19 757.898 1015.47 753.078C1013.76 750.868 1011.95 748.608 1009.77 746.898C1005.44 743.488 1000.91 740.308 996.305 737.278C993.075 735.148 989.585 733.418 986.205 731.508H986.195Z" fill="#EDF2F7"/>
<path d="M986.195 731.508C989.575 733.418 993.065 735.148 996.295 737.278C1000.9 740.308 1005.43 743.488 1009.76 746.898C1011.94 748.608 1013.75 750.868 1015.46 753.078C1019.18 757.898 1022.86 759.228 1027.9 755.988C1037.82 749.618 1044.95 751.968 1050.95 759.898C1059.17 770.758 1082.98 767.548 1091.46 756.508C1094.1 753.058 1095.26 749.078 1093.36 744.798C1090.37 738.058 1087.31 731.348 1084.04 724.098C1086.05 724.238 1088.58 723.798 1090.57 724.648C1098.98 728.228 1107.84 726.718 1116.48 727.648C1126.59 728.738 1136.94 729.358 1146.23 734.358C1151.59 737.248 1155.93 741.088 1158.78 746.598C1160.45 749.828 1162.45 752.918 1164.45 755.968C1169.16 763.148 1177.05 765.228 1184.16 763.918C1196 761.728 1205.44 765.948 1215 771.308C1222.38 775.448 1230.4 776.158 1238.57 775.348C1242.46 774.968 1244.71 772.218 1245.11 768.258C1245.26 766.778 1245.14 765.258 1245.17 763.768C1245.28 757.528 1247.65 754.548 1253.78 754.618C1262.11 754.718 1268.44 751.588 1274.83 746.258C1277.61 743.948 1284.09 744.548 1288.29 745.818C1295.63 748.028 1302.37 752.168 1309.64 754.688C1312.48 755.678 1316.46 755.368 1319.26 754.138C1332.05 748.538 1342.03 753.958 1351.68 761.498C1353.51 762.928 1355.39 764.298 1357.33 765.568C1362.48 768.928 1367.92 768.548 1372.13 763.968C1376.8 758.898 1382.06 758.548 1387.97 760.938C1389.51 761.558 1390.93 762.488 1392.48 763.078C1397.32 764.928 1402.34 767.058 1407.28 763.848C1419.31 756.048 1431.58 758.068 1444.08 762.268C1447.34 763.368 1450.81 764.078 1454.24 764.398C1459.1 764.838 1463.25 763.098 1466.75 759.478C1472.77 753.258 1478.53 752.678 1485.76 757.608C1496.4 764.858 1507.49 771.078 1520.17 773.998C1528.9 776.008 1537.57 776.858 1545.79 772.148C1547.49 771.168 1549.12 769.948 1550.52 768.578C1557.59 761.708 1563.78 760.418 1572.59 764.768C1579.41 768.138 1586.27 768.288 1593.39 766.298C1600.34 764.358 1606.75 765.308 1612.8 769.488C1615.31 771.218 1618.36 772.158 1621.17 773.448C1622.36 773.748 1623.55 774.038 1624.97 774.388C1619.79 781.318 1616.74 782.448 1609.33 780.048C1600.95 777.338 1592.73 777.778 1584.31 780.118C1579.52 781.448 1574.43 782.248 1569.47 782.308C1564.25 782.378 1561.42 785.338 1558.51 788.808C1555.98 791.818 1553.39 794.828 1550.55 797.538C1547.76 800.198 1544.43 800.548 1540.37 800.918C1526.75 802.158 1515.97 795.168 1504.38 790.448C1501.71 789.358 1499.58 787.018 1497 785.618C1486.87 780.108 1478.53 785.548 1469.99 790.138C1462.22 794.308 1454.37 798.328 1446.45 802.198C1436.14 807.228 1426.88 803.108 1417.59 798.738C1411.04 795.648 1404.46 792.338 1397.54 790.448C1394.51 789.618 1389.62 791.038 1387.25 793.248C1380.56 799.478 1372.73 803.468 1364.12 804.668C1357.46 805.588 1350.11 806.428 1343.73 801.858C1335.91 796.248 1326.94 797.468 1318.3 798.748C1312.14 799.658 1306.1 801.578 1300.14 803.478C1298.3 804.068 1296.4 805.758 1295.39 807.458C1291.37 814.258 1285.94 816.708 1278.3 815.088C1273.15 813.998 1267.91 812.728 1262.7 812.668C1258.91 812.628 1254.44 813.498 1251.4 815.588C1239.3 823.928 1228.51 819.878 1217.51 813.418C1211.71 810.008 1205.7 806.848 1199.51 804.218C1194.48 802.088 1189.64 803.788 1185.73 807.418C1180 812.748 1173.61 813.868 1166.41 811.078C1156.82 807.368 1147.4 805.298 1137.01 809.098C1129.7 811.768 1123.26 807.258 1117.11 803.438C1105.91 796.468 1094.05 796.968 1082.15 801.118C1078.64 802.338 1075.52 804.718 1072.31 806.718C1065.71 810.838 1058.28 810.488 1051.52 808.778C1044.4 806.988 1037.23 803.888 1031.17 799.768C1022.54 793.898 1013.81 790.818 1003.61 793.528C997.775 795.078 992.345 793.868 987.315 791.328C979.185 787.218 972.195 781.558 968.965 772.678C968.095 770.298 968.255 766.918 969.275 764.578C973.385 755.188 977.975 745.998 982.515 736.798C983.455 734.898 984.945 733.268 986.175 731.508H986.195Z" fill="#CED1ED"/>
<path d="M1754.43 690.04C1758.07 687.4 1761.63 684.63 1765.38 682.16C1773.78 676.62 1781.27 681.75 1789.02 684.32C1799.52 687.79 1804.73 686.02 1810.11 678.45C1813.94 673.06 1818.68 671.18 1825.17 672.71C1832.6 674.47 1836.69 672.15 1839.86 665.15C1845.59 652.48 1852.73 641.64 1867.51 637.54C1880 634.08 1890.97 636.46 1901.61 642.8C1904.6 644.58 1907.55 646.48 1910.32 648.59C1916.25 653.12 1922.46 652.59 1928.77 649.81C1934.94 647.1 1940.95 644.02 1947.16 641.38C1952.59 639.07 1955.31 634.51 1957.01 629.46C1959.17 623.05 1963.5 618.8 1968.76 615.12C1978.14 608.55 1988.78 605.77 1999.91 606.71C2004.67 607.11 2009.28 610.5 2013.72 612.97C2016.73 614.65 2019.5 616.88 2022.05 619.22C2029.52 626.07 2037.7 627.46 2046.94 623.24C2055.15 619.49 2063.51 619.34 2072.21 621.81C2076.37 622.99 2081.09 622.19 2085.26 623.35C2093.07 625.53 2101.72 625.91 2106.74 634.33C2111.37 642.1 2120.13 644.21 2129.95 641.93C2137.05 640.29 2142.6 637.22 2148.37 633.28C2151.89 630.87 2156.67 630.23 2160.95 629C2173.68 625.32 2182.95 631.32 2191.72 639.61C2195.52 643.2 2200.35 645.7 2204.73 648.66C2210.62 652.63 2216.85 656.17 2222.33 660.64C2226.77 664.26 2235.5 666.07 2240.84 662.88C2248.42 658.36 2256.46 658.79 2264.58 661.55C2274.1 664.79 2282 670.35 2288.71 677.77C2292.86 682.36 2297.27 686.61 2304.3 685.46C2305.86 685.2 2307.66 685.38 2308.95 684.66C2314.7 681.45 2320.06 682.25 2324.52 686.6C2329.46 691.42 2333.67 696.99 2338.47 701.96C2341.23 704.82 2344.45 707.26 2347.65 709.65C2351.47 712.51 2354.07 710.12 2356.31 707.16C2360.28 701.93 2363.14 701.6 2368.38 705.43C2375.06 710.31 2381.96 714.9 2388.61 719.83C2390.12 720.95 2390.93 723 2392.15 724.56C2395.28 728.55 2394.66 731.1 2389.42 731.98C2386.61 730.68 2383.56 729.75 2381.05 728.02C2375 723.84 2368.59 722.89 2361.64 724.83C2354.51 726.82 2347.66 726.67 2340.84 723.3C2332.03 718.95 2325.84 720.23 2318.77 727.11C2317.36 728.48 2315.74 729.7 2314.04 730.68C2305.82 735.39 2297.14 734.55 2288.42 732.53C2275.74 729.61 2264.65 723.39 2254.01 716.14C2246.78 711.21 2241.02 711.79 2235 718.01C2231.5 721.63 2227.35 723.37 2222.49 722.93C2219.06 722.62 2215.59 721.9 2212.33 720.8C2199.82 716.6 2187.55 714.58 2175.53 722.38C2170.59 725.58 2165.57 723.45 2160.73 721.61C2159.18 721.02 2157.76 720.1 2156.22 719.47C2150.31 717.07 2145.05 717.42 2140.38 722.5C2136.16 727.08 2130.72 727.46 2125.58 724.1C2123.64 722.83 2121.76 721.46 2119.93 720.03C2110.28 712.49 2100.3 707.07 2087.51 712.67C2084.71 713.89 2080.73 714.2 2077.89 713.22C2070.62 710.69 2063.88 706.56 2056.54 704.35C2052.34 703.08 2045.85 702.48 2043.08 704.79C2036.7 710.11 2030.37 713.24 2022.03 713.15C2015.91 713.08 2013.53 716.06 2013.42 722.3C2013.39 723.8 2013.51 725.31 2013.36 726.79C2012.95 730.75 2010.7 733.5 2006.82 733.88C1998.66 734.69 1990.64 733.98 1983.25 729.84C1973.69 724.48 1964.26 720.26 1952.41 722.45C1945.3 723.76 1937.41 721.68 1932.7 714.5C1930.7 711.45 1928.71 708.37 1927.03 705.13C1924.18 699.62 1919.84 695.77 1914.48 692.89C1905.19 687.89 1894.84 687.26 1884.73 686.18C1876.09 685.25 1867.23 686.76 1858.82 683.18C1856.83 682.33 1854.3 682.77 1852.29 682.63C1855.56 689.88 1858.62 696.59 1861.61 703.33C1863.51 707.61 1862.36 711.6 1859.71 715.04C1851.23 726.09 1827.42 729.3 1819.2 718.43C1813.2 710.5 1806.06 708.15 1796.15 714.52C1791.11 717.76 1787.43 716.43 1783.71 711.61C1782 709.4 1780.19 707.14 1778.01 705.43C1773.68 702.02 1769.15 698.84 1764.54 695.81C1761.31 693.68 1757.82 691.95 1754.44 690.04H1754.43Z" fill="#EDF2F7"/>
<path d="M1754.43 690.04C1757.81 691.95 1761.3 693.68 1764.53 695.81C1769.14 698.84 1773.67 702.02 1778 705.43C1780.18 707.14 1781.99 709.4 1783.7 711.61C1787.42 716.43 1791.1 717.76 1796.14 714.52C1806.06 708.15 1813.19 710.5 1819.19 718.43C1827.41 729.29 1851.22 726.08 1859.7 715.04C1862.34 711.59 1863.5 707.61 1861.6 703.33C1858.61 696.59 1855.55 689.88 1852.28 682.63C1854.29 682.77 1856.82 682.33 1858.81 683.18C1867.22 686.76 1876.08 685.25 1884.72 686.18C1894.83 687.27 1905.18 687.89 1914.47 692.89C1919.83 695.78 1924.17 699.62 1927.02 705.13C1928.69 708.36 1930.69 711.45 1932.69 714.5C1937.4 721.68 1945.29 723.76 1952.4 722.45C1964.24 720.26 1973.68 724.48 1983.24 729.84C1990.62 733.98 1998.64 734.69 2006.81 733.88C2010.7 733.5 2012.95 730.75 2013.35 726.79C2013.5 725.31 2013.38 723.79 2013.41 722.3C2013.52 716.06 2015.89 713.08 2022.02 713.15C2030.35 713.25 2036.68 710.12 2043.07 704.79C2045.85 702.48 2052.33 703.08 2056.53 704.35C2063.87 706.56 2070.61 710.7 2077.88 713.22C2080.72 714.21 2084.7 713.9 2087.5 712.67C2100.29 707.07 2110.27 712.49 2119.92 720.03C2121.75 721.46 2123.63 722.83 2125.57 724.1C2130.72 727.46 2136.16 727.08 2140.37 722.5C2145.04 717.43 2150.3 717.08 2156.21 719.47C2157.75 720.09 2159.17 721.02 2160.72 721.61C2165.56 723.46 2170.58 725.59 2175.52 722.38C2187.55 714.58 2199.82 716.6 2212.32 720.8C2215.58 721.9 2219.05 722.61 2222.48 722.93C2227.34 723.37 2231.49 721.63 2234.99 718.01C2241.01 711.79 2246.77 711.21 2254 716.14C2264.64 723.39 2275.73 729.61 2288.41 732.53C2297.14 734.54 2305.81 735.39 2314.03 730.68C2315.73 729.7 2317.36 728.48 2318.76 727.11C2325.83 720.24 2332.02 718.95 2340.83 723.3C2347.65 726.67 2354.51 726.82 2361.63 724.83C2368.58 722.89 2374.99 723.84 2381.04 728.02C2383.55 729.75 2386.6 730.69 2389.41 731.98C2390.6 732.28 2391.79 732.57 2393.21 732.92C2388.03 739.85 2384.98 740.98 2377.57 738.58C2369.19 735.87 2360.97 736.31 2352.55 738.65C2347.76 739.98 2342.67 740.78 2337.71 740.84C2332.49 740.91 2329.66 743.87 2326.75 747.34C2324.22 750.35 2321.63 753.36 2318.79 756.07C2316 758.73 2312.67 759.08 2308.61 759.45C2294.99 760.69 2284.21 753.7 2272.62 748.98C2269.95 747.89 2267.82 745.55 2265.24 744.15C2255.11 738.64 2246.77 744.08 2238.23 748.67C2230.46 752.84 2222.61 756.86 2214.69 760.73C2204.38 765.76 2195.12 761.64 2185.83 757.27C2179.28 754.18 2172.7 750.87 2165.78 748.98C2162.75 748.15 2157.86 749.57 2155.49 751.78C2148.8 758.01 2140.97 762 2132.36 763.2C2125.7 764.12 2118.35 764.96 2111.97 760.39C2104.15 754.78 2095.18 756 2086.54 757.28C2080.38 758.19 2074.34 760.11 2068.38 762.01C2066.54 762.6 2064.64 764.29 2063.63 765.99C2059.61 772.79 2054.18 775.24 2046.54 773.62C2041.39 772.53 2036.15 771.26 2030.94 771.2C2027.15 771.16 2022.68 772.03 2019.64 774.12C2007.54 782.46 1996.75 778.41 1985.75 771.95C1979.95 768.54 1973.94 765.38 1967.75 762.75C1962.72 760.62 1957.88 762.32 1953.97 765.95C1948.24 771.28 1941.85 772.4 1934.65 769.61C1925.06 765.9 1915.64 763.83 1905.25 767.63C1897.94 770.3 1891.5 765.79 1885.35 761.97C1874.15 755 1862.29 755.5 1850.39 759.65C1846.88 760.87 1843.76 763.25 1840.55 765.25C1833.95 769.37 1826.52 769.02 1819.76 767.31C1812.64 765.52 1805.47 762.42 1799.41 758.3C1790.78 752.43 1782.05 749.35 1771.85 752.06C1766.01 753.61 1760.58 752.4 1755.55 749.86C1747.42 745.75 1740.43 740.09 1737.2 731.21C1736.33 728.83 1736.49 725.45 1737.51 723.11C1741.62 713.72 1746.21 704.53 1750.75 695.33C1751.69 693.43 1753.18 691.8 1754.41 690.04H1754.43Z" fill="#CED1ED"/>
<path d="M1282.56 558.465C1281.54 558.825 1280.52 559.185 1279.5 559.535C1271.26 555.855 1262.88 555.155 1254.38 558.505C1249.34 560.495 1244.91 558.855 1240.6 556.465C1235.27 553.505 1229.83 553.045 1223.77 553.995C1220.51 554.505 1216.42 553.285 1213.5 551.535C1207.05 547.675 1207.25 547.335 1202.47 553.045C1198.92 557.285 1194.17 558.795 1189.02 557.095C1184.11 555.475 1181.02 552.435 1181.58 546.765C1181.95 543.005 1179.47 541.785 1176.36 541.525C1174.04 541.325 1171.7 541.525 1169.36 541.465C1164.73 541.355 1159.25 537.225 1157.52 532.865C1155.49 527.735 1159.78 526.885 1162.51 524.685C1163.62 523.795 1164.58 520.635 1164.08 520.185C1161.62 517.965 1158.79 515.995 1155.76 514.675C1155.01 514.345 1152.33 516.545 1151.8 518.035C1150.87 520.625 1150.83 523.545 1150.59 526.345C1149.71 536.425 1143 544.905 1133.01 547.605C1130.34 548.325 1127.12 547.995 1124.38 547.265C1118.31 545.665 1112.49 542.945 1106.36 541.765C1102 540.925 1099.21 538.615 1097.64 535.225C1095.72 531.095 1094.81 526.475 1093.6 522.025C1092.95 519.645 1092.56 517.195 1092.06 514.775C1090.38 516.195 1089.82 517.535 1089.31 518.905C1086.03 527.665 1079.52 534.245 1070.9 535.745C1060.89 537.485 1055.79 542.815 1052.09 551.255C1049.98 556.065 1046.09 557.605 1040.92 556.015C1033.72 553.795 1028.99 549.155 1027.51 541.475C1027.02 538.935 1025.91 535.895 1022.68 538.955C1015.27 545.965 1008.28 543.305 1002.85 537.275C998.074 531.965 998.614 526.925 1004.84 523.375C1007.58 521.815 1010.47 520.475 1013.42 519.385C1018.29 517.595 1023.26 516.105 1028.19 514.485C1025.95 512.525 1023.55 511.925 1021.48 510.755C1019.4 509.585 1016.38 508.055 1016.1 506.315C1015.84 504.695 1018.35 502.195 1020.17 500.765C1025.24 496.755 1030.7 493.245 1035.8 489.275C1040.82 485.365 1045.29 480.905 1047.06 474.445C1048.57 468.945 1047.32 464.475 1043.3 461.645C1042.7 462.105 1041.93 462.505 1041.44 463.125C1034.28 472.105 1025.88 472.585 1015.76 468.115C997.744 460.155 992.044 464.095 982.964 476.735C972.794 490.875 959.344 496.825 942.114 495.515C931.064 494.675 922.844 483.055 926.374 472.645C927.694 468.765 929.424 468.725 932.014 471.335C933.544 472.875 935.024 474.455 936.614 475.925C944.224 482.905 950.964 480.675 958.424 474.995C959.114 474.475 959.174 473.125 959.324 472.715C955.894 471.065 952.164 470.395 950.244 468.165C941.544 458.045 945.394 446.805 958.324 443.475C961.104 442.755 963.924 442.155 966.724 441.495C964.484 440.465 962.414 440.465 960.334 440.465C950.014 440.435 943.164 435.335 939.614 425.025C936.484 415.935 938.664 409.495 947.014 402.705C948.034 401.875 948.614 400.505 949.394 399.385C948.014 398.745 946.684 397.675 945.244 397.535C938.614 396.855 932.594 394.305 929.044 388.885C923.144 379.865 921.134 369.675 923.244 358.845C923.654 356.725 923.304 354.455 923.304 350.965C917.134 358.885 914.384 366.985 911.574 375.025C909.674 380.445 908.874 385.995 911.514 391.435C912.804 394.105 914.314 396.685 915.864 399.225C918.974 404.335 918.534 408.475 914.024 412.485C912.314 414.005 909.994 414.855 908.314 416.405C906.234 418.325 904.534 420.645 902.664 422.795C904.664 424.355 906.464 426.335 908.704 427.395C916.614 431.155 922.664 436.955 927.554 444.005C929.914 447.395 928.854 449.465 924.964 449.405C919.884 449.335 917.304 450.975 917.354 456.625C917.374 458.875 915.134 462.985 913.754 463.065C909.484 463.295 905.074 462.255 900.844 461.185C897.014 460.225 893.354 458.595 889.624 457.255C890.764 459.465 892.394 460.525 893.984 461.655C902.884 468.005 906.894 480.265 903.084 489.435C901.264 493.825 898.474 494.555 895.134 491.465C893.664 490.105 892.374 488.555 890.834 487.285C887.974 484.945 885.534 484.765 883.864 488.785C882.714 491.545 881.334 494.225 879.874 496.845C875.044 505.525 863.064 508.795 854.444 503.965C848.944 500.885 843.424 500.555 838.104 504.465C835.564 506.325 833.074 508.255 830.534 510.115C827.594 512.275 825.724 512.305 825.534 507.875C825.364 503.715 823.524 500.945 819.064 499.615C810.174 496.965 804.034 488.505 803.594 479.265C803.214 471.455 802.464 470.715 794.524 470.265C796.274 467.765 797.604 464.765 799.854 462.855C807.624 456.285 816.364 451.355 826.954 453.715C830.494 454.505 833.794 457.495 836.614 460.115C842.794 465.845 845.674 465.555 850.924 459.085C854.204 455.045 857.904 450.875 862.324 448.365C866.784 445.825 872.614 445.805 877.374 443.635C880.494 442.215 884.854 439.095 885.044 436.475C885.774 426.515 889.674 418.095 894.844 409.965C898.634 403.995 897.564 396.765 891.554 388.885C893.794 385.255 896.294 381.585 898.394 377.705C900.334 374.105 901.844 370.605 900.884 365.945C899.424 358.885 902.854 352.745 908.384 348.705C919.994 340.215 933.024 339.095 946.474 343.615C950.924 345.105 955.164 347.365 959.274 349.665C967.424 354.215 970.184 362.575 968.794 371.835C967.154 382.695 967.684 384.635 976.914 390.615C980.314 392.825 982.274 395.905 982.614 400.045C983.204 407.265 984.554 408.855 991.664 408.325C997.494 407.895 1001.14 410.265 1003.88 414.955C1004.72 416.385 1005.51 417.865 1006.51 419.185C1012.73 427.365 1014.73 428.405 1022.4 422.865C1028.85 418.205 1036.42 414.475 1044.06 412.335C1048.64 411.045 1054.6 412.845 1059.34 414.745C1061.58 415.645 1062.79 419.905 1063.82 422.865C1065.52 427.745 1067.98 431.955 1072.82 433.995C1080.72 437.335 1086.97 441.345 1087.08 451.455C1087.13 456.195 1090.97 459.765 1096.04 460.935C1098.68 461.545 1101.34 462.205 1104.02 462.405C1110.26 462.855 1113.63 466.355 1112.41 472.585C1111.71 476.135 1112.99 477.795 1115.54 479.455C1119.2 481.845 1123.15 483.765 1123.08 489.455C1123.06 490.995 1126.64 493.605 1128.84 493.925C1133.12 494.555 1137.77 493.125 1141.92 494.075C1144.9 494.755 1148.95 497.475 1149.64 500.055C1151.35 506.455 1156.67 505.855 1159.69 504.715C1163.49 503.285 1165.06 505.405 1166.15 507.025C1169.65 512.195 1173.67 514.695 1180.21 513.595C1185.47 512.705 1189.21 515.865 1191.62 520.485C1192.47 522.105 1193.04 523.965 1194.2 525.315C1197.54 529.235 1200.64 530.055 1205.66 527.185C1215.6 521.505 1226.05 521.025 1235.73 527.735C1238.48 529.645 1240.34 533.445 1241.57 536.765C1243.05 540.765 1248.67 544.785 1252.55 543.165C1260.63 539.785 1268.24 541.025 1275.33 545.465C1278.12 547.215 1280.2 550.085 1282.6 552.455V558.455L1282.56 558.465ZM1072.87 461.455C1068.25 465.255 1070.91 468.335 1074.15 470.385C1078 472.825 1082.3 474.735 1086.63 476.185C1089.82 477.255 1091.88 474.565 1090.96 471.215C1088.53 462.305 1077.39 455.325 1067.96 457.175C1069.48 458.505 1070.79 459.655 1072.87 461.465V461.455ZM850.794 480.515C857.834 483.965 867.634 481.545 873.644 474.805C874.834 473.465 876.344 470.845 875.804 469.875C874.924 468.295 872.544 466.885 870.674 466.705C868.584 466.505 865.914 467.195 864.284 468.495C859.664 472.155 855.444 476.325 850.804 480.525L850.794 480.515ZM1010.07 447.115C1013.65 446.365 1016.17 446.135 1018.41 445.225C1019.31 444.855 1020.29 442.855 1020.07 441.865C1018.68 435.615 1008.18 431.315 1002.54 434.515C998.784 436.645 998.204 440.305 1001.71 442.935C1004.35 444.915 1007.68 445.965 1010.07 447.125V447.115Z" fill="#EDF2F7"/>
<path d="M794.494 470.275C802.434 470.725 803.184 471.475 803.564 479.275C804.004 488.515 810.144 496.965 819.034 499.625C823.494 500.955 825.324 503.725 825.504 507.885C825.684 512.325 827.564 512.285 830.504 510.125C833.044 508.265 835.534 506.335 838.074 504.475C843.394 500.565 848.914 500.895 854.414 503.975C863.034 508.805 875.014 505.525 879.844 496.855C881.304 494.235 882.684 491.555 883.834 488.795C885.504 484.785 887.944 484.955 890.804 487.295C892.344 488.555 893.634 490.115 895.104 491.475C898.444 494.565 901.234 493.835 903.054 489.445C906.854 480.275 902.854 468.015 893.954 461.665C892.364 460.535 890.724 459.465 889.594 457.265C893.324 458.605 896.984 460.235 900.814 461.195C905.044 462.255 909.454 463.295 913.724 463.075C915.104 463.005 917.344 458.885 917.324 456.635C917.274 450.975 919.854 449.345 924.934 449.415C928.824 449.465 929.874 447.405 927.524 444.015C922.634 436.965 916.574 431.165 908.674 427.405C906.434 426.345 904.634 424.365 902.634 422.805C904.504 420.655 906.204 418.335 908.284 416.415C909.964 414.865 912.284 414.015 913.994 412.495C918.504 408.485 918.944 404.345 915.834 399.235C914.294 396.695 912.784 394.115 911.484 391.445C908.844 386.005 909.644 380.455 911.544 375.035C914.364 366.995 917.104 358.895 923.274 350.975C923.274 354.475 923.624 356.735 923.214 358.855C921.104 369.685 923.114 379.865 929.014 388.895C932.554 394.315 938.584 396.865 945.214 397.545C946.644 397.695 947.984 398.755 949.364 399.395C948.584 400.515 948.004 401.885 946.984 402.715C938.634 409.505 936.444 415.945 939.584 425.035C943.144 435.345 949.984 440.445 960.304 440.475C962.384 440.475 964.454 440.475 966.694 441.505C963.894 442.165 961.084 442.765 958.294 443.485C945.364 446.815 941.514 458.055 950.214 468.175C952.134 470.405 955.864 471.085 959.294 472.725C959.144 473.135 959.084 474.475 958.394 475.005C950.934 480.685 944.194 482.915 936.584 475.935C934.994 474.475 933.504 472.885 931.984 471.345C929.394 468.735 927.664 468.775 926.344 472.655C922.804 483.065 931.034 494.685 942.084 495.525C959.324 496.835 972.764 490.885 982.934 476.745C992.024 464.115 997.724 460.165 1015.73 468.125C1025.85 472.595 1034.26 472.115 1041.41 463.135C1041.9 462.515 1042.67 462.125 1043.27 461.655C1047.29 464.485 1048.54 468.945 1047.03 474.455C1045.26 480.915 1040.79 485.375 1035.77 489.285C1030.67 493.255 1025.22 496.775 1020.14 500.775C1018.32 502.215 1015.81 504.715 1016.07 506.325C1016.35 508.075 1019.37 509.595 1021.45 510.765C1023.52 511.935 1025.92 512.535 1028.16 514.495C1023.23 516.115 1018.26 517.615 1013.39 519.395C1010.44 520.475 1007.54 521.825 1004.81 523.385C998.574 526.935 998.034 531.975 1002.82 537.285C1008.25 543.305 1015.24 545.975 1022.65 538.965C1025.88 535.905 1027 538.945 1027.48 541.485C1028.96 549.165 1033.69 553.805 1040.89 556.025C1046.06 557.625 1049.95 556.085 1052.06 551.265C1055.76 542.825 1060.86 537.495 1070.87 535.755C1079.5 534.255 1086 527.685 1089.28 518.915C1089.79 517.555 1090.35 516.205 1092.03 514.785C1092.54 517.205 1092.92 519.655 1093.57 522.035C1094.79 526.475 1095.69 531.095 1097.61 535.235C1099.19 538.615 1101.98 540.935 1106.33 541.775C1112.46 542.955 1118.28 545.665 1124.35 547.275C1127.09 547.995 1130.31 548.335 1132.98 547.615C1142.97 544.925 1149.69 536.435 1150.56 526.355C1150.8 523.555 1150.84 520.625 1151.77 518.045C1152.3 516.555 1154.97 514.365 1155.73 514.685C1158.76 515.995 1161.58 517.975 1164.05 520.195C1164.54 520.635 1163.58 523.795 1162.48 524.695C1159.75 526.895 1155.45 527.745 1157.49 532.875C1159.21 537.225 1164.7 541.355 1169.33 541.475C1171.66 541.535 1174.01 541.335 1176.33 541.535C1179.44 541.805 1181.92 543.015 1181.55 546.775C1180.99 552.445 1184.08 555.485 1188.99 557.105C1194.14 558.805 1198.89 557.295 1202.44 553.055C1207.22 547.355 1207.01 547.695 1213.47 551.545C1216.4 553.295 1220.49 554.505 1223.74 554.005C1229.81 553.055 1235.24 553.515 1240.57 556.475C1244.88 558.865 1249.31 560.505 1254.35 558.515C1262.85 555.165 1271.23 555.865 1279.47 559.545C1277.76 564.365 1274.27 566.825 1269.24 566.425C1261.3 565.795 1254.09 566.945 1248.06 572.745C1244.19 576.465 1241.1 572.695 1237.91 571.115C1233.81 569.085 1230.1 566.935 1224.94 568.595C1215.9 571.505 1206.93 573.365 1197.56 567.925C1190.87 564.045 1183.06 565.885 1175.91 568.285C1170.95 569.955 1166.2 572.275 1161.26 574.015C1156.56 575.665 1151.97 576.065 1147.57 572.585C1141.56 567.825 1137.58 568.485 1131.86 573.915C1125.02 580.405 1117.83 584.465 1107.56 580.405C1098.76 576.925 1089.76 580.345 1081.9 584.445C1073.07 589.055 1064.45 592.265 1054.2 591.785C1049.01 591.545 1043.61 594.045 1038.44 595.735C1034.58 596.995 1031.32 596.175 1029.01 593.345C1021.25 583.805 1011.5 583.775 1000.53 585.875C986.694 588.525 974.814 595.315 962.824 601.975C955.644 605.955 948.764 605.285 942.094 601.405C935.444 597.545 929.074 593.115 920.814 594.495C917.904 594.985 915.004 595.705 912.204 596.655C899.114 601.115 886.154 601.245 873.464 595.405C867.264 592.545 862.524 588.065 859.564 581.685C856.794 575.705 849.894 572.665 843.424 573.975C840.354 574.595 837.244 575.095 834.124 575.425C828.514 576.025 823.604 573.295 821.944 568.055C819.484 560.295 814.304 556.465 806.434 555.405C799.284 554.445 795.084 549.615 793.714 543.045C792.094 535.315 791.564 527.355 790.554 519.495C794.284 514.625 792.294 509.255 791.854 504.035C791.834 503.805 791.004 503.655 790.544 503.465C789.754 497.255 788.314 491.045 788.404 484.855C788.474 480.315 790.474 475.775 791.844 471.305C792.014 470.755 793.554 470.625 794.464 470.295L794.494 470.275Z" fill="#CED1ED"/>
<path d="M1072.87 461.455C1070.8 459.645 1069.49 458.495 1067.96 457.165C1077.39 455.325 1088.52 462.295 1090.96 471.205C1091.87 474.555 1089.82 477.245 1086.63 476.175C1082.3 474.725 1078 472.815 1074.15 470.375C1070.92 468.325 1068.25 465.255 1072.87 461.445V461.455Z" fill="#CED1ED"/>
<path d="M850.804 480.505C855.444 476.305 859.664 472.135 864.284 468.475C865.914 467.185 868.594 466.485 870.674 466.685C872.544 466.865 874.924 468.275 875.804 469.855C876.344 470.825 874.834 473.445 873.644 474.785C867.644 481.535 857.834 483.945 850.794 480.495L850.804 480.505Z" fill="#CED1ED"/>
<path d="M1010.07 447.115C1007.68 445.955 1004.35 444.895 1001.71 442.925C998.194 440.295 998.784 436.635 1002.54 434.505C1008.19 431.315 1018.69 435.605 1020.07 441.855C1020.29 442.855 1019.31 444.855 1018.41 445.215C1016.17 446.125 1013.66 446.355 1010.07 447.105V447.115Z" fill="#CED1ED"/>
<path d="M2014.39 189.01C2011.02 185.69 2007.65 182.37 2004.28 179.05C2003.99 179.04 2003.7 179.02 2003.41 179.01C2001.19 178.35 1999.02 177.43 1996.75 177.06C1980.73 174.41 1977.84 163.66 1979.76 150.68C1981.45 139.28 1985.67 128.27 1992.63 118.72C1997.27 112.36 2003.21 107.83 2011.38 107.01C2011.06 108.79 2010.86 110.6 2010.4 112.35C2008.82 118.24 2006.52 124.02 2007.42 130.28C2007.89 133.55 2008.83 136.75 2009.32 140.02C2010.52 148.06 2019.41 155.52 2027.43 156.14C2034.8 156.71 2042.25 157.73 2049.35 159.71C2054.96 161.28 2059.38 160.23 2063.75 157.15C2068.34 153.91 2072.19 154.28 2075.26 158.87C2081.12 167.63 2088.88 174.34 2097.8 179.6C2108.04 185.64 2118.74 189.34 2130.99 185.13C2134.65 183.87 2139.11 184.54 2143.16 184.89C2147.26 185.24 2151.27 186.64 2155.37 186.94C2168.3 187.86 2178.91 181.83 2188.41 174.23C2197.74 166.78 2196.2 158 2185.61 152.01C2184.25 151.24 2182.71 149.61 2182.5 148.2C2180.45 134.26 2165.15 127.07 2152.52 133.71C2147.99 136.09 2142.56 137.43 2137.43 137.79C2132.12 138.17 2128.84 140.33 2126.07 144.52C2123.7 148.09 2121 151.49 2118.07 154.61C2117.1 155.64 2114.18 156.44 2113.43 155.81C2109.22 152.29 2104.25 153.7 2099.63 152.83C2094.55 151.88 2088.64 150.83 2085.02 147.64C2077.39 140.92 2070.94 132.86 2064.16 125.2C2058.17 118.43 2055.22 109.24 2047.29 104C2049.6 103.05 2051.85 101.76 2054.25 101.23C2056.54 100.73 2059 101.04 2061.39 100.99C2061.69 100.99 2062 100.97 2062.3 100.97C2062.66 100.97 2063.02 100.97 2063.38 100.96C2064.22 102.94 2064.75 105.12 2065.94 106.85C2078.65 125.3 2097.14 132.78 2118.11 129.91C2119.81 129.68 2121.53 127.99 2123.02 128.24C2127.61 129.03 2130.33 126.62 2133.27 123.78C2136.91 120.26 2140.46 115.91 2144.92 114.2C2148.98 112.65 2154.31 113.61 2158.9 114.46C2164.52 115.5 2171.33 114.66 2173.18 111.66C2177.35 104.88 2182.48 102.98 2189.64 105.46C2190.52 105.76 2191.7 105.93 2192.49 105.59C2196.27 103.95 2200.03 102.25 2203.66 100.29C2206.56 98.7301 2208.36 96.6001 2207.64 92.6901C2207.35 91.1001 2208.67 88.2801 2210.09 87.4701C2214.31 85.0801 2224.58 89.7701 2226.01 94.5701C2227.09 98.1901 2227.9 101.95 2228.33 105.71C2229.81 118.51 2238.26 123.43 2251.05 119.56C2254.08 118.64 2258.17 119.86 2261.33 121.16C2265.05 122.69 2268.1 125.87 2271.81 127.44C2275.02 128.79 2278.8 129.38 2282.1 126.91C2289.26 121.56 2296.79 120.38 2304.32 125.62C2311.11 130.35 2317.47 135.62 2318.3 144.63C2319.45 157.22 2321.3 159.42 2333.62 162.09C2338.05 163.05 2340.84 165.29 2340.56 170.68C2340.4 173.73 2341.22 177.48 2343 179.87C2350.52 189.99 2369.68 190.74 2377.63 182.95C2382.52 178.16 2388.73 179.1 2392.29 183.69C2400.39 194.17 2405.36 196.65 2417.23 194.25C2421.46 193.39 2425.48 193.35 2427.02 199.01C2428.24 203.48 2431.08 204.79 2435.7 202.45C2438.53 201.02 2442.87 199.23 2445.05 200.4C2454.65 205.53 2464.53 209.29 2475.36 210.51C2475.51 210.53 2475.65 210.68 2475.8 210.74C2482.24 213.3 2488.5 217.06 2495.17 218.1C2501.97 219.16 2509.13 217.86 2515.36 222C2515.38 222.68 2515.4 223.36 2515.42 224.03C2513.71 229 2509.12 227.6 2505.76 227.85C2501.19 228.19 2496.51 226.89 2491.91 227.09C2488.97 227.22 2485.68 228.18 2483.27 229.83C2479.65 232.32 2476.71 232.58 2473.45 229.66C2468.31 225.07 2462.45 223.04 2455.62 225.01C2449.13 226.88 2443.13 225.02 2437.41 222.37C2429.62 218.75 2424.44 219.18 2418.62 225.39C2412.39 232.05 2405.37 236.74 2395.9 234.79C2390.26 233.63 2384.85 231.34 2379.36 229.52C2370.12 226.45 2360.92 223.21 2351.62 220.34C2349.7 219.75 2347.34 220.21 2345.25 220.57C2338.96 221.66 2333 220.7 2327.48 217.64C2320.43 213.74 2316.54 214.03 2310.07 218.73C2303.73 223.34 2296.74 224.72 2289.47 221.03C2283.85 218.18 2278.42 214.95 2272.96 211.81C2264.9 207.18 2260.15 208.53 2253.57 214.82C2250.24 218 2244.87 219.12 2240.31 220.9C2239.01 221.41 2237.34 220.98 2235.84 220.98C2226.94 221.01 2225.8 221.64 2226.52 230.15C2227.21 238.24 2219.67 244.74 2214.25 247.03C2204.68 251.06 2197.5 248.25 2190.8 241.1C2186.21 236.2 2181.52 230.84 2173.81 231.06C2171.87 231.12 2169.75 231.36 2168.07 232.22C2162.01 235.29 2156.79 233.48 2151.6 230.11C2147.72 227.59 2143.92 224.55 2139.63 223.23C2137.07 222.44 2133.02 223.69 2130.69 225.44C2118.75 234.39 2105.93 238.82 2090.82 236.13C2082.67 234.68 2077.69 229.2 2073.31 223.39C2069.18 217.91 2064.09 214.96 2057.76 214.12C2050.98 213.22 2045.74 211.38 2043.98 203.66C2042.85 198.69 2038.91 197.37 2033.77 198.7C2031.07 199.4 2028.25 199.65 2025.47 200C2020.17 200.66 2017.39 197.94 2016.36 193C2016.49 192.91 2016.62 192.82 2016.76 192.73C2016.62 192.52 2016.47 192.31 2016.33 192.1C2016.33 192.1 2016.27 192.02 2016.28 192.02C2015.64 191.02 2015.01 190.02 2014.37 189.02L2014.39 189.01Z" fill="#CED1ED"/>
<path d="M2515.41 221.99C2509.18 217.85 2502.02 219.15 2495.22 218.09C2488.54 217.05 2482.29 213.3 2475.85 210.73C2475.7 210.67 2475.56 210.52 2475.41 210.5C2464.58 209.28 2454.7 205.52 2445.1 200.39C2442.93 199.23 2438.59 201.01 2435.75 202.44C2431.13 204.78 2428.29 203.46 2427.07 199C2425.52 193.33 2421.51 193.38 2417.28 194.24C2405.41 196.64 2400.44 194.17 2392.34 183.68C2388.79 179.08 2382.58 178.15 2377.68 182.94C2369.73 190.72 2350.56 189.98 2343.05 179.86C2341.27 177.47 2340.45 173.72 2340.61 170.67C2340.9 165.28 2338.11 163.04 2333.67 162.08C2321.36 159.41 2319.51 157.21 2318.35 144.62C2317.52 135.62 2311.17 130.34 2304.37 125.61C2296.85 120.37 2289.31 121.54 2282.15 126.9C2278.85 129.37 2275.07 128.78 2271.86 127.43C2268.14 125.86 2265.1 122.69 2261.38 121.15C2258.22 119.85 2254.12 118.63 2251.1 119.55C2238.31 123.42 2229.86 118.5 2228.38 105.7C2227.95 101.95 2227.14 98.19 2226.06 94.56C2224.63 89.76 2214.36 85.07 2210.14 87.46C2208.72 88.26 2207.4 91.08 2207.69 92.68C2208.41 96.59 2206.61 98.72 2203.71 100.28C2200.09 102.23 2196.32 103.93 2192.54 105.58C2191.75 105.92 2190.56 105.75 2189.69 105.45C2182.53 102.97 2177.4 104.87 2173.23 111.65C2171.38 114.65 2164.57 115.49 2158.95 114.45C2154.36 113.6 2149.03 112.64 2144.97 114.19C2140.51 115.89 2136.96 120.25 2133.32 123.77C2130.38 126.61 2127.65 129.02 2123.07 128.23C2121.58 127.97 2119.85 129.66 2118.16 129.9C2097.18 132.77 2078.7 125.29 2065.99 106.84C2064.8 105.11 2064.27 102.92 2063.43 100.95C2064.55 97.32 2066.59 93.71 2066.61 90.07C2066.66 81.59 2071.12 75.46 2076.75 70.43C2086.01 62.15 2096.66 56.08 2108.82 52.56C2116.2 50.42 2123.49 49.19 2131.14 48.87C2139.18 48.53 2145.82 51.02 2151.36 56.53C2154.93 60.09 2159.32 60.11 2162.79 58.04C2168.8 54.47 2173.72 49.61 2174.41 41.75C2174.56 40.07 2176.75 37.66 2178.43 37.23C2181.49 36.43 2184.88 36.74 2188.12 36.8C2190.99 36.86 2195.64 32.69 2196.08 28.09C2197.34 14.96 2206.77 9.51998 2217.2 5.34998C2223.32 2.89998 2229.92 1.52998 2236.41 0.179977C2238.62 -0.280023 2241.16 0.729977 2243.54 1.15998C2246.35 1.66998 2249.12 2.44998 2251.95 2.82998C2262.74 4.28998 2270.65 9.14998 2273.36 20.42C2274.24 24.08 2274.79 27.9 2276.24 31.33C2277.8 35.03 2280.45 37.21 2285.28 36.17C2290.73 35 2294.83 38.13 2297.59 42.57C2299.33 45.36 2300.28 48.63 2301.74 51.61C2305.17 58.6 2309.48 60.05 2316.97 57.83C2325.32 55.36 2333.23 56.56 2339.7 62.87C2342.36 65.46 2343.45 68.62 2341.98 72.56C2339.92 78.07 2342.22 80.04 2348.07 81.33C2354.83 82.81 2362.21 80.02 2368.49 85.26C2374.87 90.59 2378.41 97.05 2381.15 104.82C2383.92 112.68 2383.04 120.42 2383.4 128.25C2383.61 132.85 2385.64 134.04 2389.85 132.27C2393.63 130.68 2397.47 129.06 2401.44 128.11C2409.96 126.08 2419.47 134.2 2419.43 143.04C2419.4 150.31 2419.48 157.58 2419.6 164.85C2419.66 168.79 2423.1 172.02 2427.67 173C2433.72 174.29 2439.84 175.42 2445.71 177.31C2450.49 178.84 2453.69 182.2 2454.53 187.69C2455.25 192.44 2460.49 194.98 2464.79 193.57C2471.39 191.41 2477.6 192.13 2482.91 197.01C2485.12 199.04 2487.45 201.02 2489.23 203.4C2493.39 208.98 2498.75 210.19 2505.24 208.84C2510.92 207.66 2515.59 211.76 2515.48 217.49C2515.45 218.99 2515.45 220.49 2515.43 221.99H2515.41Z" fill="#EDF2F7"/>
<path d="M2047.32 104C2055.25 109.24 2058.21 118.43 2064.19 125.2C2070.96 132.86 2077.42 140.93 2085.05 147.64C2088.67 150.83 2094.59 151.88 2099.66 152.83C2104.28 153.7 2109.25 152.28 2113.46 155.81C2114.21 156.44 2117.13 155.64 2118.1 154.61C2121.04 151.5 2123.74 148.09 2126.1 144.52C2128.87 140.34 2132.14 138.17 2137.46 137.79C2142.59 137.42 2148.02 136.09 2152.55 133.71C2165.18 127.07 2180.48 134.27 2182.53 148.2C2182.74 149.61 2184.29 151.24 2185.64 152.01C2196.23 158 2197.77 166.77 2188.44 174.23C2178.94 181.82 2168.32 187.86 2155.4 186.94C2151.3 186.65 2147.29 185.24 2143.19 184.89C2139.14 184.55 2134.69 183.87 2131.02 185.13C2118.77 189.34 2108.07 185.64 2097.83 179.6C2088.9 174.34 2081.14 167.62 2075.29 158.87C2072.22 154.28 2068.37 153.91 2063.78 157.15C2059.4 160.23 2054.98 161.28 2049.38 159.71C2042.29 157.73 2034.83 156.71 2027.46 156.14C2019.43 155.52 2010.55 148.07 2009.35 140.02C2008.86 136.75 2007.93 133.55 2007.45 130.28C2006.54 124.01 2008.84 118.23 2010.43 112.35C2010.9 110.61 2011.09 108.8 2011.41 107.01C2013.59 106.91 2015.81 106.5 2017.94 106.76C2022.58 107.32 2027.18 108.77 2031.8 108.8C2035.36 108.82 2038.96 107.33 2042.47 106.29C2044.16 105.79 2045.71 104.78 2047.32 104Z" fill="#EDF2F7"/>
<path d="M1233.43 294.04C1237.07 291.4 1240.63 288.63 1244.38 286.16C1252.78 280.62 1260.27 285.75 1268.02 288.32C1278.52 291.79 1283.73 290.02 1289.11 282.45C1292.94 277.06 1297.68 275.18 1304.17 276.71C1311.6 278.47 1315.69 276.15 1318.86 269.15C1324.59 256.48 1331.73 245.64 1346.51 241.54C1359 238.08 1369.97 240.46 1380.61 246.8C1383.6 248.58 1386.55 250.48 1389.32 252.59C1395.25 257.12 1401.46 256.59 1407.77 253.81C1413.94 251.1 1419.95 248.02 1426.16 245.38C1431.59 243.07 1434.31 238.51 1436.01 233.46C1438.17 227.05 1442.5 222.8 1447.76 219.12C1457.14 212.55 1467.78 209.77 1478.91 210.71C1483.67 211.11 1488.28 214.5 1492.72 216.97C1495.73 218.65 1498.5 220.88 1501.05 223.22C1508.52 230.07 1516.7 231.46 1525.94 227.24C1534.15 223.49 1542.51 223.34 1551.21 225.81C1555.37 226.99 1560.09 226.19 1564.26 227.35C1572.07 229.53 1580.72 229.91 1585.74 238.33C1590.37 246.1 1599.13 248.21 1608.95 245.93C1616.05 244.29 1621.6 241.22 1627.37 237.28C1630.89 234.87 1635.67 234.23 1639.95 233C1652.68 229.32 1661.95 235.32 1670.72 243.61C1674.52 247.2 1679.35 249.7 1683.73 252.66C1689.62 256.63 1695.85 260.17 1701.33 264.64C1705.77 268.26 1714.5 270.07 1719.84 266.88C1727.42 262.36 1735.46 262.79 1743.58 265.55C1753.1 268.79 1761 274.35 1767.71 281.77C1771.86 286.36 1776.27 290.61 1783.3 289.46C1784.86 289.2 1786.66 289.38 1787.95 288.66C1793.7 285.45 1799.06 286.25 1803.52 290.6C1808.46 295.42 1812.67 300.99 1817.47 305.96C1820.23 308.82 1823.45 311.26 1826.65 313.65C1830.47 316.51 1833.07 314.12 1835.31 311.16C1839.28 305.93 1842.14 305.6 1847.38 309.43C1854.06 314.31 1860.96 318.9 1867.61 323.83C1869.12 324.95 1869.93 327 1871.15 328.56C1874.28 332.55 1873.66 335.1 1868.42 335.98C1865.61 334.68 1862.56 333.75 1860.05 332.02C1854 327.84 1847.59 326.89 1840.64 328.83C1833.51 330.82 1826.66 330.67 1819.84 327.3C1811.03 322.95 1804.84 324.23 1797.77 331.11C1796.36 332.48 1794.74 333.7 1793.04 334.68C1784.82 339.39 1776.14 338.55 1767.42 336.53C1754.74 333.61 1743.65 327.39 1733.01 320.14C1725.78 315.21 1720.02 315.79 1714 322.01C1710.5 325.63 1706.35 327.37 1701.49 326.93C1698.06 326.62 1694.59 325.9 1691.33 324.8C1678.82 320.6 1666.55 318.58 1654.53 326.38C1649.59 329.58 1644.57 327.45 1639.73 325.61C1638.18 325.02 1636.76 324.1 1635.22 323.47C1629.31 321.07 1624.05 321.42 1619.38 326.5C1615.16 331.08 1609.72 331.46 1604.58 328.1C1602.64 326.83 1600.76 325.46 1598.93 324.03C1589.28 316.49 1579.3 311.07 1566.51 316.67C1563.71 317.89 1559.73 318.2 1556.89 317.22C1549.62 314.69 1542.88 310.56 1535.54 308.35C1531.34 307.08 1524.85 306.48 1522.08 308.79C1515.7 314.11 1509.37 317.24 1501.03 317.15C1494.91 317.08 1492.53 320.06 1492.42 326.3C1492.39 327.8 1492.51 329.31 1492.36 330.79C1491.95 334.75 1489.7 337.5 1485.82 337.88C1477.66 338.69 1469.64 337.98 1462.25 333.84C1452.69 328.48 1443.26 324.26 1431.41 326.45C1424.3 327.76 1416.41 325.68 1411.7 318.5C1409.7 315.45 1407.71 312.37 1406.03 309.13C1403.18 303.62 1398.84 299.77 1393.48 296.89C1384.19 291.89 1373.84 291.26 1363.73 290.18C1355.09 289.25 1346.23 290.76 1337.82 287.18C1335.83 286.33 1333.3 286.77 1331.29 286.63C1334.56 293.88 1337.62 300.59 1340.61 307.33C1342.51 311.61 1341.36 315.6 1338.71 319.04C1330.23 330.09 1306.42 333.3 1298.2 322.43C1292.2 314.5 1285.06 312.15 1275.15 318.52C1270.11 321.76 1266.43 320.43 1262.71 315.61C1261 313.4 1259.19 311.14 1257.01 309.43C1252.68 306.02 1248.15 302.84 1243.54 299.81C1240.31 297.68 1236.82 295.95 1233.44 294.04H1233.43Z" fill="#EDF2F7"/>
<path d="M1233.43 294.04C1236.81 295.95 1240.3 297.68 1243.53 299.81C1248.14 302.84 1252.67 306.02 1257 309.43C1259.18 311.14 1260.99 313.4 1262.7 315.61C1266.42 320.43 1270.1 321.76 1275.14 318.52C1285.06 312.15 1292.19 314.5 1298.19 322.43C1306.41 333.29 1330.22 330.08 1338.7 319.04C1341.34 315.59 1342.5 311.61 1340.6 307.33C1337.61 300.59 1334.55 293.88 1331.28 286.63C1333.29 286.77 1335.82 286.33 1337.81 287.18C1346.22 290.76 1355.08 289.25 1363.72 290.18C1373.83 291.27 1384.18 291.89 1393.47 296.89C1398.83 299.78 1403.17 303.62 1406.02 309.13C1407.69 312.36 1409.69 315.45 1411.69 318.5C1416.4 325.68 1424.29 327.76 1431.4 326.45C1443.24 324.26 1452.68 328.48 1462.24 333.84C1469.62 337.98 1477.64 338.69 1485.81 337.88C1489.7 337.5 1491.95 334.75 1492.35 330.79C1492.5 329.31 1492.38 327.79 1492.41 326.3C1492.52 320.06 1494.89 317.08 1501.02 317.15C1509.35 317.25 1515.68 314.12 1522.07 308.79C1524.85 306.48 1531.33 307.08 1535.53 308.35C1542.87 310.56 1549.61 314.7 1556.88 317.22C1559.72 318.21 1563.7 317.9 1566.5 316.67C1579.29 311.07 1589.27 316.49 1598.92 324.03C1600.75 325.46 1602.63 326.83 1604.57 328.1C1609.72 331.46 1615.16 331.08 1619.37 326.5C1624.04 321.43 1629.3 321.08 1635.21 323.47C1636.75 324.09 1638.17 325.02 1639.72 325.61C1644.56 327.46 1649.58 329.59 1654.52 326.38C1666.55 318.58 1678.82 320.6 1691.32 324.8C1694.58 325.9 1698.05 326.61 1701.48 326.93C1706.34 327.37 1710.49 325.63 1713.99 322.01C1720.01 315.79 1725.77 315.21 1733 320.14C1743.64 327.39 1754.73 333.61 1767.41 336.53C1776.14 338.54 1784.81 339.39 1793.03 334.68C1794.73 333.7 1796.36 332.48 1797.76 331.11C1804.83 324.24 1811.02 322.95 1819.83 327.3C1826.65 330.67 1833.51 330.82 1840.63 328.83C1847.58 326.89 1853.99 327.84 1860.04 332.02C1862.55 333.75 1865.6 334.69 1868.41 335.98C1869.6 336.28 1870.79 336.57 1872.21 336.92C1867.03 343.85 1863.98 344.98 1856.57 342.58C1848.19 339.87 1839.97 340.31 1831.55 342.65C1826.76 343.98 1821.67 344.78 1816.71 344.84C1811.49 344.91 1808.66 347.87 1805.75 351.34C1803.22 354.35 1800.63 357.36 1797.79 360.07C1795 362.73 1791.67 363.08 1787.61 363.45C1773.99 364.69 1763.21 357.7 1751.62 352.98C1748.95 351.89 1746.82 349.55 1744.24 348.15C1734.11 342.64 1725.77 348.08 1717.23 352.67C1709.46 356.84 1701.61 360.86 1693.69 364.73C1683.38 369.76 1674.12 365.64 1664.83 361.27C1658.28 358.18 1651.7 354.87 1644.78 352.98C1641.75 352.15 1636.86 353.57 1634.49 355.78C1627.8 362.01 1619.97 366 1611.36 367.2C1604.7 368.12 1597.35 368.96 1590.97 364.39C1583.15 358.78 1574.18 360 1565.54 361.28C1559.38 362.19 1553.34 364.11 1547.38 366.01C1545.54 366.6 1543.64 368.29 1542.63 369.99C1538.61 376.79 1533.18 379.24 1525.54 377.62C1520.39 376.53 1515.15 375.26 1509.94 375.2C1506.15 375.16 1501.68 376.03 1498.64 378.12C1486.54 386.46 1475.75 382.41 1464.75 375.95C1458.95 372.54 1452.94 369.38 1446.75 366.75C1441.72 364.62 1436.88 366.32 1432.97 369.95C1427.24 375.28 1420.85 376.4 1413.65 373.61C1404.06 369.9 1394.64 367.83 1384.25 371.63C1376.94 374.3 1370.5 369.79 1364.35 365.97C1353.15 359 1341.29 359.5 1329.39 363.65C1325.88 364.87 1322.76 367.25 1319.55 369.25C1312.95 373.37 1305.52 373.02 1298.76 371.31C1291.64 369.52 1284.47 366.42 1278.41 362.3C1269.78 356.43 1261.05 353.35 1250.85 356.06C1245.01 357.61 1239.58 356.4 1234.55 353.86C1226.42 349.75 1219.43 344.09 1216.2 335.21C1215.33 332.83 1215.49 329.45 1216.51 327.11C1220.62 317.72 1225.21 308.53 1229.75 299.33C1230.69 297.43 1232.18 295.8 1233.41 294.04H1233.43Z" fill="#CED1ED"/>
</svg>
