<svg width="1440" height="408" viewBox="0 0 1440 408" fill="none" xmlns="http://www.w3.org/2000/svg">
<g clip-path="url(#clip0_9_3)">
<rect y="11" width="1440" height="296" fill="white"/>
<circle cx="-15.0074" cy="322.618" r="35" transform="rotate(-2.22757 -15.0074 322.618)" fill="white"/>
<circle cx="67.9299" cy="319.392" r="63" transform="rotate(-2.22757 67.9299 319.392)" fill="white"/>
<circle cx="142.784" cy="288.459" r="63" transform="rotate(-2.22757 142.784 288.459)" fill="white"/>
<circle cx="240.305" cy="325.697" r="63" transform="rotate(-2.22757 240.305 325.697)" fill="white"/>
<circle cx="334.09" cy="344.066" r="63" transform="rotate(-2.22757 334.09 344.066)" fill="white"/>
<circle cx="396.187" cy="319.633" r="63" transform="rotate(-2.22757 396.187 319.633)" fill="white"/>
<circle cx="458.284" cy="295.201" r="63" transform="rotate(-2.22757 458.284 295.201)" fill="white"/>
<circle cx="561.051" cy="287.201" r="73" transform="rotate(-2.22757 561.051 287.201)" fill="white"/>
<circle cx="635.67" cy="288.802" r="54.5" transform="rotate(-2.22757 635.67 288.802)" fill="white"/>
<circle cx="735.256" cy="301.941" r="54.5" transform="rotate(-2.22757 735.256 301.941)" fill="white"/>
<circle cx="796.221" cy="325.589" r="54.5" transform="rotate(-2.22757 796.221 325.589)" fill="white"/>
<circle cx="864.17" cy="322.946" r="54.5" transform="rotate(-2.22757 864.17 322.946)" fill="white"/>
<circle cx="925.462" cy="303.549" r="45.5" transform="rotate(-2.22757 925.462 303.549)" fill="white"/>
<circle cx="1007" cy="302.879" r="56" transform="rotate(-2.22757 1007 302.879)" fill="white"/>
<circle cx="1104.62" cy="317.096" r="82" transform="rotate(-2.22757 1104.62 317.096)" fill="white"/>
<circle cx="1175.26" cy="306.342" r="82" transform="rotate(-2.22757 1175.26 306.342)" fill="white"/>
<circle cx="1245.89" cy="295.588" r="82" transform="rotate(-2.22757 1245.89 295.588)" fill="white"/>
<circle cx="1327.33" cy="279.411" r="61" transform="rotate(-2.22757 1327.33 279.411)" fill="white"/>
<circle cx="1430.56" cy="283.401" r="61" transform="rotate(-2.22757 1430.56 283.401)" fill="white"/>
<rect y="9" width="1440" height="296" fill="#D196FF"/>
<circle cx="-15.0074" cy="320.618" r="35" transform="rotate(-2.22757 -15.0074 320.618)" fill="#D196FF"/>
<circle cx="67.9299" cy="317.392" r="63" transform="rotate(-2.22757 67.9299 317.392)" fill="#D196FF"/>
<circle cx="142.784" cy="286.459" r="63" transform="rotate(-2.22757 142.784 286.459)" fill="#D196FF"/>
<circle cx="240.305" cy="323.697" r="63" transform="rotate(-2.22757 240.305 323.697)" fill="#D196FF"/>
<circle cx="334.09" cy="342.066" r="63" transform="rotate(-2.22757 334.09 342.066)" fill="#D196FF"/>
<circle cx="396.187" cy="317.633" r="63" transform="rotate(-2.22757 396.187 317.633)" fill="#D196FF"/>
<circle cx="458.284" cy="293.201" r="63" transform="rotate(-2.22757 458.284 293.201)" fill="#D196FF"/>
<circle cx="561.051" cy="285.201" r="73" transform="rotate(-2.22757 561.051 285.201)" fill="#D196FF"/>
<circle cx="635.67" cy="286.802" r="54.5" transform="rotate(-2.22757 635.67 286.802)" fill="#D196FF"/>
<circle cx="735.256" cy="299.941" r="54.5" transform="rotate(-2.22757 735.256 299.941)" fill="#D196FF"/>
<circle cx="796.221" cy="323.589" r="54.5" transform="rotate(-2.22757 796.221 323.589)" fill="#D196FF"/>
<circle cx="864.17" cy="320.946" r="54.5" transform="rotate(-2.22757 864.17 320.946)" fill="#D196FF"/>
<circle cx="925.462" cy="301.549" r="45.5" transform="rotate(-2.22757 925.462 301.549)" fill="#D196FF"/>
<circle cx="1007" cy="300.879" r="56" transform="rotate(-2.22757 1007 300.879)" fill="#D196FF"/>
<circle cx="1104.62" cy="315.096" r="82" transform="rotate(-2.22757 1104.62 315.096)" fill="#D196FF"/>
<circle cx="1175.26" cy="304.342" r="82" transform="rotate(-2.22757 1175.26 304.342)" fill="#D196FF"/>
<circle cx="1245.89" cy="293.588" r="82" transform="rotate(-2.22757 1245.89 293.588)" fill="#D196FF"/>
<circle cx="1327.33" cy="277.411" r="61" transform="rotate(-2.22757 1327.33 277.411)" fill="#D196FF"/>
<circle cx="1430.56" cy="281.401" r="61" transform="rotate(-2.22757 1430.56 281.401)" fill="#D196FF"/>
<rect y="-2" width="1440" height="296" fill="#CA87FF"/>
<circle cx="-15.0074" cy="309.618" r="35" transform="rotate(-2.22757 -15.0074 309.618)" fill="#CA87FF"/>
<circle cx="67.9299" cy="306.392" r="63" transform="rotate(-2.22757 67.9299 306.392)" fill="#CA87FF"/>
<circle cx="142.784" cy="275.459" r="63" transform="rotate(-2.22757 142.784 275.459)" fill="#CA87FF"/>
<circle cx="240.305" cy="312.697" r="63" transform="rotate(-2.22757 240.305 312.697)" fill="#CA87FF"/>
<circle cx="334.09" cy="331.066" r="63" transform="rotate(-2.22757 334.09 331.066)" fill="#CA87FF"/>
<circle cx="396.187" cy="306.633" r="63" transform="rotate(-2.22757 396.187 306.633)" fill="#CA87FF"/>
<circle cx="458.284" cy="282.201" r="63" transform="rotate(-2.22757 458.284 282.201)" fill="#CA87FF"/>
<circle cx="561.051" cy="274.201" r="73" transform="rotate(-2.22757 561.051 274.201)" fill="#CA87FF"/>
<circle cx="635.67" cy="275.802" r="54.5" transform="rotate(-2.22757 635.67 275.802)" fill="#CA87FF"/>
<circle cx="735.256" cy="288.941" r="54.5" transform="rotate(-2.22757 735.256 288.941)" fill="#CA87FF"/>
<circle cx="796.221" cy="312.589" r="54.5" transform="rotate(-2.22757 796.221 312.589)" fill="#CA87FF"/>
<circle cx="864.17" cy="309.946" r="54.5" transform="rotate(-2.22757 864.17 309.946)" fill="#CA87FF"/>
<circle cx="925.462" cy="290.549" r="45.5" transform="rotate(-2.22757 925.462 290.549)" fill="#CA87FF"/>
<circle cx="1007" cy="289.879" r="56" transform="rotate(-2.22757 1007 289.879)" fill="#CA87FF"/>
<circle cx="1104.62" cy="304.096" r="82" transform="rotate(-2.22757 1104.62 304.096)" fill="#CA87FF"/>
<circle cx="1175.26" cy="293.342" r="82" transform="rotate(-2.22757 1175.26 293.342)" fill="#CA87FF"/>
<circle cx="1245.89" cy="282.588" r="82" transform="rotate(-2.22757 1245.89 282.588)" fill="#CA87FF"/>
<circle cx="1327.33" cy="266.411" r="61" transform="rotate(-2.22757 1327.33 266.411)" fill="#CA87FF"/>
<circle cx="1430.56" cy="270.401" r="61" transform="rotate(-2.22757 1430.56 270.401)" fill="#CA87FF"/>
<path fill-rule="evenodd" clip-rule="evenodd" d="M1440 -20H-7.83316e-05V259.991C-4.94526 257.639 -10.5168 256.417 -16.368 256.645C-35.6833 257.396 -50.7324 273.663 -49.9811 292.979C-49.2298 312.294 -32.9625 327.343 -13.6472 326.592C-3.88291 326.212 4.79111 321.867 10.8849 315.168C21.3239 337.382 44.3088 352.359 70.3784 351.345C93.7609 350.435 113.67 336.893 123.79 317.546C130.535 319.678 137.757 320.702 145.233 320.412C157.803 319.923 169.369 315.783 178.951 309.053C185.664 337.888 212.073 358.843 242.754 357.649C256.587 357.111 269.204 352.152 279.298 344.186C290.563 363.982 312.207 376.964 336.539 376.018C356.378 375.246 373.717 365.381 384.698 350.591C389.202 351.422 393.867 351.771 398.636 351.586C418.475 350.814 435.814 340.948 446.795 326.159C451.299 326.99 455.965 327.339 460.733 327.154C479.196 326.436 495.494 317.841 506.516 304.732C520.527 320.458 541.2 330.028 563.889 329.146C583.219 328.394 600.5 320.191 613.076 307.411C620.581 310.836 628.981 312.603 637.788 312.261C657.055 311.511 673.595 300.848 682.689 285.373C689.228 309.273 711.552 326.404 737.374 325.4C741.729 325.23 745.945 324.554 749.967 323.431C759.988 339.469 778.088 349.836 798.339 349.048C811.189 348.548 822.827 343.638 831.851 335.832C841.454 342.914 853.438 346.905 866.288 346.405C886.861 345.605 904.327 333.5 912.935 316.304C917.462 317.599 922.269 318.208 927.23 318.015C940.365 317.504 951.981 311.474 959.935 302.246C970.321 318.309 988.675 328.635 1009.17 327.837C1017.02 327.532 1024.43 325.625 1031.1 322.444C1045 350.531 1074.47 369.331 1107.81 368.034C1123.89 367.408 1138.7 362.196 1151.04 353.707C1159.67 356.376 1168.9 357.651 1178.45 357.28C1194.52 356.655 1209.33 351.443 1221.68 342.953C1230.31 345.622 1239.54 346.898 1249.08 346.526C1277.16 345.434 1301.4 330.342 1315.32 308.233C1319.96 309.158 1324.77 309.557 1329.7 309.365C1349.75 308.585 1367.16 298.215 1377.69 282.843C1388.64 301.836 1409.5 314.267 1432.93 313.355C1466.6 312.046 1492.82 283.694 1491.51 250.03C1490.36 220.392 1468.25 196.517 1440 192.125V-20Z" fill="url(#paint0_linear_9_3)"/>
</g>
<defs>
<linearGradient id="paint0_linear_9_3" x1="720.777" y1="-20" x2="720.777" y2="376.066" gradientUnits="userSpaceOnUse">
<stop stop-color="#211162"/>
<stop offset="1" stop-color="#AC42FF" stop-opacity="0"/>
</linearGradient>
<clipPath id="clip0_9_3">
<rect width="1440" height="408" fill="white"/>
</clipPath>
</defs>
</svg>
