<svg width="1201" height="262" viewBox="0 0 1201 262" fill="none" xmlns="http://www.w3.org/2000/svg">
<g filter="url(#filter0_df_1_828)">
<path d="M746.315 -13.4378C750.177 -15.7421 753.97 -18.183 757.925 -20.3082C766.787 -25.0758 773.788 -19.2972 781.278 -16.0452C791.426 -11.6512 796.773 -12.9488 802.808 -20.008C807.104 -25.0343 811.993 -26.4834 818.32 -24.3798C825.564 -21.9632 829.844 -23.9086 833.627 -30.5974C840.466 -42.705 848.546 -52.8639 863.633 -55.6273C876.382 -57.9579 887.095 -54.6075 897.127 -47.3425C899.946 -45.3025 902.714 -43.1466 905.285 -40.7976C910.786 -35.7561 917.019 -35.7292 923.552 -37.9345C929.939 -40.0826 936.2 -42.6134 942.621 -44.6882C948.236 -46.5039 951.352 -50.8027 953.497 -55.6807C956.221 -61.8722 960.913 -65.7184 966.481 -68.9139C976.41 -74.6198 987.256 -76.4383 998.257 -74.5079C1002.96 -73.6843 1007.25 -69.896 1011.45 -67.0393C1014.3 -65.0972 1016.86 -62.6287 1019.19 -60.0703C1026.02 -52.5804 1034.04 -50.4653 1043.62 -53.8431C1052.13 -56.8448 1060.47 -56.2474 1068.92 -53.0102C1072.96 -51.4633 1077.73 -51.8385 1081.78 -50.3107C1089.36 -47.4418 1097.95 -46.2907 1102.19 -37.456C1106.11 -29.3035 1114.65 -26.4194 1124.63 -27.8132C1131.85 -28.8124 1137.65 -31.3744 1143.75 -34.7833C1147.47 -36.8692 1152.29 -37.0797 1156.66 -37.9225C1169.67 -40.4507 1178.37 -33.6467 1186.36 -24.6065C1189.83 -20.6914 1194.41 -17.7699 1198.51 -14.4305C1204.02 -9.9503 1209.91 -5.86796 1214.97 -0.92634C1219.07 3.07578 1227.6 5.65831 1233.21 2.95804C1241.16 -0.866831 1249.13 0.279598 1256.97 3.75386C1266.16 7.83126 1273.54 14.0747 1279.56 22.0644C1283.28 27.0067 1287.29 31.6337 1294.4 31.1162C1295.97 30.9966 1297.75 31.3366 1299.1 30.7347C1305.11 28.0511 1310.38 29.3267 1314.43 34.0577C1318.92 39.2997 1322.62 45.2235 1326.96 50.6024C1329.45 53.6975 1332.44 56.4153 1335.41 59.0816C1338.96 62.2714 1341.76 60.1231 1344.26 57.3751C1348.68 52.5206 1351.56 52.4474 1356.44 56.7301C1362.65 62.1873 1369.12 67.3753 1375.3 72.8796C1376.7 74.13 1377.33 76.2441 1378.4 77.9068C1381.16 82.1605 1380.32 84.6449 1375.02 85.0533C1372.34 83.5075 1369.38 82.3088 1367.04 80.3616C1361.39 75.6579 1355.09 74.1391 1347.99 75.4506C1340.71 76.7957 1333.9 76.0344 1327.41 72.0687C1319.02 66.9492 1312.74 67.6712 1305.09 73.8922C1303.56 75.1308 1301.84 76.2012 1300.06 77.0254C1291.45 80.9824 1282.88 79.3704 1274.38 76.5796C1262.01 72.5387 1251.52 65.3529 1241.57 57.1815C1234.81 51.6254 1229.02 51.6886 1222.47 57.346C1218.66 60.6389 1214.37 62.0013 1209.57 61.1289C1206.18 60.5138 1202.79 59.4867 1199.64 58.0999C1187.55 52.7993 1175.51 49.6914 1162.84 56.3866C1157.64 59.1325 1152.83 56.5626 1148.17 54.2977C1146.68 53.5716 1145.35 52.5284 1143.87 51.7634C1138.2 48.8451 1132.93 48.7239 1127.82 53.3664C1123.21 57.5512 1117.76 57.4437 1112.94 53.638C1111.12 52.1998 1109.37 50.6674 1107.68 49.0797C1098.74 40.7079 1089.28 34.418 1076.04 38.8532C1073.14 39.8182 1069.15 39.7715 1066.41 38.5417C1059.4 35.3725 1053.05 30.657 1045.94 27.8002C1041.87 26.1601 1035.46 24.9828 1032.49 27.0361C1025.66 31.765 1019.08 34.3171 1010.78 33.4825C1004.69 32.8662 1002.06 35.6216 1001.39 41.8269C1001.22 43.3182 1001.21 44.8328 1000.93 46.2935C1000.17 50.2011 997.679 52.7391 993.781 52.7711C985.581 52.849 977.656 51.4254 970.666 46.6419C961.623 40.4494 952.607 35.4039 940.609 36.5267C933.41 37.1964 925.738 34.42 921.688 26.8479C919.968 23.6315 918.261 20.3861 916.877 17.009C914.531 11.2664 910.552 7.04415 905.471 3.69689C896.665 -2.11292 886.412 -3.66491 876.439 -5.64364C867.917 -7.34167 858.957 -6.6291 850.901 -10.946C848.995 -11.9703 846.435 -11.7581 844.446 -12.0771C847.055 -4.56395 849.504 2.39257 851.88 9.3727C853.39 13.8053 851.888 17.6766 848.941 20.8661C839.508 31.1145 815.507 32.1849 808.29 20.6242C803.023 12.1899 796.121 9.21158 785.682 14.6709C780.373 17.4478 776.826 15.7944 773.552 10.6614C772.046 8.30746 770.445 5.89482 768.426 3.99694C764.418 0.2138 760.19 -3.35811 755.869 -6.78777C752.843 -9.19777 749.521 -11.2326 746.325 -13.4369L746.315 -13.4378Z" fill="#EDF2F7"/>
<path d="M746.315 -13.4378C749.511 -11.2335 752.833 -9.19866 755.859 -6.78867C760.18 -3.359 764.408 0.212909 768.416 3.99604C770.435 5.89393 772.036 8.30657 773.542 10.6605C776.816 15.7935 780.363 17.4469 785.672 14.67C796.121 9.21158 803.013 12.189 808.28 20.6233C815.498 32.1741 839.499 31.1037 848.931 20.8652C851.869 17.6648 853.38 13.8044 851.87 9.3718C849.494 2.39167 847.045 -4.56485 844.436 -12.078C846.425 -11.759 848.985 -11.9712 850.891 -10.9469C858.947 -6.63 867.907 -7.34257 876.429 -5.64454C886.401 -3.65585 896.655 -2.11382 905.461 3.696C910.541 7.05321 914.521 11.2655 916.867 17.0081C918.242 20.3743 919.958 23.6306 921.678 26.8471C925.728 34.4191 933.4 37.1955 940.599 36.5258C952.587 35.4022 961.613 40.4485 970.656 46.641C977.636 51.4237 985.561 52.8472 993.771 52.7702C997.679 52.7391 1000.17 50.2011 1000.92 46.2926C1001.2 44.832 1001.22 43.3073 1001.38 41.826C1002.05 35.6207 1004.67 32.8644 1010.77 33.4816C1019.06 34.3253 1025.64 31.7732 1032.48 27.0352C1035.46 24.9828 1041.86 26.1592 1045.93 27.7993C1053.04 30.6561 1059.39 35.3815 1066.4 38.5408C1069.14 39.7806 1073.13 39.8273 1076.03 38.8523C1089.27 34.4171 1098.73 40.707 1107.67 49.0788C1109.36 50.6665 1111.11 52.1989 1112.93 53.6371C1117.76 57.4437 1123.21 57.5512 1127.81 53.3655C1132.92 48.7329 1138.19 48.8541 1143.86 51.7625C1145.34 52.5176 1146.67 53.5707 1148.16 54.2968C1152.82 56.5717 1157.63 59.1416 1162.83 56.3857C1175.51 49.6914 1187.55 52.7993 1199.63 58.099C1202.78 59.4858 1206.17 60.5029 1209.56 61.128C1214.36 62.0004 1218.65 60.638 1222.46 57.3451C1229.01 51.6877 1234.8 51.6245 1241.56 57.1806C1251.51 65.3521 1262 72.5378 1274.37 76.5787C1282.88 79.3605 1291.44 80.9815 1300.05 77.0245C1301.83 76.2003 1303.56 75.1307 1305.08 73.8913C1312.73 67.6802 1319.01 66.9483 1327.4 72.0679C1333.89 76.0336 1340.71 76.7957 1347.98 75.4497C1355.08 74.1382 1361.38 75.657 1367.03 80.3607C1369.37 82.3079 1372.33 83.5166 1375.01 85.0524C1376.17 85.4575 1377.33 85.8527 1378.71 86.3281C1372.93 92.7677 1369.79 93.6208 1362.63 90.5685C1354.52 87.1208 1346.3 86.8248 1337.7 88.4034C1332.81 89.3002 1327.67 89.6424 1322.73 89.2591C1317.52 88.8626 1314.44 91.5579 1311.23 94.7541C1308.44 97.5261 1305.59 100.293 1302.52 102.738C1299.51 105.138 1296.16 105.19 1292.08 105.195C1278.4 105.214 1268.29 97.2889 1257.17 91.5525C1254.61 90.2284 1252.69 87.7075 1250.25 86.0827C1240.65 79.6899 1231.86 84.3631 1222.94 88.172C1214.83 91.6313 1206.66 94.934 1198.42 98.0811C1187.7 102.17 1178.85 97.2395 1169.99 92.0572C1163.74 88.3944 1157.48 84.5099 1150.76 82.0093C1147.81 80.912 1142.82 81.8896 1140.26 83.8791C1133.04 89.4866 1124.88 92.7612 1116.2 93.1874C1109.48 93.5088 1102.09 93.6889 1096.14 88.5673C1088.85 82.2813 1079.81 82.6952 1071.09 83.1983C1064.88 83.5545 1058.69 84.9272 1052.58 86.2873C1050.7 86.7106 1048.65 88.2241 1047.5 89.8271C1042.88 96.2408 1037.26 98.196 1029.79 95.9001C1024.76 94.3544 1019.65 92.6215 1014.47 92.0963C1010.7 91.718 1006.17 92.1852 1002.95 93.9953C990.158 101.221 979.773 96.2236 969.394 88.8069C963.922 84.8924 958.218 81.2082 952.288 78.0358C947.468 75.4651 942.496 76.726 938.277 79.9922C932.094 84.7891 925.63 85.3338 918.707 81.9118C909.487 77.3601 900.29 74.4569 889.602 77.3137C882.083 79.3201 876.071 74.2528 870.287 69.8988C859.754 61.9562 847.897 61.3949 835.674 64.4654C832.069 65.367 828.749 67.4588 825.373 69.1641C818.431 72.6781 811.062 71.6658 804.482 69.3588C797.55 66.94 790.686 63.2119 785.018 58.5671C776.947 51.9497 768.527 48.1023 758.126 49.8903C752.171 50.9125 746.871 49.2223 742.088 46.2432C734.357 41.4234 727.901 35.1617 725.477 26.0287C724.823 23.5805 725.284 20.2282 726.509 17.9887C731.441 9.00336 736.834 0.260112 742.177 -8.49759C743.283 -10.306 744.913 -11.7965 746.295 -13.4396L746.315 -13.4378Z" fill="#CED1ED"/>
<path d="M1053.16 75.6993C1057.02 73.395 1060.82 70.9541 1064.77 68.8289C1073.63 64.0614 1080.64 69.8399 1088.12 73.0919C1098.27 77.4859 1103.62 76.1884 1109.65 69.1292C1113.95 64.1028 1118.84 62.6537 1125.17 64.7573C1132.41 67.1739 1136.69 65.2286 1140.47 58.5397C1147.31 46.4321 1155.39 36.2732 1170.48 33.5098C1183.23 31.1792 1193.94 34.5296 1203.97 41.7946C1206.79 43.8346 1209.56 45.9905 1212.13 48.3395C1217.63 53.3811 1223.87 53.4079 1230.4 51.2026C1236.79 49.0546 1243.05 46.5237 1249.47 44.4489C1255.08 42.6332 1258.2 38.3344 1260.34 33.4564C1263.07 27.265 1267.76 23.4187 1273.33 20.2233C1283.26 14.5174 1294.1 12.6989 1305.1 14.6293C1309.81 15.4528 1314.1 19.2411 1318.3 22.0978C1321.15 24.0399 1323.71 26.5084 1326.04 29.0669C1332.87 36.5567 1340.89 38.6718 1350.47 35.294C1358.98 32.2923 1367.32 32.8897 1375.77 36.1269C1379.8 37.6738 1384.58 37.2986 1388.63 38.8264C1396.21 41.6953 1404.79 42.8464 1409.04 51.6812C1412.96 59.8337 1421.49 62.7177 1431.48 61.3239C1438.7 60.3247 1444.5 57.7627 1450.6 54.3538C1454.32 52.2679 1459.14 52.0574 1463.51 51.2146C1476.52 48.6864 1485.21 55.4904 1493.21 64.5306C1496.67 68.4457 1501.26 71.3672 1505.36 74.7066C1510.87 79.1868 1516.76 83.2692 1521.82 88.2108C1525.92 92.2129 1534.45 94.7954 1540.05 92.0952C1548.01 88.2703 1555.98 89.4167 1563.82 92.891C1573.01 96.9684 1580.38 103.212 1586.4 111.202C1590.13 116.144 1594.14 120.771 1601.24 120.253C1602.82 120.134 1604.6 120.474 1605.95 119.872C1611.96 117.188 1617.23 118.464 1621.28 123.195C1625.77 128.437 1629.47 134.361 1633.8 139.739C1636.3 142.835 1639.29 145.552 1642.26 148.219C1645.81 151.409 1648.61 149.26 1651.11 146.512C1655.53 141.658 1658.41 141.584 1663.28 145.867C1669.5 151.324 1675.96 156.512 1682.15 162.017C1683.55 163.267 1684.17 165.381 1685.25 167.044C1688.01 171.298 1687.17 173.782 1681.87 174.19C1679.19 172.645 1676.23 171.446 1673.88 169.499C1668.23 164.795 1661.93 163.276 1654.84 164.588C1647.56 165.933 1640.75 165.172 1634.26 161.206C1625.87 156.086 1619.59 156.808 1611.94 163.029C1610.41 164.268 1608.69 165.338 1606.91 166.163C1598.3 170.119 1589.73 168.508 1581.22 165.717C1568.85 161.676 1558.36 154.49 1548.41 146.319C1541.65 140.763 1535.86 140.826 1529.31 146.483C1525.5 149.776 1521.21 151.138 1516.41 150.266C1513.02 149.651 1509.63 148.624 1506.48 147.237C1494.4 141.936 1482.36 138.829 1469.69 145.524C1464.48 148.27 1459.67 145.7 1455.02 143.435C1453.53 142.709 1452.19 141.666 1450.72 140.9C1445.05 137.982 1439.78 137.861 1434.67 142.504C1430.06 146.688 1424.61 146.581 1419.79 142.775C1417.97 141.337 1416.22 139.805 1414.52 138.217C1405.58 129.845 1396.13 123.555 1382.89 127.99C1379.99 128.955 1376 128.909 1373.26 127.679C1366.24 124.51 1359.9 119.794 1352.79 116.937C1348.72 115.297 1342.31 114.12 1339.34 116.173C1332.51 120.902 1325.93 123.454 1317.63 122.62C1311.54 122.003 1308.9 124.759 1308.24 130.964C1308.07 132.455 1308.06 133.97 1307.77 135.431C1307.01 139.338 1304.53 141.876 1300.63 141.908C1292.43 141.986 1284.5 140.563 1277.51 135.779C1268.47 129.587 1259.45 124.541 1247.46 125.664C1240.26 126.334 1232.58 123.557 1228.53 115.985C1226.82 112.769 1225.11 109.523 1223.72 106.146C1221.38 100.404 1217.4 96.1813 1212.32 92.834C1203.51 87.0242 1193.26 85.4722 1183.29 83.4935C1174.76 81.7954 1165.8 82.508 1157.75 78.1911C1155.84 77.1668 1153.28 77.379 1151.29 77.0601C1153.9 84.5732 1156.35 91.5297 1158.73 98.5098C1160.24 102.942 1158.73 106.814 1155.79 110.003C1146.36 120.252 1122.35 121.322 1115.14 109.761C1109.87 101.327 1102.97 98.3487 1092.53 103.808C1087.22 106.585 1083.67 104.931 1080.4 99.7985C1078.89 97.4446 1077.29 95.0319 1075.27 93.1341C1071.27 89.3509 1067.04 85.779 1062.72 82.3493C1059.69 79.9393 1056.37 77.9045 1053.17 75.7002L1053.16 75.6993Z" fill="#EDF2F7"/>
<path d="M1053.16 75.6993C1056.36 77.9036 1059.68 79.9385 1062.71 82.3484C1067.03 85.7781 1071.26 89.35 1075.26 93.1332C1077.28 95.031 1078.88 97.4437 1080.39 99.7976C1083.66 104.931 1087.21 106.584 1092.52 103.807C1102.97 98.3487 1109.86 101.326 1115.13 109.76C1122.34 121.311 1146.35 120.241 1155.78 110.002C1158.72 106.802 1160.23 102.942 1158.72 98.5089C1156.34 91.5288 1153.89 84.5723 1151.28 77.0592C1153.27 77.3781 1155.83 77.1659 1157.74 78.1902C1165.79 82.5071 1174.75 81.7945 1183.28 83.4926C1193.25 85.4813 1203.5 87.0233 1212.31 92.8331C1217.39 96.1903 1221.37 100.403 1223.71 106.145C1225.09 109.511 1226.81 112.768 1228.52 115.984C1232.57 123.556 1240.25 126.333 1247.45 125.663C1259.43 124.539 1268.46 129.586 1277.5 135.778C1284.48 140.561 1292.41 141.984 1300.62 141.907C1304.53 141.876 1307.01 139.338 1307.76 135.43C1308.05 133.969 1308.06 132.444 1308.23 130.963C1308.89 124.758 1311.52 122.001 1317.62 122.619C1325.91 123.462 1332.49 120.91 1339.33 116.172C1342.31 114.12 1348.71 115.296 1352.78 116.936C1359.89 119.793 1366.23 124.519 1373.25 127.678C1375.99 128.918 1379.98 128.964 1382.88 127.989C1396.12 123.554 1405.57 129.844 1414.51 138.216C1416.21 139.804 1417.96 141.336 1419.78 142.774C1424.61 146.581 1430.06 146.688 1434.66 142.503C1439.76 137.87 1445.03 137.991 1450.71 140.9C1452.19 141.655 1453.52 142.708 1455.01 143.434C1459.66 145.709 1464.47 148.279 1469.68 145.523C1482.36 138.829 1494.4 141.936 1506.47 147.236C1509.62 148.623 1513.02 149.64 1516.4 150.265C1521.2 151.138 1525.49 149.775 1529.3 146.482C1535.85 140.825 1541.64 140.762 1548.4 146.318C1558.35 154.489 1568.84 161.675 1581.21 165.716C1589.73 168.498 1598.29 170.119 1606.9 166.162C1608.68 165.337 1610.41 164.268 1611.93 163.028C1619.58 156.817 1625.86 156.085 1634.25 161.205C1640.74 165.171 1647.56 165.933 1654.83 164.587C1661.92 163.275 1668.22 164.794 1673.88 169.498C1676.22 171.445 1679.17 172.654 1681.86 174.19C1683.02 174.595 1684.18 174.99 1685.56 175.465C1679.78 181.905 1676.64 182.758 1669.48 179.706C1661.37 176.258 1653.14 175.962 1644.55 177.541C1639.66 178.437 1634.52 178.779 1629.57 178.396C1624.37 178 1621.28 180.695 1618.08 183.891C1615.29 186.663 1612.44 189.43 1609.37 191.875C1606.35 194.276 1603 194.327 1598.93 194.333C1585.25 194.351 1575.14 186.426 1564.02 180.69C1561.45 179.366 1559.54 176.845 1557.1 175.22C1547.5 168.827 1538.71 173.5 1529.79 177.309C1521.68 180.768 1513.5 184.071 1505.27 187.218C1494.55 191.307 1485.7 186.377 1476.83 181.194C1470.58 177.532 1464.33 173.647 1457.6 171.146C1454.66 170.049 1449.66 171.027 1447.1 173.016C1439.88 178.624 1431.73 181.898 1423.05 182.324C1416.33 182.646 1408.94 182.826 1402.99 177.704C1395.7 171.418 1386.66 171.832 1377.94 172.335C1371.72 172.692 1365.53 174.064 1359.43 175.424C1357.54 175.848 1355.5 177.361 1354.34 178.964C1349.73 185.378 1344.1 187.333 1336.64 185.037C1331.61 183.492 1326.5 181.759 1321.32 181.233C1317.55 180.855 1313.02 181.322 1309.8 183.132C1297.01 190.358 1286.62 185.361 1276.24 177.944C1270.77 174.03 1265.07 170.345 1259.13 167.173C1254.32 164.602 1249.34 165.863 1245.12 169.129C1238.94 173.926 1232.48 174.471 1225.55 171.049C1216.33 166.497 1207.14 163.594 1196.45 166.451C1188.93 168.457 1182.92 163.39 1177.13 159.036C1166.6 151.093 1154.74 150.532 1142.52 153.603C1138.92 154.504 1135.6 156.596 1132.22 158.301C1125.28 161.815 1117.91 160.803 1111.33 158.496C1104.4 156.077 1097.53 152.349 1091.87 147.704C1083.79 141.087 1075.37 137.239 1064.97 139.027C1059.02 140.05 1053.72 138.359 1048.93 135.38C1041.2 130.561 1034.75 124.299 1032.32 115.166C1031.67 112.718 1032.13 109.365 1033.36 107.126C1038.29 98.1405 1043.68 89.3972 1049.02 80.6395C1050.13 78.8311 1051.76 77.3407 1053.14 75.6976L1053.16 75.6993Z" fill="#CED1ED"/>
<path d="M73.1613 -34.3009C77.0226 -36.6052 80.8157 -39.0461 84.7713 -41.1713C93.6326 -45.9389 100.634 -40.1603 108.124 -36.9083C118.272 -32.5143 123.619 -33.8119 129.654 -40.8711C133.95 -45.8974 138.839 -47.3465 145.166 -45.2429C152.41 -42.8263 156.69 -44.7717 160.473 -51.4605C167.312 -63.5681 175.392 -73.727 190.479 -76.4904C203.228 -78.821 213.941 -75.4706 223.973 -68.2056C226.792 -66.1656 229.56 -64.0097 232.131 -61.6607C237.632 -56.6192 243.865 -56.5923 250.398 -58.7976C256.785 -60.9457 263.046 -63.4765 269.467 -65.5513C275.082 -67.367 278.198 -71.6658 280.343 -76.5438C283.067 -82.7353 287.759 -86.5815 293.327 -89.777C303.256 -95.4829 314.102 -97.3014 325.103 -95.371C329.809 -94.5474 334.097 -90.7591 338.299 -87.9024C341.147 -85.9603 343.707 -83.4918 346.037 -80.9334C352.866 -73.4435 360.889 -71.3284 370.469 -74.7062C378.981 -77.7079 387.321 -77.1105 395.766 -73.8733C399.803 -72.3264 404.576 -72.7016 408.626 -71.1738C416.21 -68.3049 424.791 -67.1538 429.039 -58.3191C432.957 -50.1666 441.493 -47.2825 451.478 -48.6763C458.696 -49.6755 464.498 -52.2375 470.597 -55.6464C474.318 -57.7323 479.136 -57.9428 483.509 -58.7856C496.516 -61.3138 505.213 -54.5098 513.208 -45.4696C516.672 -41.5545 521.259 -38.633 525.357 -35.2936C530.869 -30.8134 536.758 -26.7311 541.817 -21.7894C545.916 -17.7873 554.449 -15.2048 560.053 -17.9051C568.006 -21.7299 575.976 -20.5835 583.817 -17.1092C593.01 -13.0318 600.381 -6.78839 606.402 1.2013C610.125 6.14365 614.138 10.7706 621.242 10.2531C622.819 10.1335 624.596 10.4735 625.945 9.8716C631.959 7.18803 637.226 8.4636 641.28 13.1946C645.77 18.4366 649.465 24.3604 653.802 29.7393C656.296 32.8344 659.285 35.5522 662.258 38.2185C665.808 41.4083 668.611 39.26 671.106 36.512C675.528 31.6575 678.406 31.5843 683.283 35.867C689.5 41.3242 695.962 46.5122 702.145 52.0165C703.549 53.2669 704.173 55.381 705.249 57.0437C708.01 61.2974 707.165 63.7818 701.867 64.1902C699.184 62.6444 696.23 61.4457 693.884 59.4985C688.232 54.7948 681.932 53.276 674.837 54.5875C667.557 55.9326 660.748 55.1713 654.256 51.2056C645.87 46.0861 639.591 46.8081 631.934 53.0291C630.408 54.2677 628.685 55.3381 626.904 56.1623C618.297 60.1193 609.726 58.5073 601.222 55.7165C588.853 51.6756 578.363 44.4898 568.413 36.3184C561.652 30.7623 555.864 30.8255 549.312 36.4829C545.503 39.7758 541.214 41.1382 536.413 40.2658C533.024 39.6507 529.632 38.6236 526.483 37.2368C514.399 31.9362 502.358 28.8283 489.689 35.5235C484.483 38.2694 479.674 35.6995 475.017 33.4346C473.526 32.7085 472.194 31.6653 470.716 30.9003C465.044 27.982 459.774 27.8608 454.669 32.5033C450.057 36.6881 444.605 36.5806 439.785 32.7749C437.967 31.3367 436.217 29.8043 434.522 28.2166C425.584 19.8448 416.128 13.5549 402.889 17.9901C399.991 18.9551 395.999 18.9084 393.258 17.6786C386.243 14.5094 379.899 9.79386 372.786 6.93707C368.716 5.29699 362.305 4.11969 359.34 6.17303C352.51 10.9019 345.926 13.454 337.627 12.6194C331.538 12.0031 328.901 14.7585 328.235 20.9638C328.071 22.4551 328.055 23.9697 327.774 25.4304C327.012 29.338 324.525 31.876 320.627 31.908C312.427 31.9859 304.502 30.5623 297.512 25.7788C288.469 19.5863 279.453 14.5408 267.455 15.6636C260.256 16.3333 252.584 13.5569 248.534 5.98485C246.814 2.76839 245.107 -0.477039 243.723 -3.85415C241.377 -9.59669 237.398 -13.819 232.317 -17.1662C223.511 -22.976 213.258 -24.528 203.285 -26.5067C194.763 -28.2048 185.803 -27.4922 177.747 -31.8091C175.841 -32.8334 173.281 -32.6212 171.292 -32.9402C173.901 -25.4271 176.35 -18.4705 178.726 -11.4904C180.236 -7.0578 178.734 -3.18651 175.787 0.00304095C166.354 10.2514 142.353 11.3218 135.137 -0.23894C129.869 -8.67318 122.967 -11.6515 112.528 -6.19216C107.219 -3.4153 103.672 -5.06872 100.398 -10.2017C98.8918 -12.5556 97.2909 -14.9683 95.2723 -16.8662C91.2642 -20.6493 87.0364 -24.2212 82.7155 -27.6509C79.6887 -30.0609 76.3671 -32.0957 73.1712 -34.3L73.1613 -34.3009Z" fill="#EDF2F7"/>
<path d="M73.1613 -34.3009C76.3572 -32.0966 79.6787 -30.0618 82.7055 -27.6518C87.0264 -24.2221 91.2542 -20.6502 95.2623 -16.8671C97.2809 -14.9692 98.8818 -12.5565 100.388 -10.2026C103.662 -5.06961 107.209 -3.41619 112.518 -6.19306C122.967 -11.6515 129.859 -8.67407 135.127 -0.239834C142.344 11.311 166.345 10.2406 175.777 0.00214639C178.715 -3.19825 180.226 -7.05869 178.716 -11.4913C176.34 -18.4714 173.891 -25.4279 171.282 -32.941C173.271 -32.6221 175.831 -32.8343 177.737 -31.81C185.793 -27.4931 194.753 -28.2057 203.275 -26.5076C213.247 -24.5189 223.501 -22.9769 232.307 -17.1671C237.387 -13.8099 241.367 -9.59759 243.714 -3.85504C245.088 -0.488785 246.804 2.7675 248.524 5.98396C252.574 13.556 260.246 16.3324 267.445 15.6627C279.433 14.5391 288.459 19.5854 297.502 25.7779C304.482 30.5606 312.407 31.9841 320.617 31.9071C324.525 31.876 327.012 29.338 327.764 25.4295C328.045 23.9689 328.062 22.4442 328.225 20.9629C328.891 14.7576 331.518 12.0013 337.617 12.6185C345.905 13.4622 352.489 10.9101 359.33 6.17214C362.305 4.11969 368.706 5.29609 372.776 6.93617C379.889 9.79296 386.232 14.5184 393.248 17.6777C395.988 18.9175 399.98 18.9642 402.879 17.9892C416.118 13.554 425.574 19.8439 434.512 28.2157C436.207 29.8034 437.957 31.3358 439.775 32.774C444.605 36.5806 450.057 36.6881 454.659 32.5024C459.763 27.8698 465.034 27.991 470.707 30.8994C472.185 31.6545 473.516 32.7076 475.007 33.4337C479.663 35.7086 484.472 38.2785 489.679 35.5226C502.358 28.8283 514.399 31.9362 526.473 37.2359C529.622 38.6227 533.015 39.6398 536.403 40.2649C541.204 41.1373 545.493 39.7749 549.302 36.482C555.854 30.8246 561.642 30.7615 568.403 36.3175C578.353 44.489 588.843 51.6747 601.212 55.7156C609.727 58.4974 618.287 60.1184 626.894 56.1614C628.675 55.3372 630.408 54.2676 631.924 53.0282C639.58 46.8171 645.86 46.0852 654.247 51.2048C660.738 55.1705 667.557 55.9326 674.827 54.5866C681.922 53.2751 688.222 54.7939 693.874 59.4976C696.22 61.4449 699.173 62.6535 701.857 64.1893C703.015 64.5944 704.175 64.9896 705.558 65.465C699.78 71.9046 696.641 72.7577 689.475 69.7054C681.37 66.2577 673.144 65.9617 664.549 67.5403C659.659 68.4371 654.518 68.7793 649.572 68.396C644.367 67.9995 641.284 70.6948 638.075 73.891C635.287 76.663 632.438 79.4296 629.368 81.8751C626.351 84.2753 623.003 84.3264 618.926 84.3323C605.25 84.3508 595.137 76.4258 584.015 70.6894C581.453 69.3653 579.541 66.8444 577.096 65.2196C567.499 58.8268 558.706 63.5 549.79 67.3089C541.679 70.7682 533.501 74.0709 525.267 77.218C514.549 81.307 505.694 76.3764 496.832 71.1941C490.584 67.5314 484.326 63.6468 477.602 61.1462C474.659 60.0489 469.661 61.0265 467.103 63.016C459.884 68.6235 451.729 71.8981 443.046 72.3243C436.33 72.6457 428.935 72.8258 422.988 67.7042C415.701 61.4182 406.658 61.8321 397.938 62.3352C391.721 62.6914 385.534 64.0641 379.428 65.4242C377.542 65.8475 375.499 67.361 374.341 68.964C369.73 75.3777 364.103 77.3329 356.638 75.037C351.606 73.4913 346.5 71.7584 341.317 71.2332C337.545 70.8549 333.015 71.3221 329.801 73.1322C317.004 80.3581 306.619 75.3605 296.24 67.9438C290.768 64.0293 285.064 60.3451 279.134 57.1727C274.314 54.602 269.342 55.8629 265.123 59.1291C258.94 63.926 252.476 64.4707 245.554 61.0487C236.333 56.497 227.136 53.5938 216.448 56.4506C208.929 58.457 202.917 53.3897 197.133 49.0357C186.6 41.0931 174.743 40.5318 162.52 43.6023C158.915 44.5039 155.595 46.5957 152.219 48.301C145.277 51.815 137.908 50.8027 131.328 48.4957C124.397 46.0769 117.532 42.3488 111.864 37.704C103.793 31.0866 95.3732 27.2392 84.9719 29.0272C79.0168 30.0494 73.7166 28.3592 68.9335 25.3801C61.2032 20.5603 54.7466 14.2986 52.3227 5.16558C51.6688 2.71738 52.13 -0.63485 53.355 -2.87439C58.2873 -11.8597 63.6798 -20.603 69.0234 -29.3607C70.1294 -31.1691 71.7591 -32.6596 73.1413 -34.3027L73.1613 -34.3009Z" fill="#CED1ED"/>
<path d="M542.653 38.7342C546.515 36.4298 550.308 33.9889 554.263 31.8637C563.125 27.0962 570.126 32.8747 577.616 36.1267C587.764 40.5207 593.111 39.2232 599.146 32.164C603.442 27.1376 608.331 25.6885 614.659 27.7921C621.902 30.2088 626.182 28.2634 629.965 21.5745C636.804 9.46696 644.884 -0.691972 659.971 -3.4554C672.72 -5.78594 683.433 -2.4356 693.465 4.82945C696.284 6.8694 699.052 9.02532 701.623 11.3743C707.124 16.4159 713.357 16.4427 719.89 14.2374C726.277 12.0894 732.538 9.55852 738.959 7.48377C744.574 5.66802 747.69 1.36919 749.835 -3.50878C752.559 -9.70022 757.251 -13.5465 762.819 -16.7419C772.748 -22.4478 783.594 -24.2663 794.595 -22.3359C799.301 -21.5123 803.589 -17.7241 807.791 -14.8674C810.639 -12.9252 813.199 -10.4567 815.529 -7.89832C822.358 -0.408461 830.381 1.70662 839.961 -1.67117C848.473 -4.67285 856.813 -4.0755 865.258 -0.838273C869.296 0.708591 874.068 0.333395 878.118 1.86123C885.702 4.73013 894.283 5.88123 898.531 14.716C902.449 22.8685 910.985 25.7525 920.97 24.3588C928.188 23.3595 933.99 20.7975 940.089 17.3887C943.81 15.3027 948.628 15.0922 953.001 14.2494C966.008 11.7212 974.705 18.5252 982.7 27.5655C986.164 31.4805 990.751 34.402 994.849 37.7414C1000.36 42.2216 1006.25 46.304 1011.31 51.2456C1015.41 55.2477 1023.94 57.8302 1029.54 55.13C1037.5 51.3051 1045.47 52.4515 1053.31 55.9258C1062.5 60.0032 1069.87 66.2466 1075.89 74.2363C1079.62 79.1787 1083.63 83.8056 1090.73 83.2881C1092.31 83.1685 1094.09 83.5085 1095.44 82.9066C1101.45 80.2231 1106.72 81.4986 1110.77 86.2296C1115.26 91.4716 1118.96 97.3954 1123.29 102.774C1125.79 105.869 1128.78 108.587 1131.75 111.254C1135.3 114.443 1138.1 112.295 1140.6 109.547C1145.02 104.693 1147.9 104.619 1152.77 108.902C1158.99 114.359 1165.45 119.547 1171.64 125.051C1173.04 126.302 1173.67 128.416 1174.74 130.079C1177.5 134.332 1176.66 136.817 1171.36 137.225C1168.68 135.679 1165.72 134.481 1163.38 132.533C1157.72 127.83 1151.42 126.311 1144.33 127.622C1137.05 128.968 1130.24 128.206 1123.75 124.241C1115.36 119.121 1109.08 119.843 1101.43 126.064C1099.9 127.303 1098.18 128.373 1096.4 129.197C1087.79 133.154 1079.22 131.542 1070.71 128.752C1058.35 124.711 1047.85 117.525 1037.91 109.353C1031.14 103.797 1025.36 103.861 1018.8 109.518C1014.99 112.811 1010.71 114.173 1005.9 113.301C1002.52 112.686 999.124 111.659 995.976 110.272C983.891 104.971 971.85 101.863 959.181 108.559C953.975 111.304 949.166 108.735 944.509 106.47C943.018 105.744 941.686 104.7 940.208 103.935C934.536 101.017 929.266 100.896 924.161 105.538C919.549 109.723 914.097 109.616 909.277 105.81C907.459 104.372 905.709 102.839 904.014 101.252C895.076 92.8798 885.62 86.59 872.381 91.0252C869.483 91.9902 865.491 91.9434 862.75 90.7137C855.735 87.5444 849.391 82.8289 842.278 79.9721C838.208 78.332 831.797 77.1547 828.832 79.2081C822.002 83.9369 815.418 86.489 807.119 85.6545C801.03 85.0381 798.393 87.7936 797.727 93.9988C797.563 95.4901 797.547 97.0048 797.266 98.4655C796.504 102.373 794.017 104.911 790.119 104.943C781.919 105.021 773.994 103.597 767.004 98.8138C757.961 92.6213 748.945 87.5759 736.947 88.6987C729.748 89.3683 722.076 86.5919 718.026 79.0199C716.306 75.8034 714.599 72.558 713.216 69.1809C710.869 63.4383 706.89 59.2161 701.809 55.8688C693.003 50.059 682.75 48.507 672.777 46.5283C664.255 44.8303 655.295 45.5428 647.239 41.2259C645.333 40.2016 642.773 40.4139 640.784 40.0949C643.393 47.608 645.842 54.5645 648.218 61.5446C649.728 65.9772 648.226 69.8485 645.279 73.0381C635.846 83.2865 611.845 84.3569 604.629 72.7961C599.361 64.3619 592.459 61.3835 582.02 66.8429C576.711 69.6197 573.164 67.9663 569.89 62.8333C568.384 60.4794 566.783 58.0668 564.764 56.1689C560.756 52.3857 556.528 48.8138 552.208 45.3842C549.181 42.9742 545.859 40.9393 542.663 38.735L542.653 38.7342Z" fill="#EDF2F7"/>
<path d="M542.653 38.7342C545.849 40.9384 549.171 42.9733 552.198 45.3833C556.518 48.8129 560.746 52.3848 564.754 56.168C566.773 58.0659 568.374 60.4785 569.88 62.8324C573.154 67.9654 576.701 69.6188 582.01 66.842C592.459 61.3835 599.351 64.361 604.619 72.7952C611.836 84.346 635.837 83.2756 645.269 73.0372C648.207 69.8368 649.718 65.9763 648.208 61.5437C645.832 54.5636 643.383 47.6071 640.774 40.094C642.763 40.413 645.323 40.2007 647.229 41.225C655.285 45.5419 664.245 44.8294 672.767 46.5274C682.74 48.5161 692.993 50.0581 701.799 55.8679C706.879 59.2252 710.859 63.4374 713.206 69.18C714.58 72.5462 716.296 75.8025 718.016 79.019C722.066 86.591 729.738 89.3675 736.937 88.6978C748.925 87.5741 757.951 92.6204 766.994 98.8129C773.974 103.596 781.899 105.019 790.109 104.942C794.017 104.911 796.504 102.373 797.256 98.4646C797.537 97.0039 797.554 95.4793 797.717 93.9979C798.383 87.7927 801.01 85.0363 807.109 85.6536C815.397 86.4972 821.981 83.9451 828.822 79.2072C831.797 77.1547 838.198 78.3311 842.268 79.9712C849.381 82.828 855.724 87.5535 862.74 90.7128C865.48 91.9525 869.472 91.9992 872.371 91.0243C885.61 86.5891 895.066 92.8789 904.004 101.251C905.699 102.838 907.449 104.371 909.267 105.809C914.097 109.616 919.549 109.723 924.151 105.537C929.255 100.905 934.526 101.026 940.199 103.934C941.677 104.689 943.008 105.743 944.499 106.469C949.155 108.744 953.964 111.314 959.171 108.558C971.85 101.863 983.891 104.971 995.966 110.271C999.114 111.658 1002.51 112.675 1005.89 113.3C1010.7 114.172 1014.98 112.81 1018.79 109.517C1025.35 103.86 1031.13 103.796 1037.9 109.353C1047.85 117.524 1058.34 124.71 1070.7 128.751C1079.22 131.532 1087.78 133.153 1096.39 129.196C1098.17 128.372 1099.9 127.303 1101.42 126.063C1109.07 119.852 1115.35 119.12 1123.74 124.24C1130.23 128.205 1137.05 128.968 1144.32 127.622C1151.41 126.31 1157.71 127.829 1163.37 132.533C1165.71 134.48 1168.67 135.689 1171.35 137.224C1172.51 137.629 1173.67 138.025 1175.05 138.5C1169.27 144.94 1166.13 145.793 1158.97 142.74C1150.86 139.293 1142.64 138.997 1134.04 140.575C1129.15 141.472 1124.01 141.814 1119.06 141.431C1113.86 141.034 1110.78 143.73 1107.57 146.926C1104.78 149.698 1101.93 152.465 1098.86 154.91C1095.84 157.31 1092.5 157.361 1088.42 157.367C1074.74 157.386 1064.63 149.461 1053.51 143.724C1050.95 142.4 1049.03 139.879 1046.59 138.255C1036.99 131.862 1028.2 136.535 1019.28 140.344C1011.17 143.803 1002.99 147.106 994.759 150.253C984.041 154.342 975.186 149.411 966.324 144.229C960.076 140.566 953.818 136.682 947.094 134.181C944.151 133.084 939.153 134.062 936.595 136.051C929.376 141.659 921.221 144.933 912.538 145.359C905.822 145.681 898.427 145.861 892.48 140.739C885.193 134.453 876.15 134.867 867.43 135.37C861.213 135.726 855.026 137.099 848.92 138.459C847.034 138.883 844.991 140.396 843.833 141.999C839.222 148.413 833.595 150.368 826.13 148.072C821.098 146.526 815.992 144.793 810.809 144.268C807.037 143.89 802.508 144.357 799.293 146.167C786.496 153.393 776.111 148.396 765.732 140.979C760.26 137.064 754.556 133.38 748.626 130.208C743.806 127.637 738.834 128.898 734.615 132.164C728.432 136.961 721.968 137.506 715.046 134.084C705.825 129.532 696.628 126.629 685.94 129.486C678.421 131.492 672.409 126.425 666.625 122.071C656.092 114.128 644.235 113.567 632.012 116.637C628.407 117.539 625.087 119.631 621.711 121.336C614.77 124.85 607.4 123.838 600.82 121.531C593.889 119.112 587.024 115.384 581.356 110.739C573.285 104.122 564.865 100.274 554.464 102.062C548.509 103.084 543.209 101.394 538.426 98.4151C530.695 93.5953 524.239 87.3336 521.815 78.2006C521.161 75.7524 521.622 72.4002 522.847 70.1606C527.779 61.1753 533.172 52.432 538.515 43.6743C539.621 41.8659 541.251 40.3755 542.633 38.7324L542.653 38.7342Z" fill="#CED1ED"/>
<path d="M849.5 127.871C853.361 125.567 857.154 123.126 861.11 121.001C869.971 116.233 876.973 122.012 884.463 125.264C894.611 129.658 899.958 128.36 905.993 121.301C910.289 116.275 915.178 114.826 921.505 116.929C928.748 119.346 933.029 117.4 936.812 110.712C943.651 98.604 951.73 88.4451 966.817 85.6817C979.567 83.3511 990.28 86.7015 1000.31 93.9665C1003.13 96.0065 1005.9 98.1624 1008.47 100.511C1013.97 105.553 1020.2 105.58 1026.74 103.375C1033.12 101.226 1039.39 98.6956 1045.81 96.6209C1051.42 94.8051 1054.54 90.5063 1056.68 85.6283C1059.41 79.4369 1064.1 75.5906 1069.67 72.3952C1079.59 66.6893 1090.44 64.8708 1101.44 66.8012C1106.15 67.6247 1110.44 71.413 1114.64 74.2697C1117.49 76.2118 1120.05 78.6803 1122.38 81.2388C1129.2 88.7286 1137.23 90.8437 1146.81 87.4659C1155.32 84.4642 1163.66 85.0616 1172.1 88.2988C1176.14 89.8457 1180.91 89.4705 1184.96 90.9983C1192.55 93.8672 1201.13 95.0183 1205.38 103.853C1209.3 112.006 1217.83 114.89 1227.82 113.496C1235.03 112.497 1240.84 109.935 1246.94 106.526C1250.66 104.44 1255.47 104.229 1259.85 103.387C1272.86 100.858 1281.55 107.662 1289.55 116.703C1293.01 120.618 1297.6 123.539 1301.7 126.878C1307.21 131.359 1313.1 135.441 1318.16 140.383C1322.25 144.385 1330.79 146.967 1336.39 144.267C1344.35 140.442 1352.31 141.589 1360.16 145.063C1369.35 149.14 1376.72 155.384 1382.74 163.373C1386.46 168.316 1390.48 172.943 1397.58 172.425C1399.16 172.306 1400.93 172.646 1402.28 172.044C1408.3 169.36 1413.56 170.636 1417.62 175.367C1422.11 180.609 1425.8 186.533 1430.14 191.911C1432.63 195.006 1435.62 197.724 1438.6 200.391C1442.15 203.58 1444.95 201.432 1447.45 198.684C1451.87 193.83 1454.74 193.756 1459.62 198.039C1465.84 203.496 1472.3 208.684 1478.48 214.189C1479.89 215.439 1480.51 217.553 1481.59 219.216C1484.35 223.469 1483.5 225.954 1478.21 226.362C1475.52 224.817 1472.57 223.618 1470.22 221.671C1464.57 216.967 1458.27 215.448 1451.18 216.76C1443.9 218.105 1437.09 217.343 1430.6 213.378C1422.21 208.258 1415.93 208.98 1408.27 215.201C1406.75 216.44 1405.02 217.51 1403.24 218.334C1394.64 222.291 1386.06 220.679 1377.56 217.889C1365.19 213.848 1354.7 206.662 1344.75 198.491C1337.99 192.934 1332.2 192.998 1325.65 198.655C1321.84 201.948 1317.55 203.31 1312.75 202.438C1309.36 201.823 1305.97 200.796 1302.82 199.409C1290.74 194.108 1278.7 191 1266.03 197.696C1260.82 200.442 1256.01 197.872 1251.36 195.607C1249.86 194.881 1248.53 193.837 1247.06 193.072C1241.38 190.154 1236.11 190.033 1231.01 194.675C1226.4 198.86 1220.94 198.753 1216.12 194.947C1214.31 193.509 1212.56 191.976 1210.86 190.389C1201.92 182.017 1192.47 175.727 1179.23 180.162C1176.33 181.127 1172.34 181.081 1169.6 179.851C1162.58 176.681 1156.24 171.966 1149.12 169.109C1145.05 167.469 1138.64 166.292 1135.68 168.345C1128.85 173.074 1122.26 175.626 1113.97 174.792C1107.88 174.175 1105.24 176.931 1104.57 183.136C1104.41 184.627 1104.39 186.142 1104.11 187.603C1103.35 191.51 1100.86 194.048 1096.97 194.08C1088.77 194.158 1080.84 192.734 1073.85 187.951C1064.81 181.758 1055.79 176.713 1043.79 177.836C1036.6 178.505 1028.92 175.729 1024.87 168.157C1023.15 164.941 1021.45 161.695 1020.06 158.318C1017.72 152.575 1013.74 148.353 1008.66 145.006C999.849 139.196 989.597 137.644 979.624 135.665C971.102 133.967 962.142 134.68 954.085 130.363C952.179 129.339 949.62 129.551 947.631 129.232C950.24 136.745 952.688 143.702 955.064 150.682C956.575 155.114 955.073 158.986 952.126 162.175C942.693 172.424 918.691 173.494 911.475 161.933C906.208 153.499 899.306 150.521 888.867 155.98C883.557 158.757 880.011 157.103 876.736 151.97C875.231 149.616 873.63 147.204 871.611 145.306C867.603 141.523 863.375 137.951 859.054 134.521C856.027 132.111 852.706 130.076 849.51 127.872L849.5 127.871Z" fill="#EDF2F7"/>
<path d="M849.5 127.871C852.696 130.076 856.017 132.11 859.044 134.52C863.365 137.95 867.593 141.522 871.601 145.305C873.62 147.203 875.221 149.616 876.726 151.969C880.001 157.103 883.547 158.756 888.857 155.979C899.306 150.521 906.198 153.498 911.465 161.932C918.682 173.483 942.684 172.413 952.116 162.174C955.054 158.974 956.565 155.113 955.055 150.681C952.678 143.701 950.23 136.744 947.621 129.231C949.61 129.55 952.169 129.338 954.075 130.362C962.132 134.679 971.092 133.966 979.614 135.664C989.586 137.653 999.839 139.195 1008.65 145.005C1013.73 148.362 1017.71 152.575 1020.05 158.317C1021.43 161.683 1023.14 164.94 1024.86 168.156C1028.91 175.728 1036.59 178.505 1043.78 177.835C1055.77 176.711 1064.8 181.758 1073.84 187.95C1080.82 192.733 1088.75 194.156 1096.96 194.079C1100.86 194.048 1103.35 191.51 1104.1 187.602C1104.38 186.141 1104.4 184.616 1104.56 183.135C1105.23 176.93 1107.86 174.173 1113.96 174.791C1122.24 175.634 1128.83 173.082 1135.67 168.344C1138.64 166.292 1145.04 167.468 1149.11 169.108C1156.23 171.965 1162.57 176.691 1169.59 179.85C1172.33 181.09 1176.32 181.136 1179.22 180.161C1192.46 175.726 1201.91 182.016 1210.85 190.388C1212.55 191.976 1214.3 193.508 1216.11 194.946C1220.94 198.753 1226.4 198.86 1231 194.675C1236.1 190.042 1241.37 190.163 1247.05 193.071C1248.52 193.827 1249.85 194.88 1251.35 195.606C1256 197.881 1260.81 200.451 1266.02 197.695C1278.7 191 1290.74 194.108 1302.81 199.408C1305.96 200.795 1309.35 201.812 1312.74 202.437C1317.54 203.309 1321.83 201.947 1325.64 198.654C1332.19 192.997 1337.98 192.934 1344.74 198.49C1354.69 206.661 1365.18 213.847 1377.55 217.888C1386.07 220.669 1394.63 222.29 1403.23 218.334C1405.01 217.509 1406.75 216.44 1408.26 215.2C1415.92 208.989 1422.2 208.257 1430.59 213.377C1437.08 217.343 1443.9 218.105 1451.17 216.759C1458.26 215.447 1464.56 216.966 1470.21 221.67C1472.56 223.617 1475.51 224.826 1478.2 226.361C1479.35 226.767 1480.51 227.162 1481.9 227.637C1476.12 234.077 1472.98 234.93 1465.81 231.878C1457.71 228.43 1449.48 228.134 1440.89 229.712C1436 230.609 1430.86 230.951 1425.91 230.568C1420.71 230.172 1417.62 232.867 1414.41 236.063C1411.63 238.835 1408.78 241.602 1405.71 244.047C1402.69 246.447 1399.34 246.499 1395.26 246.504C1381.59 246.523 1371.48 238.598 1360.35 232.862C1357.79 231.537 1355.88 229.017 1353.43 227.392C1343.84 220.999 1335.05 225.672 1326.13 229.481C1318.02 232.94 1309.84 236.243 1301.61 239.39C1290.89 243.479 1282.03 238.549 1273.17 233.366C1266.92 229.703 1260.66 225.819 1253.94 223.318C1251 222.221 1246 223.199 1243.44 225.188C1236.22 230.796 1228.07 234.07 1219.38 234.496C1212.67 234.818 1205.27 234.998 1199.33 229.876C1192.04 223.59 1183 224.004 1174.28 224.507C1168.06 224.863 1161.87 226.236 1155.77 227.596C1153.88 228.02 1151.84 229.533 1150.68 231.136C1146.07 237.55 1140.44 239.505 1132.98 237.209C1127.94 235.663 1122.84 233.93 1117.66 233.405C1113.88 233.027 1109.35 233.494 1106.14 235.304C1093.34 242.53 1082.96 237.533 1072.58 230.116C1067.11 226.201 1061.4 222.517 1055.47 219.345C1050.65 216.774 1045.68 218.035 1041.46 221.301C1035.28 226.098 1028.81 226.643 1021.89 223.221C1012.67 218.669 1003.47 215.766 992.787 218.623C985.267 220.629 979.256 215.562 973.472 211.208C962.939 203.265 951.082 202.704 938.859 205.774C935.254 206.676 931.934 208.768 928.558 210.473C921.616 213.987 914.247 212.975 907.667 210.668C900.735 208.249 893.871 204.521 888.203 199.876C880.132 193.259 871.712 189.411 861.311 191.199C855.355 192.222 850.055 190.531 845.272 187.552C837.542 182.732 831.085 176.471 828.661 167.338C828.007 164.89 828.469 161.537 829.694 159.298C834.626 150.312 840.019 141.569 845.362 132.811C846.468 131.003 848.098 129.513 849.48 127.869L849.5 127.871Z" fill="#CED1ED"/>
</g>
<defs>
<filter id="filter0_df_1_828" x="42.0256" y="-106.114" width="1654.77" height="362.619" filterUnits="userSpaceOnUse" color-interpolation-filters="sRGB">
<feFlood flood-opacity="0" result="BackgroundImageFix"/>
<feColorMatrix in="SourceAlpha" type="matrix" values="0 0 0 0 0 0 0 0 0 0 0 0 0 0 0 0 0 0 127 0" result="hardAlpha"/>
<feOffset dy="4"/>
<feGaussianBlur stdDeviation="2"/>
<feComposite in2="hardAlpha" operator="out"/>
<feColorMatrix type="matrix" values="0 0 0 0 0 0 0 0 0 0 0 0 0 0 0 0 0 0 0.25 0"/>
<feBlend mode="normal" in2="BackgroundImageFix" result="effect1_dropShadow_1_828"/>
<feBlend mode="normal" in="SourceGraphic" in2="effect1_dropShadow_1_828" result="shape"/>
<feGaussianBlur stdDeviation="5" result="effect2_foregroundBlur_1_828"/>
</filter>
</defs>
</svg>
