<?xml version="1.0" encoding="UTF-8"?>
<svg id="Layer_2" data-name="Layer 2" xmlns="http://www.w3.org/2000/svg" viewBox="0 0 649.53 283.7">
  <defs>
    <style>
      .cls-1 {
        fill: #fff;
      }
    </style>
  </defs>
  <g id="Layer_1-2" data-name="Layer 1">
    <g>
      <g>
        <path class="cls-1" d="m65.29,250.87c.73,0,1.09.99,1.09,2.96,0,1.07-.45,2.37-1.35,3.89-.9,1.52-2.07,2.92-3.51,4.19-1.44,1.27-3.04,2.31-4.8,3.12-1.76.82-3.62,1.22-5.57,1.22s-3.48-.63-4.57-1.9c-1.1-1.27-1.64-2.68-1.64-4.25s.26-3.34.77-5.31c.51-1.97,1.07-4.03,1.67-6.18,1.63-5.71,2.47-9.72,2.51-12.04,0-.99-.13-1.75-.39-2.29-.26-.54-.75-.81-1.48-.81-1.29,0-2.66.77-4.12,2.32-1.46,1.54-2.83,3.52-4.12,5.92-2.96,5.49-4.53,10.86-4.7,16.1.08.6.17,1.2.26,1.8.08.6.13,1.25.13,1.93,0,1.37-.68,2.63-2.03,3.77s-2.86,1.71-4.54,1.71c-.99,0-1.72-.48-2.19-1.45-.47-.97-.71-2.16-.71-3.57s.32-3.35.96-5.79c.64-2.45,1.35-5.04,2.13-7.79,2.06-7.25,3.11-12.66,3.16-16.23,0-1.8-.22-3.22-.68-4.25-.45-1.03-1.32-1.55-2.61-1.55-2.32,0-4.61,1.65-6.89,4.96s-4.31,8.43-6.12,15.39c-.47,1.8-.84,3.37-1.1,4.7l-.06,1.22c.81,3.95,1.22,6.53,1.22,7.73,0,2.49-.88,4.16-2.64,5.02-.82.39-1.6.75-2.35,1.09-.75.34-1.56.52-2.42.52-2.15,0-3.22-2.05-3.22-6.15s1.14-12.11,3.41-24.05c.81-4.29,1.22-6.7,1.22-7.21,0-3.48-.88-5.22-2.64-5.22-.6,0-1.15.17-1.64.51-.49.34-.99.71-1.48,1.1-.49.39-1,.75-1.51,1.09-.51.34-1.1.51-1.77.51s-1-.58-1-1.74c0-2.36,1.09-4.29,3.28-5.79,2.1-1.55,4.66-2.32,7.66-2.32,3.86,0,6.14,1.8,6.83,5.41.17,1.07.3,2.21.39,3.41,3.18-5.97,7.19-8.95,12.04-8.95,5.28,0,8.3,2.53,9.08,7.6.26,1.46.36,3.03.32,4.7v.51c2.79-3.86,6.09-5.8,9.92-5.8,5.41,0,8.11,3.26,8.11,9.79,0,2.83-.44,6.15-1.32,9.95-.88,3.8-1.52,6.52-1.93,8.18-.41,1.65-.61,2.93-.61,3.83,0,1.63.57,2.45,1.71,2.45s3.85-2.23,8.15-6.7c.77-.86,1.33-1.29,1.67-1.29Z"/>
        <path class="cls-1" d="m78.16,259.04c3.35,0,6.59-1.33,9.72-3.99,1.16-.99,2.1-1.9,2.83-2.74.73-.84,1.29-1.26,1.67-1.26.6,0,.9.6.9,1.8s-.32,2.54-.97,4.02c-.64,1.48-1.72,2.93-3.22,4.35-3.69,3.48-8.76,5.22-15.2,5.22-5.11,0-8.59-1.85-10.43-5.54-.64-1.29-.96-3.13-.96-5.54s.47-4.9,1.42-7.5c.94-2.6,2.2-4.84,3.77-6.73,1.57-1.89,3.38-3.36,5.44-4.41,2.06-1.05,4.26-1.58,6.6-1.58s4.14.58,5.41,1.74c1.27,1.16,1.9,2.66,1.9,4.51s-.46,3.36-1.39,4.54c-.92,1.18-2.11,2.17-3.57,2.96-1.46.79-3.08,1.5-4.86,2.12-1.78.62-3.53,1.32-5.25,2.09v1.61c.04,1.55.69,2.64,1.93,3.28,1.24.64,2.66.99,4.25,1.03Zm-1.09-18.16c-2.23,0-3.78,2.6-4.64,7.79.9-.6,1.75-1.14,2.54-1.61s1.49-.92,2.09-1.35c1.29-.94,1.95-2.02,2-3.22,0-1.07-.67-1.61-2-1.61Z"/>
        <path class="cls-1" d="m104.44,266.25c-6.14.04-10.33-2.25-12.56-6.89-.77-1.63-1.16-3.68-1.16-6.15s.22-5.1.64-7.89c.86-5.58,2.51-10.73,4.96-15.45,1.24-2.4,2.64-4.46,4.19-6.18,3.39-3.78,7.17-5.64,11.33-5.6,1.85,0,3.29.51,4.35,1.51,1.05,1.01,1.58,2.46,1.58,4.35s-.56,3.79-1.67,5.7c-1.12,1.91-2.54,3.89-4.28,5.92-1.74,2.04-3.66,4.18-5.76,6.41-2.1,2.23-4.16,4.66-6.18,7.28v2.58c0,2.4.51,4.16,1.54,5.28,1.03,1.12,2.23,1.67,3.61,1.67,3.69,0,6.95-1.82,9.79-5.47,1.16-1.5,2.04-2.25,2.64-2.25s.9.73.9,2.19-.4,2.95-1.19,4.47c-.8,1.52-1.84,2.92-3.12,4.19-1.29,1.27-2.77,2.31-4.44,3.12-1.67.82-3.39,1.22-5.15,1.22Zm3.48-34.58c.9-1.12,1.61-2.12,2.13-3.03.51-.9.77-1.84.77-2.8s-.35-1.45-1.03-1.45c-1.5,0-3.17,1.55-4.99,4.64-1.83,3.09-3.19,7.15-4.09,12.17,1.46-2.23,2.8-4.1,4.02-5.6,1.22-1.5,2.29-2.81,3.19-3.93Z"/>
        <path class="cls-1" d="m140.55,260.59c-3.39,3.99-7.46,5.99-12.2,5.99s-8.3-1.21-10.66-3.64c-2.36-2.43-3.52-5.44-3.48-9.05-.04-5.11,1.57-9.51,4.83-13.2,3.26-3.69,7.53-5.54,12.81-5.54,2.4,0,4.34.3,5.8.9,2.53,1.03,3.8,2,3.8,2.9,0,.69-1.77,1.04-5.31,1.06-3.54.02-6.5,1.25-8.89,3.67-2.38,2.43-3.57,5.48-3.57,9.18,0,1.93.57,3.55,1.71,4.86,1.14,1.31,2.75,1.96,4.83,1.96s3.81-.43,5.18-1.29c-3.05-2.06-4.57-5.04-4.57-8.95-.04-2.06.7-3.94,2.22-5.63,1.52-1.7,3.48-2.55,5.86-2.58,2.38-.02,4.09.63,5.12,1.96,1.03,1.33,1.54,3.04,1.54,5.12s-.49,4.28-1.48,6.6h.39c1.89-.04,3.52-.71,4.89-2,.51-.51.96-.97,1.32-1.35.36-.39.74-.58,1.13-.58.6,0,.9.71.9,2.12,0,2.62-.77,4.58-2.32,5.89s-3.25,1.96-5.12,1.96-3.45-.13-4.73-.39Zm-.58-7.47c.73-1.54,1.09-3.05,1.09-4.51s-.47-2.19-1.42-2.19c-.39,0-.71.28-.97.84-.26.56-.39,1.09-.39,1.61,0,1.72.56,3.13,1.67,4.25Z"/>
        <path class="cls-1" d="m189.04,250.87c.77,0,1.16.99,1.16,2.96,0,1.07-.45,2.37-1.35,3.89-.9,1.52-2.07,2.92-3.51,4.19-1.44,1.27-3.04,2.31-4.8,3.12-1.76.82-3.48,1.22-5.15,1.22-2.36,0-3.91-1.93-4.64-5.79-2.58,4.08-6.4,6.12-11.46,6.12-3.09,0-5.56-.94-7.4-2.83-1.85-1.89-2.75-4.19-2.7-6.89,0-7.3,2.42-13.05,7.27-17.26,3.35-2.87,6.83-4.31,10.43-4.31,1.63,0,2.92.13,3.86.39l1.48.39c1.76-8.28,3.8-13.82,6.12-16.61.77-.94,1.54-1.42,2.32-1.42,1.24,0,2.4.86,3.48,2.58.94,1.42,1.42,2.64,1.42,3.67s-.15,2.04-.45,3.03c-.3.99-.68,1.9-1.13,2.74s-.96,1.65-1.51,2.45c-.56.79-1.12,1.6-1.67,2.41-1.25,4.64-2.17,9.83-2.77,15.58-.17,1.63-.26,2.94-.26,3.93,0,2.96.49,4.44,1.48,4.44,1.11,0,3.82-2.23,8.11-6.7.77-.86,1.33-1.29,1.67-1.29Zm-30.39,3.86c0,3.31,1.22,4.96,3.67,4.96,1.46,0,2.93-.56,4.41-1.67,1.48-1.12,2.63-2.98,3.44-5.6.09-3.86.54-8.11,1.35-12.75-3.43.69-6.44,2.36-9.01,5.02-2.57,2.66-3.86,6.01-3.86,10.04Z"/>
        <path class="cls-1" d="m194.7,266.25c-4.29,0-6.44-4.01-6.44-12.04,0-4.38.54-8.35,1.61-11.91,1.67-5.49,3.56-8.24,5.67-8.24,1.24,0,2.23.84,2.96,2.51.6,1.29.88,2.55.84,3.8,0,1.72-.52,4.74-1.55,9.08-.99,3.78-1.48,6.12-1.48,7.02s.23,1.52.68,1.87c.45.34.99.51,1.61.51s1.41-.41,2.35-1.22c.94-.81,1.89-1.71,2.83-2.67.94-.97,1.81-1.86,2.61-2.67.79-.81,1.34-1.22,1.64-1.22.6,0,.9.73.9,2.19,0,3-1.51,5.93-4.54,8.79-3.03,2.86-6.26,4.26-9.69,4.22Zm2.64-37.41c-1.16-1.72-1.74-3.56-1.74-5.54s.31-3.62.93-4.93c.62-1.31,1.21-2.27,1.77-2.9.56-.62,1.2-.93,1.93-.93,1.2,0,2.3.89,3.28,2.67.99,1.78,1.48,3.27,1.48,4.48,0,2.23-.78,3.98-2.35,5.25-1.57,1.27-3.34,1.9-5.31,1.9Z"/>
        <path class="cls-1" d="m220.72,259.04c3.35,0,6.59-1.33,9.72-3.99,1.16-.99,2.1-1.9,2.83-2.74.73-.84,1.29-1.26,1.67-1.26.6,0,.9.6.9,1.8s-.32,2.54-.97,4.02-1.72,2.93-3.22,4.35c-3.69,3.48-8.76,5.22-15.2,5.22-5.11,0-8.59-1.85-10.43-5.54-.64-1.29-.96-3.13-.96-5.54s.47-4.9,1.42-7.5c.94-2.6,2.2-4.84,3.77-6.73,1.57-1.89,3.38-3.36,5.44-4.41,2.06-1.05,4.26-1.58,6.6-1.58s4.14.58,5.41,1.74c1.27,1.16,1.9,2.66,1.9,4.51s-.46,3.36-1.39,4.54c-.92,1.18-2.11,2.17-3.57,2.96-1.46.79-3.08,1.5-4.86,2.12-1.78.62-3.53,1.32-5.25,2.09v1.61c.04,1.55.69,2.64,1.93,3.28,1.24.64,2.66.99,4.25,1.03Zm-1.09-18.16c-2.23,0-3.78,2.6-4.64,7.79.9-.6,1.75-1.14,2.54-1.61s1.49-.92,2.09-1.35c1.29-.94,1.95-2.02,2-3.22,0-1.07-.67-1.61-2-1.61Z"/>
        <path class="cls-1" d="m247.31,234.87c2.88-.02,5.02.51,6.44,1.61s2.13,2.66,2.13,4.7-.61,3.78-1.84,5.22c-1.22,1.44-2.72,2.46-4.48,3.06,1.24,1.29,2.37,2.6,3.38,3.93,1.01,1.33,1.51,2.73,1.51,4.19,0,2.88-1.14,5.1-3.41,6.66-2.28,1.57-5.44,2.35-9.5,2.35s-7.09-.8-9.11-2.41c-2.02-1.61-3.03-3.43-3.03-5.47s.51-3.9,1.51-5.57c1.01-1.67,2.09-2.51,3.25-2.51.69,0,1.18.25,1.48.74.3.49.86,1.92,1.67,4.28.3.86.79,1.67,1.48,2.45,1.59,1.76,4.1,2.64,7.53,2.64-.51-1.63-1.34-3.04-2.48-4.22-1.14-1.18-2.27-2.33-3.38-3.45-1.12-1.12-2.1-2.31-2.96-3.57-.86-1.27-1.29-2.76-1.29-4.48,0-3.09,1.16-5.6,3.48-7.53,2.19-1.72,4.72-2.59,7.6-2.61Zm-.26,11.94c1.72-1.85,2.57-3.33,2.57-4.44,0-.51-.18-.98-.55-1.38s-.89-.61-1.58-.61-1.34.09-1.96.26c-.62.17-1.13.3-1.51.39,0,1.63,1.01,3.56,3.03,5.8Z"/>
        <path class="cls-1" d="m284.27,254.15c.69,0,2.81.47,6.37,1.42.82-7.04,3.11-14.68,6.89-22.92,1.33-3,2.92-4.51,4.77-4.51.34,0,.68.37,1,1.09.32.73.48,1.63.48,2.7,0,1.29-.68,4.83-2.03,10.62-1.35,5.79-2.24,10.84-2.67,15.13,2.83.64,5.33.97,7.5.97s4.15-.57,5.96-1.71c1.8-1.14,3.35-2.61,4.64-4.41,2.66-3.82,3.99-8.41,3.99-13.78-.04-9.92-3.99-14.87-11.85-14.87-2.79.04-7.73,1.29-14.81,3.73-1.37.47-2.57.71-3.6.71s-1.55-.3-1.55-.9c0-.82.6-1.78,1.8-2.9,1.2-1.12,2.75-2.19,4.64-3.22,4.64-2.49,9.14-3.73,13.52-3.73,6.01,0,10.94,1.61,14.81,4.83,4.55,3.82,6.8,9.62,6.76,17.38,0,3.31-.51,6.57-1.54,9.79-1.03,3.22-2.6,6.08-4.7,8.6-2.1,2.51-4.77,4.54-7.98,6.08-3.22,1.55-7.02,2.32-11.4,2.32-1.76,0-3.99-.39-6.7-1.16-.3.81-1.05,1.22-2.25,1.22-2.23,0-3.75-.38-4.54-1.13-.79-.75-1.26-1.98-1.38-3.7-2.06-1.16-3.77-2.36-5.12-3.61-1.35-1.24-2.03-2.34-2.03-3.28,0-.52.34-.77,1.03-.77Z"/>
        <path class="cls-1" d="m348.78,259.04c3.35,0,6.59-1.33,9.72-3.99,1.16-.99,2.1-1.9,2.83-2.74.73-.84,1.29-1.26,1.67-1.26.6,0,.9.6.9,1.8s-.32,2.54-.97,4.02c-.64,1.48-1.72,2.93-3.22,4.35-3.69,3.48-8.76,5.22-15.2,5.22-5.11,0-8.59-1.85-10.43-5.54-.64-1.29-.96-3.13-.96-5.54s.47-4.9,1.42-7.5c.94-2.6,2.2-4.84,3.77-6.73,1.57-1.89,3.38-3.36,5.44-4.41,2.06-1.05,4.26-1.58,6.6-1.58s4.14.58,5.41,1.74c1.27,1.16,1.9,2.66,1.9,4.51s-.46,3.36-1.39,4.54c-.92,1.18-2.11,2.17-3.57,2.96-1.46.79-3.08,1.5-4.86,2.12-1.78.62-3.53,1.32-5.25,2.09v1.61c.04,1.55.69,2.64,1.93,3.28,1.24.64,2.66.99,4.25,1.03Zm-1.09-18.16c-2.23,0-3.78,2.6-4.64,7.79.9-.6,1.75-1.14,2.54-1.61s1.49-.92,2.09-1.35c1.29-.94,1.95-2.02,2-3.22,0-1.07-.67-1.61-2-1.61Z"/>
        <path class="cls-1" d="m370.86,237.73c0,2.88-.51,6.14-1.54,9.79.09,1.37.13,2.7.13,3.99s.08,2.4.26,3.35c.64,1.72,1.46,2.77,2.45,3.16.86,0,1.8-.74,2.83-2.22s2.08-3.25,3.16-5.31c-.51-1.97-.77-3.84-.77-5.6,0-3.09.47-5.34,1.42-6.76,1.16-1.8,2.92-2.7,5.28-2.7s3.93.9,4.7,2.7c.3.69.45,1.46.45,2.32,0,1.55-.39,3.12-1.16,4.73-.77,1.61-2.02,3.72-3.73,6.34.77,2.28,1.93,3.41,3.48,3.41,1.89-.04,3.52-.71,4.89-2,.51-.51.96-.97,1.32-1.35.36-.39.74-.58,1.13-.58.6,0,.9.71.9,2.12,0,2.66-.76,4.6-2.29,5.83-1.52,1.22-3.44,1.84-5.76,1.84-3.05,0-5.47-1.33-7.28-3.99-5.02,6.53-9.23,9.79-12.62,9.79-1.33,0-2.64-1.89-3.93-5.67-1.29-3.78-2.28-8.89-2.96-15.32-.51-4.08-.22-7,.9-8.76.94-1.37,2.79-2.06,5.54-2.06,1.03,0,1.82.31,2.38.93s.84,1.3.84,2.03Z"/>
        <path class="cls-1" d="m408.15,259.04c3.35,0,6.59-1.33,9.72-3.99,1.16-.99,2.1-1.9,2.83-2.74.73-.84,1.29-1.26,1.67-1.26.6,0,.9.6.9,1.8s-.32,2.54-.97,4.02c-.64,1.48-1.72,2.93-3.22,4.35-3.69,3.48-8.76,5.22-15.2,5.22-5.11,0-8.59-1.85-10.43-5.54-.64-1.29-.96-3.13-.96-5.54s.47-4.9,1.42-7.5c.94-2.6,2.2-4.84,3.77-6.73,1.57-1.89,3.38-3.36,5.44-4.41,2.06-1.05,4.26-1.58,6.6-1.58s4.14.58,5.41,1.74c1.27,1.16,1.9,2.66,1.9,4.51s-.46,3.36-1.39,4.54c-.92,1.18-2.11,2.17-3.57,2.96-1.46.79-3.08,1.5-4.86,2.12-1.78.62-3.53,1.32-5.25,2.09v1.61c.04,1.55.69,2.64,1.93,3.28,1.24.64,2.66.99,4.25,1.03Zm-1.09-18.16c-2.23,0-3.78,2.6-4.64,7.79.9-.6,1.75-1.14,2.54-1.61s1.49-.92,2.09-1.35c1.29-.94,1.95-2.02,2-3.22,0-1.07-.67-1.61-2-1.61Z"/>
        <path class="cls-1" d="m434.42,266.25c-6.14.04-10.33-2.25-12.56-6.89-.77-1.63-1.16-3.68-1.16-6.15s.22-5.1.64-7.89c.86-5.58,2.51-10.73,4.96-15.45,1.24-2.4,2.64-4.46,4.19-6.18,3.39-3.78,7.17-5.64,11.33-5.6,1.85,0,3.29.51,4.35,1.51,1.05,1.01,1.58,2.46,1.58,4.35s-.56,3.79-1.67,5.7c-1.12,1.91-2.54,3.89-4.28,5.92-1.74,2.04-3.66,4.18-5.76,6.41-2.1,2.23-4.16,4.66-6.18,7.28v2.58c0,2.4.51,4.16,1.54,5.28,1.03,1.12,2.23,1.67,3.61,1.67,3.69,0,6.95-1.82,9.79-5.47,1.16-1.5,2.04-2.25,2.64-2.25s.9.73.9,2.19-.4,2.95-1.19,4.47c-.8,1.52-1.84,2.92-3.12,4.19-1.29,1.27-2.77,2.31-4.44,3.12-1.67.82-3.39,1.22-5.15,1.22Zm3.48-34.58c.9-1.12,1.61-2.12,2.13-3.03.51-.9.77-1.84.77-2.8s-.35-1.45-1.03-1.45c-1.5,0-3.17,1.55-4.99,4.64-1.83,3.09-3.19,7.15-4.09,12.17,1.46-2.23,2.8-4.1,4.02-5.6,1.22-1.5,2.29-2.81,3.19-3.93Z"/>
        <path class="cls-1" d="m470.54,260.59c-3.39,3.99-7.46,5.99-12.2,5.99s-8.3-1.21-10.66-3.64c-2.36-2.43-3.52-5.44-3.48-9.05-.04-5.11,1.57-9.51,4.83-13.2,3.26-3.69,7.53-5.54,12.81-5.54,2.4,0,4.34.3,5.8.9,2.53,1.03,3.8,2,3.8,2.9,0,.69-1.77,1.04-5.31,1.06-3.54.02-6.5,1.25-8.89,3.67-2.38,2.43-3.57,5.48-3.57,9.18,0,1.93.57,3.55,1.71,4.86,1.14,1.31,2.75,1.96,4.83,1.96s3.81-.43,5.18-1.29c-3.05-2.06-4.57-5.04-4.57-8.95-.04-2.06.7-3.94,2.22-5.63,1.52-1.7,3.48-2.55,5.86-2.58,2.38-.02,4.09.63,5.12,1.96,1.03,1.33,1.54,3.04,1.54,5.12s-.49,4.28-1.48,6.6h.39c1.89-.04,3.52-.71,4.89-2,.51-.51.96-.97,1.32-1.35.36-.39.74-.58,1.13-.58.6,0,.9.71.9,2.12,0,2.62-.77,4.58-2.32,5.89s-3.25,1.96-5.12,1.96-3.45-.13-4.73-.39Zm-.58-7.47c.73-1.54,1.09-3.05,1.09-4.51s-.47-2.19-1.42-2.19c-.39,0-.71.28-.97.84-.26.56-.39,1.09-.39,1.61,0,1.72.56,3.13,1.67,4.25Z"/>
        <path class="cls-1" d="m491.65,239.08c2.23-2.53,5.09-3.8,8.56-3.8,4.98,0,8.13,2.02,9.46,6.05.39,1.2.58,2.53.58,3.99,0,3.26-1.06,6.48-3.19,9.66-2.13,3.18-4.69,5.32-7.69,6.44h.77c3.13,0,6.31-1.16,9.53-3.48,2.06-1.46,3.68-2.97,4.86-4.54,1.18-1.57,2.07-2.35,2.67-2.35s.9.69.9,2.06c0,2.4-1.03,4.83-3.09,7.28-3.09,3.52-7.04,5.58-11.85,6.18-3.48.39-5.95.45-7.4.19-1.46-.26-2.57-.58-3.35-.97-1.67-.86-2.51-2.15-2.51-3.86,0-.94.19-1.8.58-2.58,3.39,0,5.97-1.29,7.73-3.86,1.76-2.58,2.64-5.8,2.64-9.66,0-.94-.35-1.79-1.03-2.54s-1.6-1.13-2.74-1.13-2.37.49-3.7,1.48c-1.33.99-2.39,2.22-3.19,3.7-.79,1.48-1.51,2.94-2.16,4.38-.64,1.44-1.16,3.25-1.54,5.44-.69,3.95-1.47,8.94-2.35,14.97-.88,6.03-1.43,9.27-1.64,9.72-.22.45-.54.87-.97,1.26-.43.39-.88.58-1.35.58-.86,0-1.57-.26-2.13-.77-1.54-1.33-2.45-2.35-2.7-3.06-.26-.71-.39-1.62-.39-2.74,0-4.21.71-10.11,2.12-17.71,1.42-7.6,3.86-15.5,7.34-23.69.51-1.2,1.43-1.8,2.74-1.8s2.56,1.16,3.77,3.48c.34.6.58,1.16.71,1.67Z"/>
        <path class="cls-1" d="m550.18,246.49c0-1.42-.82-2.13-2.45-2.13-1.12,0-2.36,1.08-3.73,3.25-1.37,2.17-2.36,4.5-2.96,6.99v.13c0,1.46.22,2.96.68,4.51.45,1.55.68,2.62.68,3.22,0,1.46-1.82,2.9-5.47,4.31-.56.22-1.05.32-1.48.32-1.07,0-1.82-.56-2.22-1.67-.41-1.12-.61-2.63-.61-4.54s.05-3.71.16-5.41c.11-1.7.21-3.26.32-4.7.11-1.44.22-2.7.32-3.8.11-1.09.16-1.98.16-2.67,0-1.46-.67-2.19-2-2.19s-2.88,1.56-4.63,4.67c-1.76,3.11-2.64,5.58-2.64,7.4s.22,3.51.68,5.05c.45,1.55.68,2.62.68,3.22,0,1.46-1.82,2.9-5.47,4.31-.56.22-1.05.32-1.48.32-1.07,0-1.81-.56-2.22-1.67-.41-1.12-.61-2.83-.61-5.15,0-6.1.24-10.5.71-13.2.64-3.99,2.1-7.77,4.38-11.33.77-1.2,1.61-1.8,2.51-1.8,1.42,0,2.73,1.16,3.93,3.48.34.6.6,1.16.77,1.67,2.06-2.58,4.48-3.86,7.28-3.86,1.84,0,3.5.61,4.96,1.84,1.46,1.22,2.19,2.76,2.19,4.6v.71c2.62-3.26,5.82-4.89,9.59-4.89,2.32,0,4.08.6,5.28,1.8,1.2,1.2,1.8,2.68,1.8,4.44s-.13,3.35-.39,4.76c-.26,1.42-.55,2.75-.87,3.99-.32,1.25-.61,2.35-.87,3.32-.26.97-.39,1.72-.39,2.25s.17.81.51.81c.64,0,1.44-.41,2.38-1.22.94-.81,1.89-1.71,2.83-2.67.94-.97,1.81-1.86,2.61-2.67.79-.81,1.34-1.22,1.64-1.22.6,0,.9.73.9,2.19,0,3-1.51,5.92-4.54,8.76-3.03,2.83-6.26,4.25-9.69,4.25-3.09,0-4.64-2.81-4.64-8.43,0-1.42.24-3.37.71-5.86.47-2.49.71-4.31.71-5.47Z"/>
        <path class="cls-1" d="m579.41,259.04c3.35,0,6.59-1.33,9.72-3.99,1.16-.99,2.1-1.9,2.83-2.74.73-.84,1.29-1.26,1.67-1.26.6,0,.9.6.9,1.8s-.32,2.54-.97,4.02c-.64,1.48-1.72,2.93-3.22,4.35-3.69,3.48-8.76,5.22-15.2,5.22-5.11,0-8.59-1.85-10.43-5.54-.64-1.29-.96-3.13-.96-5.54s.47-4.9,1.42-7.5c.94-2.6,2.2-4.84,3.77-6.73,1.57-1.89,3.38-3.36,5.44-4.41,2.06-1.05,4.26-1.58,6.6-1.58s4.14.58,5.41,1.74c1.27,1.16,1.9,2.66,1.9,4.51s-.46,3.36-1.39,4.54c-.92,1.18-2.11,2.17-3.57,2.96-1.46.79-3.08,1.5-4.86,2.12-1.78.62-3.53,1.32-5.25,2.09v1.61c.04,1.55.69,2.64,1.93,3.28,1.24.64,2.66.99,4.25,1.03Zm-1.09-18.16c-2.23,0-3.78,2.6-4.64,7.79.9-.6,1.75-1.14,2.54-1.61s1.49-.92,2.09-1.35c1.29-.94,1.95-2.02,2-3.22,0-1.07-.67-1.61-2-1.61Z"/>
        <path class="cls-1" d="m599.89,233.93c1.54,0,3,1.48,4.38,4.44,2.02-2.1,4.52-3.16,7.5-3.16s5.23.65,6.73,1.96c1.5,1.31,2.25,3.16,2.25,5.54s-.31,4.8-.93,7.24c-.62,2.45-1.07,4.2-1.35,5.25-.28,1.05-.42,1.92-.42,2.61s.24,1.03.71,1.03c.64,0,1.44-.41,2.38-1.22.94-.81,1.89-1.71,2.83-2.67.94-.97,1.81-1.86,2.61-2.67.79-.81,1.34-1.22,1.64-1.22.6,0,.9.73.9,2.19,0,3-1.48,5.9-4.44,8.69-4.98,2.92-8.16,4.38-9.53,4.38-.13,0-.21-.02-.26-.06-3.43,0-5.15-2.75-5.15-8.24,0-2.36.22-4.53.68-6.5.45-1.97.78-3.41,1-4.31.21-.9.32-1.82.32-2.77,0-1.55-.89-2.32-2.67-2.32s-3.48,1.32-5.09,3.96c-1.61,2.64-2.69,5.38-3.25,8.21v.45c0,1.46.22,2.96.68,4.51.45,1.55.68,2.62.68,3.22,0,1.46-1.82,2.9-5.47,4.31-.56.22-1.05.32-1.48.32-1.07,0-1.81-.56-2.22-1.67-.41-1.12-.61-2.85-.61-5.21,0-6.09.24-10.5.71-13.2.64-4.03,2.1-7.79,4.38-11.27.77-1.2,1.61-1.8,2.51-1.8Z"/>
        <path class="cls-1" d="m628.77,262.55c-.49-1.14-.85-2.47-1.06-3.99-.21-1.52-.32-3.66-.32-6.41s.52-6.46,1.55-11.14h-2.9c-.51,0-.77-.21-.77-.64,0-1.03.1-1.88.29-2.54.19-.67.65-1.43,1.39-2.29h1.54c.6,0,1.24-.02,1.93-.06,2.06-6.61,4.16-9.92,6.31-9.92,1.72.04,2.92,1.14,3.61,3.28.17.6.36,1.25.58,1.93l-2.64,4.64c3,.09,4.9.13,5.7.13s1.22.08,1.29.22c.07.15.1.38.1.68,0,.77-.18,1.74-.55,2.9-.37,1.16-.78,1.72-1.26,1.67l-6.44-.32c-.9,5.24-1.35,9.57-1.35,13.01s.49,5.15,1.48,5.15c.82,0,2.3-.68,4.44-2.03,2.15-1.35,3.69-2.65,4.64-3.89.94-1.24,1.72-1.87,2.32-1.87s.9.73.9,2.19-.51,2.95-1.54,4.47c-1.03,1.52-2.33,2.92-3.9,4.19-1.57,1.27-3.31,2.31-5.21,3.12-1.91.82-3.57,1.22-4.99,1.22s-2.5-.33-3.25-1c-.75-.66-1.37-1.57-1.87-2.7Z"/>
      </g>
      <g>
        <g>
          <path class="cls-1" d="m322.07,158.59c1.08,1.15,1.69,1.85,1.83,2.01-.15-.1-.94-.6-2.28-1.48-1.49-1-3.76-2.33-6.61-4.05-2.91-1.66-6.43-3.67-10.47-5.98-4.04-2.32-8.69-5.01-13.47-8.42-4.71-3.31-9.76-7.03-14.89-11.35.79-1.44,2.41-4.5,4.22-8.69.63.67,1.27,1.33,1.9,1.98,4.47,4.58,8.96,8.77,13.14,12.62,4.11,3.81,8.11,7.1,11.72,10.05,3.62,2.93,6.74,5.6,9.26,7.85,2.53,2.24,4.38,4.16,5.64,5.45Z"/>
          <path class="cls-1" d="m324.73,95.73s-.25-.93-.74-2.67c-.23-.87-.51-1.94-.84-3.21-.09-.32-.17-.64-.26-.98-.04-.15-.1-.4-.14-.46l-.16-.52c-.22-.7-.46-1.45-.74-2.23-1.08-3.13-2.59-6.84-4.63-10.85-2.07-4-4.8-8.28-8.34-12.28-3.51-3.97-8.05-7.57-13.34-10.37-2.64-1.38-5.45-2.6-8.39-3.4-1.44-.38-3.02-.77-4.38-.95l-1.04-.15-1.33-.13-.6-.05h-1.56c-1.07,0-2.12.08-3.18.23-4.72.68-9.19,2.82-12.63,6.29-1.5,1.52-2.79,3.24-3.84,5.13-1.89,3.39-3.01,7.29-3.26,11.43-.61,6.44.89,13.05,3.53,19.3,1.34,3.12,2.92,6.18,4.7,9.13,1.81,2.96,3.75,5.76,5.77,8.54.46.62.91,1.22,1.38,1.82-1.03,5-2.48,8.78-3.78,11.44-2.05-2.07-4.05-4.26-5.97-6.56-4.81-5.74-9.42-12.13-12.85-19.64-1.69-3.74-3.15-7.73-4.01-11.95-.89-4.21-1.18-8.64-.85-13.03.04-1.1.21-2.19.39-3.27l.26-1.63.03-.2.1-.45.09-.35.16-.7.35-1.39c.14-.5.36-1.14.54-1.71l.59-1.74.69-1.57c.46-1.05.97-2.06,1.53-3.06,1.69-2.96,3.83-5.69,6.3-8.02,3.46-3.34,7.67-5.76,12.11-7.22,4-1.32,8.19-1.86,12.18-1.6l1.57.13.4.03.19.02.35.04.65.11,1.32.2,1.56.33c2.11.44,3.87,1.02,5.71,1.69,3.6,1.36,6.91,3.09,9.89,5.06,5.98,3.94,10.78,8.8,14.24,13.93,3.43,5.08,5.58,10.21,7.06,14.8,1.51,4.58,2.23,8.7,2.68,12.07.13.84.21,1.64.29,2.39l.06.55c.03.29.02.39.02.59,0,.35.02.69.03,1.02.04,1.3.07,2.41.09,3.31.03,1.8.05,2.76.05,2.76Z"/>
          <path class="cls-1" d="m369.11,120.63c1.81,4.18,3.43,7.25,4.22,8.7-5.13,4.32-10.18,8.05-14.88,11.35-4.78,3.41-9.43,6.09-13.48,8.42-4.04,2.31-7.56,4.32-10.46,5.98-2.86,1.71-5.12,3.05-6.62,4.05-1.34.88-2.12,1.39-2.28,1.48.14-.16.75-.86,1.83-2.01,1.26-1.3,3.11-3.22,5.65-5.45,2.51-2.25,5.63-4.92,9.26-7.85,3.6-2.95,7.6-6.25,11.71-10.05,4.19-3.85,8.67-8.04,13.14-12.62.64-.65,1.27-1.32,1.9-1.99Z"/>
          <path class="cls-1" d="m405.41,82.65c-.86,4.22-2.31,8.21-4.01,11.95-3.43,7.52-8.03,13.9-12.84,19.64-1.93,2.31-3.94,4.51-6.01,6.6-1.3-2.63-2.76-6.4-3.79-11.41.48-.62.95-1.25,1.42-1.89,2.03-2.78,3.96-5.58,5.77-8.54,1.78-2.95,3.36-6.01,4.7-9.13,2.63-6.26,4.14-12.86,3.54-19.3-.25-4.14-1.38-8.04-3.27-11.43-1.05-1.89-2.33-3.61-3.84-5.13-3.43-3.47-7.91-5.61-12.63-6.29-1.06-.16-2.11-.24-3.18-.24h-1.09s-.42,0-.42,0h-.05l-.6.05-1.33.13-1.04.15c-1.35.18-2.93.57-4.37.95-2.94.8-5.74,2.02-8.4,3.4-5.29,2.8-9.83,6.4-13.33,10.37-3.54,4-6.28,8.28-8.35,12.28-2.04,4.01-3.55,7.72-4.63,10.85-.27.77-.51,1.53-.74,2.23l-.16.52c-.04.07-.09.32-.14.46-.09.34-.17.66-.25.98-.34,1.27-.62,2.33-.85,3.21-.47,1.74-.74,2.67-.74,2.67,0,0,.02-.96.05-2.76.02-.9.05-2.01.09-3.31,0-.33.02-.67.03-1.02,0-.2,0-.3.02-.59l.06-.55c.09-.76.16-1.55.29-2.39.46-3.37,1.17-7.49,2.68-12.07,1.48-4.59,3.63-9.71,7.07-14.8,3.45-5.12,8.26-9.99,14.23-13.93,2.98-1.97,6.29-3.7,9.89-5.06,1.84-.67,3.61-1.25,5.72-1.69l1.55-.33,1.32-.2.66-.11.34-.04.19-.02.4-.03,1.58-.13c3.99-.26,8.17.28,12.17,1.6,4.45,1.45,8.66,3.87,12.11,7.22,2.47,2.33,4.61,5.06,6.3,8.02.56,1,1.08,2.01,1.53,3.06l.69,1.57.59,1.74c.18.57.42,1.21.55,1.71l.34,1.39.17.7.08.35.1.45.03.2.26,1.63c.18,1.08.35,2.17.39,3.27.34,4.39.04,8.81-.85,13.03Z"/>
        </g>
        <g>
          <path class="cls-1" d="m259.31,37.15c-2.85,1.51-5.44,3.39-7.69,5.56-2,1.89-3.8,4-5.36,6.31-8.1-2.29-14.72-2.12-14.72-2.12v111.75h0c.91,14-11.69,29.24-30.46,35.7-20.87,7.19-41.45.76-45.97-14.35-4.51-15.11,8.76-33.18,29.63-40.37,12.38-4.26,24.66-3.74,33.54.54V0h12.68c.98,17.03,14.81,25.42,28.36,37.15Z"/>
          <path class="cls-1" d="m275.01,123.13s0,0,0,0c-1.55,3.23-2.65,5.11-2.65,5.11h-5.5s.35-.38.9-1.15c.54-.76,1.29-1.89,2.11-3.43,3.53-6.62,8.47-20.64,4.89-43.75-1.52-9.79-5.74-16.68-11-21.53.45-.58.93-1.14,1.45-1.67,2.23-2.26,5.1-3.89,8.25-4.74,4.03,5.49,7.43,11.92,9.67,19.8,5.46,19.23-3.4,41.5-8.11,51.34Z"/>
          <path class="cls-1" d="m384.31,56.72c.52.53,1.03,1.09,1.47,1.69-5.26,4.84-9.49,11.73-11,21.52-1.83,11.78-1.43,21.2-.16,28.49.18,1.05.4,2.03.61,2.99.08.35.16.7.24,1.04.22.9.46,1.75.7,2.57.05.17.11.35.15.51.28.91.57,1.76.86,2.57.04.1.07.19.11.29.12.3.22.59.34.88.11.26.2.51.31.77.1.24.19.47.29.7.03.06.06.13.09.18.09.18.16.37.24.55,1.24,2.7,2.42,4.56,3.21,5.65.55.77.9,1.15.9,1.15h-5.5s-.3-.52-.82-1.49c-.05-.1-.1-.19-.16-.3-3.66-6.94-16.01-32.78-9.79-54.68,2.24-7.87,5.65-14.31,9.67-19.8,3.15.84,6.01,2.48,8.24,4.73Z"/>
          <path class="cls-1" d="m494.43,180c-4.51,15.11-25.1,21.54-45.98,14.35-18.76-6.46-31.37-21.71-30.46-35.7h0V46.9s-6.62-.16-14.71,2.12c-1.55-2.28-3.34-4.38-5.34-6.27-2.26-2.19-4.87-4.08-7.72-5.61,13.55-11.72,27.38-20.12,28.36-37.14h12.68v140.17c8.88-4.28,21.16-4.8,33.54-.54,20.88,7.19,34.15,25.26,29.64,40.37Z"/>
        </g>
      </g>
    </g>
  </g>
</svg>