<svg width="1440" height="153" viewBox="0 0 1440 153" fill="none" xmlns="http://www.w3.org/2000/svg">
<path d="M-32.2012 97.5537C-28.4408 96.2292 -25.0648 95.0462 -21.6907 93.8506C-16.7975 92.1176 -11.9139 90.3438 -7.00878 88.6447C-3.27298 87.3501 0.49461 86.1545 4.24173 84.8907C5.56993 84.4418 6.3032 83.4552 6.35253 82.0684C6.57125 75.7243 6.78997 69.3803 6.93687 63.0344C7.07038 57.3087 7.10616 51.582 7.1974 45.8564C7.20738 45.1523 7.30188 44.4479 7.64617 43.6979C8.32398 45.5529 9.03255 47.3966 9.67326 49.2639C10.7352 52.3662 11.7162 55.4909 12.7903 58.588C13.8948 61.7746 15.0857 64.9315 16.1992 68.1135C17.6237 72.1802 18.9932 76.2686 20.4241 80.3343C20.8745 81.6102 21.9678 81.9039 23.1984 81.9322C27.8668 82.0428 32.5358 82.1988 37.2075 82.2894C42.3557 82.3899 47.5054 82.438 52.6527 82.5126C55.1468 82.551 57.6405 82.5861 60.1343 82.6636C60.5002 82.6745 60.8598 82.9141 61.7025 83.2276C58.6641 84.2406 56.0853 85.0936 53.5085 85.9594C51.7383 86.5556 49.9681 87.1519 48.206 87.7793C43.9519 89.2951 39.7107 90.851 35.4478 92.3519C31.9185 93.5946 28.3553 94.7451 24.8332 96.0128C23.0848 96.6446 23.2149 98.3253 23.1722 99.7338C22.9617 106.379 22.8267 113.029 22.6748 119.675C22.5446 125.442 22.4302 131.207 22.3032 136.974C22.303 136.994 22.2173 137.007 21.9564 137.107C21.118 134.808 20.2511 132.515 19.4462 130.201C18.3693 127.108 17.3445 123.993 16.283 120.894C14.937 116.955 13.5851 113.02 12.2205 109.087C11.2306 106.237 10.3017 103.361 9.17071 100.566C8.58665 99.1221 7.13898 98.7051 5.66431 98.676C-1.8866 98.5391 -9.44058 98.445 -16.9903 98.295C-21.6689 98.2022 -26.3489 98.0381 -31.0291 97.8936C-31.2678 97.8855 -31.5053 97.7601 -32.2022 97.5473L-32.2012 97.5537Z" fill="white"/>
<path d="M10.0881 16.3036C11.5584 15.7446 13.0174 15.1549 14.4995 14.6298C17.6302 13.5211 20.776 12.4458 23.9118 11.3493C25.2317 10.8887 26.5239 10.3349 27.8662 9.95534C29.4019 9.52273 29.6755 8.32196 29.7252 7.06198C29.903 2.38634 30.0189 -2.28937 30.1281 -6.96726C30.1602 -8.38061 30.0946 -9.79491 30.0713 -11.2093C30.2427 -11.2362 30.4142 -11.2631 30.5883 -11.2936C31.2696 -9.4164 31.9721 -7.54903 32.6253 -5.66417C34.0372 -1.59549 35.3382 2.51334 36.8975 6.5264C37.182 7.2624 38.4357 8.01885 39.2867 8.07409C44.3001 8.39407 49.3255 8.52028 54.3477 8.68925C55.649 8.73246 56.951 8.6975 58.2521 8.69845C58.2714 8.8418 58.2906 8.98515 58.3098 9.1285C57.026 9.63222 55.7586 10.1789 54.4568 10.6301C49.7394 12.2608 45.004 13.8389 40.2913 15.4786C38.3513 16.1535 38.6246 17.9385 38.5314 19.4395C38.3442 22.4579 38.2167 25.4831 38.1706 28.5086C38.1297 31.3187 38.2261 34.1332 38.2634 36.944C38.1035 36.9821 37.9404 37.0206 37.78 37.0555C37.1588 35.3543 36.535 33.6567 35.9233 31.954C34.3981 27.7014 32.8045 23.4693 31.3937 19.1793C30.7927 17.3578 29.4187 17.1829 27.9642 17.0954C24.7098 16.8965 21.4502 16.7472 18.1898 16.6761C15.8501 16.6265 13.5071 16.7434 11.1629 16.7693C10.8221 16.7739 10.4786 16.6782 10.1362 16.631C10.1193 16.5231 10.1023 16.4152 10.0854 16.3072L10.0881 16.3036Z" fill="white"/>
<path d="M51.9774 107.897C51.8162 106.868 51.6521 106.029 51.5583 105.181C51.4051 103.81 52.2686 102.471 53.3954 102.252C54.6011 102.018 55.6744 102.91 55.9797 104.443C56.153 105.32 56.2632 106.21 56.4215 107.219C57.5357 107.045 58.478 106.894 59.4182 106.75C60.835 106.534 61.6085 107.236 61.9149 108.547C62.2522 109.994 61.4565 110.769 60.2023 111.109C59.241 111.367 58.2312 111.44 57.1043 111.617C57.27 112.674 57.4538 113.556 57.5345 114.444C57.6346 115.561 57.5393 116.571 56.0879 116.815C54.4465 117.091 53.5343 116.688 53.1551 115.264C52.9247 114.396 52.86 113.486 52.6809 112.343C51.827 112.477 51.0617 112.616 50.2932 112.714C48.5393 112.937 47.4985 112.293 47.3164 110.904C47.1197 109.4 47.8021 108.587 49.5336 108.283C50.3215 108.143 51.1176 108.035 51.9716 107.901L51.9774 107.897Z" fill="white"/>
<path d="M33.4292 58.1857C31.4732 58.385 28.7047 59.3979 28.282 56.5142C27.8639 53.6395 30.8855 54.2001 32.8658 53.6165C32.7275 52.734 32.3939 51.8301 32.5061 50.9896C32.6233 50.1191 32.9669 49.0114 33.602 48.5606C34.1462 48.1728 35.2572 48.4963 36.0914 48.6518C36.3493 48.6992 36.637 49.207 36.7061 49.5442C36.9349 50.6304 37.0727 51.7374 37.2707 53.0008C38.3913 52.8252 39.3295 52.6684 40.2674 52.5311C41.5942 52.3426 42.5617 52.913 42.9571 54.1488C43.3515 55.3782 42.4509 56.6252 41.058 56.9314C40.121 57.1368 39.1612 57.2384 38.0152 57.4181C38.1734 58.4276 38.2631 59.373 38.4787 60.2922C38.7816 61.5814 38.2328 62.4578 37.0772 62.7008C36.0068 62.9271 34.8469 62.6861 34.3846 61.438C34.0062 60.4143 33.7625 59.3369 33.4314 58.1789L33.4292 58.1857Z" fill="white"/>
<path d="M588.364 -60.286C588.293 -56.0455 588.234 -52.2405 588.163 -48.4333C588.06 -42.9121 587.912 -37.3869 587.848 -31.8651C587.798 -27.6595 587.859 -23.4551 587.843 -19.2484C587.837 -17.757 587.088 -16.6851 585.705 -16.1688C579.376 -13.8141 573.048 -11.4594 566.693 -9.17654C560.959 -7.1158 555.192 -5.15336 549.444 -3.1353C548.737 -2.8884 548.058 -2.5561 547.417 -1.95637C549.517 -1.89629 551.616 -1.80138 553.716 -1.78289C557.204 -1.75468 560.688 -1.81582 564.174 -1.77356C567.762 -1.73085 571.348 -1.59091 574.934 -1.53753C579.518 -1.46781 584.104 -1.46103 588.689 -1.38458C590.128 -1.35918 590.792 -0.354592 591.234 0.877826C592.916 5.55191 594.644 10.2113 596.307 14.8956C598.14 20.0573 599.921 25.2381 601.728 30.4077C602.606 32.9119 603.48 35.4166 604.397 37.9073C604.531 38.273 604.894 38.5552 605.494 39.3003C605.494 35.8932 605.487 33.0037 605.494 30.1119C605.501 28.1249 605.507 26.1378 605.547 24.1485C605.646 19.3455 605.79 14.5418 605.87 9.73488C605.937 5.75512 605.9 1.77211 605.994 -2.2088C606.044 -4.18577 607.784 -4.61982 609.191 -5.13666C615.826 -7.58445 622.492 -9.95753 629.148 -12.3463C634.924 -14.4178 640.704 -16.4724 646.481 -18.5405C646.501 -18.5473 646.486 -18.6383 646.498 -18.935C643.897 -19.0081 641.291 -19.1114 638.685 -19.1456C635.201 -19.1918 631.713 -19.1784 628.229 -19.2072C623.801 -19.2406 619.375 -19.2813 614.946 -19.3354C611.737 -19.3757 608.522 -19.3458 605.321 -19.5468C603.667 -19.6507 602.76 -20.9714 602.234 -22.4498C599.556 -30.0241 596.92 -37.6159 594.229 -45.1846C592.562 -49.875 590.822 -54.5428 589.102 -59.2174C589.013 -59.4556 588.807 -59.6532 588.358 -60.2849L588.364 -60.286Z" fill="white"/>
<path d="M520.592 9.72263C520.522 11.3945 520.418 13.0653 520.387 14.7376C520.321 18.2701 520.294 21.8064 520.242 25.34C520.221 26.8269 520.097 28.3173 520.166 29.7997C520.246 31.4949 519.126 32.175 517.871 32.649C513.212 34.4012 508.532 36.091 503.848 37.7746C502.433 38.2825 500.983 38.6921 499.548 39.1443C499.579 39.3264 499.609 39.5084 499.637 39.6944C501.76 39.7505 503.881 39.8313 506.003 39.8565C510.584 39.9128 515.169 39.8437 519.743 40.0674C520.581 40.1069 521.767 41.1177 522.109 41.958C524.118 46.9099 525.936 51.939 527.796 56.9506C528.277 58.2493 528.68 59.575 529.118 60.8878C529.269 60.859 529.42 60.8301 529.572 60.8013C529.648 59.3362 529.774 57.8734 529.791 56.4078C529.85 51.0985 529.85 45.7887 529.919 40.4811C529.948 38.2962 531.841 37.9716 533.324 37.3726C536.308 36.1685 539.318 35.0222 542.356 33.9579C545.178 32.9714 548.051 32.122 550.9 31.2141C550.884 31.0399 550.868 30.8624 550.85 30.6887C548.924 30.6341 547.001 30.5755 545.077 30.531C540.272 30.4222 535.465 30.2375 530.661 30.2568C528.62 30.263 527.982 28.9352 527.404 27.4967C526.109 24.2794 524.862 21.04 523.693 17.7736C522.856 15.4289 522.186 13.0251 521.424 10.6506C521.314 10.3051 521.101 9.99068 520.939 9.661C520.824 9.68023 520.709 9.69946 520.595 9.71869L520.592 9.72263Z" fill="white"/>
<path d="M627.118 21.1876C626.026 21.3709 625.124 21.4876 624.237 21.6779C622.802 21.9847 621.741 23.3064 621.899 24.5172C622.068 25.8129 623.329 26.5959 624.979 26.3885C625.922 26.2683 626.858 26.0801 627.93 25.9003C628.128 27.0835 628.293 28.0853 628.464 29.0825C628.723 30.5849 629.691 31.1295 631.118 30.9975C632.691 30.8514 633.206 29.7876 633.127 28.4076C633.064 27.3506 632.798 26.3068 632.598 25.1101C633.72 24.9218 634.672 24.8106 635.596 24.5932C636.756 24.3188 637.743 23.8828 637.501 22.3361C637.228 20.5865 636.514 19.8017 634.95 19.8978C633.996 19.9573 633.056 20.1982 631.842 20.4019C631.69 19.4951 631.573 18.6759 631.413 17.8674C631.048 16.0224 630.049 15.1884 628.585 15.4721C627.001 15.7796 626.41 16.7417 626.686 18.5913C626.81 19.4335 626.968 20.2735 627.121 21.1803L627.118 21.1876Z" fill="white"/>
<path d="M570.711 19.1906C570.254 17.1495 570.345 14.0149 567.292 14.5583C564.251 15.1033 565.833 17.9641 565.91 20.159C564.973 20.3162 563.948 20.2836 563.138 20.6796C562.299 21.0907 561.297 21.81 561.055 22.6026C560.847 23.2822 561.547 24.2946 561.985 25.0842C562.119 25.3285 562.729 25.4481 563.092 25.4044C564.265 25.27 565.429 25.0366 566.77 24.8115C566.97 26.0015 567.127 27.001 567.304 27.9938C567.56 29.3961 568.462 30.1807 569.842 30.164C571.215 30.1485 572.171 28.8201 572.011 27.3115C571.903 26.2967 571.683 25.2939 571.479 24.0769C572.551 23.8971 573.535 23.6695 574.535 23.578C575.938 23.45 576.638 22.6012 576.494 21.3533C576.363 20.197 575.729 19.1075 574.314 19.0607C573.154 19.0232 571.985 19.1397 570.705 19.1951L570.711 19.1906Z" fill="white"/>
<path d="M390.213 -52.1618C389.504 -48.22 388.861 -44.6842 388.231 -41.1438C387.317 -36.0098 386.442 -30.864 385.492 -25.7365C384.769 -21.831 383.944 -17.9469 383.188 -14.0468C382.921 -12.6639 383.419 -11.5338 384.606 -10.8026C390.038 -7.46319 395.471 -4.12382 400.941 -0.846332C405.876 2.11175 410.86 4.98495 415.815 7.90606C416.426 8.26418 416.994 8.69626 417.478 9.36917C415.521 9.04064 413.559 8.74459 411.611 8.37755C408.374 7.76559 405.158 7.07169 401.92 6.47295C398.588 5.85623 395.24 5.32976 391.908 4.72323C387.649 3.94936 383.398 3.11657 379.137 2.34873C377.799 2.10898 377 2.91818 376.365 3.97902C373.951 8.00168 371.498 12.0023 369.1 16.0379C366.458 20.4846 363.86 24.9587 361.241 29.4176C359.969 31.5771 358.701 33.7377 357.396 35.8774C357.205 36.1916 356.817 36.3868 356.125 36.9673C356.748 33.8107 357.283 31.1349 357.805 28.4546C358.163 26.6125 358.521 24.7704 358.847 22.92C359.634 18.4521 360.38 13.9754 361.185 9.50723C361.851 5.80789 362.614 2.12465 363.255 -1.5808C363.57 -3.42145 362.038 -4.14186 360.829 -4.87811C355.129 -8.3598 349.388 -11.7777 343.659 -15.2085C338.686 -18.1844 333.707 -21.1453 328.733 -24.1182C328.716 -24.128 328.747 -24.2096 328.789 -24.4868C331.213 -24.0785 333.646 -23.6975 336.066 -23.2526C339.302 -22.658 342.532 -22.0075 345.765 -21.3967C349.874 -20.6175 353.982 -19.8455 358.094 -19.0856C361.075 -18.5359 364.048 -17.92 367.051 -17.5206C368.601 -17.3143 369.684 -18.3718 370.441 -19.6454C374.308 -26.1728 378.139 -32.724 382.017 -39.2438C384.42 -43.2843 386.885 -47.2906 389.334 -51.3067C389.46 -51.5112 389.687 -51.6564 390.219 -52.1595L390.213 -52.1618Z" fill="white"/>
<path d="M474.739 -20.6962C471.637 -21.2538 468.534 -21.8084 465.434 -22.372C462.203 -22.9613 458.975 -23.5698 455.742 -24.1459C454.465 -24.373 453.176 -24.5598 451.889 -24.7322C449.455 -25.0581 449.07 -24.7791 447.923 -22.821C445.553 -18.7752 443.082 -14.7916 440.67 -10.772C439.329 -8.53863 438.032 -6.27496 436.699 -4.03518C436.576 -3.82655 436.353 -3.67597 435.872 -3.58873C436.236 -5.77684 436.578 -7.96991 436.967 -10.1519C437.551 -13.4408 438.174 -16.725 438.77 -20.0124C439.133 -22.0146 439.372 -24.0432 439.87 -26.0115C440.374 -28.002 439.693 -29.315 438.019 -30.2893C434.046 -32.5975 430.059 -34.8868 426.107 -37.232C423.483 -38.7892 420.907 -40.4284 418.418 -42.3695C420.375 -42.0338 422.33 -41.7023 424.287 -41.3564C429.437 -40.4462 434.582 -39.5342 439.727 -38.6017C440.195 -38.5179 440.635 -38.238 441.103 -38.1715C443.369 -37.8471 444.421 -38.488 445.728 -40.6757C448.111 -44.6648 450.579 -48.6046 452.963 -52.5937C454.353 -54.9221 455.651 -57.3063 456.988 -59.6685C457.124 -59.6273 457.261 -59.5862 457.394 -59.5462C457.169 -58.0922 456.987 -56.6325 456.714 -55.1895C455.895 -50.8302 455.025 -46.48 454.212 -42.1183C453.812 -39.9715 453.43 -37.8178 453.157 -35.6536C452.931 -33.8483 454.552 -33.343 455.678 -32.6345C460.543 -29.5822 465.448 -26.6007 470.36 -23.6272C471.831 -22.7366 473.376 -21.9666 474.886 -21.1409C474.836 -20.9906 474.784 -20.8415 474.734 -20.6913L474.739 -20.6962Z" fill="white"/>
<path d="M440.194 25.0966C439.952 26.6582 439.743 28.2252 439.466 29.7804C438.881 33.0651 438.259 36.3463 437.661 39.6295C437.408 41.0109 437.251 42.4144 436.916 43.7752C436.532 45.3312 437.445 46.1661 438.521 46.8348C442.516 49.3104 446.543 51.732 450.574 54.1488C451.793 54.8783 453.061 55.5229 454.308 56.2044C454.246 56.3675 454.185 56.5305 454.125 56.6978C452.147 56.3613 450.167 56.0482 448.197 55.6833C443.943 54.8974 439.708 53.9947 435.429 53.3651C434.645 53.2484 433.362 53.968 432.892 54.6839C430.124 58.9041 427.52 63.2308 424.88 67.5336C424.197 68.6487 423.581 69.8033 422.934 70.9393C422.8 70.885 422.665 70.8306 422.53 70.7763C422.727 69.4049 422.879 68.0267 423.131 66.6657C424.047 61.7361 425.019 56.8168 425.926 51.8868C426.299 49.8574 424.604 49.2102 423.339 48.3839C420.796 46.7226 418.217 45.1099 415.597 43.5682C413.163 42.138 410.657 40.8254 408.183 39.4631C408.229 39.3046 408.276 39.143 408.326 38.9855C410.12 39.2872 411.912 39.5848 413.703 39.8955C418.174 40.6737 422.662 41.382 427.109 42.2787C428.998 42.6577 429.833 41.5445 430.631 40.3174C432.42 37.5736 434.168 34.8006 435.848 31.9882C437.052 29.9691 438.113 27.8646 439.254 25.8042C439.419 25.5043 439.673 25.2518 439.884 24.9761C439.987 25.0149 440.089 25.0537 440.192 25.0925L440.194 25.0966Z" fill="white"/>
<path d="M339.404 16.2306C340.383 16.6002 341.197 16.8734 341.984 17.212C343.258 17.7587 343.998 19.1773 343.63 20.2701C343.237 21.4396 341.925 21.9344 340.435 21.4404C339.583 21.1565 338.75 20.811 337.79 20.4483C337.39 21.5082 337.054 22.4061 336.713 23.2988C336.199 24.6433 335.202 24.9707 333.904 24.5875C332.473 24.1643 332.191 23.0846 332.517 21.8205C332.769 20.8528 333.205 19.9343 333.61 18.8623C332.605 18.4824 331.743 18.2053 330.927 17.835C329.903 17.3685 329.068 16.7839 329.575 15.3952C330.148 13.8242 330.953 13.2277 332.385 13.6029C333.257 13.8325 334.084 14.2278 335.171 14.6385C335.478 13.8262 335.736 13.0886 336.032 12.3688C336.708 10.7263 337.787 10.1365 339.091 10.6671C340.502 11.2417 340.873 12.2412 340.28 13.9043C340.011 14.6619 339.71 15.4111 339.404 16.2234L339.404 16.2306Z" fill="white"/>
<path d="M470.098 5.0724C471.313 5.74557 472.42 6.24998 473.402 6.93128C474.322 7.57238 474.622 8.61395 473.997 9.56488C473.407 10.4702 472.477 11.0055 471.287 10.5459C470.393 10.201 469.491 9.86714 468.367 9.44278C467.941 10.5721 467.583 11.6204 467.15 12.6372C466.628 13.8649 465.727 14.0562 464.534 13.5708C463.32 13.0745 462.706 12.2799 463.097 10.9714C463.389 9.99816 463.805 9.06147 464.248 7.88682C463.234 7.50353 462.313 7.12803 461.374 6.80802C460.343 6.45983 459.783 5.81356 460.006 4.70373C460.246 3.51084 460.867 2.55159 462.225 2.68485C463.412 2.8022 464.575 3.18623 465.865 3.48027C466.09 2.8854 466.328 2.23691 466.578 1.59298C467.158 0.111135 468.646 -0.821072 469.721 -0.38739C470.896 0.0911164 471.38 1.58536 470.84 3.09942C470.605 3.75623 470.347 4.40392 470.096 5.06824L470.098 5.0724Z" fill="white"/>
<path d="M392.029 24.6994C392.825 22.8921 393.314 19.9713 396.043 21.0331C398.761 22.0946 396.772 24.4556 396.299 26.4749C397.139 26.792 398.094 26.9492 398.772 27.4643C399.474 27.9987 400.271 28.8484 400.35 29.6269C400.419 30.2947 399.585 31.1045 399.035 31.756C398.866 31.9578 398.279 31.9571 397.95 31.8501C396.888 31.5109 395.853 31.0819 394.651 30.6279C394.248 31.6938 393.92 32.591 393.574 33.4784C393.08 34.7308 392.102 35.2928 390.826 35.0249C389.557 34.7592 388.915 33.3538 389.338 31.9853C389.624 31.0649 390.012 30.1761 390.423 29.086C389.463 28.7232 388.593 28.3324 387.683 28.0646C386.407 27.6893 385.913 26.775 386.275 25.6451C386.608 24.5979 387.394 23.7044 388.714 23.9199C389.796 24.0975 390.858 24.4193 392.034 24.7047L392.029 24.6994Z" fill="white"/>
<path d="M178.89 13.196C178.228 10.1146 177.563 7.03341 176.908 3.95191C176.226 0.73875 175.563 -2.47818 174.868 -5.68775C174.593 -6.95551 174.277 -8.21886 173.947 -9.4754C173.324 -11.8506 172.92 -12.1008 170.673 -12.4182C166.031 -13.0747 161.407 -13.8479 156.772 -14.5531C154.197 -14.9452 151.611 -15.2853 149.033 -15.6676C148.793 -15.7028 148.569 -15.8515 148.305 -16.2638C150.468 -16.7578 152.627 -17.2742 154.793 -17.7424C158.057 -18.4516 161.332 -19.1224 164.6 -19.8188C166.59 -20.2432 168.557 -20.793 170.567 -21.0792C172.6 -21.3693 173.556 -22.4975 173.821 -24.4167C174.448 -28.9683 175.052 -33.5257 175.721 -38.0721C176.165 -41.0911 176.703 -44.0966 177.554 -47.1368C177.986 -45.1986 178.422 -43.2637 178.845 -41.322C179.959 -36.2125 181.069 -31.1063 182.16 -25.993C182.26 -25.5276 182.168 -25.0147 182.284 -24.5563C182.844 -22.3375 183.837 -21.6067 186.357 -21.2292C190.952 -20.5391 195.534 -19.7517 200.13 -19.0616C202.812 -18.6596 205.51 -18.3647 208.203 -18.0243C208.217 -17.8827 208.23 -17.741 208.244 -17.6025C206.814 -17.2584 205.394 -16.8727 203.956 -16.5769C199.612 -15.6789 195.257 -14.8322 190.913 -13.9278C188.775 -13.4829 186.638 -13.0188 184.532 -12.4489C182.776 -11.9729 182.924 -10.2818 182.697 -8.97072C181.72 -3.31129 180.825 2.35877 179.939 8.03179C179.674 9.73141 179.548 11.4529 179.358 13.1634C179.2 13.1743 179.042 13.182 178.884 13.1929L178.89 13.196Z" fill="white"/>
<path d="M123.41 -1.37293C121.873 -1.00327 120.344 -0.601529 118.801 -0.267186C115.54 0.438699 112.268 1.10936 109.004 1.80243C107.63 2.09321 106.271 2.48043 104.886 2.68759C103.3 2.92301 102.875 4.08467 102.664 5.33387C101.892 9.97033 101.18 14.6147 100.475 19.2622C100.263 20.6665 100.148 22.0841 99.9915 23.4965C99.8173 23.5014 99.643 23.5064 99.4656 23.5146C99.0259 21.5572 98.5638 19.607 98.1531 17.6455C97.2646 13.4113 96.4917 9.15123 95.4493 4.95367C95.2596 4.18403 94.1067 3.2705 93.2657 3.10702C88.3108 2.14938 83.3193 1.38329 78.3363 0.574988C77.0452 0.366124 75.7433 0.235064 74.4469 0.0683291C74.446 -0.0769615 74.4451 -0.222254 74.4442 -0.367545C75.7877 -0.705903 77.1202 -1.08915 78.4749 -1.37293C83.3834 -2.39673 88.3032 -3.36594 93.2082 -4.39933C95.2273 -4.82463 95.1824 -6.63818 95.4666 -8.12199C96.0376 -11.1058 96.5501 -14.1042 96.9816 -17.1131C97.3804 -19.908 97.643 -22.7249 97.9639 -25.5305C98.1281 -25.548 98.2956 -25.5657 98.4598 -25.58C98.8621 -23.8057 99.2674 -22.0346 99.66 -20.2599C100.638 -15.8281 101.687 -11.4079 102.546 -6.95324C102.913 -5.06161 104.259 -4.71224 105.698 -4.43972C108.915 -3.82685 112.144 -3.26275 115.384 -2.77645C117.709 -2.42894 120.059 -2.24681 122.398 -1.97398C122.738 -1.93517 123.068 -1.79598 123.404 -1.70536C123.407 -1.59566 123.41 -1.48594 123.413 -1.37624L123.41 -1.37293Z" fill="white"/>
<path d="M215.284 11.6003C214.08 11.6343 213.014 11.7194 211.954 11.6816C210.79 11.6403 210.13 11.0325 210.014 9.799C209.898 8.53967 210.371 7.67376 211.571 7.41373C212.662 7.17616 213.806 7.17608 215.158 7.05059C215.133 6.16649 215.145 5.21999 215.07 4.27918C214.97 3.03552 215.371 2.25238 216.724 2.13334C218.428 1.98176 219.36 2.50434 219.548 3.91019C219.675 4.85599 219.622 5.82627 219.655 7.01045C220.594 6.98387 221.433 6.93107 222.269 6.9429C223.849 6.96276 224.799 7.78838 224.857 9.14302C224.916 10.5332 224.07 11.3547 222.445 11.4492C221.646 11.4944 220.842 11.4978 219.8 11.5273C219.826 12.4469 219.865 13.2789 219.869 14.1119C219.876 15.7135 218.821 17.006 217.551 16.9773C216.343 16.9502 215.444 15.8809 215.361 14.33C215.318 13.4819 215.31 12.6297 215.281 11.6004L215.284 11.6003Z" fill="white"/>
<path d="M153.29 18.6871C153.128 20.0674 153.082 21.2829 152.825 22.4494C152.581 23.5446 151.731 24.2177 150.614 24.0007C149.553 23.7983 148.704 23.1409 148.678 21.8661C148.657 20.9076 148.623 19.9463 148.589 18.7459C147.383 18.7801 146.277 18.8469 145.172 18.833C143.838 18.8159 143.319 18.0556 143.315 16.7672C143.313 15.4562 143.815 14.5862 145.174 14.4509C146.185 14.3512 147.21 14.3803 148.465 14.3448C148.434 13.2606 148.432 12.2661 148.372 11.2764C148.302 10.1902 148.687 9.42683 149.799 9.2113C150.993 8.98049 152.117 9.19088 152.509 10.4973C152.851 11.6404 152.937 12.8619 153.155 14.1668C153.791 14.1488 154.481 14.1228 155.172 14.1097C156.763 14.084 158.19 15.106 158.197 16.2651C158.201 17.5341 157.003 18.5497 155.397 18.6243C154.7 18.6569 154.003 18.6637 153.293 18.6838L153.29 18.6871Z" fill="white"/>
<path d="M268.656 4.17446C269.512 1.75876 270.365 -0.658255 271.224 -3.07134C272.122 -5.5868 273.035 -8.09666 273.922 -10.6151C274.272 -11.6101 274.591 -12.6198 274.899 -13.6303C275.48 -15.5403 275.307 -15.8858 273.887 -17.0635C270.952 -19.4974 268.08 -22.0039 265.172 -24.4679C263.556 -25.8373 261.91 -27.1755 260.288 -28.5393C260.137 -28.6659 260.046 -28.8643 260.039 -29.2621C261.747 -28.6822 263.462 -28.1195 265.161 -27.5201C267.724 -26.6196 270.277 -25.6879 272.836 -24.777C274.395 -24.2224 275.992 -23.7644 277.506 -23.1056C279.037 -22.4399 280.18 -22.8134 281.182 -24.0291C283.556 -26.9134 285.917 -29.8114 288.318 -32.674C289.913 -34.575 291.567 -36.4265 293.452 -38.1689C292.925 -36.6425 292.402 -35.117 291.867 -33.5922C290.46 -29.5798 289.052 -25.5711 287.627 -21.5656C287.498 -21.2006 287.216 -20.8847 287.101 -20.5177C286.543 -18.7427 286.919 -17.8135 288.502 -16.4779C291.39 -14.0409 294.227 -11.5424 297.114 -9.10544C298.8 -7.68373 300.542 -6.32916 302.262 -4.94538C302.211 -4.84143 302.16 -4.73748 302.11 -4.63581C300.973 -5.00744 299.826 -5.3456 298.704 -5.75395C295.314 -6.98401 291.937 -8.25438 288.544 -9.4799C286.874 -10.0834 285.196 -10.6733 283.496 -11.1764C282.077 -11.5955 281.458 -10.3615 280.742 -9.55078C277.653 -6.04855 274.616 -2.50442 271.584 1.04591C270.676 2.10968 269.855 3.24807 268.994 4.35112C268.88 4.29136 268.767 4.22932 268.653 4.16957L268.656 4.17446Z" fill="white"/>
<path d="M294.535 18.585C293.687 18.0955 292.912 17.6997 292.194 17.2215C291.406 16.6968 291.209 15.9947 291.654 15.0913C292.111 14.1698 292.807 13.7718 293.749 14.1035C294.606 14.4042 295.397 14.8915 296.388 15.3813C296.747 14.7585 297.159 14.1082 297.508 13.4248C297.969 12.5212 298.581 12.1499 299.568 12.6442C300.812 13.2657 301.235 14.0248 300.766 15.0785C300.451 15.7875 300 16.4366 299.518 17.2708C300.18 17.6526 300.783 17.9734 301.357 18.3383C302.442 19.0255 302.748 20.0022 302.211 20.9648C301.659 21.9523 300.723 22.1607 299.558 21.5334C298.985 21.2239 298.427 20.8835 297.693 20.4596C297.319 21.1074 296.991 21.7004 296.639 22.2789C295.961 23.3906 294.679 23.8358 293.812 23.2746C292.987 22.7406 292.821 21.617 293.425 20.5079C293.756 19.9023 294.114 19.3087 294.533 18.5837L294.535 18.585Z" fill="white"/>
<path d="M248.589 -2.93779C247.889 -2.05085 247.339 -1.229 246.663 -0.531092C246.028 0.123372 245.153 0.227237 244.472 -0.39923C243.823 -0.992022 243.516 -1.8089 244.041 -2.70281C244.435 -3.37528 244.822 -4.05527 245.31 -4.90084C244.46 -5.39165 243.666 -5.81678 242.907 -6.29742C241.99 -6.87805 241.955 -7.62568 242.502 -8.5195C243.059 -9.42791 243.778 -9.81636 244.776 -9.33074C245.519 -8.96868 246.216 -8.51175 247.1 -8.00125C247.541 -8.76499 247.963 -9.45458 248.344 -10.1655C248.759 -10.9473 249.351 -11.3115 250.212 -10.987C251.138 -10.6375 251.826 -10.013 251.54 -8.94121C251.29 -8.00375 250.829 -7.12128 250.423 -6.12494C250.871 -5.86641 251.36 -5.59012 251.844 -5.30473C252.957 -4.64411 253.509 -3.32804 253.02 -2.52252C252.481 -1.64234 251.219 -1.45003 250.075 -2.08311C249.579 -2.35748 249.093 -2.65004 248.593 -2.93876L248.589 -2.93779Z" fill="white"/>
<path d="M1471.51 97.759C1467.75 96.4345 1464.38 95.2515 1461 94.0559C1456.11 92.3229 1451.23 90.5491 1446.32 88.85C1442.58 87.5554 1438.82 86.3599 1435.07 85.096C1433.74 84.6471 1433.01 83.6605 1432.96 82.2737C1432.74 75.9296 1432.52 69.5856 1432.37 63.2398C1432.24 57.514 1432.21 51.7873 1432.11 46.0617C1432.1 45.3576 1432.01 44.6533 1431.67 43.9033C1430.99 45.7583 1430.28 47.6019 1429.64 49.4692C1428.58 52.5715 1427.6 55.6962 1426.52 58.7933C1425.42 61.98 1424.23 65.1368 1423.11 68.3188C1421.69 72.3855 1420.32 76.4739 1418.89 80.5396C1418.44 81.8155 1417.34 82.1092 1416.11 82.1375C1411.44 82.2481 1406.78 82.4041 1402.1 82.4947C1396.96 82.5952 1391.81 82.6433 1386.66 82.7179C1384.16 82.7563 1381.67 82.7915 1379.18 82.8689C1378.81 82.8798 1378.45 83.1195 1377.61 83.4329C1380.65 84.4459 1383.23 85.299 1385.8 86.1647C1387.57 86.761 1389.34 87.3572 1391.11 87.9846C1395.36 89.5004 1399.6 91.0564 1403.86 92.5572C1407.39 93.8 1410.96 94.9505 1414.48 96.2181C1416.23 96.8499 1416.1 98.5306 1416.14 99.9391C1416.35 106.584 1416.48 113.234 1416.64 119.88C1416.77 125.647 1416.88 131.412 1417.01 137.179C1417.01 137.199 1417.09 137.212 1417.35 137.312C1418.19 135.014 1419.06 132.72 1419.87 130.407C1420.94 127.313 1421.97 124.199 1423.03 121.1C1424.37 117.161 1425.73 113.226 1427.09 109.293C1428.08 106.442 1429.01 103.567 1430.14 100.771C1430.72 99.3275 1432.17 98.9104 1433.65 98.8813C1441.2 98.7445 1448.75 98.6503 1456.3 98.5003C1460.98 98.4075 1465.66 98.2434 1470.34 98.0989C1470.58 98.0908 1470.82 97.9654 1471.51 97.7526L1471.51 97.759Z" fill="white"/>
<path d="M1429.22 16.5089C1427.75 15.9499 1426.29 15.3602 1424.81 14.8351C1421.68 13.7264 1418.54 12.6511 1415.4 11.5546C1414.08 11.094 1412.79 10.5402 1411.45 10.1607C1409.91 9.72805 1409.64 8.52729 1409.59 7.2673C1409.41 2.59166 1409.29 -2.08405 1409.18 -6.76193C1409.15 -8.17529 1409.22 -9.58959 1409.24 -11.004C1409.07 -11.0309 1408.9 -11.0577 1408.72 -11.0883C1408.04 -9.21108 1407.34 -7.34371 1406.69 -5.45885C1405.27 -1.39016 1403.97 2.71866 1402.41 6.73172C1402.13 7.46772 1400.88 8.22417 1400.02 8.27941C1395.01 8.59939 1389.99 8.7256 1384.96 8.89457C1383.66 8.93779 1382.36 8.90282 1381.06 8.90377C1381.04 9.04712 1381.02 9.19047 1381 9.33382C1382.29 9.83754 1383.55 10.3842 1384.85 10.8355C1389.57 12.4661 1394.31 14.0443 1399.02 15.6839C1400.96 16.3588 1400.69 18.1438 1400.78 19.6448C1400.97 22.6632 1401.09 25.6885 1401.14 28.714C1401.18 31.524 1401.09 34.3385 1401.05 37.1493C1401.21 37.1874 1401.37 37.226 1401.53 37.2609C1402.15 35.5596 1402.78 33.8621 1403.39 32.1593C1404.91 27.9068 1406.51 23.6747 1407.92 19.3846C1408.52 17.5631 1409.89 17.3882 1411.35 17.3007C1414.6 17.1018 1417.86 16.9525 1421.12 16.8814C1423.46 16.8319 1425.8 16.9487 1428.15 16.9746C1428.49 16.9793 1428.83 16.8835 1429.18 16.8363C1429.19 16.7284 1429.21 16.6205 1429.23 16.5125L1429.22 16.5089Z" fill="white"/>
<path d="M1387.33 108.102C1387.49 107.073 1387.66 106.234 1387.75 105.387C1387.91 104.015 1387.04 102.677 1385.92 102.458C1384.71 102.223 1383.64 103.115 1383.33 104.648C1383.16 105.525 1383.05 106.415 1382.89 107.425C1381.78 107.25 1380.83 107.099 1379.89 106.955C1378.48 106.739 1377.7 107.441 1377.4 108.753C1377.06 110.199 1377.85 110.974 1379.11 111.314C1380.07 111.572 1381.08 111.646 1382.21 111.822C1382.04 112.88 1381.86 113.761 1381.78 114.65C1381.68 115.766 1381.77 116.776 1383.22 117.02C1384.86 117.297 1385.78 116.893 1386.16 115.47C1386.39 114.601 1386.45 113.691 1386.63 112.548C1387.48 112.682 1388.25 112.822 1389.02 112.919C1390.77 113.142 1391.81 112.499 1391.99 111.109C1392.19 109.605 1391.51 108.792 1389.78 108.488C1388.99 108.348 1388.19 108.24 1387.34 108.106L1387.33 108.102Z" fill="white"/>
<path d="M1405.88 58.3911C1407.84 58.5903 1410.61 59.6032 1411.03 56.7195C1411.45 53.8448 1408.43 54.4055 1406.45 53.8218C1406.58 52.9393 1406.92 52.0354 1406.81 51.1949C1406.69 50.3244 1406.34 49.2168 1405.71 48.7659C1405.17 48.3782 1404.05 48.7016 1403.22 48.8571C1402.96 48.9045 1402.67 49.4123 1402.61 49.7495C1402.38 50.8357 1402.24 51.9427 1402.04 53.2062C1400.92 53.0305 1399.98 52.8737 1399.04 52.7364C1397.72 52.548 1396.75 53.1183 1396.35 54.3541C1395.96 55.5835 1396.86 56.8305 1398.25 57.1367C1399.19 57.3421 1400.15 57.4438 1401.3 57.6234C1401.14 58.6329 1401.05 59.5783 1400.83 60.4975C1400.53 61.7868 1401.08 62.6631 1402.23 62.9061C1403.3 63.1324 1404.46 62.8914 1404.93 61.6434C1405.31 60.6196 1405.55 59.5422 1405.88 58.3842L1405.88 58.3911Z" fill="white"/>
<path d="M850.947 -60.0807C851.018 -55.8402 851.077 -52.0352 851.148 -48.228C851.251 -42.7068 851.399 -37.1816 851.463 -31.6598C851.513 -27.4542 851.452 -23.2498 851.468 -19.0431C851.474 -17.5517 852.223 -16.4798 853.606 -15.9635C859.935 -13.6088 866.263 -11.2541 872.618 -8.97122C878.352 -6.91047 884.119 -4.94803 889.867 -2.92998C890.574 -2.68307 891.253 -2.35078 891.894 -1.75104C889.794 -1.69097 887.695 -1.59606 885.595 -1.57757C882.107 -1.54936 878.623 -1.61049 875.137 -1.56824C871.549 -1.52553 867.963 -1.38559 864.377 -1.3322C859.793 -1.26249 855.207 -1.25571 850.622 -1.17925C849.183 -1.15386 848.519 -0.14927 848.077 1.08315C846.395 5.75724 844.667 10.4167 843.004 15.1009C841.171 20.2626 839.39 25.4434 837.583 30.613C836.705 33.1172 835.831 35.6219 834.914 38.1126C834.78 38.4783 834.417 38.7605 833.817 39.5056C833.817 36.0985 833.824 33.209 833.817 30.3172C833.811 28.3302 833.804 26.3432 833.764 24.3538C833.665 19.5508 833.521 14.7472 833.441 9.9402C833.374 5.96044 833.411 1.97743 833.317 -2.00348C833.267 -3.98045 831.527 -4.4145 830.12 -4.93134C823.485 -7.37913 816.819 -9.75221 810.163 -12.141C804.387 -14.2125 798.607 -16.2671 792.83 -18.3352C792.81 -18.342 792.825 -18.433 792.813 -18.7297C795.414 -18.8027 798.02 -18.9061 800.626 -18.9403C804.11 -18.9865 807.598 -18.9731 811.082 -19.0019C815.51 -19.0353 819.936 -19.0759 824.365 -19.1301C827.574 -19.1704 830.789 -19.1405 833.99 -19.3415C835.644 -19.4453 836.552 -20.766 837.077 -22.2445C839.755 -29.8188 842.391 -37.4106 845.082 -44.9793C846.749 -49.6697 848.489 -54.3375 850.209 -59.0121C850.298 -59.2503 850.504 -59.4479 850.953 -60.0795L850.947 -60.0807Z" fill="white"/>
<path d="M918.719 9.92795C918.789 11.5998 918.893 13.2706 918.924 14.943C918.99 18.4754 919.017 22.0117 919.069 25.5453C919.09 27.0322 919.214 28.5226 919.145 30.005C919.066 31.7003 920.185 32.3803 921.44 32.8543C926.099 34.6065 930.779 36.2963 935.463 37.98C936.878 38.4878 938.328 38.8974 939.763 39.3496C939.733 39.5317 939.702 39.7137 939.674 39.8997C937.551 39.9558 935.43 40.0366 933.308 40.0619C928.727 40.1181 924.143 40.049 919.568 40.2727C918.73 40.3122 917.544 41.323 917.202 42.1633C915.193 47.1152 913.375 52.1443 911.515 57.1559C911.034 58.4546 910.631 59.7803 910.193 61.0931C910.042 61.0643 909.891 61.0355 909.739 61.0066C909.663 59.5416 909.538 58.0787 909.52 56.6131C909.461 51.3038 909.461 45.994 909.392 40.6864C909.363 38.5015 907.47 38.1769 905.987 37.5779C903.003 36.3738 899.993 35.2275 896.955 34.1632C894.133 33.1767 891.26 32.3273 888.411 31.4194C888.427 31.2452 888.443 31.0677 888.461 30.8941C890.387 30.8394 892.31 30.7808 894.234 30.7363C899.039 30.6275 903.846 30.4428 908.65 30.4621C910.691 30.4683 911.329 29.1406 911.907 27.7021C913.202 24.4847 914.449 21.2453 915.618 17.9789C916.455 15.6343 917.125 13.2304 917.887 10.8559C917.997 10.5105 918.21 10.196 918.372 9.86632C918.487 9.88555 918.602 9.90478 918.716 9.92401L918.719 9.92795Z" fill="white"/>
<path d="M812.193 21.3929C813.285 21.5762 814.187 21.6929 815.074 21.8833C816.509 22.19 817.57 23.5117 817.412 24.7225C817.243 26.0182 815.982 26.8013 814.332 26.5938C813.389 26.4736 812.453 26.2855 811.381 26.1056C811.183 27.2888 811.018 28.2906 810.847 29.2879C810.588 30.7902 809.62 31.3348 808.193 31.2029C806.62 31.0567 806.105 29.993 806.184 28.6129C806.247 27.556 806.513 26.5122 806.713 25.3154C805.591 25.1271 804.639 25.0159 803.715 24.7985C802.555 24.5242 801.568 24.0881 801.81 22.5414C802.083 20.7918 802.797 20.007 804.361 20.1031C805.315 20.1626 806.255 20.4036 807.469 20.6072C807.621 19.7004 807.738 18.8812 807.898 18.0727C808.263 16.2277 809.262 15.3938 810.726 15.6775C812.31 15.9849 812.901 16.947 812.625 18.7966C812.501 19.6389 812.343 20.4788 812.191 21.3856L812.193 21.3929Z" fill="white"/>
<path d="M868.6 19.3959C869.057 17.3548 868.966 14.2202 872.019 14.7636C875.06 15.3086 873.478 18.1694 873.401 20.3643C874.338 20.5216 875.363 20.489 876.173 20.8849C877.012 21.296 878.014 22.0153 878.256 22.8079C878.464 23.4875 877.764 24.4999 877.326 25.2896C877.192 25.5339 876.583 25.6534 876.219 25.6098C875.046 25.4753 873.882 25.2419 872.541 25.0168C872.341 26.2068 872.184 27.2063 872.007 28.1991C871.751 29.6014 870.849 30.386 869.469 30.3693C868.096 30.3538 867.14 29.0254 867.3 27.5168C867.408 26.502 867.628 25.4992 867.832 24.2823C866.76 24.1024 865.776 23.8748 864.776 23.7833C863.373 23.6553 862.673 22.8066 862.817 21.5586C862.948 20.4023 863.582 19.3128 864.997 19.2661C866.157 19.2286 867.326 19.345 868.606 19.4004L868.6 19.3959Z" fill="white"/>
<path d="M1049.1 -51.9565C1049.81 -48.0147 1050.45 -44.4789 1051.08 -40.9385C1051.99 -35.8045 1052.87 -30.6587 1053.82 -25.5312C1054.54 -21.6257 1055.37 -17.7416 1056.12 -13.8415C1056.39 -12.4586 1055.89 -11.3285 1054.71 -10.5972C1049.27 -7.25787 1043.84 -3.9185 1038.37 -0.64101C1033.44 2.31707 1028.45 5.19027 1023.5 8.11138C1022.89 8.46951 1022.32 8.90158 1021.83 9.57449C1023.79 9.24597 1025.75 8.94992 1027.7 8.58287C1030.94 7.97091 1034.15 7.27702 1037.39 6.67827C1040.72 6.06155 1044.07 5.53508 1047.4 4.92856C1051.66 4.15468 1055.91 3.32189 1060.17 2.55405C1061.51 2.3143 1062.31 3.1235 1062.95 4.18435C1065.36 8.20701 1067.81 12.2077 1070.21 16.2432C1072.85 20.69 1075.45 25.164 1078.07 29.6229C1079.34 31.7824 1080.61 33.943 1081.92 36.0827C1082.11 36.397 1082.49 36.5921 1083.19 37.1726C1082.56 34.0161 1082.03 31.3403 1081.51 28.6599C1081.15 26.8178 1080.79 24.9758 1080.46 23.1253C1079.68 18.6574 1078.93 14.1808 1078.13 9.71255C1077.46 6.01321 1076.7 2.32997 1076.06 -1.37548C1075.74 -3.21613 1077.27 -3.93654 1078.48 -4.67279C1084.18 -8.15448 1089.92 -11.5724 1095.65 -15.0032C1100.63 -17.9791 1105.6 -20.9399 1110.58 -23.9129C1110.6 -23.9227 1110.56 -24.0043 1110.52 -24.2815C1108.1 -23.8732 1105.67 -23.4921 1103.25 -23.0473C1100.01 -22.4527 1096.78 -21.8022 1093.55 -21.1914C1089.44 -20.4122 1085.33 -19.6402 1081.22 -18.8803C1078.24 -18.3305 1075.26 -17.7147 1072.26 -17.3152C1070.71 -17.109 1069.63 -18.1665 1068.87 -19.4401C1065 -25.9674 1061.17 -32.5187 1057.29 -39.0385C1054.89 -43.0789 1052.43 -47.0852 1049.98 -51.1014C1049.85 -51.3058 1049.62 -51.4511 1049.09 -51.9542L1049.1 -51.9565Z" fill="white"/>
<path d="M964.572 -20.4909C967.674 -21.0485 970.777 -21.6031 973.877 -22.1667C977.108 -22.756 980.336 -23.3645 983.569 -23.9406C984.846 -24.1677 986.135 -24.3545 987.422 -24.5268C989.856 -24.8527 990.241 -24.5737 991.388 -22.6157C993.758 -18.5699 996.229 -14.5863 998.642 -10.5667C999.982 -8.33331 1001.28 -6.06964 1002.61 -3.82985C1002.74 -3.62123 1002.96 -3.47065 1003.44 -3.38341C1003.08 -5.57152 1002.73 -7.76459 1002.34 -9.94659C1001.76 -13.2355 1001.14 -16.5197 1000.54 -19.807C1000.18 -21.8093 999.939 -23.8379 999.441 -25.8062C998.937 -27.7967 999.618 -29.1097 1001.29 -30.084C1005.27 -32.3922 1009.25 -34.6815 1013.2 -37.0267C1015.83 -38.5839 1018.4 -40.223 1020.89 -42.1642C1018.94 -41.8285 1016.98 -41.4969 1015.02 -41.151C1009.87 -40.2409 1004.73 -39.3288 999.584 -38.3964C999.116 -38.3125 998.676 -38.0327 998.208 -37.9662C995.943 -37.6418 994.89 -38.2826 993.583 -40.4704C991.2 -44.4595 988.732 -48.3992 986.348 -52.3884C984.958 -54.7168 983.661 -57.101 982.323 -59.4632C982.187 -59.422 982.05 -59.3809 981.917 -59.3409C982.142 -57.8869 982.324 -56.4271 982.597 -54.9842C983.416 -50.6248 984.286 -46.2747 985.099 -41.913C985.499 -39.7662 985.881 -37.6125 986.154 -35.4483C986.38 -33.643 984.76 -33.1377 983.633 -32.4292C978.768 -29.3769 973.863 -26.3954 968.951 -23.4219C967.48 -22.5312 965.935 -21.7613 964.425 -20.9356C964.475 -20.7853 964.528 -20.6362 964.577 -20.486L964.572 -20.4909Z" fill="white"/>
<path d="M999.117 25.3019C999.359 26.8636 999.568 28.4306 999.845 29.9857C1000.43 33.2704 1001.05 36.5516 1001.65 39.8348C1001.9 41.2162 1002.06 42.6197 1002.4 43.9805C1002.78 45.5365 1001.87 46.3714 1000.79 47.0401C996.795 49.5157 992.768 51.9374 988.737 54.3541C987.518 55.0836 986.25 55.7282 985.003 56.4098C985.065 56.5728 985.126 56.7359 985.186 56.9031C987.164 56.5666 989.144 56.2535 991.114 55.8887C995.368 55.1027 999.603 54.2001 1003.88 53.5705C1004.67 53.4537 1005.95 54.1733 1006.42 54.8893C1009.19 59.1094 1011.79 63.4361 1014.43 67.7389C1015.11 68.8541 1015.73 70.0086 1016.38 71.1446C1016.51 71.0903 1016.65 71.0359 1016.78 70.9816C1016.58 69.6103 1016.43 68.232 1016.18 66.871C1015.26 61.9414 1014.29 57.0221 1013.39 52.0921C1013.01 50.0627 1014.71 49.4156 1015.97 48.5893C1018.52 46.9279 1021.09 45.3153 1023.71 43.7735C1026.15 42.3433 1028.65 41.0308 1031.13 39.6684C1031.08 39.5099 1031.03 39.3483 1030.99 39.1909C1029.19 39.4925 1027.4 39.7901 1025.61 40.1008C1021.14 40.879 1016.65 41.5873 1012.2 42.484C1010.31 42.863 1009.48 41.7498 1008.68 40.5227C1006.89 37.7789 1005.14 35.0059 1003.46 32.1935C1002.26 30.1744 1001.2 28.07 1000.06 26.0095C999.892 25.7096 999.638 25.4571 999.427 25.1814C999.324 25.2202 999.222 25.259 999.119 25.2978L999.117 25.3019Z" fill="white"/>
<path d="M1099.91 16.4359C1098.93 16.8055 1098.11 17.0788 1097.33 17.4173C1096.05 17.964 1095.31 19.3826 1095.68 20.4754C1096.07 21.6449 1097.39 22.1397 1098.88 21.6457C1099.73 21.3618 1100.56 21.0163 1101.52 20.6536C1101.92 21.7135 1102.26 22.6115 1102.6 23.5041C1103.11 24.8486 1104.11 25.176 1105.41 24.7928C1106.84 24.3696 1107.12 23.2899 1106.79 22.0258C1106.54 21.0581 1106.11 20.1396 1105.7 19.0676C1106.71 18.6878 1107.57 18.4106 1108.38 18.0403C1109.41 17.5739 1110.24 16.9893 1109.74 15.6005C1109.16 14.0295 1108.36 13.433 1106.93 13.8083C1106.05 14.0378 1105.23 14.4331 1104.14 14.8438C1103.83 14.0315 1103.58 13.2939 1103.28 12.5741C1102.6 10.9316 1101.52 10.3418 1100.22 10.8724C1098.81 11.447 1098.44 12.4465 1099.03 14.1096C1099.3 14.8672 1099.6 15.6165 1099.91 16.4287L1099.91 16.4359Z" fill="white"/>
<path d="M969.214 5.27772C967.998 5.95089 966.891 6.4553 965.91 7.1366C964.989 7.7777 964.689 8.81927 965.314 9.7702C965.905 10.6755 966.835 11.2109 968.024 10.7512C968.919 10.4064 969.821 10.0725 970.944 9.64811C971.371 10.7775 971.729 11.8257 972.161 12.8425C972.684 14.0702 973.584 14.2615 974.778 13.7761C975.991 13.2798 976.605 12.4853 976.215 11.1768C975.923 10.2035 975.507 9.26679 975.063 8.09214C976.078 7.70885 976.999 7.33335 977.937 7.01334C978.968 6.66515 979.528 6.01888 979.306 4.90906C979.065 3.71616 978.444 2.75691 977.087 2.89017C975.899 3.00753 974.737 3.39155 973.447 3.68559C973.222 3.09072 972.984 2.44223 972.734 1.7983C972.153 0.316457 970.666 -0.61575 969.591 -0.182068C968.416 0.296439 967.931 1.79068 968.472 3.30474C968.706 3.96155 968.965 4.60924 969.216 5.27356L969.214 5.27772Z" fill="white"/>
<path d="M1047.28 24.9048C1046.49 23.0974 1046 20.1766 1043.27 21.2385C1040.55 22.2999 1042.54 24.6609 1043.01 26.6802C1042.17 26.9973 1041.22 27.1546 1040.54 27.6696C1039.84 28.204 1039.04 29.0538 1038.96 29.8322C1038.89 30.5 1039.73 31.3099 1040.28 31.9614C1040.45 32.1631 1041.03 32.1624 1041.36 32.0554C1042.42 31.7162 1043.46 31.2872 1044.66 30.8332C1045.06 31.8991 1045.39 32.7964 1045.74 33.6837C1046.23 34.9361 1047.21 35.4982 1048.49 35.2302C1049.75 34.9646 1050.4 33.5591 1049.97 32.1906C1049.69 31.2702 1049.3 30.3814 1048.89 29.2913C1049.85 28.9286 1050.72 28.5377 1051.63 28.2699C1052.91 27.8946 1053.4 26.9803 1053.04 25.8504C1052.7 24.8032 1051.92 23.9097 1050.6 24.1252C1049.52 24.3028 1048.45 24.6246 1047.28 24.9101L1047.28 24.9048Z" fill="white"/>
<path d="M1260.42 13.4013C1261.08 10.32 1261.75 7.23873 1262.4 4.15723C1263.09 0.944073 1263.75 -2.27286 1264.44 -5.48242C1264.72 -6.75019 1265.03 -8.01354 1265.36 -9.27007C1265.99 -11.6453 1266.39 -11.8954 1268.64 -12.2129C1273.28 -12.8693 1277.9 -13.6426 1282.54 -14.3478C1285.11 -14.7399 1287.7 -15.08 1290.28 -15.4623C1290.52 -15.4975 1290.74 -15.6461 1291.01 -16.0585C1288.84 -16.5524 1286.68 -17.0689 1284.52 -17.5371C1281.25 -18.2463 1277.98 -18.9171 1274.71 -19.6134C1272.72 -20.0379 1270.75 -20.5877 1268.74 -20.8739C1266.71 -21.164 1265.76 -22.2922 1265.49 -24.2114C1264.86 -28.763 1264.26 -33.3204 1263.59 -37.8668C1263.15 -40.8857 1262.61 -43.8912 1261.76 -46.9314C1261.33 -44.9932 1260.89 -43.0583 1260.47 -41.1166C1259.35 -36.0072 1258.24 -30.9009 1257.15 -25.7877C1257.05 -25.3223 1257.14 -24.8094 1257.03 -24.3509C1256.47 -22.1322 1255.47 -21.4014 1252.95 -21.0239C1248.36 -20.3338 1243.78 -19.5464 1239.18 -18.8563C1236.5 -18.4543 1233.8 -18.1593 1231.11 -17.819C1231.09 -17.6773 1231.08 -17.5356 1231.07 -17.3972C1232.5 -17.0531 1233.92 -16.6674 1235.36 -16.3716C1239.7 -15.4735 1244.05 -14.6269 1248.4 -13.7224C1250.54 -13.2776 1252.67 -12.8134 1254.78 -12.2436C1256.54 -11.7676 1256.39 -10.0765 1256.61 -8.7654C1257.59 -3.10596 1258.49 2.5641 1259.37 8.23711C1259.64 9.93673 1259.76 11.6582 1259.95 13.3687C1260.11 13.3796 1260.27 13.3873 1260.43 13.3982L1260.42 13.4013Z" fill="white"/>
<path d="M1315.9 -1.1676C1317.44 -0.79795 1318.97 -0.396207 1320.51 -0.061864C1323.77 0.644022 1327.04 1.31468 1330.31 2.00776C1331.68 2.29854 1333.04 2.68575 1334.43 2.89292C1336.01 3.12833 1336.44 4.28999 1336.65 5.53919C1337.42 10.1757 1338.13 14.8201 1338.84 19.4675C1339.05 20.8718 1339.16 22.2894 1339.32 23.7018C1339.49 23.7068 1339.67 23.7117 1339.85 23.7199C1340.29 21.7626 1340.75 19.8123 1341.16 17.8508C1342.05 13.6166 1342.82 9.35655 1343.86 5.15899C1344.05 4.38935 1345.2 3.47583 1346.05 3.31234C1351 2.3547 1355.99 1.58861 1360.97 0.78031C1362.27 0.571446 1363.57 0.440386 1364.86 0.273651C1364.87 0.128361 1364.87 -0.0169318 1364.87 -0.162222C1363.52 -0.500581 1362.19 -0.883832 1360.84 -1.16761C1355.93 -2.1914 1351.01 -3.16062 1346.1 -4.194C1344.08 -4.61931 1344.13 -6.43286 1343.84 -7.91667C1343.27 -10.9005 1342.76 -13.8988 1342.33 -16.9078C1341.93 -19.7027 1341.67 -22.5195 1341.35 -25.3252C1341.18 -25.3427 1341.02 -25.3604 1340.85 -25.3747C1340.45 -23.6003 1340.04 -21.8293 1339.65 -20.0546C1338.67 -15.6227 1337.62 -11.2025 1336.77 -6.74792C1336.4 -4.85629 1335.05 -4.50691 1333.61 -4.2344C1330.4 -3.62153 1327.17 -3.05742 1323.93 -2.57112C1321.6 -2.22362 1319.25 -2.04149 1316.91 -1.76866C1316.57 -1.72985 1316.24 -1.59066 1315.91 -1.50004C1315.9 -1.39033 1315.9 -1.28062 1315.9 -1.17092L1315.9 -1.1676Z" fill="white"/>
<path d="M1224.03 11.8056C1225.23 11.8397 1226.3 11.9248 1227.36 11.887C1228.52 11.8456 1229.18 11.2378 1229.3 10.0043C1229.41 8.74499 1228.94 7.87908 1227.74 7.61905C1226.65 7.38148 1225.51 7.38141 1224.15 7.25592C1224.18 6.37181 1224.17 5.42531 1224.24 4.4845C1224.34 3.24084 1223.94 2.4577 1222.59 2.33866C1220.88 2.18708 1219.95 2.70967 1219.76 4.11551C1219.64 5.06131 1219.69 6.0316 1219.66 7.21578C1218.72 7.18919 1217.88 7.13639 1217.04 7.14822C1215.46 7.16808 1214.51 7.9937 1214.45 9.34834C1214.4 10.7385 1215.24 11.56 1216.87 11.6545C1217.67 11.6997 1218.47 11.7031 1219.51 11.7326C1219.49 12.6522 1219.45 13.4842 1219.44 14.3173C1219.44 15.9188 1220.49 17.2113 1221.76 17.1826C1222.97 17.1555 1223.87 16.0862 1223.95 14.5353C1223.99 13.6873 1224 12.835 1224.03 11.8057L1224.03 11.8056Z" fill="white"/>
<path d="M1286.02 18.8925C1286.18 20.2727 1286.23 21.4882 1286.49 22.6548C1286.73 23.7499 1287.58 24.4231 1288.7 24.206C1289.76 24.0036 1290.61 23.3462 1290.63 22.0714C1290.65 21.1129 1290.69 20.1516 1290.72 18.9513C1291.93 18.9854 1293.03 19.0523 1294.14 19.0383C1295.47 19.0212 1295.99 18.2609 1296 16.9725C1296 15.6615 1295.5 14.7916 1294.14 14.6562C1293.13 14.5565 1292.1 14.5857 1290.85 14.5501C1290.88 13.466 1290.88 12.4714 1290.94 11.4818C1291.01 10.3955 1290.62 9.63216 1289.51 9.41663C1288.32 9.18581 1287.19 9.3962 1286.8 10.7026C1286.46 11.8458 1286.37 13.0672 1286.16 14.3721C1285.52 14.3541 1284.83 14.3281 1284.14 14.315C1282.55 14.2893 1281.12 15.3113 1281.11 16.4704C1281.11 17.7394 1282.31 18.755 1283.91 18.8296C1284.61 18.8622 1285.31 18.869 1286.02 18.8891L1286.02 18.8925Z" fill="white"/>
<path d="M1170.66 4.37979C1169.8 1.96408 1168.95 -0.452933 1168.09 -2.86601C1167.19 -5.38148 1166.28 -7.89134 1165.39 -10.4098C1165.04 -11.4047 1164.72 -12.4145 1164.41 -13.4249C1163.83 -15.335 1164 -15.6805 1165.42 -16.8582C1168.36 -19.2921 1171.23 -21.7986 1174.14 -24.2626C1175.76 -25.6319 1177.4 -26.9701 1179.02 -28.3339C1179.17 -28.4606 1179.27 -28.6589 1179.27 -29.0568C1177.56 -28.4769 1175.85 -27.9142 1174.15 -27.3147C1171.59 -26.4142 1169.03 -25.4825 1166.48 -24.5716C1164.92 -24.0171 1163.32 -23.5591 1161.81 -22.9003C1160.27 -22.2345 1159.13 -22.6081 1158.13 -23.8238C1155.76 -26.708 1153.39 -29.606 1150.99 -32.4687C1149.4 -34.3696 1147.74 -36.2212 1145.86 -37.9636C1146.39 -36.4372 1146.91 -34.9117 1147.44 -33.3869C1148.85 -29.3745 1150.26 -25.3657 1151.68 -21.3603C1151.81 -20.9953 1152.1 -20.6794 1152.21 -20.3124C1152.77 -18.5373 1152.39 -17.6082 1150.81 -16.2725C1147.92 -13.8356 1145.08 -11.337 1142.2 -8.90012C1140.51 -7.47841 1138.77 -6.12383 1137.05 -4.74006C1137.1 -4.63611 1137.15 -4.53216 1137.2 -4.43048C1138.34 -4.80212 1139.49 -5.14027 1140.61 -5.54863C1144 -6.77869 1147.37 -8.04906 1150.77 -9.27458C1152.44 -9.8781 1154.12 -10.468 1155.82 -10.971C1157.23 -11.3902 1157.85 -10.1561 1158.57 -9.34545C1161.66 -5.84323 1164.7 -2.2991 1167.73 1.25123C1168.64 2.31501 1169.46 3.45339 1170.32 4.55644C1170.43 4.49668 1170.54 4.43465 1170.66 4.37489L1170.66 4.37979Z" fill="white"/>
<path d="M1144.78 18.7903C1145.62 18.3008 1146.4 17.905 1147.12 17.4269C1147.91 16.9021 1148.1 16.2 1147.66 15.2966C1147.2 14.3751 1146.5 13.9771 1145.56 14.3088C1144.71 14.6095 1143.91 15.0968 1142.92 15.5866C1142.56 14.9638 1142.15 14.3136 1141.8 13.6302C1141.34 12.7265 1140.73 12.3552 1139.74 12.8495C1138.5 13.471 1138.08 14.2301 1138.55 15.2838C1138.86 15.9928 1139.31 16.6419 1139.79 17.4761C1139.13 17.858 1138.53 18.1787 1137.95 18.5436C1136.87 19.2308 1136.56 20.2075 1137.1 21.1701C1137.65 22.1576 1138.59 22.366 1139.75 21.7387C1140.33 21.4292 1140.88 21.0888 1141.62 20.6649C1141.99 21.3127 1142.32 21.9057 1142.67 22.4843C1143.35 23.5959 1144.63 24.0411 1145.5 23.4799C1146.32 22.9459 1146.49 21.8223 1145.89 20.7133C1145.56 20.1076 1145.2 19.5141 1144.78 18.789L1144.78 18.7903Z" fill="white"/>
<path d="M1190.72 -2.73247C1191.42 -1.84552 1191.97 -1.02368 1192.65 -0.325769C1193.28 0.328694 1194.16 0.432559 1194.84 -0.193908C1195.49 -0.7867 1195.8 -1.60358 1195.27 -2.49749C1194.88 -3.16995 1194.49 -3.84995 1194 -4.69551C1194.85 -5.18633 1195.65 -5.61145 1196.4 -6.0921C1197.32 -6.67273 1197.36 -7.42036 1196.81 -8.31418C1196.25 -9.22259 1195.53 -9.61103 1194.53 -9.12542C1193.79 -8.76335 1193.1 -8.30642 1192.21 -7.79593C1191.77 -8.55966 1191.35 -9.24926 1190.97 -9.96021C1190.55 -10.742 1189.96 -11.1062 1189.1 -10.7817C1188.17 -10.4322 1187.49 -9.80764 1187.77 -8.73589C1188.02 -7.79843 1188.48 -6.91596 1188.89 -5.91962C1188.44 -5.66109 1187.95 -5.38479 1187.47 -5.09941C1186.35 -4.43879 1185.8 -3.12272 1186.29 -2.3172C1186.83 -1.43702 1188.09 -1.2447 1189.24 -1.87779C1189.73 -2.15216 1190.22 -2.44472 1190.72 -2.73344L1190.72 -2.73247Z" fill="white"/>
</svg>
