<svg width="1440" height="175" viewBox="0 0 1440 175" fill="none" xmlns="http://www.w3.org/2000/svg">
<path d="M-7.20081 110.554C-3.44043 109.229 -0.0644113 108.046 3.30962 106.851C8.20288 105.118 13.0865 103.344 17.9916 101.645C21.7274 100.35 25.495 99.1547 29.2421 97.8908C30.5703 97.4419 31.3036 96.4553 31.3529 95.0685C31.5716 88.7244 31.7903 82.3804 31.9372 76.0346C32.0707 70.3088 32.1065 64.5821 32.1978 58.8565C32.2077 58.1524 32.3022 57.4481 32.6465 56.6981C33.3244 58.5531 34.0329 60.3967 34.6736 62.264C35.7356 65.3663 36.7165 68.491 37.7907 71.5881C38.8952 74.7748 40.0861 77.9316 41.1996 81.1136C42.6241 85.1803 43.9935 89.2687 45.4244 93.3344C45.8749 94.6103 46.9682 94.904 48.1988 94.9323C52.8672 95.0429 57.5362 95.1989 62.2079 95.2895C67.356 95.39 72.5057 95.4381 77.653 95.5127C80.1472 95.5511 82.6408 95.5863 85.1346 95.6637C85.5006 95.6746 85.8602 95.9143 86.7029 96.2277C83.6645 97.2407 81.0857 98.0938 78.5088 98.9595C76.7386 99.5558 74.9684 100.152 73.2064 100.779C68.9523 102.295 64.7111 103.851 60.4482 105.352C56.9189 106.595 53.3557 107.745 49.8335 109.013C48.0852 109.645 48.2153 111.325 48.1726 112.734C47.9621 119.379 47.827 126.029 47.6751 132.675C47.5449 138.442 47.4306 144.207 47.3035 149.974C47.3033 149.994 47.2176 150.007 46.9568 150.107C46.1184 147.808 45.2515 145.515 44.4466 143.202C43.3697 140.108 42.3448 136.994 41.2834 133.894C39.9373 129.955 38.5855 126.02 37.2209 122.087C36.231 119.237 35.302 116.361 34.1711 113.566C33.587 112.122 32.1393 111.705 30.6647 111.676C23.1138 111.539 15.5598 111.445 8.01007 111.295C3.33149 111.202 -1.34851 111.038 -6.02869 110.894C-6.26739 110.886 -6.50496 110.76 -7.20181 110.547L-7.20081 110.554Z" fill="white"/>
<path d="M-21.5329 21.9233C-20.4902 24.8822 -19.4442 27.8406 -18.4078 30.8005C-17.3288 33.8871 -16.2683 36.9798 -15.1771 40.0612C-14.7456 41.2783 -14.2734 42.4858 -13.7895 43.6849C-12.8747 45.9516 -12.444 46.1475 -10.1854 46.1772C-5.5181 46.2392 -0.855157 46.419 3.81003 46.5301C6.40221 46.5921 8.99912 46.6014 11.593 46.6534C11.8344 46.6578 12.0741 46.7764 12.3864 47.1502C10.3135 47.911 8.24725 48.6935 6.16719 49.4294C3.0338 50.5417 -0.11509 51.6175 -3.25364 52.7177C-5.16508 53.3881 -7.03807 54.1793 -8.98678 54.7157C-10.9572 55.2588 -11.7589 56.4935 -11.7786 58.4221C-11.8228 62.9955 -11.8438 67.5717 -11.9302 72.1452C-11.9876 75.1823 -12.1395 78.2178 -12.5953 81.3271C-13.2672 79.4679 -13.9419 77.6125 -14.6048 75.7486C-16.3494 70.8442 -18.0902 65.9424 -19.813 61.0313C-19.9709 60.5844 -19.9447 60.0664 -20.1175 59.6284C-20.9507 57.5083 -22.0231 56.9121 -24.5589 56.8575C-29.1835 56.7562 -33.8071 56.5573 -38.4317 56.4561C-41.1307 56.3978 -43.8322 56.4472 -46.5344 56.4512C-46.5658 56.3131 -46.5972 56.1749 -46.6281 56.0399C-45.2591 55.5195 -43.9061 54.9594 -42.5232 54.4857C-38.3476 53.0506 -34.1545 51.6648 -29.9799 50.2233C-27.9249 49.5141 -25.8729 48.7859 -23.8659 47.9574C-22.192 47.2657 -22.5516 45.6145 -22.4923 44.2912C-22.2427 38.5798 -22.0745 32.8681 -21.9163 27.1548C-21.8691 25.4431 -21.9624 23.7274 -21.9902 22.0145C-21.8357 21.9837 -21.6806 21.9562 -21.5261 21.9255L-21.5329 21.9233Z" fill="white"/>
<path d="M35.0883 29.3036C36.5586 28.7446 38.0176 28.1549 39.4997 27.6299C42.6304 26.5212 45.7761 25.4459 48.912 24.3494C50.2319 23.8888 51.5241 23.3349 52.8664 22.9554C54.4021 22.5228 54.6757 21.322 54.7254 20.062C54.9032 15.3864 55.0191 10.7107 55.1282 6.03281C55.1604 4.61945 55.0948 3.20515 55.0715 1.79073C55.2429 1.76386 55.4143 1.73699 55.5884 1.70645C56.2697 3.58366 56.9723 5.45102 57.6255 7.33589C59.0374 11.4046 60.3384 15.5134 61.8977 19.5265C62.1822 20.2625 63.4359 21.0189 64.2869 21.0742C69.3003 21.3941 74.3256 21.5203 79.3479 21.6893C80.6492 21.7325 81.9512 21.6976 83.2523 21.6985C83.2715 21.8419 83.2908 21.9852 83.31 22.1286C82.0262 22.6323 80.7588 23.1789 79.457 23.6302C74.7396 25.2608 70.0042 26.839 65.2915 28.4787C63.3514 29.1535 63.6248 30.9386 63.5315 32.4396C63.3444 35.4579 63.2169 38.4832 63.1708 41.5087C63.1299 44.3187 63.2263 47.1333 63.2636 49.9441C63.1037 49.9821 62.9406 50.0207 62.7802 50.0556C62.159 48.3544 61.5352 46.6568 60.9235 44.9541C59.3982 40.7015 57.8047 36.4694 56.3939 32.1794C55.7929 30.3579 54.4189 30.183 52.9644 30.0955C49.71 29.8966 46.4504 29.7473 43.19 29.6761C40.8502 29.6266 38.5073 29.7434 36.163 29.7694C35.8223 29.774 35.4788 29.6782 35.1364 29.6311C35.1194 29.5232 35.1025 29.4152 35.0856 29.3073L35.0883 29.3036Z" fill="white"/>
<path d="M76.9778 120.897C76.8166 119.868 76.6524 119.029 76.5587 118.182C76.4055 116.81 77.269 115.471 78.3958 115.253C79.6015 115.018 80.6748 115.91 80.9801 117.443C81.1533 118.32 81.2636 119.21 81.4218 120.22C82.5361 120.045 83.4784 119.894 84.4185 119.75C85.8353 119.534 86.6088 120.236 86.9152 121.547C87.2526 122.994 86.4569 123.769 85.2026 124.109C84.2413 124.367 83.2316 124.441 82.1047 124.617C82.2704 125.674 82.4541 126.556 82.5348 127.445C82.635 128.561 82.5396 129.571 81.0882 129.815C79.4468 130.091 78.5347 129.688 78.1554 128.264C77.925 127.396 77.8604 126.486 77.6813 125.343C76.8273 125.477 76.0621 125.616 75.2936 125.714C73.5397 125.937 72.4988 125.294 72.3168 123.904C72.12 122.4 72.8025 121.587 74.5339 121.283C75.3219 121.143 76.118 121.035 76.9719 120.901L76.9778 120.897Z" fill="white"/>
<path d="M3.05218 13.2689C3.03701 11.8857 2.92928 10.6797 3.03635 9.49526C3.13848 8.38317 3.89239 7.61124 5.02272 7.6845C6.0966 7.75034 7.01743 8.29227 7.20446 9.54768C7.3459 10.4915 7.50054 11.4365 7.68564 12.6174C8.87289 12.4313 9.95626 12.2257 11.0489 12.0999C12.3684 11.9484 12.9767 12.6336 13.1435 13.9052C13.3106 15.1995 12.925 16.1219 11.6003 16.4271C10.6145 16.6532 9.59924 16.7538 8.36438 16.9474C8.53157 18.014 8.65944 18.9957 8.84395 19.9653C9.04973 21.0291 8.76569 21.8314 7.69569 22.1846C6.54514 22.5633 5.40946 22.4974 4.85725 21.257C4.37485 20.1714 4.13547 18.9763 3.75568 17.7153C3.13031 17.8133 2.45197 17.9262 1.77163 18.0263C0.203639 18.2526 -1.33461 17.4237 -1.48786 16.28C-1.65167 15.0275 -0.596655 13.8734 0.97975 13.597C1.66344 13.4768 2.35112 13.382 3.04951 13.2726L3.05218 13.2689Z" fill="white"/>
<path d="M58.4296 71.1859C56.4736 71.3851 53.7052 72.398 53.2824 69.5143C52.8643 66.6396 55.8859 67.2003 57.8663 66.6166C57.7279 65.7341 57.3943 64.8302 57.5065 63.9897C57.6238 63.1192 57.9673 62.0116 58.6024 61.5607C59.1466 61.173 60.2576 61.4964 61.0918 61.6519C61.3497 61.6993 61.6374 62.2071 61.7066 62.5443C61.9354 63.6305 62.0731 64.7375 62.2712 66.001C63.3918 65.8253 64.3299 65.6685 65.2679 65.5312C66.5946 65.3428 67.5622 65.9131 67.9575 67.1489C68.3519 68.3783 67.4513 69.6253 66.0584 69.9315C65.1214 70.1369 64.1616 70.2386 63.0156 70.4182C63.1739 71.4277 63.2635 72.3731 63.4791 73.2923C63.7821 74.5816 63.2332 75.4579 62.0776 75.7009C61.0072 75.9272 59.8474 75.6862 59.385 74.4382C59.0066 73.4144 58.763 72.337 58.4318 71.179L58.4296 71.1859Z" fill="white"/>
<path d="M473.45 -4.95568C476.714 -2.63352 479.638 -0.545155 482.572 1.53424C486.826 4.5505 491.108 7.53526 495.341 10.5809C498.565 12.9001 501.727 15.3028 504.933 17.6491C506.07 18.4803 507.304 18.5118 508.472 17.75C513.808 14.2596 519.145 10.7693 524.442 7.21887C529.222 4.01619 533.946 0.732704 538.701 -2.50461C539.285 -2.90374 539.918 -3.23358 540.733 -3.38468C539.602 -1.7549 538.498 -0.106406 537.335 1.50004C535.401 4.16688 533.402 6.78015 531.48 9.45402C529.502 12.2046 527.598 15.0089 525.629 17.7642C523.113 21.2867 520.548 24.7765 518.036 28.3037C517.249 29.4117 517.64 30.4796 518.329 31.5067C520.939 35.4047 523.511 39.3296 526.14 43.2189C529.035 47.5051 531.975 51.7624 534.891 56.033C536.303 58.1036 537.716 60.172 539.095 62.2649C539.298 62.5718 539.309 63.0057 539.539 63.8792C536.95 61.9698 534.757 60.3453 532.556 58.7298C531.042 57.6209 529.528 56.5119 527.993 55.4277C524.288 52.8108 520.556 50.2276 516.857 47.5947C513.795 45.4151 510.789 43.1542 507.71 40.9948C506.18 39.9244 504.875 41.0035 503.693 41.7833C498.114 45.4546 492.574 49.1906 487.028 52.9104C482.216 56.1399 477.415 59.3811 472.605 62.6129C472.589 62.6241 472.529 62.5615 472.296 62.4047C473.698 60.3867 475.081 58.3478 476.515 56.3486C478.433 53.6746 480.398 51.0311 482.329 48.3665C484.785 44.9823 487.235 41.5956 489.676 38.1997C491.444 35.7379 493.269 33.3113 494.91 30.7652C495.758 29.4504 495.263 28.0202 494.434 26.7923C490.178 20.5116 485.885 14.2531 481.641 7.96573C479.011 4.0696 476.438 0.131032 473.849 -3.79638C473.718 -3.99713 473.684 -4.26477 473.455 -4.96017L473.45 -4.95568Z" fill="white"/>
<path d="M564.645 -17.2269C565.954 -16.3427 567.283 -15.4856 568.571 -14.572C571.293 -12.6422 573.996 -10.6807 576.711 -8.73956C577.852 -7.92202 579.055 -7.1811 580.143 -6.29823C581.387 -5.28727 582.531 -5.75718 583.595 -6.44528C587.538 -9.00411 591.445 -11.6138 595.35 -14.2303C596.529 -15.0215 597.653 -15.8935 598.801 -16.7309C598.922 -16.6057 599.044 -16.4804 599.169 -16.3551C598.022 -14.7096 596.894 -13.0523 595.724 -11.4255C593.199 -7.9122 590.578 -4.4667 588.184 -0.864553C587.744 -0.205126 587.848 1.26212 588.295 1.99304C590.932 6.29563 593.736 10.4959 596.502 14.7184C597.22 15.8121 598.002 16.8612 598.753 17.9304C598.647 18.0291 598.54 18.1278 598.434 18.2265C597.277 17.4635 596.095 16.7389 594.971 15.9308C590.903 12.9997 586.868 10.0236 582.795 7.10156C581.118 5.89866 579.81 7.15576 578.523 7.94752C575.936 9.53994 573.378 11.1853 570.866 12.8977C568.535 14.4897 566.279 16.1971 563.992 17.8538C563.868 17.7445 563.742 17.6328 563.621 17.5213C564.659 16.0269 565.692 14.5325 566.737 13.0451C569.347 9.33237 571.901 5.57531 574.608 1.93488C575.756 0.387547 575.105 -0.842055 574.336 -2.08728C572.616 -4.87514 570.853 -7.6386 569.026 -10.3575C567.713 -12.3078 566.261 -14.1645 564.884 -16.0747C564.683 -16.3519 564.563 -16.6895 564.404 -16.9979C564.482 -17.0743 564.561 -17.1506 564.64 -17.2269L564.645 -17.2269Z" fill="white"/>
<path d="M513.653 70.163C514.404 69.4356 514.999 68.8152 515.64 68.2481C516.678 67.329 518.277 67.2637 519.109 68.0625C519.999 68.917 519.887 70.3146 518.805 71.4521C518.185 72.1017 517.517 72.7072 516.78 73.4211C517.568 74.2352 518.237 74.9218 518.899 75.6106C519.896 76.6495 519.767 77.6906 518.867 78.701C517.874 79.8148 516.777 79.6098 515.773 78.7762C515.005 78.136 514.36 77.3493 513.563 76.526C512.791 77.2736 512.173 77.9347 511.49 78.5148C510.631 79.2428 509.746 79.7489 508.707 78.6978C507.53 77.5099 507.333 76.5274 508.283 75.3923C508.863 74.7009 509.573 74.1212 510.408 73.313C509.804 72.6891 509.247 72.1413 508.722 71.5666C507.524 70.2551 507.451 69.028 508.487 68.0747C509.608 67.0428 510.671 67.1331 511.922 68.3794C512.492 68.9456 513.042 69.5367 513.646 70.1606L513.653 70.163Z" fill="white"/>
<path d="M442.33 18.0034C441.546 18.7622 440.884 19.3221 440.321 19.9659C439.356 21.0665 438.322 21.0382 437.275 20.1925C436.254 19.3701 436.187 17.8533 437.115 16.7886C437.711 16.1089 438.41 15.5176 439.192 14.761C438.561 14.1092 437.958 13.5196 437.393 12.8941C436.501 11.9117 436.421 10.2051 437.212 9.45779C438.046 8.66782 439.677 8.79704 440.625 9.73927C441.191 10.3055 441.738 10.8896 442.439 11.6133C443.116 10.9577 443.727 10.3079 444.401 9.72761C445.611 8.68123 447.048 8.77307 448.035 9.96933C449.003 11.1402 448.491 12.1066 447.523 12.9857C446.893 13.5553 446.301 14.1597 445.579 14.858C446.282 15.5839 446.911 16.2242 447.53 16.8734C448.547 17.9424 448.635 19.5417 447.731 20.3763C446.865 21.1794 445.349 21.0383 444.319 20.0491C443.971 19.7125 443.646 19.3533 443.309 19.0054C443.017 18.7039 442.728 18.4047 442.33 17.9942L442.33 18.0034Z" fill="white"/>
<path d="M543.75 26.172C542.455 24.6808 540.021 22.993 542.145 20.9776C544.264 18.9712 545.552 21.7772 547.177 23.066C547.822 22.4418 548.371 21.6449 549.126 21.2509C549.909 20.8436 551.017 20.4849 551.755 20.7458C552.388 20.9683 552.765 22.0679 553.12 22.843C553.231 23.0822 552.98 23.6123 552.743 23.8641C551.983 24.6805 551.154 25.434 550.231 26.3275C551.023 27.1462 551.695 27.826 552.35 28.517C553.272 29.4976 553.364 30.6222 552.577 31.6618C551.796 32.6969 550.251 32.6786 549.193 31.7118C548.483 31.061 547.844 30.3316 547.033 29.4943C546.296 30.2082 545.571 30.8288 544.941 31.5376C544.058 32.5323 543.02 32.5885 542.152 31.7799C541.347 31.0318 540.874 29.9398 541.632 28.8381C542.254 27.9351 542.997 27.1116 543.757 26.1698L543.75 26.172Z" fill="white"/>
<path d="M355.213 -69.1618C354.504 -65.22 353.862 -61.6842 353.232 -58.1439C352.317 -53.0098 351.443 -47.864 350.493 -42.7365C349.77 -38.831 348.944 -34.9469 348.188 -31.0468C347.921 -29.664 348.419 -28.5339 349.606 -27.8026C355.039 -24.4632 360.471 -21.1239 365.941 -17.8464C370.876 -14.8883 375.86 -12.0151 380.816 -9.09397C381.426 -8.73584 381.994 -8.30377 382.478 -7.63086C380.522 -7.95938 378.56 -8.25544 376.611 -8.62248C373.374 -9.23444 370.158 -9.92834 366.92 -10.5271C363.589 -11.1438 360.24 -11.6703 356.908 -12.2768C352.649 -13.0507 348.399 -13.8835 344.138 -14.6513C342.8 -14.8911 342 -14.0818 341.365 -13.021C338.952 -8.99835 336.498 -4.9977 334.101 -0.962154C331.458 3.4846 328.861 7.95866 326.241 12.4176C324.97 14.577 323.702 16.7376 322.396 18.8774C322.205 19.1916 321.817 19.3867 321.125 19.9673C321.748 16.8107 322.283 14.1349 322.806 11.4545C323.163 9.61246 323.521 7.77041 323.848 5.91996C324.635 1.45208 325.38 -3.02458 326.185 -7.4928C326.851 -11.1921 327.614 -14.8754 328.255 -18.5808C328.571 -20.4215 327.038 -21.1419 325.829 -21.8781C320.13 -25.3598 314.388 -28.7778 308.659 -32.2085C303.686 -35.1845 298.707 -38.1453 293.733 -41.1182C293.716 -41.1281 293.747 -41.2096 293.79 -41.4868C296.213 -41.0786 298.647 -40.6975 301.067 -40.2526C304.303 -39.658 307.532 -39.0076 310.766 -38.3967C314.874 -37.6176 318.982 -36.8456 323.094 -36.0856C326.075 -35.5359 329.048 -34.92 332.051 -34.5206C333.602 -34.3143 334.685 -35.3718 335.442 -36.6454C339.308 -43.1728 343.139 -49.7241 347.017 -56.2439C349.42 -60.2843 351.886 -64.2906 354.335 -68.3067C354.46 -68.5112 354.688 -68.6565 355.219 -69.1595L355.213 -69.1618Z" fill="white"/>
<path d="M405.194 8.09662C404.953 9.65825 404.744 11.2252 404.467 12.7804C403.882 16.0651 403.26 19.3463 402.661 22.6295C402.409 24.0109 402.251 25.4144 401.916 26.7752C401.532 28.3312 402.445 29.1661 403.521 29.8348C407.517 32.3104 411.543 34.732 415.575 37.1488C416.793 37.8783 418.061 38.5229 419.308 39.2044C419.247 39.3675 419.185 39.5305 419.125 39.6978C417.148 39.3613 415.168 39.0482 413.197 38.6833C408.943 37.8974 404.708 36.9947 400.429 36.3651C399.645 36.2484 398.363 36.968 397.892 37.6839C395.124 41.9041 392.52 46.2308 389.88 50.5336C389.197 51.6487 388.581 52.8033 387.935 53.9393C387.8 53.885 387.665 53.8306 387.531 53.7763C387.728 52.4049 387.879 51.0267 388.131 49.6657C389.048 44.7361 390.019 39.8168 390.926 34.8868C391.299 32.8574 389.605 32.2102 388.34 31.3839C385.796 29.7226 383.217 28.1099 380.597 26.5682C378.163 25.138 375.657 23.8254 373.184 22.4631C373.23 22.3046 373.277 22.143 373.326 21.9855C375.12 22.2872 376.913 22.5848 378.703 22.8955C383.175 23.6737 387.662 24.382 392.109 25.2787C393.998 25.6577 394.833 24.5445 395.631 23.3174C397.42 20.5736 399.168 17.8006 400.848 14.9882C402.053 12.9691 403.113 10.8646 404.254 8.80423C404.419 8.50427 404.673 8.25176 404.884 7.9761C404.987 8.01489 405.09 8.05367 405.192 8.09246L405.194 8.09662Z" fill="white"/>
<path d="M304.405 -0.769403C305.383 -0.399804 306.198 -0.126566 306.984 0.211965C308.258 0.758715 308.999 2.17728 308.631 3.27012C308.237 4.4396 306.925 4.93436 305.435 4.44036C304.583 4.15645 303.751 3.81101 302.791 3.44825C302.39 4.50815 302.054 5.40613 301.714 6.29881C301.199 7.6433 300.202 7.9707 298.905 7.58748C297.474 7.16427 297.192 6.08458 297.517 4.82048C297.769 3.85279 298.206 2.93427 298.611 1.86229C297.605 1.48243 296.744 1.2053 295.928 0.834959C294.903 0.36853 294.068 -0.216069 294.575 -1.60478C295.148 -3.1758 295.953 -3.77229 297.385 -3.39706C298.257 -3.1675 299.085 -2.7722 300.172 -2.36154C300.479 -3.17383 300.737 -3.91143 301.033 -4.63118C301.708 -6.27374 302.787 -6.86352 304.091 -6.33294C305.502 -5.75828 305.874 -4.75884 305.28 -3.09568C305.011 -2.33808 304.711 -1.58887 304.404 -0.776582L304.405 -0.769403Z" fill="white"/>
<path d="M357.029 7.69946C357.826 5.8921 358.315 2.97136 361.043 4.03318C363.762 5.0946 361.772 7.45558 361.299 9.47492C362.139 9.79205 363.094 9.94926 363.772 10.4643C364.475 10.9988 365.272 11.8485 365.35 12.6269C365.419 13.2947 364.585 14.1046 364.035 14.7561C363.866 14.9578 363.279 14.9571 362.951 14.8502C361.888 14.511 360.853 14.0819 359.651 13.6279C359.249 14.6938 358.92 15.5911 358.574 16.4784C358.081 17.7308 357.102 18.2929 355.827 18.0249C354.557 17.7593 353.915 16.3538 354.339 14.9853C354.624 14.0649 355.012 13.1761 355.424 12.086C354.463 11.7233 353.593 11.3324 352.683 11.0646C351.407 10.6894 350.914 9.77501 351.275 8.64512C351.608 7.5979 352.395 6.70442 353.714 6.91995C354.796 7.0975 355.858 7.41931 357.034 7.70476L357.029 7.69946Z" fill="white"/>
<path d="M203.891 16.1958C203.229 13.1145 202.563 10.0332 201.908 6.95173C201.226 3.73857 200.563 0.521637 199.868 -2.68793C199.594 -3.9557 199.277 -5.21905 198.947 -6.47558C198.325 -8.85081 197.92 -9.10094 195.674 -9.41837C191.031 -10.0748 186.407 -10.8481 181.773 -11.5533C179.198 -11.9454 176.611 -12.2855 174.033 -12.6678C173.793 -12.703 173.569 -12.8516 173.306 -13.264C175.468 -13.7579 177.627 -14.2744 179.793 -14.7426C183.057 -15.4518 186.332 -16.1226 189.6 -16.819C191.59 -17.2434 193.557 -17.7932 195.567 -18.0794C197.6 -18.3695 198.556 -19.4977 198.821 -21.4169C199.448 -25.9685 200.052 -30.5259 200.721 -35.0723C201.165 -38.0913 201.703 -41.0968 202.554 -44.1369C202.986 -42.1987 203.422 -40.2638 203.845 -38.3221C204.959 -33.2127 206.069 -28.1064 207.16 -22.9932C207.26 -22.5278 207.168 -22.0149 207.285 -21.5564C207.845 -19.3377 208.837 -18.6069 211.357 -18.2294C215.953 -17.5393 220.535 -16.7519 225.13 -16.0618C227.812 -15.6598 230.51 -15.3649 233.203 -15.0245C233.217 -14.8828 233.231 -14.7411 233.244 -14.6027C231.814 -14.2586 230.394 -13.8729 228.956 -13.5771C224.612 -12.6791 220.257 -11.8324 215.914 -10.9279C213.776 -10.4831 211.638 -10.0189 209.533 -9.4491C207.776 -8.97312 207.924 -7.28196 207.697 -5.9709C206.72 -0.311468 205.825 5.35859 204.939 11.0316C204.674 12.7312 204.549 14.4527 204.358 16.1632C204.2 16.1741 204.042 16.1818 203.884 16.1927L203.891 16.1958Z" fill="white"/>
<path d="M148.41 1.62689C146.874 1.99654 145.345 2.39829 143.801 2.73263C140.54 3.43852 137.268 4.10918 134.004 4.80225C132.63 5.09303 131.272 5.48025 129.886 5.68741C128.301 5.92282 127.875 7.08448 127.665 8.33369C126.892 12.9701 126.181 17.6146 125.476 22.262C125.264 23.6663 125.149 25.0839 124.992 26.4963C124.818 26.5013 124.643 26.5062 124.466 26.5144C124.026 24.5571 123.564 22.6068 123.153 20.6453C122.265 16.4111 121.492 12.151 120.45 7.95349C120.26 7.18384 119.107 6.27032 118.266 6.10684C113.311 5.14919 108.32 4.38311 103.337 3.5748C102.045 3.36594 100.744 3.23488 99.4472 3.06815C99.4463 2.92285 99.4454 2.77756 99.4445 2.63227C100.788 2.29391 102.121 1.91066 103.475 1.62688C108.384 0.603091 113.303 -0.366127 118.208 -1.39951C120.228 -1.82481 120.183 -3.63837 120.467 -5.12217C121.038 -8.10601 121.55 -11.1043 121.982 -14.1133C122.381 -16.9082 122.643 -19.725 122.964 -22.5307C123.128 -22.5482 123.296 -22.5659 123.46 -22.5802C123.862 -20.8058 124.268 -19.0348 124.66 -17.2601C125.638 -12.8282 126.687 -8.40805 127.546 -3.95343C127.913 -2.06179 129.26 -1.71242 130.698 -1.43991C133.916 -0.827035 137.145 -0.26293 140.384 0.223372C142.71 0.570878 145.059 0.753003 147.398 1.02584C147.739 1.06465 148.069 1.20384 148.404 1.29446C148.407 1.40416 148.41 1.51387 148.413 1.62358L148.41 1.62689Z" fill="white"/>
<path d="M240.284 14.6001C239.081 14.6342 238.014 14.7193 236.954 14.6815C235.79 14.6402 235.13 14.0324 235.015 12.7988C234.898 11.5395 235.371 10.6736 236.571 10.4136C237.663 10.176 238.806 10.1759 240.159 10.0504C240.134 9.16634 240.145 8.21983 240.07 7.27902C239.971 6.03536 240.371 5.25223 241.724 5.13319C243.428 4.98161 244.36 5.50419 244.549 6.91003C244.675 7.85584 244.622 8.82612 244.656 10.0103C245.595 9.98371 246.433 9.93092 247.269 9.94275C248.849 9.96261 249.799 10.7882 249.857 12.1429C249.916 13.533 249.07 14.3546 247.446 14.449C246.646 14.4943 245.842 14.4976 244.8 14.5272C244.826 15.4467 244.866 16.2788 244.87 17.1118C244.876 18.7133 243.821 20.0058 242.552 19.9772C241.343 19.95 240.444 18.8808 240.361 17.3299C240.318 16.4818 240.31 15.6295 240.281 14.6002L240.284 14.6001Z" fill="white"/>
<path d="M178.29 21.687C178.129 23.0672 178.082 24.2827 177.825 25.4493C177.581 26.5444 176.732 27.2176 175.615 27.0006C174.553 26.7981 173.704 26.1408 173.678 24.866C173.657 23.9075 173.624 22.9461 173.59 21.7458C172.383 21.78 171.277 21.8468 170.172 21.8329C168.838 21.8157 168.319 21.0554 168.315 19.7671C168.314 18.456 168.815 17.5861 170.174 17.4507C171.185 17.3511 172.21 17.3802 173.465 17.3446C173.434 16.2605 173.432 15.266 173.372 14.2763C173.302 13.19 173.687 12.4267 174.799 12.2112C175.993 11.9803 177.117 12.1907 177.509 13.4972C177.851 14.6403 177.937 15.8617 178.155 17.1666C178.791 17.1486 179.481 17.1226 180.172 17.1095C181.763 17.0839 183.19 18.1059 183.197 19.265C183.201 20.5339 182.003 21.5496 180.397 21.6241C179.7 21.6567 179.003 21.6636 178.293 21.6837L178.29 21.687Z" fill="white"/>
<path d="M1446.73 119.554C1442.97 118.229 1439.59 117.046 1436.22 115.851C1431.33 114.118 1426.44 112.344 1421.54 110.645C1417.8 109.35 1414.03 108.155 1410.29 106.891C1408.96 106.442 1408.23 105.455 1408.18 104.069C1407.96 97.7244 1407.74 91.3804 1407.59 85.0346C1407.46 79.3088 1407.42 73.5821 1407.33 67.8565C1407.32 67.1524 1407.23 66.4481 1406.88 65.6981C1406.2 67.5531 1405.5 69.3967 1404.86 71.264C1403.79 74.3663 1402.81 77.491 1401.74 80.5881C1400.63 83.7748 1399.44 86.9316 1398.33 90.1136C1396.9 94.1803 1395.54 98.2687 1394.1 102.334C1393.65 103.61 1392.56 103.904 1391.33 103.932C1386.66 104.043 1381.99 104.199 1377.32 104.29C1372.17 104.39 1367.02 104.438 1361.88 104.513C1359.38 104.551 1356.89 104.586 1354.39 104.664C1354.03 104.675 1353.67 104.914 1352.83 105.228C1355.86 106.241 1358.44 107.094 1361.02 107.96C1362.79 108.556 1364.56 109.152 1366.32 109.779C1370.58 111.295 1374.82 112.851 1379.08 114.352C1382.61 115.595 1386.17 116.745 1389.7 118.013C1391.44 118.645 1391.31 120.325 1391.36 121.734C1391.57 128.379 1391.7 135.029 1391.85 141.675C1391.98 147.442 1392.1 153.207 1392.23 158.974C1392.23 158.994 1392.31 159.007 1392.57 159.107C1393.41 156.808 1394.28 154.515 1395.08 152.202C1396.16 149.108 1397.18 145.994 1398.25 142.894C1399.59 138.955 1400.94 135.02 1402.31 131.087C1403.3 128.237 1404.23 125.361 1405.36 122.566C1405.94 121.122 1407.39 120.705 1408.86 120.676C1416.42 120.539 1423.97 120.445 1431.52 120.295C1436.2 120.202 1440.88 120.038 1445.56 119.894C1445.8 119.886 1446.03 119.76 1446.73 119.547L1446.73 119.554Z" fill="white"/>
<path d="M1461.06 30.9233C1460.02 33.8822 1458.97 36.8406 1457.94 39.8005C1456.86 42.8871 1455.8 45.9798 1454.71 49.0612C1454.27 50.2783 1453.8 51.4858 1453.32 52.6849C1452.4 54.9516 1451.97 55.1475 1449.71 55.1772C1445.05 55.2392 1440.38 55.419 1435.72 55.5301C1433.13 55.5921 1430.53 55.6014 1427.94 55.6534C1427.69 55.6578 1427.45 55.7764 1427.14 56.1502C1429.22 56.911 1431.28 57.6935 1433.36 58.4294C1436.5 59.5417 1439.64 60.6175 1442.78 61.7177C1444.69 62.3881 1446.57 63.1793 1448.52 63.7157C1450.49 64.2588 1451.29 65.4935 1451.31 67.4221C1451.35 71.9955 1451.37 76.5717 1451.46 81.1452C1451.52 84.1823 1451.67 87.2178 1452.12 90.3271C1452.8 88.4679 1453.47 86.6125 1454.13 84.7486C1455.88 79.8442 1457.62 74.9424 1459.34 70.0313C1459.5 69.5844 1459.47 69.0664 1459.65 68.6284C1460.48 66.5083 1461.55 65.9121 1464.09 65.8575C1468.71 65.7562 1473.34 65.5573 1477.96 65.4561C1480.66 65.3978 1483.36 65.4472 1486.06 65.4512C1486.09 65.3131 1486.13 65.1749 1486.16 65.0399C1484.79 64.5195 1483.44 63.9594 1482.05 63.4857C1477.88 62.0506 1473.68 60.6648 1469.51 59.2233C1467.45 58.5141 1465.4 57.7859 1463.39 56.9574C1461.72 56.2657 1462.08 54.6145 1462.02 53.2912C1461.77 47.5798 1461.6 41.8681 1461.45 36.1548C1461.4 34.4431 1461.49 32.7274 1461.52 31.0145C1461.36 30.9837 1461.21 30.9562 1461.06 30.9255L1461.06 30.9233Z" fill="white"/>
<path d="M1404.44 38.3036C1402.97 37.7446 1401.51 37.1549 1400.03 36.6299C1396.9 35.5212 1393.75 34.4459 1390.62 33.3494C1389.3 32.8888 1388 32.3349 1386.66 31.9554C1385.13 31.5228 1384.85 30.322 1384.8 29.062C1384.63 24.3864 1384.51 19.7107 1384.4 15.0328C1384.37 13.6194 1384.43 12.2051 1384.46 10.7907C1384.29 10.7639 1384.11 10.737 1383.94 10.7064C1383.26 12.5837 1382.56 14.451 1381.9 16.3359C1380.49 20.4046 1379.19 24.5134 1377.63 28.5265C1377.35 29.2625 1376.09 30.0189 1375.24 30.0742C1370.23 30.3941 1365.2 30.5203 1360.18 30.6893C1358.88 30.7325 1357.58 30.6976 1356.28 30.6985C1356.26 30.8419 1356.24 30.9852 1356.22 31.1286C1357.5 31.6323 1358.77 32.1789 1360.07 32.6302C1364.79 34.2608 1369.52 35.839 1374.24 37.4787C1376.18 38.1535 1375.9 39.9386 1376 41.4396C1376.18 44.4579 1376.31 47.4832 1376.36 50.5087C1376.4 53.3187 1376.3 56.1333 1376.27 58.9441C1376.43 58.9821 1376.59 59.0207 1376.75 59.0556C1377.37 57.3544 1377.99 55.6568 1378.61 53.9541C1380.13 49.7015 1381.72 45.4694 1383.14 41.1794C1383.74 39.3579 1385.11 39.183 1386.56 39.0955C1389.82 38.8966 1393.08 38.7473 1396.34 38.6761C1398.68 38.6266 1401.02 38.7434 1403.37 38.7694C1403.71 38.774 1404.05 38.6782 1404.39 38.6311C1404.41 38.5232 1404.43 38.4152 1404.44 38.3073L1404.44 38.3036Z" fill="white"/>
<path d="M1362.55 129.897C1362.71 128.868 1362.88 128.029 1362.97 127.182C1363.12 125.81 1362.26 124.471 1361.13 124.253C1359.93 124.018 1358.85 124.91 1358.55 126.443C1358.38 127.32 1358.27 128.21 1358.11 129.22C1356.99 129.045 1356.05 128.894 1355.11 128.75C1353.69 128.534 1352.92 129.236 1352.61 130.547C1352.28 131.994 1353.07 132.769 1354.33 133.109C1355.29 133.367 1356.3 133.441 1357.42 133.617C1357.26 134.674 1357.07 135.556 1356.99 136.445C1356.89 137.561 1356.99 138.571 1358.44 138.815C1360.08 139.091 1360.99 138.688 1361.37 137.264C1361.6 136.396 1361.67 135.486 1361.85 134.343C1362.7 134.477 1363.47 134.616 1364.24 134.714C1365.99 134.937 1367.03 134.294 1367.21 132.904C1367.41 131.4 1366.73 130.587 1365 130.283C1364.21 130.143 1363.41 130.035 1362.56 129.901L1362.55 129.897Z" fill="white"/>
<path d="M1436.48 22.2689C1436.49 20.8857 1436.6 19.6797 1436.49 18.4953C1436.39 17.3832 1435.64 16.6112 1434.51 16.6845C1433.43 16.7503 1432.51 17.2923 1432.32 18.5477C1432.18 19.4915 1432.03 20.4365 1431.84 21.6174C1430.66 21.4313 1429.57 21.2257 1428.48 21.0999C1427.16 20.9484 1426.55 21.6336 1426.39 22.9052C1426.22 24.1995 1426.6 25.1219 1427.93 25.4271C1428.91 25.6532 1429.93 25.7538 1431.16 25.9474C1431 27.014 1430.87 27.9957 1430.69 28.9653C1430.48 30.0291 1430.76 30.8314 1431.83 31.1846C1432.98 31.5633 1434.12 31.4974 1434.67 30.257C1435.15 29.1714 1435.39 27.9763 1435.77 26.7153C1436.4 26.8133 1437.08 26.9262 1437.76 27.0263C1439.33 27.2526 1440.86 26.4237 1441.02 25.28C1441.18 24.0275 1440.13 22.8734 1438.55 22.597C1437.87 22.4768 1437.18 22.382 1436.48 22.2726L1436.48 22.2689Z" fill="white"/>
<path d="M1445.88 158.041C1445.72 159.114 1445.64 159.974 1445.44 160.801C1445.1 162.217 1445.71 163.042 1447 163.41C1448.26 163.77 1449.53 162.954 1449.86 161.589C1450.07 160.714 1450.15 159.807 1450.32 158.737C1451.21 158.877 1452.04 159.029 1452.87 159.13C1454.18 159.293 1455.62 158.38 1455.77 157.308C1455.94 156.176 1454.9 154.923 1453.59 154.692C1452.8 154.556 1452.01 154.445 1451.02 154.29C1451.17 153.363 1451.35 152.493 1451.43 151.612C1451.59 150.027 1450.69 148.91 1449.15 148.793C1447.65 148.677 1447.15 149.647 1446.99 150.939C1446.89 151.778 1446.74 152.606 1446.58 153.594C1445.59 153.438 1444.71 153.293 1443.82 153.161C1442.37 152.947 1441.02 153.792 1440.86 155.006C1440.7 156.171 1441.68 157.324 1443.08 157.595C1443.55 157.685 1444.03 157.744 1444.51 157.819C1444.92 157.883 1445.33 157.948 1445.89 158.036L1445.88 158.041Z" fill="white"/>
<path d="M1381.1 80.1859C1383.06 80.3851 1385.82 81.398 1386.25 78.5143C1386.66 75.6396 1383.64 76.2003 1381.66 75.6166C1381.8 74.7341 1382.13 73.8302 1382.02 72.9897C1381.91 72.1192 1381.56 71.0116 1380.93 70.5607C1380.38 70.173 1379.27 70.4964 1378.44 70.6519C1378.18 70.6993 1377.89 71.2071 1377.82 71.5443C1377.59 72.6305 1377.46 73.7375 1377.26 75.001C1376.14 74.8253 1375.2 74.6685 1374.26 74.5312C1372.93 74.3428 1371.97 74.9131 1371.57 76.1489C1371.18 77.3783 1372.08 78.6253 1373.47 78.9315C1374.41 79.1369 1375.37 79.2386 1376.51 79.4182C1376.36 80.4277 1376.27 81.3731 1376.05 82.2923C1375.75 83.5816 1376.3 84.4579 1377.45 84.7009C1378.52 84.9272 1379.68 84.6862 1380.14 83.4382C1380.52 82.4144 1380.77 81.337 1381.1 80.179L1381.1 80.1859Z" fill="white"/>
<path d="M966.079 4.04432C962.815 6.36648 959.891 8.45485 956.957 10.5342C952.703 13.5505 948.421 16.5353 944.188 19.5809C940.964 21.9001 937.802 24.3028 934.596 26.6491C933.459 27.4803 932.225 27.5118 931.057 26.75C925.721 23.2596 920.384 19.7693 915.087 16.2189C910.307 13.0162 905.583 9.73271 900.828 6.49539C900.244 6.09626 899.611 5.76642 898.796 5.61532C899.927 7.2451 901.031 8.89359 902.194 10.5C904.128 13.1669 906.127 15.7801 908.049 18.454C910.027 21.2046 911.931 24.0089 913.9 26.7642C916.416 30.2867 918.981 33.7765 921.493 37.3037C922.28 38.4117 921.889 39.4796 921.2 40.5067C918.59 44.4047 916.018 48.3296 913.389 52.2189C910.494 56.5051 907.554 60.7624 904.638 65.033C903.226 67.1036 901.813 69.172 900.434 71.2649C900.231 71.5718 900.22 72.0057 899.99 72.8792C902.579 70.9698 904.772 69.3453 906.974 67.7298C908.487 66.6209 910.001 65.5119 911.536 64.4277C915.241 61.8108 918.973 59.2276 922.672 56.5947C925.734 54.4151 928.74 52.1542 931.819 49.9948C933.349 48.9244 934.654 50.0035 935.836 50.7833C941.415 54.4546 946.955 58.1906 952.501 61.9104C957.313 65.1399 962.114 68.3811 966.924 71.6129C966.94 71.6241 967 71.5615 967.233 71.4047C965.831 69.3867 964.448 67.3478 963.014 65.3486C961.096 62.6746 959.131 60.0311 957.2 57.3665C954.744 53.9823 952.294 50.5956 949.853 47.1997C948.085 44.7379 946.26 42.3113 944.619 39.7652C943.771 38.4504 944.266 37.0202 945.095 35.7923C949.351 29.5116 953.644 23.2531 957.888 16.9657C960.518 13.0696 963.091 9.13103 965.68 5.20362C965.811 5.00287 965.846 4.73524 966.074 4.03983L966.079 4.04432Z" fill="white"/>
<path d="M901.578 -58.9989C903.405 -56.4308 905.23 -53.8604 907.061 -51.2969C908.972 -48.6251 910.898 -45.965 912.798 -43.2862C913.548 -42.2277 914.266 -41.1414 914.971 -40.0503C916.304 -37.9877 916.215 -37.5206 914.933 -35.6484C912.284 -31.7794 909.734 -27.8457 907.127 -23.95C905.678 -21.7851 904.183 -19.647 902.726 -17.4866C902.59 -17.2857 902.548 -17.0203 902.675 -16.5475C904.499 -17.8099 906.337 -19.0542 908.144 -20.3369C910.87 -22.2668 913.576 -24.2306 916.295 -26.1718C917.951 -27.3538 919.685 -28.4344 921.252 -29.7245C922.838 -31.0287 924.316 -30.9728 925.911 -29.8733C929.693 -27.264 933.464 -24.6338 937.27 -22.0591C939.797 -20.3492 942.378 -18.7179 945.196 -17.2936C944.057 -18.921 942.924 -20.5485 941.777 -22.1712C938.758 -26.4411 935.739 -30.7065 932.702 -34.9625C932.427 -35.3507 931.986 -35.6289 931.726 -36.0242C930.467 -37.9349 930.598 -39.1606 932.02 -41.2748C934.612 -45.1315 937.123 -49.044 939.716 -52.9007C941.229 -55.151 942.832 -57.3412 944.399 -59.5581C944.304 -59.6639 944.208 -59.7696 944.115 -59.8731C942.896 -59.0498 941.653 -58.2625 940.464 -57.4008C936.87 -54.8016 933.306 -52.1596 929.707 -49.5649C927.936 -48.2874 926.151 -47.0234 924.309 -45.8543C922.773 -44.8797 921.625 -46.1303 920.504 -46.8471C915.669 -49.9461 910.88 -53.1122 906.096 -56.2874C904.663 -57.2388 903.308 -58.308 901.918 -59.3218C901.803 -59.2126 901.691 -59.1012 901.576 -58.992L901.578 -58.9989Z" fill="white"/>
<path d="M874.884 -8.22686C873.575 -7.34267 872.246 -6.48557 870.958 -5.57205C868.236 -3.6422 865.533 -1.6807 862.818 0.26044C861.677 1.07798 860.474 1.8189 859.386 2.70177C858.142 3.71273 856.998 3.24282 855.934 2.55472C851.991 -0.00411334 848.084 -2.61375 844.179 -5.23027C843 -6.02149 841.876 -6.89352 840.728 -7.7309C840.607 -7.60566 840.486 -7.48041 840.36 -7.3551C841.507 -5.70959 842.635 -4.05235 843.805 -2.42547C846.33 1.0878 848.951 4.5333 851.345 8.13545C851.785 8.79487 851.681 10.2621 851.234 10.993C848.597 15.2956 845.793 19.4959 843.027 23.7184C842.309 24.8121 841.528 25.8612 840.776 26.9304C840.882 27.0291 840.989 27.1278 841.095 27.2265C842.252 26.4635 843.434 25.7389 844.558 24.9308C848.626 21.9997 852.661 19.0236 856.734 16.1016C858.411 14.8987 859.719 16.1558 861.006 16.9475C863.593 18.5399 866.151 20.1853 868.663 21.8977C870.994 23.4897 873.25 25.1971 875.537 26.8538C875.661 26.7444 875.787 26.6328 875.908 26.5213C874.87 25.0269 873.837 23.5325 872.792 22.0451C870.182 18.3324 867.628 14.5753 864.921 10.9349C863.773 9.38755 864.424 8.15794 865.193 6.91272C866.913 4.12486 868.676 1.3614 870.503 -1.35746C871.816 -3.30777 873.268 -5.16446 874.645 -7.07473C874.846 -7.35193 874.966 -7.68945 875.126 -7.99794C875.047 -8.07427 874.968 -8.15061 874.889 -8.22694L874.884 -8.22686Z" fill="white"/>
<path d="M925.876 79.163C925.125 78.4356 924.53 77.8152 923.889 77.2481C922.851 76.329 921.252 76.2637 920.42 77.0625C919.53 77.917 919.642 79.3146 920.724 80.4521C921.344 81.1017 922.012 81.7072 922.749 82.4211C921.961 83.2352 921.292 83.9218 920.63 84.6106C919.633 85.6495 919.762 86.6906 920.662 87.701C921.655 88.8148 922.752 88.6098 923.756 87.7762C924.524 87.136 925.169 86.3493 925.966 85.526C926.738 86.2736 927.356 86.9347 928.039 87.5148C928.898 88.2428 929.783 88.7489 930.823 87.6978C931.999 86.5099 932.196 85.5274 931.246 84.3923C930.666 83.7009 929.956 83.1212 929.121 82.313C929.725 81.6891 930.282 81.1413 930.807 80.5666C932.005 79.2551 932.078 78.028 931.042 77.0747C929.921 76.0428 928.858 76.1331 927.607 77.3794C927.037 77.9456 926.487 78.5367 925.883 79.1606L925.876 79.163Z" fill="white"/>
<path d="M997.199 27.0034C997.983 27.7622 998.645 28.3221 999.208 28.9659C1000.17 30.0665 1001.21 30.0382 1002.25 29.1925C1003.28 28.3701 1003.34 26.8533 1002.41 25.7886C1001.82 25.1089 1001.12 24.5176 1000.34 23.761C1000.97 23.1092 1001.57 22.5196 1002.14 21.8941C1003.03 20.9117 1003.11 19.2051 1002.32 18.4578C1001.48 17.6678 999.853 17.797 998.904 18.7393C998.338 19.3055 997.791 19.8896 997.09 20.6133C996.413 19.9577 995.802 19.3079 995.129 18.7276C993.918 17.6812 992.481 17.7731 991.494 18.9693C990.527 20.1402 991.038 21.1066 992.006 21.9857C992.636 22.5553 993.228 23.1597 993.95 23.858C993.247 24.5839 992.618 25.2242 991.999 25.8734C990.982 26.9424 990.894 28.5417 991.798 29.3763C992.664 30.1794 994.18 30.0383 995.21 29.0491C995.558 28.7125 995.883 28.3533 996.22 28.0054C996.512 27.7039 996.801 27.4047 997.199 26.9942L997.199 27.0034Z" fill="white"/>
<path d="M895.779 35.172C897.074 33.6808 899.508 31.993 897.384 29.9776C895.265 27.9712 893.977 30.7772 892.352 32.066C891.707 31.4418 891.158 30.6449 890.403 30.2509C889.62 29.8436 888.512 29.4849 887.774 29.7458C887.141 29.9683 886.764 31.0679 886.409 31.843C886.299 32.0822 886.549 32.6123 886.786 32.8641C887.546 33.6805 888.375 34.434 889.298 35.3275C888.506 36.1462 887.834 36.826 887.179 37.517C886.257 38.4976 886.165 39.6222 886.952 40.6618C887.733 41.6969 889.278 41.6786 890.336 40.7118C891.046 40.061 891.685 39.3316 892.496 38.4943C893.233 39.2082 893.958 39.8288 894.588 40.5376C895.472 41.5323 896.509 41.5885 897.377 40.7799C898.182 40.0318 898.655 38.9398 897.897 37.8381C897.276 36.9351 896.532 36.1116 895.772 35.1698L895.779 35.172Z" fill="white"/>
<path d="M1084.32 -60.1618C1085.03 -56.22 1085.67 -52.6842 1086.3 -49.1439C1087.21 -44.0098 1088.09 -38.864 1089.04 -33.7365C1089.76 -29.831 1090.59 -25.9469 1091.34 -22.0468C1091.61 -20.664 1091.11 -19.5339 1089.92 -18.8026C1084.49 -15.4632 1079.06 -12.1239 1073.59 -8.84636C1068.65 -5.88828 1063.67 -3.01508 1058.71 -0.0939733C1058.1 0.264153 1057.53 0.69623 1057.05 1.36914C1059.01 1.04061 1060.97 0.744564 1062.92 0.377521C1066.15 -0.23444 1069.37 -0.928338 1072.61 -1.52708C1075.94 -2.1438 1079.29 -2.67027 1082.62 -3.2768C1086.88 -4.05067 1091.13 -4.88346 1095.39 -5.6513C1096.73 -5.89105 1097.53 -5.08185 1098.16 -4.02101C1100.58 0.00165232 1103.03 4.0023 1105.43 8.03785C1108.07 12.4846 1110.67 16.9587 1113.29 21.4176C1114.56 23.577 1115.83 25.7376 1117.13 27.8774C1117.32 28.1916 1117.71 28.3867 1118.4 28.9673C1117.78 25.8107 1117.25 23.1349 1116.72 20.4545C1116.37 18.6125 1116.01 16.7704 1115.68 14.92C1114.89 10.4521 1114.15 5.97542 1113.34 1.5072C1112.68 -2.19214 1111.91 -5.87538 1111.27 -9.58083C1110.96 -11.4215 1112.49 -12.1419 1113.7 -12.8781C1119.4 -16.3598 1125.14 -19.7778 1130.87 -23.2085C1135.84 -26.1845 1140.82 -29.1453 1145.8 -32.1182C1145.81 -32.1281 1145.78 -32.2096 1145.74 -32.4868C1143.32 -32.0786 1140.88 -31.6975 1138.46 -31.2526C1135.23 -30.658 1132 -30.0076 1128.76 -29.3967C1124.65 -28.6176 1120.55 -27.8456 1116.43 -27.0856C1113.45 -26.5359 1110.48 -25.92 1107.48 -25.5206C1105.93 -25.3143 1104.84 -26.3718 1104.09 -27.6454C1100.22 -34.1728 1096.39 -40.7241 1092.51 -47.2439C1090.11 -51.2843 1087.64 -55.2906 1085.19 -59.3067C1085.07 -59.5112 1084.84 -59.6565 1084.31 -60.1595L1084.32 -60.1618Z" fill="white"/>
<path d="M1034.33 17.0966C1034.58 18.6582 1034.79 20.2252 1035.06 21.7804C1035.65 25.0651 1036.27 28.3463 1036.87 31.6295C1037.12 33.0109 1037.28 34.4144 1037.61 35.7752C1038 37.3312 1037.08 38.1661 1036.01 38.8348C1032.01 41.3104 1027.99 43.732 1023.95 46.1488C1022.74 46.8783 1021.47 47.5229 1020.22 48.2044C1020.28 48.3675 1020.34 48.5305 1020.4 48.6978C1022.38 48.3613 1024.36 48.0482 1026.33 47.6833C1030.59 46.8974 1034.82 45.9947 1039.1 45.3651C1039.88 45.2484 1041.17 45.968 1041.64 46.6839C1044.4 50.9041 1047.01 55.2308 1049.65 59.5336C1050.33 60.6487 1050.95 61.8033 1051.59 62.9393C1051.73 62.885 1051.86 62.8306 1052 62.7763C1051.8 61.4049 1051.65 60.0267 1051.4 58.6657C1050.48 53.7361 1049.51 48.8168 1048.6 43.8868C1048.23 41.8574 1049.92 41.2102 1051.19 40.3839C1053.73 38.7226 1056.31 37.1099 1058.93 35.5682C1061.37 34.138 1063.87 32.8254 1066.35 31.4631C1066.3 31.3046 1066.25 31.143 1066.2 30.9855C1064.41 31.2872 1062.62 31.5848 1060.83 31.8955C1056.35 32.6737 1051.87 33.382 1047.42 34.2787C1045.53 34.6577 1044.7 33.5445 1043.9 32.3174C1042.11 29.5736 1040.36 26.8006 1038.68 23.9882C1037.48 21.9691 1036.42 19.8646 1035.28 17.8042C1035.11 17.5043 1034.86 17.2518 1034.64 16.9761C1034.54 17.0149 1034.44 17.0537 1034.34 17.0925L1034.33 17.0966Z" fill="white"/>
<path d="M1135.12 8.2306C1134.15 8.6002 1133.33 8.87343 1132.54 9.21196C1131.27 9.75871 1130.53 11.1773 1130.9 12.2701C1131.29 13.4396 1132.6 13.9344 1134.09 13.4404C1134.95 13.1565 1135.78 12.811 1136.74 12.4483C1137.14 13.5082 1137.47 14.4061 1137.82 15.2988C1138.33 16.6433 1139.33 16.9707 1140.62 16.5875C1142.06 16.1643 1142.34 15.0846 1142.01 13.8205C1141.76 12.8528 1141.32 11.9343 1140.92 10.8623C1141.92 10.4824 1142.79 10.2053 1143.6 9.83496C1144.63 9.36853 1145.46 8.78393 1144.95 7.39522C1144.38 5.8242 1143.58 5.22771 1142.14 5.60294C1141.27 5.8325 1140.44 6.2278 1139.36 6.63846C1139.05 5.82617 1138.79 5.08857 1138.5 4.36882C1137.82 2.72626 1136.74 2.13648 1135.44 2.66706C1134.03 3.24172 1133.66 4.24116 1134.25 5.90432C1134.52 6.66192 1134.82 7.41113 1135.13 8.22342L1135.12 8.2306Z" fill="white"/>
<path d="M1004.43 -2.92763C1003.22 -2.25446 1002.11 -1.75005 1001.13 -1.06875C1000.21 -0.427655 999.907 0.613921 1000.53 1.56485C1001.12 2.47014 1002.05 3.0055 1003.24 2.54585C1004.14 2.20101 1005.04 1.86711 1006.16 1.44275C1006.59 2.57211 1006.95 3.62039 1007.38 4.63715C1007.9 5.86487 1008.8 6.05613 1009.99 5.57078C1011.21 5.07442 1011.82 4.27992 1011.43 2.9714C1011.14 1.99813 1010.72 1.06144 1010.28 -0.113211C1011.29 -0.496498 1012.22 -0.872003 1013.15 -1.19201C1014.19 -1.5402 1014.75 -2.18647 1014.52 -3.2963C1014.28 -4.4892 1013.66 -5.44844 1012.3 -5.31518C1011.12 -5.19783 1009.95 -4.8138 1008.66 -4.51976C1008.44 -5.11464 1008.2 -5.76312 1007.95 -6.40705C1007.37 -7.8889 1005.88 -8.8211 1004.81 -8.38742C1003.63 -7.90891 1003.15 -6.41467 1003.69 -4.90061C1003.92 -4.2438 1004.18 -3.59611 1004.43 -2.93179L1004.43 -2.92763Z" fill="white"/>
<path d="M1082.5 16.6995C1081.7 14.8921 1081.21 11.9714 1078.49 13.0332C1075.77 14.0946 1077.76 16.4556 1078.23 18.4749C1077.39 18.792 1076.44 18.9493 1075.76 19.4643C1075.05 19.9988 1074.26 20.8485 1074.18 21.6269C1074.11 22.2947 1074.94 23.1046 1075.49 23.7561C1075.66 23.9578 1076.25 23.9571 1076.58 23.8502C1077.64 23.511 1078.68 23.0819 1079.88 22.6279C1080.28 23.6938 1080.61 24.5911 1080.95 25.4784C1081.45 26.7308 1082.43 27.2929 1083.7 27.0249C1084.97 26.7593 1085.61 25.3538 1085.19 23.9853C1084.9 23.0649 1084.52 22.1761 1084.11 21.086C1085.07 20.7233 1085.94 20.3324 1086.85 20.0646C1088.12 19.6894 1088.62 18.775 1088.25 17.6451C1087.92 16.5979 1087.13 15.7044 1085.81 15.9199C1084.73 16.0975 1083.67 16.4193 1082.5 16.7048L1082.5 16.6995Z" fill="white"/>
<path d="M1235.64 25.1958C1236.3 22.1145 1236.97 19.0332 1237.62 15.9517C1238.3 12.7386 1238.97 9.52164 1239.66 6.31207C1239.94 5.0443 1240.25 3.78095 1240.58 2.52442C1241.2 0.149187 1241.61 -0.100942 1243.86 -0.418374C1248.5 -1.07485 1253.12 -1.84812 1257.76 -2.55326C1260.33 -2.94536 1262.92 -3.28547 1265.5 -3.66779C1265.74 -3.70298 1265.96 -3.85165 1266.22 -4.26399C1264.06 -4.75793 1261.9 -5.27437 1259.74 -5.7426C1256.47 -6.4518 1253.2 -7.12256 1249.93 -7.81895C1247.94 -8.24343 1245.97 -8.79321 1243.96 -9.0794C1241.93 -9.36946 1240.97 -10.4977 1240.71 -12.4169C1240.08 -16.9685 1239.48 -21.5259 1238.81 -26.0723C1238.36 -29.0913 1237.83 -32.0968 1236.98 -35.1369C1236.54 -33.1987 1236.11 -31.2638 1235.68 -29.3221C1234.57 -24.2127 1233.46 -19.1064 1232.37 -13.9932C1232.27 -13.5278 1232.36 -13.0149 1232.24 -12.5564C1231.68 -10.3377 1230.69 -9.60691 1228.17 -9.22939C1223.58 -8.53928 1218.99 -7.75192 1214.4 -7.0618C1211.72 -6.65982 1209.02 -6.36485 1206.33 -6.02453C1206.31 -5.88283 1206.3 -5.74114 1206.28 -5.60266C1207.72 -5.25861 1209.13 -4.87289 1210.57 -4.57706C1214.92 -3.67905 1219.27 -2.8324 1223.62 -1.92794C1225.75 -1.48312 1227.89 -1.01894 1230 -0.449101C1231.75 0.0268828 1231.6 1.71804 1231.83 3.02909C1232.81 8.68853 1233.7 14.3586 1234.59 20.0316C1234.85 21.7312 1234.98 23.4527 1235.17 25.1632C1235.33 25.1741 1235.49 25.1818 1235.64 25.1927L1235.64 25.1958Z" fill="white"/>
<path d="M1291.12 10.6269C1292.66 10.9965 1294.18 11.3983 1295.73 11.7326C1298.99 12.4385 1302.26 13.1092 1305.53 13.8022C1306.9 14.093 1308.26 14.4802 1309.64 14.6874C1311.23 14.9228 1311.65 16.0845 1311.86 17.3337C1312.64 21.9701 1313.35 26.6146 1314.05 31.262C1314.27 32.6663 1314.38 34.0839 1314.54 35.4963C1314.71 35.5013 1314.89 35.5062 1315.06 35.5144C1315.5 33.5571 1315.96 31.6068 1316.38 29.6453C1317.26 25.4111 1318.04 21.151 1319.08 16.9535C1319.27 16.1838 1320.42 15.2703 1321.26 15.1068C1326.22 14.1492 1331.21 13.3831 1336.19 12.5748C1337.48 12.3659 1338.79 12.2349 1340.08 12.0681C1340.08 11.9229 1340.08 11.7776 1340.08 11.6323C1338.74 11.2939 1337.41 10.9107 1336.05 10.6269C1331.15 9.60309 1326.23 8.63387 1321.32 7.60049C1319.3 7.17519 1319.35 5.36163 1319.06 3.87783C1318.49 0.893989 1317.98 -2.10434 1317.55 -5.11329C1317.15 -7.90819 1316.89 -10.725 1316.56 -13.5307C1316.4 -13.5482 1316.23 -13.5659 1316.07 -13.5802C1315.67 -11.8058 1315.26 -10.0348 1314.87 -8.26013C1313.89 -3.82824 1312.84 0.591949 1311.98 5.04657C1311.62 6.93821 1310.27 7.28758 1308.83 7.56009C1305.61 8.17296 1302.38 8.73707 1299.14 9.22337C1296.82 9.57088 1294.47 9.753 1292.13 10.0258C1291.79 10.0646 1291.46 10.2038 1291.13 10.2945C1291.12 10.4042 1291.12 10.5139 1291.12 10.6236L1291.12 10.6269Z" fill="white"/>
<path d="M1199.24 23.6001C1200.45 23.6342 1201.51 23.7193 1202.58 23.6815C1203.74 23.6402 1204.4 23.0324 1204.51 21.7988C1204.63 20.5395 1204.16 19.6736 1202.96 19.4136C1201.87 19.176 1200.72 19.1759 1199.37 19.0504C1199.4 18.1663 1199.38 17.2198 1199.46 16.279C1199.56 15.0354 1199.16 14.2522 1197.8 14.1332C1196.1 13.9816 1195.17 14.5042 1194.98 15.91C1194.85 16.8558 1194.91 17.8261 1194.87 19.0103C1193.93 18.9837 1193.1 18.9309 1192.26 18.9427C1190.68 18.9626 1189.73 19.7882 1189.67 21.1429C1189.61 22.533 1190.46 23.3546 1192.08 23.449C1192.88 23.4943 1193.69 23.4976 1194.73 23.5272C1194.7 24.4467 1194.66 25.2788 1194.66 26.1118C1194.65 27.7133 1195.71 29.0058 1196.98 28.9772C1198.19 28.95 1199.08 27.8808 1199.17 26.3299C1199.21 25.4818 1199.22 24.6295 1199.25 23.6002L1199.24 23.6001Z" fill="white"/>
<path d="M1261.24 30.687C1261.4 32.0672 1261.45 33.2827 1261.7 34.4493C1261.95 35.5444 1262.8 36.2176 1263.91 36.0006C1264.98 35.7981 1265.82 35.1408 1265.85 33.866C1265.87 32.9075 1265.91 31.9461 1265.94 30.7458C1267.15 30.78 1268.25 30.8468 1269.36 30.8329C1270.69 30.8157 1271.21 30.0554 1271.21 28.7671C1271.22 27.456 1270.71 26.5861 1269.35 26.4507C1268.34 26.3511 1267.32 26.3802 1266.06 26.3446C1266.09 25.2605 1266.1 24.266 1266.16 23.2763C1266.23 22.19 1265.84 21.4267 1264.73 21.2112C1263.54 20.9803 1262.41 21.1907 1262.02 22.4972C1261.68 23.6403 1261.59 24.8617 1261.37 26.1666C1260.74 26.1486 1260.05 26.1226 1259.36 26.1095C1257.77 26.0839 1256.34 27.1059 1256.33 28.265C1256.33 29.5339 1257.53 30.5496 1259.13 30.6241C1259.83 30.6567 1260.53 30.6636 1261.24 30.6837L1261.24 30.687Z" fill="white"/>
</svg>
